<svg width="18" height="18" viewBox="0 0 18 18" fill="none" xmlns="http://www.w3.org/2000/svg">
<path d="M6.60493 0.365499C6.89108 0.286287 7.19347 0.419334 7.3284 0.68382C7.63928 1.29318 8.2717 1.70826 8.99996 1.70826C9.72822 1.70826 10.3606 1.29318 10.6715 0.68382C10.8064 0.419334 11.1088 0.286287 11.395 0.365499C12.7987 0.754065 14.0632 1.47526 15.0986 2.43804C15.3008 2.62606 15.3557 2.92449 15.2336 3.17214C15.1109 3.42105 15.0416 3.70151 15.0416 3.99992C15.0416 5.03545 15.8811 5.87492 16.9166 5.87492L16.9428 5.87474C17.2191 5.87079 17.4652 6.04875 17.548 6.31238C17.8147 7.16157 17.9583 8.06457 17.9583 8.99992C17.9583 9.61727 17.8957 10.2207 17.7764 10.8039C17.7123 11.1175 17.4216 11.332 17.103 11.3007C17.0419 11.2947 16.9798 11.2916 16.9166 11.2916C15.8811 11.2916 15.0416 12.1311 15.0416 13.1666C15.0416 13.6275 15.2071 14.0482 15.4827 14.3748C15.6891 14.6194 15.6773 14.9805 15.4553 15.2112C14.398 16.3098 13.0621 17.1397 11.5601 17.5869C11.2339 17.684 10.89 17.5024 10.7864 17.1782C10.5445 16.4216 9.83526 15.8749 8.99996 15.8749C8.16466 15.8749 7.45541 16.4216 7.21353 17.1782C7.10991 17.5024 6.76602 17.684 6.43987 17.5869C4.93783 17.1397 3.60187 16.3098 2.54457 15.2112C2.32259 14.9805 2.31078 14.6194 2.51722 14.3748C2.79278 14.0482 2.95829 13.6275 2.95829 13.1666C2.95829 12.1311 2.11883 11.2916 1.08329 11.2916C1.02015 11.2916 0.957983 11.2947 0.896907 11.3007C0.578339 11.332 0.287615 11.1175 0.223467 10.8039C0.104167 10.2207 0.041626 9.61727 0.041626 8.99992C0.041626 8.06458 0.185187 7.16157 0.451929 6.31238C0.534737 6.04875 0.780831 5.87079 1.05713 5.87474L1.08329 5.87492C2.11883 5.87492 2.95829 5.03545 2.95829 3.99992C2.95829 3.70151 2.88903 3.42105 2.76631 3.17214C2.64421 2.92449 2.69908 2.62606 2.90128 2.43804C3.93672 1.47526 5.20124 0.754065 6.60493 0.365499ZM4.06893 3.07485C4.15956 3.36762 4.20829 3.67845 4.20829 3.99992C4.20829 5.57446 3.0438 6.87703 1.52906 7.09337C1.37411 7.70257 1.29163 8.34122 1.29163 8.99992C1.29163 9.35774 1.31596 9.70958 1.36301 10.0539C2.95786 10.1954 4.20829 11.535 4.20829 13.1666C4.20829 13.7224 4.06279 14.245 3.80805 14.6976C4.522 15.3486 5.35831 15.8669 6.27798 16.2141C6.81418 15.2657 7.83166 14.6249 8.99996 14.6249C10.1683 14.6249 11.1857 15.2657 11.7219 16.2141C12.6416 15.8669 13.4779 15.3486 14.1919 14.6976C13.9371 14.245 13.7916 13.7224 13.7916 13.1666C13.7916 11.535 15.0421 10.1954 16.6369 10.0539C16.684 9.70958 16.7083 9.35774 16.7083 8.99992C16.7083 8.34123 16.6258 7.70258 16.4708 7.09337C14.9561 6.87703 13.7916 5.57446 13.7916 3.99992C13.7916 3.67846 13.8404 3.36762 13.931 3.07485C13.2181 2.48084 12.3968 2.01337 11.5015 1.70638C10.932 2.46573 10.0239 2.95826 8.99996 2.95826C7.97607 2.95826 7.06795 2.46573 6.49845 1.70638C5.60314 2.01337 4.78182 2.48084 4.06893 3.07485Z" fill="current"/>
<path d="M5.45829 8.99992C5.45829 7.04391 7.04395 5.45826 8.99996 5.45826C10.956 5.45826 12.5416 7.04391 12.5416 8.99992C12.5416 10.9559 10.956 12.5416 8.99996 12.5416C7.04395 12.5416 5.45829 10.9559 5.45829 8.99992ZM8.99996 6.70826C7.7343 6.70826 6.70829 7.73427 6.70829 8.99992C6.70829 10.2656 7.7343 11.2916 8.99996 11.2916C10.2656 11.2916 11.2916 10.2656 11.2916 8.99992C11.2916 7.73427 10.2656 6.70826 8.99996 6.70826Z" fill="current"/>
</svg>
