<svg width="17" height="20" viewBox="0 0 17 20" fill="none" xmlns="http://www.w3.org/2000/svg">
<path d="M14.8333 17.4997H5.66663V5.83301H14.8333M14.8333 4.16634H5.66663C5.2246 4.16634 4.80067 4.34194 4.48811 4.6545C4.17555 4.96706 3.99996 5.39098 3.99996 5.83301V17.4997C3.99996 17.9417 4.17555 18.3656 4.48811 18.6782C4.80067 18.9907 5.2246 19.1663 5.66663 19.1663H14.8333C15.2753 19.1663 15.6992 18.9907 16.0118 18.6782C16.3244 18.3656 16.5 17.9417 16.5 17.4997V5.83301C16.5 5.39098 16.3244 4.96706 16.0118 4.6545C15.6992 4.34194 15.2753 4.16634 14.8333 4.16634ZM12.3333 0.833008H2.33329C1.89127 0.833008 1.46734 1.0086 1.15478 1.32116C0.842221 1.63372 0.666626 2.05765 0.666626 2.49967V14.1663H2.33329V2.49967H12.3333V0.833008Z" fill="current"/>
</svg>
