<svg width="14" height="14" viewBox="0 0 14 14" fill="none" xmlns="http://www.w3.org/2000/svg">
<path d="M5.66683 10.333L2.3335 6.99967L3.2735 6.05301L5.66683 8.44634L10.7268 3.38634L11.6668 4.33301M7.00016 0.333008C6.12468 0.333008 5.25778 0.505446 4.44894 0.840478C3.6401 1.17551 2.90517 1.66657 2.28612 2.28563C1.03587 3.53587 0.333496 5.23156 0.333496 6.99967C0.333496 8.76778 1.03587 10.4635 2.28612 11.7137C2.90517 12.3328 3.6401 12.8238 4.44894 13.1589C5.25778 13.4939 6.12468 13.6663 7.00016 13.6663C8.76827 13.6663 10.464 12.964 11.7142 11.7137C12.9644 10.4635 13.6668 8.76778 13.6668 6.99967C13.6668 6.1242 13.4944 5.25729 13.1594 4.44845C12.8243 3.63961 12.3333 2.90469 11.7142 2.28563C11.0951 1.66657 10.3602 1.17551 9.55138 0.840478C8.74255 0.505446 7.87564 0.333008 7.00016 0.333008Z" fill="#0184FF"/>
</svg>
