<svg width="current" height="current" viewBox="0 0 18 17" fill="none" xmlns="http://www.w3.org/2000/svg">
<path d="M16.9167 9.91667L16.0833 10.75L14.4167 9.08333L15.25 8.25C15.3333 8.16667 15.4167 8.08333 15.5833 8.08333C15.6667 8.08333 15.8333 8.16667 15.9167 8.25L17 9.33333C17.0833 9.5 17.0833 9.75 16.9167 9.91667ZM8.83333 14.5833V16.3333H10.5833L15.6667 11.25L14 9.58333L8.83333 14.5833ZM7.34167 11.1917L5.70833 9.225L3.41667 12.1667H8.93333L11.05 10.125L9.63333 8.24167L7.34167 11.1917ZM7.16667 14.5833V13.875L7.20833 13.8333H2.16667V2.16667H13.8333V7.425L15.5 5.81667V2.16667C15.5 1.25 14.7583 0.5 13.8333 0.5H2.16667C1.25 0.5 0.5 1.25 0.5 2.16667V13.8333C0.5 14.7583 1.25 15.5 2.16667 15.5H7.16667V14.5833Z" fill="white"/>
</svg>
