<svg width="20" height="20" viewBox="0 0 20 20" fill="none" xmlns="http://www.w3.org/2000/svg">
<path d="M18.9167 11.9167L18.0833 12.75L16.4167 11.0833L17.25 10.25C17.3333 10.1667 17.4167 10.0833 17.5833 10.0833C17.6667 10.0833 17.8333 10.1667 17.9167 10.25L19 11.3333C19.0833 11.5 19.0833 11.75 18.9167 11.9167ZM10.8333 16.5833V18.3333H12.5833L17.6667 13.25L16 11.5833L10.8333 16.5833ZM9.34167 13.1917L7.70833 11.225L5.41667 14.1667H10.9333L13.05 12.125L11.6333 10.2417L9.34167 13.1917ZM9.16667 16.5833V15.875L9.20833 15.8333H4.16667V4.16667H15.8333V9.425L17.5 7.81667V4.16667C17.5 3.25 16.7583 2.5 15.8333 2.5H4.16667C3.25 2.5 2.5 3.25 2.5 4.16667V15.8333C2.5 16.7583 3.25 17.5 4.16667 17.5H9.16667V16.5833Z" fill="current"/>
</svg>
