<svg width="30" height="30" viewBox="0 0 30 30" fill="none" xmlns="http://www.w3.org/2000/svg">
<g clip-path="url(#clip0_1330_25447)">
<path d="M27.908 23.028C28.818 24.3205 29.9993 25.8143 29.9993 26.8755C29.9993 27.7043 29.67 28.4992 29.084 29.0852C28.4979 29.6713 27.7031 30.0005 26.8743 30.0005C26.0455 30.0005 25.2506 29.6713 24.6646 29.0852C24.0785 28.4992 23.7493 27.7043 23.7493 26.8755C23.7493 25.9068 24.9505 24.3655 25.8643 23.0393C25.9788 22.8748 26.1311 22.7403 26.3084 22.6471C26.4858 22.5539 26.6829 22.5046 26.8832 22.5035C27.0836 22.5024 27.2813 22.5495 27.4596 22.6408C27.638 22.7321 27.7918 22.8649 27.908 23.028ZM26.8118 17.3305L15.9718 28.1705C14.7987 29.3408 13.2094 29.9979 11.5524 29.9979C9.89544 29.9979 8.30611 29.3408 7.13304 28.1705L1.83054 22.8668C0.658464 21.6947 0 20.105 0 18.4474C0 16.7898 0.658464 15.2001 1.83054 14.028L8.96679 6.89051L5.39679 3.27801C5.17006 3.04104 5.04555 2.72445 5.0501 2.39652C5.05465 2.06859 5.1879 1.75558 5.42111 1.52499C5.65433 1.29441 5.96882 1.16471 6.29678 1.16387C6.62475 1.16303 6.9399 1.29112 7.17429 1.52051L10.7343 5.12551L12.6693 3.18801L11.6155 2.13426C11.3878 1.89851 11.2619 1.58275 11.2647 1.25501C11.2675 0.927262 11.399 0.613746 11.6308 0.381986C11.8625 0.150226 12.176 0.0187644 12.5038 0.0159164C12.8315 0.0130684 13.1473 0.139061 13.383 0.366759L29.633 16.6168C29.7524 16.7321 29.8477 16.87 29.9132 17.0225C29.9787 17.175 30.0132 17.339 30.0146 17.505C30.016 17.671 29.9844 17.8356 29.9216 17.9892C29.8587 18.1428 29.7659 18.2824 29.6485 18.3998C29.5312 18.5171 29.3916 18.6099 29.238 18.6728C29.0844 18.7356 28.9198 18.7673 28.7538 18.7658C28.5878 18.7644 28.4238 18.7299 28.2713 18.6644C28.1188 18.5989 27.9808 18.5036 27.8655 18.3843L26.8118 17.3305ZM25.0443 15.563L14.4368 4.95551L12.4905 6.90301L18.388 12.8755C18.516 12.9892 18.6193 13.128 18.6915 13.2832C18.7637 13.4385 18.8032 13.6069 18.8076 13.778C18.812 13.9492 18.7812 14.1194 18.7171 14.2781C18.653 14.4369 18.5569 14.5808 18.4349 14.7009C18.313 14.821 18.1676 14.9147 18.0079 14.9764C17.8481 15.038 17.6774 15.0661 17.5064 15.0591C17.3353 15.052 17.1676 15.0099 17.0135 14.9353C16.8594 14.8607 16.7222 14.7553 16.6105 14.6255L10.7243 8.66926L3.59929 15.7943C3.251 16.1425 2.97472 16.5559 2.78623 17.0109C2.59773 17.4659 2.50072 17.9536 2.50072 18.4461C2.50072 18.9386 2.59773 19.4263 2.78623 19.8813C2.97472 20.3364 3.251 20.7498 3.59929 21.098L8.90179 26.4018C9.60588 27.1036 10.5595 27.4978 11.5537 27.4978C12.5478 27.4978 13.5015 27.1036 14.2055 26.4018L25.0443 15.563Z" fill="#BEBEBE"/>
</g>
<defs>
<clipPath id="clip0_1330_25447">
<rect width="30" height="30" fill="white"/>
</clipPath>
</defs>
</svg>
