<svg width="14" height="12" viewBox="0 0 14 12" fill="none" xmlns="http://www.w3.org/2000/svg">
<path d="M11.0179 11.0627V5.3272V4.90349L10.6908 5.1728L7 8.21129L3.3092 5.1728L2.98208 4.90349V5.3272V11.0633H0.954334C0.857956 11.0633 0.762005 11.0425 0.671783 11.0015C0.581497 10.9604 0.498196 10.8997 0.427182 10.8217C0.356135 10.7437 0.298921 10.6501 0.259622 10.5458C0.220319 10.4416 0.199937 10.3293 0.2 10.2155V10.2154V1.31153C0.2 0.736441 0.497462 0.295343 0.88767 0.0811665C1.27561 -0.131766 1.75911 -0.124379 2.16359 0.208643C2.1636 0.208653 2.16361 0.208662 2.16362 0.208672L3.05492 0.942897L3.055 0.942961L6.87291 4.08483L7.00003 4.18943L7.12712 4.0848L10.9449 0.941726L10.945 0.941655L11.8363 0.208752L11.8364 0.208685C12.2405 -0.124036 12.7241 -0.131482 13.1121 0.0814261C13.5024 0.295548 13.8 0.736497 13.8 1.31153V10.2154C13.8 10.7015 13.4455 11.0627 13.0457 11.0627H11.0179Z" fill="#1F3259" stroke="#E3F3FF" stroke-width="0.4"/>
</svg>
