<svg width="14" height="12" viewBox="0 0 14 12" fill="none" xmlns="http://www.w3.org/2000/svg">
<path d="M13.3745 2.15381C12.9178 2.35082 12.4208 2.49261 11.9088 2.54783C12.4403 2.23207 12.8384 1.73322 13.0282 1.14488C12.5295 1.44157 11.9831 1.64962 11.4133 1.75979C11.1752 1.50521 10.8872 1.3024 10.5672 1.16399C10.2473 1.02559 9.90226 0.954558 9.55366 0.955328C8.14324 0.955328 7.00893 2.09859 7.00893 3.50155C7.00893 3.69856 7.03281 3.89557 7.07162 4.08512C4.95972 3.97467 3.07618 2.96574 1.82396 1.42099C1.5958 1.81071 1.47623 2.25445 1.4777 2.70604C1.4777 3.5896 1.92694 4.36869 2.61201 4.82689C2.20829 4.81099 1.81403 4.70003 1.46128 4.50302V4.53436C1.46128 5.77165 2.33589 6.797 3.50154 7.03282C3.28268 7.08967 3.05753 7.11875 2.8314 7.11939C2.66574 7.11939 2.50902 7.10297 2.35082 7.08058C2.6732 8.08952 3.61199 8.82234 4.72987 8.84622C3.85527 9.53128 2.75976 9.93426 1.57024 9.93426C1.35681 9.93426 1.1598 9.92679 0.955322 9.90291C2.08366 10.6268 3.42244 11.0447 4.8642 11.0447C9.54471 11.0447 12.1058 7.16715 12.1058 3.80154C12.1058 3.6911 12.1058 3.58065 12.0984 3.4702C12.5939 3.10752 13.0282 2.65828 13.3745 2.15381Z" fill="#1F3259"/>
</svg>
