<svg width="current" height="current" viewBox="0 0 12 18" fill="currentColor" xmlns="http://www.w3.org/2000/svg">
<path d="M6.00033 8.58268C5.44779 8.58268 4.91789 8.36319 4.52719 7.97249C4.13649 7.58179 3.91699 7.05188 3.91699 6.49935C3.91699 5.94681 4.13649 5.41691 4.52719 5.02621C4.91789 4.63551 5.44779 4.41602 6.00033 4.41602C6.55286 4.41602 7.08276 4.63551 7.47346 5.02621C7.86417 5.41691 8.08366 5.94681 8.08366 6.49935C8.08366 6.77294 8.02977 7.04384 7.92508 7.29661C7.82038 7.54937 7.66692 7.77903 7.47346 7.97249C7.28001 8.16594 7.05034 8.3194 6.79758 8.4241C6.54482 8.5288 6.27391 8.58268 6.00033 8.58268ZM6.00033 0.666016C4.45323 0.666016 2.9695 1.2806 1.87554 2.37456C0.781574 3.46852 0.166992 4.95225 0.166992 6.49935C0.166992 10.8743 6.00033 17.3327 6.00033 17.3327C6.00033 17.3327 11.8337 10.8743 11.8337 6.49935C11.8337 4.95225 11.2191 3.46852 10.1251 2.37456C9.03115 1.2806 7.54742 0.666016 6.00033 0.666016Z" fill="currentColor"/>
</svg>
