<svg width="current" height="current" viewBox="0 0 18 17" fill="currentColor" xmlns="http://www.w3.org/2000/svg">
<path d="M9.83366 11.1673H13.167V8.66732L17.3337 12.4173L13.167 16.1673V13.6673H9.83366V11.1673ZM15.667 0.333984H2.33366C1.89163 0.333984 1.46771 0.509579 1.15515 0.82214C0.842587 1.1347 0.666992 1.55862 0.666992 2.00065V12.0007C0.666992 12.4427 0.842587 12.8666 1.15515 13.1792C1.46771 13.4917 1.89163 13.6673 2.33366 13.6673H8.45866C8.2642 13.1332 8.16546 12.569 8.16699 12.0007C8.16818 10.927 8.51492 9.88226 9.15593 9.02097C9.79693 8.15969 10.6982 7.5276 11.7263 7.21824C12.7544 6.90887 13.8547 6.93865 14.8646 7.30318C15.8745 7.66771 16.7402 8.34761 17.3337 9.24232V2.00065C17.3337 1.55862 17.1581 1.1347 16.8455 0.82214C16.5329 0.509579 16.109 0.333984 15.667 0.333984ZM15.667 3.66732L9.00033 7.83398L2.33366 3.66732V2.00065L9.00033 6.16732L15.667 2.00065V3.66732Z" fill="currentColor"/>
</svg>
