<svg width="current" height="current" viewBox="0 0 7 7" fill="currentColor" xmlns="http://www.w3.org/2000/svg">
<path fill-rule="evenodd" clip-rule="evenodd" d="M3.26057 0.843819C3.94782 0.843819 4.60693 1.11683 5.0929 1.6028C5.57886 2.08876 5.85187 2.74787 5.85187 3.43513C5.85187 4.12238 5.57886 4.78149 5.0929 5.26746C4.60693 5.75342 3.94782 6.02643 3.26057 6.02643C2.57331 6.02643 1.9142 5.75342 1.42824 5.26746C0.942271 4.78149 0.669259 4.12238 0.669259 3.43513C0.669259 2.74787 0.942271 2.08876 1.42824 1.6028C1.9142 1.11683 2.57331 0.843819 3.26057 0.843819ZM3.26057 6.39662C4.046 6.39662 4.79927 6.0846 5.35466 5.52922C5.91005 4.97383 6.22206 4.22056 6.22206 3.43513C6.22206 2.64969 5.91005 1.89642 5.35466 1.34103C4.79927 0.785646 4.046 0.473633 3.26057 0.473633C2.47513 0.473633 1.72186 0.785646 1.16647 1.34103C0.611086 1.89642 0.299072 2.64969 0.299072 3.43513C0.299072 4.22056 0.611086 4.97383 1.16647 5.52922C1.72186 6.0846 2.47513 6.39662 3.26057 6.39662ZM1.96491 3.62022C1.91582 3.62022 1.86874 3.60072 1.83403 3.56601C1.79932 3.53129 1.77982 3.48422 1.77982 3.43513C1.77982 3.38604 1.79932 3.33896 1.83403 3.30424C1.86874 3.26953 1.91582 3.25003 1.96491 3.25003L4.1094 3.25003L3.31461 2.45561C3.27986 2.42086 3.26033 2.37372 3.26033 2.32457C3.26033 2.27541 3.27986 2.22828 3.31461 2.19352C3.34937 2.15876 3.39651 2.13924 3.44566 2.13924C3.49481 2.13924 3.54195 2.15876 3.57671 2.19352L4.68727 3.30408C4.7045 3.32127 4.71818 3.3417 4.72751 3.36419C4.73684 3.38667 4.74164 3.41078 4.74164 3.43513C4.74164 3.45947 4.73684 3.48358 4.72751 3.50607C4.71818 3.52855 4.7045 3.54898 4.68727 3.56617L3.57671 4.67673C3.54195 4.71149 3.49481 4.73101 3.44566 4.73101C3.39651 4.73101 3.34937 4.71149 3.31461 4.67673C3.27986 4.64198 3.26033 4.59484 3.26033 4.54568C3.26033 4.49653 3.27986 4.44939 3.31461 4.41464L4.1094 3.62022L1.96491 3.62022Z" fill="currentColor"/>
</svg>
