<svg width="12" height="12" viewBox="0 0 12 12" fill="none" xmlns="http://www.w3.org/2000/svg">
<path d="M3.2973 0H8.0727C9.8919 0 11.37 1.4781 11.37 3.2973V8.0727C11.37 8.9472 11.0226 9.78588 10.4042 10.4042C9.78588 11.0226 8.9472 11.37 8.0727 11.37H3.2973C1.4781 11.37 0 9.8919 0 8.0727V3.2973C0 2.4228 0.347393 1.58412 0.965757 0.965757C1.58412 0.347393 2.4228 0 3.2973 0ZM3.1836 1.137C2.64081 1.137 2.12025 1.35262 1.73644 1.73644C1.35262 2.12025 1.137 2.64081 1.137 3.1836V8.1864C1.137 9.31771 2.05228 10.233 3.1836 10.233H8.1864C8.72919 10.233 9.24975 10.0174 9.63356 9.63356C10.0174 9.24975 10.233 8.72919 10.233 8.1864V3.1836C10.233 2.05228 9.31771 1.137 8.1864 1.137H3.1836ZM8.66962 1.98975C8.85809 1.98975 9.03884 2.06462 9.17211 2.19789C9.30538 2.33116 9.38025 2.51191 9.38025 2.70037C9.38025 2.88884 9.30538 3.06959 9.17211 3.20286C9.03884 3.33613 8.85809 3.411 8.66962 3.411C8.48116 3.411 8.3004 3.33613 8.16714 3.20286C8.03387 3.06959 7.959 2.88884 7.959 2.70037C7.959 2.51191 8.03387 2.33116 8.16714 2.19789C8.3004 2.06462 8.48116 1.98975 8.66962 1.98975ZM5.685 2.8425C6.43888 2.8425 7.16188 3.14198 7.69495 3.67505C8.22802 4.20812 8.5275 4.93112 8.5275 5.685C8.5275 6.43888 8.22802 7.16188 7.69495 7.69495C7.16188 8.22802 6.43888 8.5275 5.685 8.5275C4.93112 8.5275 4.20812 8.22802 3.67505 7.69495C3.14198 7.16188 2.8425 6.43888 2.8425 5.685C2.8425 4.93112 3.14198 4.20812 3.67505 3.67505C4.20812 3.14198 4.93112 2.8425 5.685 2.8425ZM5.685 3.9795C5.23267 3.9795 4.79887 4.15919 4.47903 4.47903C4.15919 4.79887 3.9795 5.23267 3.9795 5.685C3.9795 6.13733 4.15919 6.57113 4.47903 6.89097C4.79887 7.21081 5.23267 7.3905 5.685 7.3905C6.13733 7.3905 6.57113 7.21081 6.89097 6.89097C7.21081 6.57113 7.3905 6.13733 7.3905 5.685C7.3905 5.23267 7.21081 4.79887 6.89097 4.47903C6.57113 4.15919 6.13733 3.9795 5.685 3.9795Z" fill="#1F2B6C"/>
</svg>
