<svg width="14" height="12" viewBox="0 0 14 12" fill="none" xmlns="http://www.w3.org/2000/svg">
<path d="M13.9918 1.33765C13.4768 1.57174 12.9217 1.72556 12.3465 1.79914C12.935 1.44466 13.3898 0.882847 13.6039 0.207335C13.0487 0.541747 12.4334 0.775835 11.7847 0.9096C11.2563 0.334412 10.5139 0 9.67119 0C8.09945 0 6.81531 1.28414 6.81531 2.86925C6.81531 3.09665 6.84206 3.31737 6.88888 3.5247C4.50787 3.40431 2.3877 2.26062 0.976482 0.528371C0.729018 0.949729 0.588565 1.44466 0.588565 1.96634C0.588565 2.96289 1.09018 3.84574 1.86602 4.34735C1.39115 4.34735 0.94973 4.21359 0.561812 4.01294V4.03301C0.561812 5.42416 1.55167 6.58791 2.86256 6.84875C2.44169 6.96393 1.99985 6.97996 1.57174 6.89557C1.75339 7.46573 2.10916 7.96462 2.58903 8.32212C3.06889 8.67963 3.64873 8.87776 4.24703 8.88867C3.23285 9.69155 1.9757 10.1255 0.6822 10.1193C0.4548 10.1193 0.2274 10.1059 0 10.0792C1.27076 10.8951 2.78231 11.37 4.40086 11.37C9.67119 11.37 12.5672 6.99589 12.5672 3.20366C12.5672 3.07659 12.5672 2.9562 12.5605 2.82912C13.1223 2.42783 13.6039 1.91952 13.9918 1.33765Z" fill="#1F2B6C"/>
</svg>
