<svg width="17" height="12" viewBox="0 0 17 12" fill="none" xmlns="http://www.w3.org/2000/svg">
<path d="M15.7997 1.77576C15.7085 1.43236 15.5287 1.11894 15.2783 0.866879C15.0279 0.614821 14.7157 0.432975 14.3729 0.339554C13.1148 8.01543e-08 8.0686 0 8.0686 0C8.0686 0 3.02236 8.01543e-08 1.76366 0.339554C1.42102 0.43314 1.10896 0.615051 0.858686 0.867093C0.608414 1.11914 0.428706 1.43247 0.337536 1.77576C0 3.04253 0 5.685 0 5.685C0 5.685 0 8.32747 0.337536 9.59424C0.428702 9.93764 0.60849 10.2511 0.858897 10.5031C1.1093 10.7552 1.42154 10.937 1.76433 11.0304C3.02236 11.37 8.0686 11.37 8.0686 11.37C8.0686 11.37 13.1148 11.37 14.3735 11.0304C14.7164 10.9371 15.0286 10.7553 15.279 10.5032C15.5295 10.2511 15.7092 9.93767 15.8003 9.59424C16.1372 8.32747 16.1372 5.685 16.1372 5.685C16.1372 5.685 16.1372 3.04253 15.7997 1.77576ZM6.4179 8.08406V3.28594L10.6358 5.685L6.4179 8.08406Z" fill="#1F2B6C"/>
</svg>
