<svg width="65" height="65" viewBox="0 0 65 65" fill="none" xmlns="http://www.w3.org/2000/svg">
<path d="M29.8335 35.1666V43.1666C29.8335 43.9222 30.0895 44.556 30.6015 45.068C31.1135 45.58 31.7464 45.8351 32.5002 45.8333C33.2557 45.8333 33.8895 45.5773 34.4015 45.0653C34.9135 44.5533 35.1686 43.9204 35.1668 43.1666V35.1666H43.1668C43.9224 35.1666 44.5562 34.9106 45.0682 34.3986C45.5802 33.8866 45.8353 33.2538 45.8335 32.5C45.8335 31.7444 45.5775 31.1106 45.0655 30.5986C44.5535 30.0866 43.9206 29.8315 43.1668 29.8333H35.1668V21.8333C35.1668 21.0778 34.9108 20.444 34.3988 19.932C33.8868 19.42 33.2539 19.1649 32.5002 19.1666C31.7446 19.1666 31.1108 19.4226 30.5988 19.9346C30.0868 20.4466 29.8317 21.0795 29.8335 21.8333V29.8333H21.8335C21.0779 29.8333 20.4442 30.0893 19.9322 30.6013C19.4202 31.1133 19.1651 31.7462 19.1668 32.5C19.1668 33.2555 19.4228 33.8893 19.9348 34.4013C20.4468 34.9133 21.0797 35.1684 21.8335 35.1666H29.8335ZM32.5002 59.1666C28.8113 59.1666 25.3446 58.4662 22.1002 57.0653C18.8557 55.6644 16.0335 53.7649 13.6335 51.3666C11.2335 48.9666 9.33394 46.1444 7.93483 42.9C6.53572 39.6555 5.83527 36.1889 5.8335 32.5C5.8335 28.8111 6.53394 25.3444 7.93483 22.1C9.33572 18.8555 11.2353 16.0333 13.6335 13.6333C16.0335 11.2333 18.8557 9.33376 22.1002 7.93465C25.3446 6.53554 28.8113 5.83509 32.5002 5.83331C36.1891 5.83331 39.6557 6.53376 42.9002 7.93465C46.1446 9.33554 48.9668 11.2351 51.3668 13.6333C53.7668 16.0333 55.6673 18.8555 57.0682 22.1C58.4691 25.3444 59.1686 28.8111 59.1668 32.5C59.1668 36.1889 58.4664 39.6555 57.0655 42.9C55.6646 46.1444 53.7651 48.9666 51.3668 51.3666C48.9668 53.7667 46.1446 55.6671 42.9002 57.068C39.6557 58.4689 36.1891 59.1684 32.5002 59.1666Z" fill="#3758F9"/>
</svg>
