<svg width="current" height="current" viewBox="0 0 17 16" fill="none" xmlns="http://www.w3.org/2000/svg">
<path d="M7.16602 3.50065V3.66732H9.83268V3.50065C9.83268 3.14703 9.69221 2.80789 9.44216 2.55784C9.19211 2.30779 8.85297 2.16732 8.49935 2.16732C8.14573 2.16732 7.80659 2.30779 7.55654 2.55784C7.30649 2.80789 7.16602 3.14703 7.16602 3.50065ZM6.33268 3.66732V3.50065C6.33268 2.92602 6.56096 2.37492 6.96728 1.96859C7.37361 1.56226 7.92471 1.33398 8.49935 1.33398C9.07399 1.33398 9.62508 1.56226 10.0314 1.96859C10.4377 2.37492 10.666 2.92602 10.666 3.50065V3.66732H14.416C14.5265 3.66732 14.6325 3.71122 14.7106 3.78936C14.7888 3.8675 14.8327 3.97348 14.8327 4.08398C14.8327 4.19449 14.7888 4.30047 14.7106 4.37861C14.6325 4.45675 14.5265 4.50065 14.416 4.50065H13.4437L12.777 12.4527C12.7264 13.0565 12.4507 13.6193 12.0046 14.0295C11.5586 14.4397 10.9747 14.6673 10.3687 14.6673H6.63002C6.02408 14.6673 5.44027 14.4396 4.99428 14.0294C4.54829 13.6192 4.27266 13.0565 4.22202 12.4527L3.55535 4.50065H2.58268C2.47218 4.50065 2.36619 4.45675 2.28805 4.37861C2.20991 4.30047 2.16602 4.19449 2.16602 4.08398C2.16602 3.97348 2.20991 3.8675 2.28805 3.78936C2.36619 3.71122 2.47218 3.66732 2.58268 3.66732H6.33268ZM7.66602 6.75065C7.66602 6.69593 7.65524 6.64175 7.6343 6.5912C7.61336 6.54065 7.58267 6.49471 7.54398 6.45602C7.50529 6.41733 7.45935 6.38664 7.4088 6.3657C7.35825 6.34476 7.30407 6.33398 7.24935 6.33398C7.19463 6.33398 7.14045 6.34476 7.0899 6.3657C7.03935 6.38664 6.99341 6.41733 6.95472 6.45602C6.91603 6.49471 6.88534 6.54065 6.8644 6.5912C6.84346 6.64175 6.83268 6.69593 6.83268 6.75065V11.584C6.83268 11.6387 6.84346 11.6929 6.8644 11.7434C6.88534 11.794 6.91603 11.8399 6.95472 11.8786C6.99341 11.9173 7.03935 11.948 7.0899 11.9689C7.14045 11.9899 7.19463 12.0007 7.24935 12.0007C7.30407 12.0007 7.35825 11.9899 7.4088 11.9689C7.45935 11.948 7.50529 11.9173 7.54398 11.8786C7.58267 11.8399 7.61336 11.794 7.6343 11.7434C7.65524 11.6929 7.66602 11.6387 7.66602 11.584V6.75065ZM9.74935 6.33398C9.51935 6.33398 9.33268 6.52065 9.33268 6.75065V11.584C9.33268 11.6945 9.37658 11.8005 9.45472 11.8786C9.53286 11.9568 9.63884 12.0007 9.74935 12.0007C9.85986 12.0007 9.96584 11.9568 10.044 11.8786C10.1221 11.8005 10.166 11.6945 10.166 11.584V6.75065C10.166 6.52065 9.97935 6.33398 9.74935 6.33398Z" fill="current"/>
</svg>
