<svg width="current" height="current" viewBox="0 0 896 896" fill="currentColor" xmlns="http://www.w3.org/2000/svg">
<path d="M448 0C566.817 0 680.768 47.1999 764.784 131.216C848.8 215.232 896 329.183 896 448C896 566.817 848.8 680.768 764.784 764.784C680.768 848.8 566.817 896 448 896C329.183 896 215.232 848.8 131.216 764.784C47.1999 680.768 0 566.817 0 448C0 329.183 47.1999 215.232 131.216 131.216C215.232 47.1999 329.183 0 448 0ZM448 832C549.843 832 647.515 791.543 719.529 719.529C791.543 647.515 832 549.843 832 448C832 346.157 791.543 248.485 719.529 176.471C647.515 104.457 549.843 64 448 64C346.157 64 248.485 104.457 176.471 176.471C104.457 248.485 64 346.157 64 448C64 549.843 104.457 647.515 176.471 719.529C248.485 791.543 346.157 832 448 832ZM400 584.384L604.608 448L400 311.616V584.384ZM410.624 241.728L660.096 408.064C666.67 412.448 672.06 418.386 675.788 425.353C679.516 432.319 681.467 440.099 681.467 448C681.467 455.901 679.516 463.681 675.788 470.647C672.06 477.614 666.67 483.552 660.096 487.936L410.624 654.272C403.395 659.091 394.994 661.857 386.317 662.277C377.64 662.696 369.011 660.752 361.352 656.653C353.692 652.554 347.288 646.453 342.824 639C338.359 631.548 336.001 623.024 336 614.336V281.6C336.001 272.912 338.359 264.388 342.824 256.935C347.288 249.483 353.692 243.382 361.352 239.283C369.011 235.184 377.64 233.24 386.317 233.659C394.994 234.079 403.395 236.845 410.624 241.664V241.728Z" fill="currentColor"/>
</svg>
