<svg width="current" height="current" viewBox="0 0 896 896" fill="currentColor" xmlns="http://www.w3.org/2000/svg">
<path d="M448 0C566.817 0 680.768 47.1999 764.784 131.216C848.8 215.232 896 329.183 896 448C896 566.817 848.8 680.768 764.784 764.784C680.768 848.8 566.817 896 448 896C329.183 896 215.232 848.8 131.216 764.784C47.1999 680.768 0 566.817 0 448C0 329.183 47.1999 215.232 131.216 131.216C215.232 47.1999 329.183 0 448 0ZM448 832C549.843 832 647.515 791.543 719.529 719.529C791.543 647.515 832 549.843 832 448C832 346.157 791.543 248.485 719.529 176.471C647.515 104.457 549.843 64 448 64C346.157 64 248.485 104.457 176.471 176.471C104.457 248.485 64 346.157 64 448C64 549.843 104.457 647.515 176.471 719.529C248.485 791.543 346.157 832 448 832ZM352 288C373.333 288 384 298.667 384 320V576C384 597.333 373.333 608 352 608C330.667 608 320 597.333 320 576V320C320 298.667 330.667 288 352 288ZM544 288C565.333 288 576 298.667 576 320V576C576 597.333 565.333 608 544 608C522.667 608 512 597.333 512 576V320C512 298.667 522.667 288 544 288Z" fill="currentColor"/>
</svg>
