<svg  viewBox="0 0 12 20" xmlns="http://www.w3.org/2000/svg">
<path d="M10.8516 19.1C11.1016 18.85 11.2266 18.554 11.2266 18.212C11.2266 17.8707 11.1016 17.575 10.8516 17.325L3.52656 10L10.8766 2.65C11.1099 2.41667 11.2266 2.125 11.2266 1.775C11.2266 1.425 11.1016 1.125 10.8516 0.875C10.6016 0.625 10.3056 0.5 9.96356 0.5C9.62223 0.5 9.32656 0.625 9.07656 0.875L0.676561 9.3C0.576561 9.4 0.505562 9.50833 0.463562 9.625C0.422229 9.74167 0.401562 9.86667 0.401562 10C0.401562 10.1333 0.422229 10.2583 0.463562 10.375C0.505562 10.4917 0.576561 10.6 0.676561 10.7L9.10156 19.125C9.3349 19.3583 9.62223 19.475 9.96356 19.475C10.3056 19.475 10.6016 19.35 10.8516 19.1Z" fill="#fff"/>
</svg>
