<svg width="17" height="17" viewBox="0 0 17 17" fill="none" xmlns="http://www.w3.org/2000/svg">
<path d="M9.49358 7.00659C8.83378 6.34706 7.93906 5.97656 7.00615 5.97656C6.07325 5.97656 5.17853 6.34706 4.51873 7.00659L2.03049 9.49401C1.37068 10.1538 1 11.0487 1 11.9818C1 12.915 1.37068 13.8099 2.03049 14.4697C2.69031 15.1295 3.58521 15.5002 4.51832 15.5002C5.45144 15.5002 6.34634 15.1295 7.00615 14.4697L8.24987 13.226" stroke="#99A2A5" stroke-width="1.5" stroke-linecap="round" stroke-linejoin="round"/>
<path d="M7.00586 9.49358C7.66566 10.1531 8.56038 10.5236 9.49329 10.5236C10.4262 10.5236 11.3209 10.1531 11.9807 9.49358L14.4689 7.00615C15.1288 6.34634 15.4994 5.45144 15.4994 4.51832C15.4994 3.58521 15.1288 2.69031 14.4689 2.03049C13.8091 1.37068 12.9142 1 11.9811 1C11.048 1 10.1531 1.37068 9.49329 2.03049L8.24957 3.27421" stroke="#99A2A5" stroke-width="1.5" stroke-linecap="round" stroke-linejoin="round"/>
</svg>
