<svg width="17" height="18" viewBox="0 0 17 18" fill="none" xmlns="http://www.w3.org/2000/svg">
<path d="M6.44721 9.35557C5.95324 9.10858 5.35256 9.30881 5.10557 9.80279C4.85858 10.2968 5.05881 10.8974 5.55279 11.1444L6.44721 9.35557ZM10.5528 13.6444C11.0468 13.8914 11.6474 13.6912 11.8944 13.1972C12.1414 12.7032 11.9412 12.1026 11.4472 11.8556L10.5528 13.6444ZM11.4472 6.14443C11.9412 5.89744 12.1414 5.29676 11.8944 4.80279C11.6474 4.30881 11.0468 4.10858 10.5528 4.35557L11.4472 6.14443ZM5.55279 6.85557C5.05881 7.10256 4.85858 7.70324 5.10557 8.19721C5.35256 8.69119 5.95324 8.89142 6.44721 8.64443L5.55279 6.85557ZM13.5 15.5C12.6716 15.5 12 14.8284 12 14H10C10 15.933 11.567 17.5 13.5 17.5V15.5ZM12 14C12 13.1716 12.6716 12.5 13.5 12.5V10.5C11.567 10.5 10 12.067 10 14H12ZM13.5 12.5C14.3284 12.5 15 13.1716 15 14H17C17 12.067 15.433 10.5 13.5 10.5V12.5ZM15 14C15 14.8284 14.3284 15.5 13.5 15.5V17.5C15.433 17.5 17 15.933 17 14H15ZM5.55279 11.1444L10.5528 13.6444L11.4472 11.8556L6.44721 9.35557L5.55279 11.1444ZM3.5 10.5C2.67157 10.5 2 9.82843 2 9H0C0 10.933 1.567 12.5 3.5 12.5V10.5ZM2 9C2 8.17157 2.67157 7.5 3.5 7.5V5.5C1.567 5.5 0 7.067 0 9H2ZM3.5 7.5C4.32843 7.5 5 8.17157 5 9H7C7 7.067 5.433 5.5 3.5 5.5V7.5ZM5 9C5 9.82843 4.32843 10.5 3.5 10.5V12.5C5.433 12.5 7 10.933 7 9H5ZM10.5528 4.35557L5.55279 6.85557L6.44721 8.64443L11.4472 6.14443L10.5528 4.35557ZM13.5 5.5C12.6716 5.5 12 4.82843 12 4H10C10 5.933 11.567 7.5 13.5 7.5V5.5ZM12 4C12 3.17157 12.6716 2.5 13.5 2.5V0.5C11.567 0.5 10 2.067 10 4H12ZM13.5 2.5C14.3284 2.5 15 3.17157 15 4H17C17 2.067 15.433 0.5 13.5 0.5V2.5ZM15 4C15 4.82843 14.3284 5.5 13.5 5.5V7.5C15.433 7.5 17 5.933 17 4H15Z" fill="#002A48"/>
</svg>
