<svg width="12" height="14" viewBox="0 0 12 14" fill="none" xmlns="http://www.w3.org/2000/svg">
<path d="M1.33333 13.6651H10.6667C11.0203 13.6651 11.3594 13.5246 11.6095 13.2745C11.8595 13.0245 12 12.6853 12 12.3317V4.99839C12 4.82158 11.9298 4.65201 11.8047 4.52699C11.6797 4.40196 11.5101 4.33172 11.3333 4.33172H9.33333V3.81372C9.33333 2.07439 8.06467 0.517057 6.33333 0.348391C5.86992 0.302332 5.40199 0.353791 4.95966 0.499457C4.51732 0.645123 4.11038 0.88177 3.76501 1.19417C3.41964 1.50658 3.14349 1.88782 2.95433 2.31337C2.76516 2.73892 2.66717 3.19936 2.66667 3.66506V4.33172H0.666667C0.489856 4.33172 0.320286 4.40196 0.195262 4.52699C0.0702379 4.65201 0 4.82158 0 4.99839V12.3317C0 12.6853 0.140476 13.0245 0.390524 13.2745C0.640573 13.5246 0.979711 13.6651 1.33333 13.6651ZM9.33333 5.66506V6.99839H8V5.66506H9.33333ZM4 3.66506C4 2.56239 4.89733 1.66506 6 1.66506C7.10267 1.66506 8 2.56239 8 3.66506V4.33172H4V3.66506ZM2.66667 5.66506H4V6.99839H2.66667V5.66506Z" fill="white"/>
</svg>
