<svg width="20" height="16" viewBox="0 0 20 16" fill="none" xmlns="http://www.w3.org/2000/svg">
<path d="M6.17414 15.2506C13.2551 15.2506 17.1292 9.38261 17.1292 4.29549C17.1292 4.13053 17.1255 3.9619 17.1182 3.79693C17.8718 3.25192 18.5222 2.57685 19.0388 1.80343C18.3369 2.11571 17.5917 2.31965 16.8286 2.4083C17.6321 1.92669 18.2337 1.17011 18.5219 0.278801C17.766 0.726752 16.9394 1.04274 16.0775 1.21323C15.4967 0.596152 14.7289 0.187574 13.8926 0.050664C13.0564 -0.0862461 12.1983 0.0561379 11.4511 0.455802C10.7039 0.855466 10.1091 1.49015 9.75882 2.26173C9.4085 3.0333 9.32211 3.8988 9.51301 4.7244C7.98251 4.64759 6.48523 4.25001 5.11823 3.55742C3.75124 2.86483 2.54506 1.8927 1.57788 0.704041C1.08631 1.55157 0.935883 2.55447 1.15718 3.50893C1.37848 4.46338 1.9549 5.29776 2.76928 5.84248C2.15789 5.82307 1.5599 5.65846 1.0247 5.36226V5.40991C1.02415 6.29933 1.33163 7.16149 1.89488 7.84984C2.45812 8.53819 3.24236 9.01024 4.11429 9.18575C3.54793 9.34071 2.95352 9.36329 2.37704 9.25174C2.62308 10.0166 3.10179 10.6857 3.74635 11.1654C4.39092 11.6451 5.16918 11.9117 5.97252 11.9278C4.60868 12.9991 2.92395 13.5802 1.18966 13.5775C0.882102 13.577 0.574843 13.5581 0.269531 13.521C2.03138 14.6513 4.08088 15.2517 6.17414 15.2506Z" fill="#99A2A5"/>
</svg>
