<svg width="19" height="15" viewBox="0 0 19 15" fill="none" xmlns="http://www.w3.org/2000/svg">
<path d="M16.8121 14.2788H14.1478V6.84748V6.42377L13.8207 6.69307L9.03906 10.6296L4.25743 6.69307L3.93031 6.42377V6.84748V14.2796H1.26606C1.13386 14.2796 1.00244 14.2511 0.879129 14.195L0.796337 14.3771L0.879129 14.195C0.755751 14.1389 0.642383 14.0561 0.546048 13.9503C0.449679 13.8445 0.372384 13.7179 0.319392 13.5773C0.266396 13.4367 0.238977 13.2855 0.239063 13.1324V13.1323V1.68448C0.239063 0.924382 0.632733 0.33797 1.15286 0.052485C1.67072 -0.231756 2.31784 -0.221671 2.85715 0.222372C2.85716 0.222381 2.85717 0.222391 2.85718 0.2224L4.00315 1.16641L4.00323 1.16648L8.91198 5.20601L9.03909 5.31062L9.16618 5.20599L14.0748 1.16487L14.0749 1.1648L15.2208 0.222481L15.2209 0.222413C15.7598 -0.221236 16.407 -0.23138 16.925 0.0528131C17.4453 0.338221 17.8391 0.924437 17.8391 1.68448V13.1323C17.8391 13.7838 17.3625 14.2788 16.8121 14.2788Z" fill="#99A2A5" stroke="white" stroke-width="0.4"/>
</svg>
