<svg width="current" height="current" viewBox="0 0 24 24" fill="currentColor" xmlns="http://www.w3.org/2000/svg">
<path d="M16.6176 19.6478C16.8625 19.4222 17 19.1163 17 18.7974C17 18.4784 16.8625 18.1725 16.6176 17.947L10.1526 11.9927L16.6176 6.03852C16.8555 5.81166 16.9872 5.50781 16.9842 5.19242C16.9812 4.87703 16.8438 4.57533 16.6017 4.35231C16.3595 4.12929 16.032 4.00279 15.6895 4.00005C15.3471 3.9973 15.0171 4.11855 14.7708 4.33766L7.3824 11.1423C7.13755 11.3679 7 11.6738 7 11.9927C7 12.3117 7.13755 12.6176 7.3824 12.8432L14.7708 19.6478C15.0157 19.8733 15.3479 20 15.6942 20C16.0405 20 16.3727 19.8733 16.6176 19.6478Z" fill="currentColor"/>
</svg>
