<svg width="current" height="current" viewBox="0 0 24 24" fill="currentColor" xmlns="http://www.w3.org/2000/svg">
<path d="M7.3824 4.35218C7.13755 4.57776 7 4.88366 7 5.20262C7 5.52157 7.13755 5.82747 7.3824 6.05305L13.8474 12.0073L7.3824 17.9615C7.14449 18.1883 7.01284 18.4922 7.01582 18.8076C7.0188 19.123 7.15615 19.4247 7.39831 19.6477C7.64046 19.8707 7.96804 19.9972 8.31049 20C8.65294 20.0027 8.98285 19.8815 9.22918 19.6623L16.6176 12.8577C16.8625 12.6321 17 12.3262 17 12.0073C17 11.6883 16.8625 11.3824 16.6176 11.1568L9.22918 4.35218C8.98425 4.12668 8.65211 4 8.30579 4C7.95947 4 7.62732 4.12668 7.3824 4.35218Z" fill="currentColor"/>
</svg>
