<svg width="15" height="14" viewBox="0 0 15 14" fill="none" xmlns="http://www.w3.org/2000/svg">
<path d="M8.0013 0.332678C11.6833 0.332678 14.668 3.31734 14.668 6.99935C14.668 10.6813 11.6833 13.666 8.0013 13.666C6.9662 13.6668 5.94517 13.4262 5.01935 12.9633C4.09352 12.5003 3.28841 11.8279 2.66797 10.9993H4.47463C5.24448 11.6782 6.19385 12.1204 7.20883 12.2731C8.2238 12.4257 9.26126 12.2822 10.1967 11.8599C11.1322 11.4375 11.9259 10.7542 12.4826 9.89189C13.0393 9.0296 13.3354 8.02499 13.3353 6.99861C13.3352 5.97222 13.039 4.96766 12.4821 4.10547C11.9252 3.24328 11.1314 2.56008 10.1959 2.13787C9.26038 1.71565 8.22289 1.57235 7.20795 1.72516C6.193 1.87796 5.2437 2.32039 4.47397 2.99935H2.6673C3.28781 2.1707 4.09303 1.49821 5.01898 1.03529C5.94493 0.572372 6.96608 0.331797 8.0013 0.332678ZM3.33463 4.33268V6.33268H8.66797V7.66601H3.33463V9.66601L0.00130081 6.99935L3.33463 4.33268Z" fill="white"/>
</svg>
