<svg width="92" height="92" viewBox="0 0 92 92" fill="none" xmlns="http://www.w3.org/2000/svg">
<path d="M65.25 42.5C65.25 46.3073 64.121 50.0291 62.0058 53.1947C59.8906 56.3604 56.8842 58.8277 53.3667 60.2847C49.8492 61.7417 45.9787 62.1229 42.2445 61.3801C38.5104 60.6373 35.0804 58.804 32.3882 56.1118C29.6961 53.4196 27.8627 49.9896 27.1199 46.2555C26.3771 42.5214 26.7584 38.6508 28.2153 35.1333C29.6723 31.6159 32.1396 28.6094 35.3053 26.4942C38.4709 24.379 42.1927 23.25 46 23.25C51.1054 23.25 56.0017 25.2781 59.6118 28.8882C63.2219 32.4983 65.25 37.3946 65.25 42.5ZM91.5 46C91.5 54.999 88.8315 63.796 83.8319 71.2784C78.8323 78.7609 71.7262 84.5927 63.4121 88.0365C55.0981 91.4803 45.9495 92.3813 37.1234 90.6257C28.2973 88.8701 20.1899 84.5366 13.8267 78.1734C7.46337 71.8101 3.12992 63.7027 1.37429 54.8766C-0.381337 46.0505 0.519714 36.9019 3.9635 28.5879C7.40729 20.2739 13.2391 13.1677 20.7216 8.16813C28.204 3.16853 37.001 0.5 46 0.5C58.0603 0.523126 69.6199 5.32429 78.1478 13.8522C86.6757 22.3801 91.4769 33.9398 91.5 46ZM84.5 46C84.5023 39.7645 82.99 33.6217 80.0932 28.0999C77.1964 22.5781 73.0017 17.8426 67.8699 14.3005C62.7381 10.7584 56.8228 8.5158 50.6326 7.7655C44.4424 7.0152 38.1625 7.77968 32.3331 9.99319C26.5037 12.2067 21.2992 15.803 17.1671 20.4728C13.0349 25.1427 10.0989 30.7463 8.61147 36.8018C7.12401 42.8573 7.12964 49.1835 8.62787 55.2363C10.1261 61.2892 13.0721 66.8875 17.2125 71.55C20.0457 67.486 23.6966 64.0586 27.9313 61.4875C32.7934 66.1456 39.2666 68.746 46 68.746C52.7334 68.746 59.2066 66.1456 64.0688 61.4875C68.3035 64.0586 71.9544 67.486 74.7875 71.55C81.0553 64.5166 84.5129 55.4209 84.5 46Z" fill="white"/>
</svg>
