<svg width="current" height="current" viewBox="0 0 15 12" fill="currentColor" xmlns="http://www.w3.org/2000/svg">
<path d="M11.0219 11.062V5.32647V4.90276L10.6948 5.17206L7.00394 8.21056L3.31312 5.17206L2.986 4.90276V5.32647V11.0626H0.958244C0.861866 11.0626 0.765914 11.0418 0.675691 11.0008C0.585406 10.9597 0.502104 10.8989 0.43109 10.821C0.360042 10.7429 0.302828 10.6493 0.263529 10.5451L0.0763836 10.6156L0.263529 10.5451C0.224226 10.4408 0.203844 10.3285 0.203907 10.2148V10.2147V1.3108C0.203907 0.735709 0.501369 0.294611 0.89158 0.0804347C1.27954 -0.132504 1.76305 -0.125111 2.16754 0.20794L3.05884 0.942165L3.05892 0.942229L6.87685 4.08409L7.00397 4.1887L7.13106 4.08407L10.9489 0.940994L10.949 0.940923L11.8402 0.20802L11.8403 0.207953C12.2445 -0.124768 12.728 -0.132214 13.1161 0.0806942C13.5064 0.294817 13.804 0.735765 13.804 1.3108V10.2147C13.804 10.7008 13.4494 11.062 13.0496 11.062H11.0219Z" fill="currentColor" stroke="currnetColor" stroke-width="0.400001"/>
</svg>
