<svg width="current" height="current" viewBox="0 0 14 12" fill="currentColor" xmlns="http://www.w3.org/2000/svg">
<path d="M13.3743 2.15357C12.9176 2.35058 12.4206 2.49237 11.9086 2.54759C12.4401 2.23183 12.8382 1.73298 13.028 1.14463C12.5293 1.44133 11.9829 1.64937 11.4131 1.75955C11.175 1.50496 10.887 1.30215 10.567 1.16375C10.2471 1.02534 9.90206 0.954314 9.55346 0.955084C8.14303 0.955084 7.00872 2.09835 7.00872 3.5013C7.00872 3.69831 7.0326 3.89532 7.0714 4.08487C4.9595 3.97443 3.07594 2.96549 1.82372 1.42075C1.59555 1.81046 1.47599 2.2542 1.47746 2.7058C1.47746 3.58936 1.92671 4.36845 2.61177 4.82665C2.20805 4.81075 1.81379 4.69978 1.46104 4.50278V4.53412C1.46104 5.77141 2.33565 6.79676 3.50131 7.03258C3.28244 7.08943 3.0573 7.11851 2.83117 7.11914C2.6655 7.11914 2.50879 7.10272 2.35058 7.08034C2.67296 8.08927 3.61175 8.82209 4.72965 8.84597C3.85503 9.53103 2.75953 9.93401 1.56999 9.93401C1.35656 9.93401 1.15955 9.92655 0.955078 9.90267C2.08342 10.6265 3.42221 11.0444 4.86397 11.0444C9.5445 11.0444 12.1057 7.1669 12.1057 3.8013C12.1057 3.69085 12.1057 3.58041 12.0982 3.46996C12.5937 3.10728 13.028 2.65804 13.3743 2.15357Z" fill="currentColor"/>
</svg>
