<svg width="current" height="current" viewBox="0 0 12 12" fill="currentColor" xmlns="http://www.w3.org/2000/svg">
<path d="M6.00003 0C4.37177 0 4.16702 0.0075 3.52727 0.036C2.88751 0.066 2.45176 0.1665 2.07001 0.315C1.66958 0.465614 1.30687 0.70187 1.00725 1.00725C0.70206 1.30702 0.465833 1.66968 0.315001 2.07C0.166501 2.451 0.0652503 2.8875 0.0360002 3.525C0.00750004 4.16625 0 4.37025 0 6.00075C0 7.62975 0.00750004 7.83375 0.0360002 8.4735C0.0660003 9.1125 0.166501 9.54825 0.315001 9.93C0.468752 10.3245 0.673503 10.659 1.00725 10.9928C1.34026 11.3265 1.67476 11.532 2.06926 11.685C2.45176 11.8335 2.88676 11.9347 3.52577 11.964C4.16627 11.9925 4.37027 12 6.00003 12C7.62979 12 7.83304 11.9925 8.47354 11.964C9.11179 11.934 9.54904 11.8335 9.9308 11.685C10.331 11.5343 10.6934 11.2981 10.9928 10.9928C11.3266 10.659 11.5313 10.3245 11.6851 9.93C11.8328 9.54825 11.9341 9.1125 11.9641 8.4735C11.9926 7.83375 12.0001 7.62975 12.0001 6C12.0001 4.37025 11.9926 4.16625 11.9641 3.52575C11.9341 2.8875 11.8328 2.451 11.6851 2.07C11.5342 1.66967 11.298 1.30701 10.9928 1.00725C10.6933 0.701757 10.3305 0.465484 9.93005 0.315C9.54754 0.1665 9.11104 0.06525 8.47279 0.036C7.83229 0.0075 7.62904 0 5.99853 0H6.00078H6.00003ZM5.46228 1.0815H6.00078C7.60279 1.0815 7.79254 1.08675 8.42479 1.116C9.00979 1.14225 9.32779 1.2405 9.53929 1.32225C9.81905 1.431 10.0193 1.5615 10.2293 1.7715C10.4393 1.9815 10.569 2.181 10.6778 2.4615C10.7603 2.67225 10.8578 2.99025 10.8841 3.57525C10.9133 4.2075 10.9193 4.39725 10.9193 5.9985C10.9193 7.59975 10.9133 7.79025 10.8841 8.4225C10.8578 9.0075 10.7596 9.32475 10.6778 9.53625C10.5816 9.79677 10.4281 10.0323 10.2285 10.2255C10.0185 10.4355 9.81905 10.5653 9.53854 10.674C9.32854 10.7565 9.01054 10.854 8.42479 10.881C7.79254 10.9095 7.60279 10.9163 6.00078 10.9163C4.39877 10.9163 4.20827 10.9095 3.57602 10.881C2.99101 10.854 2.67376 10.7565 2.46226 10.674C2.20163 10.5779 1.96585 10.4247 1.77226 10.2255C1.57257 10.032 1.4188 9.79624 1.32226 9.5355C1.24051 9.32475 1.14226 9.00675 1.11601 8.42175C1.08751 7.7895 1.08151 7.59975 1.08151 5.997C1.08151 4.395 1.08751 4.206 1.11601 3.57375C1.14301 2.98875 1.24051 2.67075 1.32301 2.45925C1.43176 2.1795 1.56226 1.97925 1.77226 1.76925C1.98226 1.55925 2.18176 1.4295 2.46226 1.32075C2.67376 1.23825 2.99101 1.14075 3.57602 1.11375C4.12952 1.08825 4.34402 1.08075 5.46228 1.08V1.0815ZM9.20329 2.0775C9.10874 2.0775 9.01511 2.09612 8.92776 2.13231C8.8404 2.16849 8.76103 2.22152 8.69417 2.28838C8.62732 2.35524 8.57428 2.43461 8.5381 2.52197C8.50191 2.60932 8.48329 2.70295 8.48329 2.7975C8.48329 2.89205 8.50191 2.98568 8.5381 3.07303C8.57428 3.16039 8.62732 3.23976 8.69417 3.30662C8.76103 3.37348 8.8404 3.42651 8.92776 3.46269C9.01511 3.49888 9.10874 3.5175 9.20329 3.5175C9.39425 3.5175 9.57739 3.44164 9.71241 3.30662C9.84744 3.17159 9.9233 2.98846 9.9233 2.7975C9.9233 2.60654 9.84744 2.42341 9.71241 2.28838C9.57739 2.15336 9.39425 2.0775 9.20329 2.0775ZM6.00078 2.919C5.59208 2.91262 5.18619 2.98761 4.80676 3.13961C4.42732 3.2916 4.08191 3.51755 3.79063 3.80432C3.49936 4.09108 3.26804 4.43293 3.11015 4.80995C2.95225 5.18696 2.87094 5.59163 2.87094 6.00037C2.87094 6.40912 2.95225 6.81379 3.11015 7.1908C3.26804 7.56782 3.49936 7.90967 3.79063 8.19643C4.08191 8.4832 4.42732 8.70915 4.80676 8.86114C5.18619 9.01314 5.59208 9.08813 6.00078 9.08175C6.80969 9.06913 7.5812 8.73893 8.14877 8.16244C8.71635 7.58594 9.03447 6.80938 9.03447 6.00037C9.03447 5.19137 8.71635 4.41481 8.14877 3.83831C7.5812 3.26182 6.80969 2.93162 6.00078 2.919ZM6.00078 3.99975C6.53128 3.99975 7.04005 4.21049 7.41518 4.58561C7.7903 4.96073 8.00104 5.4695 8.00104 6C8.00104 6.5305 7.7903 7.03927 7.41518 7.41439C7.04005 7.78951 6.53128 8.00025 6.00078 8.00025C5.47028 8.00025 4.9615 7.78951 4.58638 7.41439C4.21126 7.03927 4.00052 6.5305 4.00052 6C4.00052 5.4695 4.21126 4.96073 4.58638 4.58561C4.9615 4.21049 5.47028 3.99975 6.00078 3.99975Z" fill="currentColor"/>
</svg>
