<svg  viewBox="0 0 8 14" xmlns="http://www.w3.org/2000/svg">
<path d="M7.23242 13.0641C7.39909 12.8974 7.48242 12.7001 7.48242 12.4721C7.48242 12.2445 7.39909 12.0474 7.23242 11.8807L2.34909 6.9974L7.24909 2.0974C7.40464 1.94184 7.48242 1.7474 7.48242 1.51406C7.48242 1.28073 7.39909 1.08073 7.23242 0.914062C7.06576 0.747396 6.86842 0.664062 6.64042 0.664062C6.41287 0.664062 6.21576 0.747396 6.04909 0.914062L0.449088 6.53073C0.382421 6.5974 0.335088 6.66962 0.307088 6.7474C0.279532 6.82517 0.265755 6.90851 0.265755 6.9974C0.265755 7.08628 0.279532 7.16962 0.307088 7.2474C0.335088 7.32517 0.382421 7.3974 0.449088 7.46406L6.06576 13.0807C6.22131 13.2363 6.41287 13.3141 6.64042 13.3141C6.86842 13.3141 7.06576 13.2307 7.23242 13.0641Z" fill="current"/>
</svg>
