<svg viewBox="0 0 24 24" xmlns="http://www.w3.org/2000/svg">
<g clip-path="url(#clip0_4223_17960)">
<path d="M9.0026 21.3333C9.92308 21.3333 10.6693 20.5871 10.6693 19.6667C10.6693 18.7462 9.92308 18 9.0026 18C8.08213 18 7.33594 18.7462 7.33594 19.6667C7.33594 20.5871 8.08213 21.3333 9.0026 21.3333Z" fill="white"/>
<path d="M17.6667 21.3333C18.5871 21.3333 19.3333 20.5871 19.3333 19.6667C19.3333 18.7462 18.5871 18 17.6667 18C16.7462 18 16 18.7462 16 19.6667C16 20.5871 16.7462 21.3333 17.6667 21.3333Z" fill="white"/>
<path d="M22.067 4.25839C22.0049 4.17771 21.9251 4.11233 21.8338 4.06726C21.7425 4.0222 21.6421 3.99863 21.5403 3.99839H6.14032L5.84032 3.04506C5.80736 2.9427 5.75014 2.84983 5.67352 2.77437C5.5969 2.69891 5.50317 2.64311 5.40032 2.61172L2.66698 1.77172C2.58294 1.7459 2.49463 1.73688 2.4071 1.74518C2.31956 1.75348 2.23453 1.77894 2.15683 1.82011C1.99993 1.90325 1.88248 2.04532 1.83032 2.21506C1.77816 2.3848 1.79556 2.5683 1.87871 2.72521C1.96185 2.88211 2.10391 2.99956 2.27365 3.05172L4.66698 3.78506L7.72032 13.4317L6.63365 14.3251L6.54698 14.4117C6.27825 14.7229 6.12599 15.1178 6.11627 15.5288C6.10654 15.9399 6.23994 16.3415 6.49365 16.6651C6.67536 16.886 6.90626 17.0614 7.16788 17.1772C7.4295 17.2929 7.71458 17.3459 8.00032 17.3317H19.127C19.3038 17.3317 19.4734 17.2615 19.5984 17.1365C19.7234 17.0114 19.7936 16.8419 19.7936 16.6651C19.7936 16.4882 19.7234 16.3187 19.5984 16.1937C19.4734 16.0686 19.3038 15.9984 19.127 15.9984H7.89365C7.81688 15.9958 7.74209 15.9734 7.67649 15.9334C7.61089 15.8935 7.55671 15.8372 7.51918 15.7702C7.48165 15.7032 7.46204 15.6276 7.46223 15.5508C7.46243 15.474 7.48244 15.3985 7.52032 15.3317L9.12698 13.9984H19.4137C19.5659 14.0028 19.7152 13.955 19.8365 13.8628C19.9578 13.7706 20.0438 13.6396 20.0803 13.4917L22.2136 4.82506C22.2339 4.72567 22.2313 4.62296 22.2058 4.52477C22.1804 4.42657 22.1329 4.33546 22.067 4.25839Z" fill="white"/>
</g>
<defs>
<clipPath id="clip0_4223_17960">
<rect width="24" height="24" fill="white"/>
</clipPath>
</defs>
</svg>
