<svg width="179" height="179" viewBox="0 0 179 179" fill="none" xmlns="http://www.w3.org/2000/svg">
<g clip-path="url(#clip0_20131_14177)">
<path d="M134.25 89.5C126.392 89.5092 118.67 87.4465 111.863 83.5199C105.056 79.5933 99.405 73.9416 95.4789 67.1345C91.5527 60.3274 89.4905 52.6056 89.5001 44.7474C89.5098 36.8892 91.5909 29.1724 95.5338 22.375H31.6383L31.325 19.7497C30.6823 14.3096 28.0662 9.29423 23.9725 5.65419C19.8788 2.01415 14.592 0.00233324 9.11408 0L7.45833 0C5.48026 0 3.5832 0.785787 2.1845 2.1845C0.785787 3.5832 0 5.48026 0 7.45833C0 9.43641 0.785787 11.3335 2.1845 12.7322C3.5832 14.1309 5.48026 14.9167 7.45833 14.9167H9.11408C10.9409 14.9169 12.7041 15.5876 14.0692 16.8015C15.4343 18.0154 16.3065 19.6881 16.5202 21.5024L26.7829 108.765C27.8483 117.84 32.2086 126.208 39.0362 132.281C45.8638 138.354 54.6834 141.709 63.821 141.708H141.708C143.686 141.708 145.583 140.923 146.982 139.524C148.381 138.125 149.167 136.228 149.167 134.25C149.167 132.272 148.381 130.375 146.982 128.976C145.583 127.577 143.686 126.792 141.708 126.792H63.821C59.2034 126.78 54.7024 125.34 50.9355 122.67C47.1686 119.999 44.3202 116.229 42.781 111.875H131.692C140.435 111.876 148.901 108.804 155.609 103.197C162.318 97.5896 166.843 89.8035 168.394 81.1989L170.169 71.3613C166.021 76.9861 160.609 81.5579 154.37 84.7085C148.131 87.859 141.239 89.5003 134.25 89.5Z" fill="current" fill-opacity="0.1"/>
<path d="M52.2077 179.001C60.4459 179.001 67.1243 172.323 67.1243 164.085C67.1243 155.846 60.4459 149.168 52.2077 149.168C43.9694 149.168 37.291 155.846 37.291 164.085C37.291 172.323 43.9694 179.001 52.2077 179.001Z" fill="current" fill-opacity="0.1"/>
<path d="M126.792 179.001C135.03 179.001 141.708 172.323 141.708 164.085C141.708 155.846 135.03 149.168 126.792 149.168C118.553 149.168 111.875 155.846 111.875 164.085C111.875 172.323 118.553 179.001 126.792 179.001Z" fill="current" fill-opacity="0.1"/>
<path d="M113.153 34.2055L123.7 44.7532L113.153 55.3009C111.754 56.6996 110.968 58.5966 110.968 60.5747C110.968 62.5528 111.754 64.4498 113.153 65.8485C114.551 67.2472 116.448 68.033 118.426 68.033C120.405 68.033 122.302 67.2472 123.7 65.8485L134.248 55.3008L144.796 65.8485C146.194 67.2472 148.091 68.033 150.069 68.033C152.048 68.033 153.945 67.2472 155.343 65.8485C156.742 64.4498 157.528 62.5527 157.528 60.5746C157.528 58.5966 156.742 56.6995 155.343 55.3008L144.796 44.7532L155.343 34.2055C156.742 32.8068 157.528 30.9097 157.528 28.9316C157.528 26.9536 156.742 25.0565 155.343 23.6578C153.945 22.2591 152.048 21.4733 150.07 21.4733C148.091 21.4733 146.194 22.2591 144.796 23.6578L134.248 34.2055L123.7 23.6578C122.302 22.2591 120.405 21.4734 118.427 21.4734C116.448 21.4734 114.551 22.2591 113.153 23.6579C111.754 25.0566 110.968 26.9536 110.968 28.9317C110.968 30.9098 111.754 32.8068 113.153 34.2055Z" fill="current" fill-opacity="0.1"/>
</g>
<defs>
<clipPath id="clip0_20131_14177">
<rect width="179" height="179" fill="white"/>
</clipPath>
</defs>
</svg>
