<svg viewBox="0 0 24 24" xmlns="http://www.w3.org/2000/svg">
<path d="M12.1 18.55L12 18.65L11.89 18.55C7.14 14.24 4 11.39 4 8.5C4 6.5 5.5 5 7.5 5C9.04 5 10.54 6 11.07 7.36H12.93C13.46 6 14.96 5 16.5 5C18.5 5 20 6.5 20 8.5C20 11.39 16.86 14.24 12.1 18.55ZM16.5 3C14.76 3 13.09 3.81 12 5.08C10.91 3.81 9.24 3 7.5 3C4.42 3 2 5.41 2 8.5C2 12.27 5.4 15.36 10.55 20.03L12 21.35L13.45 20.03C18.6 15.36 22 12.27 22 8.5C22 5.41 19.58 3 16.5 3Z" fill="#003459"/>
<path d="M13.4639 11.1168L14.8735 9.70806L14.8736 9.70792C15.0392 9.54219 15.1322 9.31745 15.1322 9.08314C15.1321 8.84883 15.0389 8.62416 14.8732 8.45854C14.7074 8.29292 14.4827 8.19992 14.2484 8.2C14.0141 8.20008 13.7895 8.29321 13.6239 8.4589C13.6238 8.45893 13.6238 8.45895 13.6238 8.45898L10.7084 11.3744L10.7082 11.3746C10.5429 11.5402 10.45 11.7646 10.45 11.9987C10.45 12.2327 10.5429 12.4571 10.7082 12.6227L10.7082 12.6228L13.6231 15.5418L13.6232 15.5418C13.7052 15.6239 13.8026 15.689 13.9098 15.7335C14.0169 15.7779 14.1318 15.8008 14.2478 15.8008C14.3638 15.8009 14.4787 15.778 14.5859 15.7337C14.6931 15.6893 14.7905 15.6243 14.8726 15.5423L14.6605 15.3301L14.8726 15.5423C14.9547 15.4603 15.0198 15.3629 15.0642 15.2557C15.1086 15.1486 15.1315 15.0337 15.1316 14.9177C15.1316 14.8017 15.1088 14.6868 15.0644 14.5796C15.0201 14.4724 14.955 14.375 14.873 14.2929L13.4653 12.8835H16.5809L16.7064 12.8857C17.5327 12.9174 18.3146 13.2678 18.8883 13.8635C19.4627 14.4598 19.7835 15.2555 19.7835 16.0834C19.7835 16.3177 19.8766 16.5424 20.0422 16.7081C20.2079 16.8737 20.4326 16.9668 20.6668 16.9668C20.9011 16.9668 21.1258 16.8737 21.2914 16.7081C21.4571 16.5424 21.5502 16.3177 21.5502 16.0835H21.5502L21.5501 16.0787L21.5478 15.9328L21.5478 15.9328L21.5477 15.9282C21.5074 14.6385 20.9667 13.4151 20.0401 12.5171C19.1136 11.619 17.8739 11.1168 16.5835 11.1168H13.4639Z" stroke="white" stroke-width="0.6"/>
</svg>
