<svg width="179" height="179" viewBox="0 0 179 179" fill="none" xmlns="http://www.w3.org/2000/svg">
<g clip-path="url(#clip0_20131_14331)">
<path d="M130.522 6.83984C122.123 6.97048 113.908 9.31492 106.706 13.6364C99.5031 17.9579 93.5684 24.1034 89.501 31.4523C85.4335 24.1034 79.4988 17.9579 72.2963 13.6364C65.0939 9.31492 56.8786 6.97048 48.4801 6.83984C35.092 7.42152 22.4782 13.2783 13.3945 23.1306C4.31082 32.9829 -0.504356 46.0298 0.000950314 59.4211C0.000950314 109.951 81.7145 168.313 85.19 170.789L89.501 173.839L93.8119 170.789C97.2875 168.328 179.001 109.951 179.001 59.4211C179.506 46.0298 174.691 32.9829 165.607 23.1306C156.524 13.2783 143.91 7.42152 130.522 6.83984Z" fill="#202020" fill-opacity="0.1"/>
<circle cx="149" cy="34" r="43" fill="white"/>
<path d="M129.096 22.643L139.644 33.1907L129.096 43.7384C127.697 45.1371 126.912 47.0341 126.912 49.0122C126.912 50.9903 127.697 52.8873 129.096 54.286C130.495 55.6847 132.392 56.4705 134.37 56.4705C136.348 56.4705 138.245 55.6847 139.644 54.286L150.191 43.7383L160.739 54.286C162.138 55.6847 164.035 56.4705 166.013 56.4705C167.991 56.4705 169.888 55.6847 171.287 54.286C172.685 52.8873 173.471 50.9902 173.471 49.0121C173.471 47.0341 172.685 45.137 171.287 43.7383L160.739 33.1907L171.287 22.643C172.685 21.2443 173.471 19.3472 173.471 17.3691C173.471 15.3911 172.685 13.494 171.287 12.0953C169.888 10.6966 167.991 9.91082 166.013 9.91082C164.035 9.91082 162.138 10.6966 160.739 12.0953L150.191 22.643L139.644 12.0953C138.245 10.6966 136.348 9.91085 134.37 9.91086C132.392 9.91086 130.495 10.6966 129.096 12.0954C127.697 13.4941 126.912 15.3911 126.912 17.3692C126.912 19.3473 127.697 21.2443 129.096 22.643Z" fill="#E9E9E9"/>
</g>
<defs>
<clipPath id="clip0_20131_14331">
<rect width="179" height="179" fill="white"/>
</clipPath>
</defs>
</svg>
