<svg  viewBox="0 0 12 14" xmlns="http://www.w3.org/2000/svg">
<path d="M1.33333 13.669H10.6667C11.0203 13.669 11.3594 13.5285 11.6095 13.2784C11.8595 13.0284 12 12.6892 12 12.3356V5.0023C12 4.82549 11.9298 4.65592 11.8047 4.53089C11.6797 4.40587 11.5101 4.33563 11.3333 4.33563H9.33333V3.81763C9.33333 2.0783 8.06467 0.520963 6.33333 0.352297C5.86992 0.306238 5.40199 0.357697 4.95966 0.503364C4.51732 0.64903 4.11038 0.885677 3.76501 1.19808C3.41964 1.51048 3.14349 1.89172 2.95433 2.31728C2.76516 2.74283 2.66717 3.20326 2.66667 3.66896V4.33563H0.666667C0.489856 4.33563 0.320286 4.40587 0.195262 4.53089C0.0702379 4.65592 0 4.82549 0 5.0023V12.3356C0 12.6892 0.140476 13.0284 0.390524 13.2784C0.640573 13.5285 0.979711 13.669 1.33333 13.669ZM9.33333 5.66896V7.0023H8V5.66896H9.33333ZM4 3.66896C4 2.5663 4.89733 1.66896 6 1.66896C7.10267 1.66896 8 2.5663 8 3.66896V4.33563H4V3.66896ZM2.66667 5.66896H4V7.0023H2.66667V5.66896Z" fill="white"/>
</svg>
