<svg width="17" height="12" viewBox="0 0 17 12" fill="current" xmlns="http://www.w3.org/2000/svg">
<path d="M4.44085 0.2C4.54591 0.121207 4.66545 0.063878 4.79267 0.0312864C4.91988 -0.00130515 5.05227 -0.00852122 5.18227 0.0100505C5.31227 0.0286222 5.43734 0.072618 5.55034 0.139526C5.66334 0.206433 5.76206 0.294943 5.84085 0.4C5.91964 0.505058 5.97697 0.624606 6.00956 0.751819C6.04215 0.879033 6.04937 1.01142 6.0308 1.14142C6.01223 1.27142 5.96823 1.39649 5.90132 1.50949C5.83442 1.62249 5.74591 1.72121 5.64085 1.8C4.07685 2.973 3.18085 4.114 2.66785 5.11C3.37222 4.92868 4.11558 4.97131 4.79461 5.23195C5.47363 5.4926 6.05459 5.95831 6.45673 6.56436C6.85887 7.17041 7.06222 7.88669 7.0385 8.61364C7.01478 9.34058 6.76518 10.0421 6.32439 10.6206C5.8836 11.1992 5.27352 11.626 4.57895 11.8419C3.88437 12.0577 3.13981 12.0518 2.44876 11.8249C1.75771 11.5981 1.15449 11.1616 0.722956 10.5761C0.29142 9.99061 0.053005 9.28523 0.0408486 8.558C-0.0872892 7.32993 0.0871189 6.08916 0.548848 4.944C1.14585 3.438 2.31285 1.796 4.44085 0.2ZM13.4408 0.2C13.5459 0.121207 13.6655 0.063878 13.7927 0.0312864C13.9199 -0.00130515 14.0523 -0.00852122 14.1823 0.0100505C14.3123 0.0286222 14.4373 0.072618 14.5503 0.139526C14.6633 0.206433 14.7621 0.294943 14.8408 0.4C14.9196 0.505058 14.977 0.624606 15.0096 0.751819C15.0422 0.879033 15.0494 1.01142 15.0308 1.14142C15.0122 1.27142 14.9682 1.39649 14.9013 1.50949C14.8344 1.62249 14.7459 1.72121 14.6408 1.8C13.0768 2.973 12.1808 4.114 11.6678 5.11C12.3722 4.92868 13.1156 4.97131 13.7946 5.23195C14.4736 5.4926 15.0546 5.95831 15.4567 6.56436C15.8589 7.17041 16.0622 7.88669 16.0385 8.61364C16.0148 9.34058 15.7652 10.0421 15.3244 10.6206C14.8836 11.1992 14.2735 11.626 13.5789 11.8419C12.8844 12.0577 12.1398 12.0518 11.4488 11.8249C10.7577 11.5981 10.1545 11.1616 9.72296 10.5761C9.29142 9.99061 9.05301 9.28523 9.04085 8.558C8.91271 7.32993 9.08712 6.08916 9.54885 4.944C10.1468 3.438 11.3128 1.796 13.4408 0.2Z" fill="color"/>
</svg>
