<svg xmlns="http://www.w3.org/2000/svg" width="current" height="current" viewBox="0 0 18 14" fill="current">
  <path d="M5.06177 0.6204C5.17734 0.533724 5.30885 0.470659 5.44879 0.434807C5.58873 0.398955 5.73436 0.391017 5.87737 0.411447C6.02038 0.431876 6.15796 0.480274 6.28227 0.553875C6.40657 0.627477 6.51516 0.724841 6.60184 0.840409C6.68851 0.955977 6.75158 1.08749 6.78743 1.22743C6.82328 1.36737 6.83122 1.513 6.81079 1.65601C6.79036 1.79901 6.74196 1.9366 6.66836 2.0609C6.59476 2.18521 6.4974 2.2938 6.38183 2.38047C4.66136 3.67083 3.67571 4.92598 3.11139 6.02162C3.88623 5.82217 4.70396 5.86906 5.45092 6.15578C6.19788 6.4425 6.83696 6.95481 7.27934 7.62149C7.72171 8.28817 7.9454 9.07611 7.91931 9.87578C7.89322 10.6755 7.61864 11.4471 7.13375 12.0836C6.64886 12.72 5.97775 13.1896 5.21368 13.427C4.44962 13.6644 3.63057 13.6579 2.87038 13.4083C2.11019 13.1588 1.44663 12.6786 0.97192 12.0346C0.497211 11.3905 0.234944 10.6146 0.221571 9.81458C0.0806136 8.46365 0.272471 7.09874 0.780394 5.83902C1.43712 4.18235 2.72087 2.37607 5.06177 0.6204ZM14.9622 0.6204C15.0778 0.533724 15.2093 0.470659 15.3492 0.434807C15.4891 0.398955 15.6348 0.391017 15.7778 0.411447C15.9208 0.431876 16.0584 0.480274 16.1827 0.553875C16.307 0.627477 16.4156 0.724841 16.5022 0.840409C16.5889 0.955977 16.652 1.08749 16.6878 1.22743C16.7237 1.36737 16.7316 1.513 16.7112 1.65601C16.6908 1.79901 16.6424 1.9366 16.5688 2.0609C16.4952 2.18521 16.3978 2.2938 16.2822 2.38047C14.5618 3.67083 13.5761 4.92598 13.0118 6.02162C13.7866 5.82217 14.6044 5.86906 15.3513 6.15578C16.0983 6.4425 16.7374 6.95481 17.1797 7.62149C17.6221 8.28817 17.8458 9.07611 17.8197 9.87578C17.7936 10.6755 17.5191 11.4471 17.0342 12.0836C16.5493 12.72 15.8782 13.1896 15.1141 13.427C14.35 13.6644 13.531 13.6579 12.7708 13.4083C12.0106 13.1588 11.347 12.6786 10.8723 12.0346C10.3976 11.3905 10.1354 10.6146 10.122 9.81458C9.98102 8.46365 10.1729 7.09874 10.6808 5.83902C11.3386 4.18235 12.6213 2.37607 14.9622 0.6204Z" fill="black"/>
</svg>