<svg width="9" height="12" viewBox="0 0 9 12" fill="none" xmlns="http://www.w3.org/2000/svg">
<path d="M5.952 5.84794C6.54933 5.95461 7.056 6.26928 7.472 6.79194C7.888 7.31461 8.096 7.90661 8.096 8.56794C8.096 9.13328 7.94667 9.64528 7.648 10.1039C7.36 10.5519 6.93867 10.9093 6.384 11.1759C5.82933 11.4319 5.184 11.5599 4.448 11.5599H0V0.439941H4.24C4.99733 0.439941 5.648 0.567942 6.192 0.823942C6.736 1.07994 7.14667 1.42661 7.424 1.86394C7.70133 2.29061 7.84 2.77061 7.84 3.30394C7.84 3.94394 7.66933 4.47728 7.328 4.90394C6.98667 5.33061 6.528 5.64528 5.952 5.84794ZM1.824 5.11194H4.08C4.67733 5.11194 5.14133 4.97861 5.472 4.71194C5.81333 4.43461 5.984 4.03994 5.984 3.52794C5.984 3.02661 5.81333 2.63727 5.472 2.35994C5.14133 2.07194 4.67733 1.92794 4.08 1.92794H1.824V5.11194ZM4.288 10.0719C4.90667 10.0719 5.392 9.92261 5.744 9.62394C6.096 9.32528 6.272 8.90928 6.272 8.37594C6.272 7.83194 6.08533 7.39994 5.712 7.07994C5.33867 6.75994 4.84267 6.59994 4.224 6.59994H1.824V10.0719H4.288Z" fill="current"/>
</svg>
