<svg width="10" height="12" viewBox="0 0 10 12" fill="none" xmlns="http://www.w3.org/2000/svg">
<path d="M8.83721 0.502785H4.8102C4.72626 0.494654 4.64156 0.504375 4.56154 0.531326C4.48152 0.558276 4.40795 0.60186 4.34555 0.659283C4.28314 0.716706 4.23328 0.7867 4.19916 0.864775C4.16504 0.94285 4.14742 1.02728 4.14742 1.11266C4.14742 1.19803 4.16504 1.28247 4.19916 1.36054C4.23328 1.43862 4.28314 1.50861 4.34555 1.56603C4.40795 1.62346 4.48152 1.66704 4.56154 1.69399C4.64156 1.72094 4.72626 1.73066 4.8102 1.72253H5.982L2.61515 10.2775H1.16279C1.07884 10.2693 0.994141 10.2791 0.914124 10.306C0.834106 10.333 0.760536 10.3765 0.698131 10.434C0.635726 10.4914 0.585865 10.5614 0.551745 10.6395C0.517625 10.7175 0.5 10.802 0.5 10.8873C0.5 10.9727 0.517625 11.0571 0.551745 11.1352C0.585865 11.2133 0.635726 11.2833 0.698131 11.3407C0.760536 11.3981 0.834106 11.4417 0.914124 11.4687C0.994141 11.4956 1.07884 11.5053 1.16279 11.4972H5.1953C5.27924 11.5053 5.36394 11.4956 5.44396 11.4687C5.52398 11.4417 5.59755 11.3981 5.65995 11.3407C5.72236 11.2833 5.77222 11.2133 5.80634 11.1352C5.84046 11.0571 5.85808 10.9727 5.85808 10.8873C5.85808 10.802 5.84046 10.7175 5.80634 10.6395C5.77222 10.5614 5.72236 10.4914 5.65995 10.434C5.59755 10.3765 5.52398 10.333 5.44396 10.306C5.36394 10.2791 5.27924 10.2693 5.1953 10.2775H3.93548L7.30783 1.72253H8.83721C8.92116 1.73066 9.00586 1.72094 9.08587 1.69399C9.16589 1.66704 9.23946 1.62346 9.30187 1.56603C9.36427 1.50861 9.41413 1.43862 9.44825 1.36054C9.48237 1.28247 9.5 1.19803 9.5 1.11266C9.5 1.02728 9.48237 0.94285 9.44825 0.864775C9.41413 0.7867 9.36427 0.716706 9.30187 0.659283C9.23946 0.60186 9.16589 0.558276 9.08587 0.531326C9.00586 0.504375 8.92116 0.494654 8.83721 0.502785Z" fill="current"/>
</svg>
