<svg width="12" height="12" viewBox="0 0 12 12" fill="none" xmlns="http://www.w3.org/2000/svg">
<path d="M5.08466 6.91534C5.35083 7.16851 5.35083 7.58399 5.08466 7.83717C4.83149 8.09034 4.41601 8.09034 4.16283 7.83717C2.89694 6.57127 2.89694 4.51339 4.16283 3.2475L6.46091 0.949418C7.72681 -0.316473 9.78469 -0.316473 11.0506 0.949418C12.3165 2.21531 12.3165 4.27319 11.0506 5.53909L10.0833 6.50636C10.0898 5.97403 10.0054 5.44171 9.82364 4.93535L10.1288 4.62375C10.8948 3.86421 10.8948 2.63078 10.1288 1.87125C9.36922 1.10522 8.13579 1.10522 7.37625 1.87125L5.08466 4.16283C4.31864 4.92237 4.31864 6.1558 5.08466 6.91534ZM6.91534 4.16283C7.16851 3.90966 7.58399 3.90966 7.83717 4.16283C9.10306 5.42873 9.10306 7.48661 7.83717 8.7525L5.53909 11.0506C4.27319 12.3165 2.21531 12.3165 0.949418 11.0506C-0.316473 9.78469 -0.316473 7.72681 0.949418 6.46091L1.91669 5.49364C1.9102 6.02597 1.99459 6.55829 2.17636 7.07114L1.87125 7.37625C1.10522 8.13579 1.10522 9.36922 1.87125 10.1288C2.63078 10.8948 3.86421 10.8948 4.62375 10.1288L6.91534 7.83717C7.68136 7.07763 7.68136 5.8442 6.91534 5.08466C6.64917 4.83149 6.64917 4.41601 6.91534 4.16283Z" fill="white"/>
</svg>
