<svg width="13" height="12" viewBox="0 0 13 12" fill="none" xmlns="http://www.w3.org/2000/svg">
<path d="M1.37797 0.982166V1.02217H1.41797H1.65697V2.85717V2.89717H1.69697H2.04197H2.08197V2.85717V0.670166V0.630166H2.04197H1.41797H1.37797V0.670166V0.982166Z" fill="white" stroke="white" stroke-width="0.08"/>
<path d="M1.61521 6.77593L1.6715 6.72589C1.67151 6.72588 1.67152 6.72587 1.67152 6.72587C1.828 6.58745 1.95684 6.46569 2.05782 6.36066C2.05783 6.36066 2.05783 6.36065 2.05783 6.36065L1.61521 6.77593ZM1.61521 6.77593H2.461H2.501V6.81593V7.10093V7.14093H2.461H1.003H0.963V7.10093V6.85193V6.83358L0.976899 6.82162L1.19284 6.63567C1.38459 6.46988 1.53498 6.33441 1.64423 6.22913C1.75426 6.12304 1.84517 6.01344 1.91728 5.90041C1.98795 5.78963 2.022 5.68098 2.022 5.57393C2.022 5.46016 1.99455 5.37649 1.94457 5.31788L1.94412 5.31736L1.94412 5.31735C1.89834 5.26176 1.82289 5.22993 1.708 5.22993C1.59938 5.22993 1.51927 5.26444 1.4622 5.33015L1.432 5.30393M1.61521 6.77593L1.17685 5.05255C1.03681 5.18183 0.966211 5.36737 0.960014 5.60287L0.958934 5.64393H1H1.33H1.36875L1.36998 5.6052C1.37377 5.48568 1.4058 5.39536 1.46225 5.33009L1.432 5.30393M1.432 5.30393C1.368 5.37793 1.334 5.47793 1.33 5.60393L1.672 6.25793C1.784 6.14993 1.877 6.03793 1.951 5.92193C2.025 5.80593 2.062 5.68993 2.062 5.57393C2.062 5.45393 2.033 5.35993 1.975 5.29193C1.919 5.22393 1.83 5.18993 1.708 5.18993C1.59 5.18993 1.498 5.22793 1.432 5.30393ZM2.32507 5.99517C2.40209 5.85566 2.441 5.71008 2.441 5.55893C2.441 5.35002 2.37589 5.17903 2.24293 5.05029C2.11156 4.92114 1.93042 4.85893 1.705 4.85893C1.49428 4.85893 1.31718 4.92286 1.17686 5.05254C1.17686 5.05254 1.17687 5.05254 1.17687 5.05253L2.32507 5.99517Z" fill="white" stroke="white" stroke-width="0.08"/>
<path d="M0.992036 9.73149L0.989289 9.77407H1.03195H1.36495H1.39964L1.40455 9.73972C1.41525 9.66482 1.44782 9.60338 1.50276 9.55375L1.50277 9.55376L1.50328 9.55328C1.55575 9.50419 1.63178 9.47707 1.73695 9.47707C1.84435 9.47707 1.92128 9.5043 1.97363 9.55328L1.97362 9.55328L1.97414 9.55375C2.02646 9.601 2.05395 9.66552 2.05395 9.75207C2.05395 9.85198 2.01672 9.92002 1.94426 9.96384L1.94426 9.96384L1.9439 9.96406C1.8689 10.0105 1.75448 10.0371 1.59571 10.0391H1.51495H1.47495V10.0791V10.3611V10.4011H1.51495H1.59295C1.7741 10.4011 1.90034 10.4309 1.97842 10.4841L1.97841 10.4841L1.97929 10.4847C2.0544 10.5331 2.09595 10.617 2.09595 10.7481C2.09595 10.8449 2.06619 10.9214 2.00846 10.981C1.95206 11.0373 1.86959 11.0681 1.75495 11.0681C1.63616 11.0681 1.54664 11.0371 1.4818 10.9794C1.41587 10.9187 1.37912 10.8415 1.37184 10.7451L1.36905 10.7081H1.33195H1.00195H0.959984L0.961999 10.75C0.972443 10.9672 1.05037 11.1387 1.19875 11.2591L1.19874 11.2591L1.19924 11.2595C1.34769 11.3762 1.53496 11.4331 1.75795 11.4331C1.91055 11.4331 2.04388 11.4063 2.15657 11.351L2.15657 11.351L2.15711 11.3507C2.2691 11.2937 2.35515 11.2156 2.41345 11.1163C2.47143 11.0175 2.49995 10.9054 2.49995 10.7811C2.49995 10.6273 2.46565 10.4977 2.3938 10.3952C2.33819 10.3144 2.26545 10.2534 2.17648 10.2122C2.24373 10.1758 2.30288 10.1232 2.35395 10.0551C2.4258 9.95927 2.46095 9.84457 2.46095 9.71307C2.46095 9.59834 2.43324 9.49408 2.37718 9.40137C2.32071 9.30798 2.23752 9.23507 2.12956 9.18215C2.02095 9.12891 1.89367 9.10307 1.74895 9.10307C1.53795 9.10307 1.36067 9.15698 1.2202 9.26765L1.2202 9.26765L1.21997 9.26783C1.08008 9.37974 1.00466 9.53575 0.992036 9.73149Z" fill="white" stroke="white" stroke-width="0.08"/>
<path d="M4.78711 1.71436H11.7871M11.7871 6.00007H4.78711M4.78711 10.2858H11.7871" stroke="white" stroke-width="1.2" stroke-linecap="round" stroke-linejoin="round"/>
</svg>
