<svg width="12" height="12" viewBox="0 0 12 12" fill="none" xmlns="http://www.w3.org/2000/svg">
<path d="M3.55 3.25C3.55 2.838 3.768 2.417 4.225 2.075C4.683 1.731 5.347 1.5 6.1 1.5C7.216 1.5 8.136 2.023 8.464 2.547C8.56942 2.71568 8.73754 2.83557 8.93136 2.8803C9.12517 2.92502 9.32882 2.89092 9.4975 2.7855C9.66618 2.68008 9.78607 2.51196 9.8308 2.31815C9.87552 2.12433 9.84142 1.92068 9.736 1.752C9.063 0.677 7.584 0 6.1 0C5.053 0 4.066 0.319 3.325 0.875C2.582 1.432 2.05 2.262 2.05 3.25C2.05 3.782 2.205 4.272 2.473 4.7H4.69C3.916 4.336 3.55 3.749 3.55 3.25ZM0 6.7C0 6.50109 0.0790175 6.31032 0.21967 6.16967C0.360322 6.02902 0.551088 5.95 0.75 5.95H11.25C11.4489 5.95 11.6397 6.02902 11.7803 6.16967C11.921 6.31032 12 6.50109 12 6.7C12 6.89891 11.921 7.08968 11.7803 7.23033C11.6397 7.37098 11.4489 7.45 11.25 7.45H9.615C9.828 7.841 9.95 8.278 9.95 8.75C9.95 9.738 9.418 10.567 8.675 11.125C7.933 11.681 6.947 12 5.9 12C4.411 12 2.913 11.317 2.244 10.114C2.19337 10.0278 2.16049 9.93226 2.14731 9.83313C2.13413 9.734 2.1409 9.63323 2.16724 9.53675C2.19358 9.44028 2.23894 9.35004 2.30067 9.27136C2.36239 9.19268 2.43923 9.12713 2.52666 9.07858C2.61409 9.03003 2.71035 8.99946 2.80977 8.98866C2.90919 8.97786 3.00977 8.98705 3.10558 9.01569C3.2014 9.04434 3.29052 9.09185 3.3677 9.15545C3.44488 9.21904 3.50856 9.29743 3.555 9.386C3.887 9.982 4.789 10.5 5.9 10.5C6.653 10.5 7.316 10.269 7.775 9.925C8.232 9.582 8.45 9.162 8.45 8.75C8.45 8.315 8.171 7.813 7.587 7.45H0.75C0.651509 7.45 0.553982 7.4306 0.462987 7.39291C0.371993 7.35522 0.289314 7.29997 0.21967 7.23033C0.150026 7.16069 0.0947813 7.07801 0.0570903 6.98701C0.0193993 6.89602 0 6.79849 0 6.7Z" fill="current"/>
</svg>
