<svg width="14" height="16" viewBox="0 0 14 16" fill="none" xmlns="http://www.w3.org/2000/svg">
<path d="M12.718 9.49559C12.3774 9.02077 11.699 9.02077 11.3583 9.49559C10.9857 10.015 10.5988 10.6737 10.5988 11.17C10.5988 11.5517 10.7505 11.9178 11.0204 12.1877C11.2903 12.4577 11.6564 12.6093 12.0382 12.6093C12.4199 12.6093 12.786 12.4577 13.056 12.1877C13.3259 11.9178 13.4775 11.5517 13.4775 11.17C13.4775 10.6737 13.0906 10.015 12.718 9.49559ZM2.11378 7.57156L4.85394 4.8314C5.24447 4.44087 5.87763 4.44087 6.26815 4.8314L9.00832 7.57156M10.2822 6.8087L4.35558 0.882131C4.07537 0.601915 3.62105 0.601915 3.34083 0.882131C3.06062 1.16235 3.06062 1.61667 3.34083 1.89688L3.83919 2.39524C4.22972 2.78576 4.22972 3.41893 3.83919 3.80945L0.839943 6.8087C0.415331 7.21172 0.415331 7.90981 0.839943 8.33442L4.79819 12.2927C5.00689 12.5014 5.28757 12.6093 5.56105 12.6093C5.83453 12.6093 6.1152 12.5014 6.32391 12.2927L10.2822 8.33442C10.7068 7.90981 10.7068 7.21172 10.2822 6.8087Z" fill="white"/>
<rect x="0.771484" y="14.3752" width="12.4561" height="1" rx="0.5" fill="white" stroke="white" stroke-width="0.5"/>
</svg>
