<svg width="12" height="12" viewBox="0 0 12 12" fill="none" xmlns="http://www.w3.org/2000/svg">
<path d="M11.4098 10.8588C11.4028 10.8588 11.3965 10.8605 11.3896 10.8607V10.8588H0.569902V10.8607C0.253574 10.8713 0 11.1209 0 11.4294C0 11.7379 0.253377 11.9874 0.569902 11.9981V12H11.3896V11.9981C11.3965 11.9983 11.403 12 11.4098 12C11.5664 12 11.7165 11.9399 11.8271 11.8329C11.9378 11.7259 12 11.5807 12 11.4294C12 11.2781 11.9378 11.1329 11.8271 11.0259C11.7165 10.9189 11.5664 10.8588 11.4098 10.8588ZM6 10.2073C9.1139 10.2073 10.6389 8.48464 10.6389 5.92373V0.556919C10.6389 0.483767 10.624 0.411332 10.595 0.343751C10.5661 0.27617 10.5236 0.214767 10.4701 0.16305C10.4166 0.111333 10.3531 0.0703149 10.2832 0.0423383C10.2133 0.0143617 10.1383 -2.4951e-05 10.0627 3.24834e-08H9.30256C9.2269 -2.4951e-05 9.15198 0.0143617 9.08207 0.0423383C9.01217 0.0703149 8.94864 0.111333 8.89514 0.16305C8.84163 0.214767 8.79918 0.27617 8.77023 0.343751C8.74127 0.411332 8.72636 0.483767 8.72636 0.556919C8.72636 0.564527 8.72833 0.571374 8.72872 0.578983V5.87732C8.72872 7.5224 7.7817 8.59344 6 8.59344C4.2183 8.59344 3.27128 7.5224 3.27128 5.87732V0.577271C3.27148 0.570423 3.27344 0.563766 3.27344 0.556919C3.27344 0.409215 3.21276 0.26756 3.10474 0.163118C2.99672 0.0586753 2.85021 3.24834e-08 2.69744 3.24834e-08H1.93711C1.78433 2.3874e-08 1.6378 0.0586691 1.52975 0.163106C1.4217 0.267543 1.36097 0.409197 1.36092 0.556919V5.92373C1.36092 8.48464 2.90203 10.2073 6 10.2073Z" fill="current"/>
</svg>
