<svg width="8" height="4" viewBox="0 0 8 4" fill="current" xmlns="http://www.w3.org/2000/svg">
<path d="M0.654081 3.84704C0.752768 3.94498 0.8866 4 1.02614 4C1.16569 4 1.29952 3.94498 1.39821 3.84704L4.00318 1.26103L6.60815 3.84704C6.7074 3.9422 6.84033 3.99486 6.97832 3.99367C7.1163 3.99248 7.24829 3.93754 7.34586 3.84068C7.44344 3.74381 7.49878 3.61278 7.49998 3.4758C7.50118 3.33883 7.44814 3.20686 7.35227 3.10833L4.37524 0.152959C4.27655 0.0550195 4.14272 0 4.00318 0C3.86363 0 3.7298 0.0550195 3.63111 0.152959L0.654081 3.10833C0.555423 3.2063 0.5 3.33916 0.5 3.47768C0.5 3.61621 0.555423 3.74907 0.654081 3.84704Z" fill="current"/>
</svg>
