<svg width="8" height="14" viewBox="0 0 8 14" fill="current" xmlns="http://www.w3.org/2000/svg">
<path d="M7.23438 13.066C7.40104 12.8993 7.48438 12.702 7.48438 12.474C7.48438 12.2465 7.40104 12.0493 7.23438 11.8827L2.35104 6.99935L7.25104 2.09935C7.4066 1.94379 7.48438 1.74935 7.48438 1.51602C7.48438 1.28268 7.40104 1.08268 7.23438 0.916016C7.06771 0.749349 6.87037 0.666016 6.64237 0.666016C6.41482 0.666016 6.21771 0.749349 6.05104 0.916016L0.451041 6.53268C0.384374 6.59935 0.337041 6.67157 0.309041 6.74935C0.281486 6.82713 0.267708 6.91046 0.267708 6.99935C0.267708 7.08824 0.281486 7.17157 0.309041 7.24935C0.337041 7.32713 0.384374 7.39935 0.451041 7.46601L6.06771 13.0827C6.22326 13.2382 6.41482 13.316 6.64237 13.316C6.87037 13.316 7.06771 13.2327 7.23438 13.066Z" fill="current"/>
</svg>
