<svg width="17" height="16" viewBox="0 0 17 16" fill="none" xmlns="http://www.w3.org/2000/svg">
<path d="M10.1167 13.8782C10.3603 13.7375 10.5374 13.5046 10.609 13.2308C10.6807 12.957 10.6409 12.6646 10.4985 12.418L9.96172 11.4883C9.81935 11.2417 9.58602 11.0611 9.31305 10.9862C9.04009 10.9113 8.74985 10.9482 8.5062 11.0889C6.66878 12.1497 5.59514 10.2902 5.05833 9.36042C4.52151 8.43067 3.44787 6.57116 5.28528 5.51038C5.52894 5.36971 5.70606 5.13685 5.77768 4.86302C5.8493 4.58919 5.80955 4.29682 5.66717 4.05023L5.13035 3.12048C4.98798 2.87389 4.75465 2.69329 4.48168 2.61839C4.20872 2.5435 3.91849 2.58045 3.67483 2.72112C1.37806 4.0471 0.536819 5.77244 3.22091 10.4212C5.905 15.07 7.81988 15.2041 10.1167 13.8782Z" stroke="white" stroke-linecap="round" stroke-linejoin="round"/>
<path d="M15.0065 10.0391C15.4945 8.16922 15.2226 6.17317 14.2505 4.48953C13.2784 2.8059 11.6857 1.5724 9.82218 1.06004M12.1937 9.26737C12.3391 8.71202 12.374 8.13215 12.2964 7.5609C12.2188 6.98965 12.0302 6.43821 11.7414 5.93808C11.4527 5.43795 11.0694 4.99893 10.6134 4.6461C10.1575 4.29328 9.63784 4.03355 9.08418 3.88178M9.39602 8.48997C9.49359 8.1158 9.43914 7.71642 9.24463 7.37954C9.05012 7.04266 8.73146 6.79582 8.35862 6.69322" stroke="white" stroke-linecap="round" stroke-linejoin="round"/>
</svg>
