<svg width="current" height="current" viewBox="0 0 14 14" fill="none" xmlns="http://www.w3.org/2000/svg">
<path d="M7.90072 6.09919C7.42291 5.62158 6.77497 5.35327 6.09939 5.35327C5.4238 5.35327 4.77586 5.62158 4.29805 6.09919L2.49614 7.90052C2.01831 8.37834 1.74988 9.02641 1.74988 9.70215C1.74988 10.3779 2.01831 11.026 2.49614 11.5038C2.97396 11.9816 3.62202 12.25 4.29776 12.25C4.9735 12.25 5.62157 11.9816 6.09939 11.5038L7.00005 10.6031" stroke="#0184FF" stroke-linecap="round" stroke-linejoin="round"/>
<path d="M6.09937 7.9006C6.57718 8.37821 7.22511 8.64651 7.9007 8.64651C8.57629 8.64651 9.22422 8.37821 9.70203 7.9006L11.5039 6.09926C11.9818 5.62144 12.2502 4.97338 12.2502 4.29764C12.2502 3.6219 11.9818 2.97383 11.5039 2.49601C11.0261 2.01819 10.3781 1.74976 9.70232 1.74976C9.02658 1.74976 8.37852 2.01819 7.9007 2.49601L7.00003 3.39668" stroke="#0184FF" stroke-linecap="round" stroke-linejoin="round"/>
</svg>
