<svg width="20" height="20" viewBox="0 0 20 20" fill="none" xmlns="http://www.w3.org/2000/svg">
<g id="ant-design:drag-outlined">
<rect width="20" height="20" rx="10" fill="#202020" fill-opacity="0.6"/>
<path id="Vector" d="M17.7602 9.88866L15.2681 7.92187C15.2472 7.90546 15.2222 7.89527 15.1958 7.89244C15.1694 7.88962 15.1428 7.89429 15.1189 7.90591C15.0951 7.91753 15.075 7.93563 15.0609 7.95814C15.0469 7.98065 15.0395 8.00666 15.0395 8.03319V9.29687H10.7036V4.96093H11.9692C12.0864 4.96093 12.1528 4.82421 12.0806 4.73241L10.1118 2.24023C10.0988 2.22336 10.0821 2.20971 10.0629 2.20031C10.0438 2.19092 10.0228 2.18604 10.0015 2.18604C9.98014 2.18604 9.95912 2.19092 9.93999 2.20031C9.92086 2.20971 9.90413 2.22336 9.8911 2.24023L7.92235 4.73241C7.90595 4.75326 7.89576 4.77832 7.89293 4.80469C7.89011 4.83107 7.89478 4.85771 7.9064 4.88156C7.91801 4.90541 7.93612 4.92551 7.95863 4.93955C7.98114 4.95358 8.00715 4.96099 8.03368 4.96093H9.29735V9.29687H4.96142V8.03124C4.96142 7.91405 4.8247 7.84765 4.7329 7.91991L2.24071 9.88866C2.22385 9.90169 2.2102 9.91842 2.2008 9.93754C2.19141 9.95667 2.18652 9.9777 2.18652 9.99901C2.18652 10.0203 2.19141 10.0414 2.2008 10.0605C2.2102 10.0796 2.22385 10.0963 2.24071 10.1094L4.73095 12.0781C4.82275 12.1504 4.95946 12.0859 4.95946 11.9668V10.7031H9.2954V15.0391H8.02978C7.91259 15.0391 7.84618 15.1758 7.91845 15.2676L9.8872 17.7578C9.94384 17.8301 10.0532 17.8301 10.1079 17.7578L12.0767 15.2676C12.1489 15.1758 12.0845 15.0391 11.9653 15.0391H10.7036V10.7031H15.0395V11.9687C15.0395 12.0859 15.1763 12.1523 15.2681 12.0801L17.7583 10.1113C17.7751 10.0981 17.7887 10.0813 17.7982 10.0621C17.8076 10.0429 17.8126 10.0218 17.8128 10.0005C17.813 9.97908 17.8083 9.95793 17.7992 9.93858C17.7902 9.91923 17.7768 9.90217 17.7602 9.88866Z" fill="white"/>
</g>
</svg>
