<svg width="current" height="current" viewBox="0 0 17 14" fill="none" xmlns="http://www.w3.org/2000/svg">
<g clip-path="url(#clip0_101_4)">
<path d="M4.40994 12.9408V6.791L2.61291 5.04615L1.00146 4.07788V11.8556C1.00146 12.4561 1.45988 12.9408 2.02403 12.9408H4.40994V12.9408Z" fill="#4285F4"/>
<path d="M12.5902 12.941H14.9761C15.542 12.941 15.9987 12.4544 15.9987 11.8557V4.07812L14.1735 5.18716L12.5902 6.79118V12.941V12.941Z" fill="#34A853"/>
<path d="M4.40981 6.79114L4.16528 4.38821L4.40981 2.08838L8.49996 5.34417L12.5901 2.08838L12.8636 4.26405L12.5901 6.79114L8.49996 10.0469L4.40981 6.79114Z" fill="#EA4335"/>
<path d="M12.5902 2.08831V6.79107L15.9987 4.07795V2.63092C15.9987 1.28885 14.5552 0.523774 13.5446 1.32864L12.5902 2.08831Z" fill="#FBBC04"/>
<path d="M1.00098 4.07798L2.5686 5.32585L4.40946 6.7911V2.08834L3.45502 1.32867C2.44271 0.52374 1.00098 1.28888 1.00098 2.63089V4.07792V4.07798Z" fill="#C5221F"/>
</g>
<defs>
<clipPath id="clip0_101_4">
<rect width="15" height="12" fill="white" transform="translate(1 1)"/>
</clipPath>
</defs>
</svg>
