<svg width="30" height="30" viewBox="0 0 30 30" fill="none" xmlns="http://www.w3.org/2000/svg">
<g id="ep:location">
<g id="Group 1171274852">
<path id="Vector" d="M24.4286 11.7857C24.4286 9.22827 23.4126 6.77557 21.6042 4.96718C19.7959 3.1588 17.3432 2.14286 14.7857 2.14286C12.2283 2.14286 9.77557 3.1588 7.96718 4.96718C6.1588 6.77557 5.14286 9.22827 5.14286 11.7857C5.14286 15.7414 8.30786 20.8971 14.7857 27.0729C21.2636 20.8971 24.4286 15.7414 24.4286 11.7857ZM14.7857 30C6.92786 22.8579 3 16.785 3 11.7857C3 8.65995 4.24171 5.66221 6.45196 3.45196C8.66221 1.24171 11.6599 0 14.7857 0C17.9115 0 20.9092 1.24171 23.1195 3.45196C25.3297 5.66221 26.5714 8.65995 26.5714 11.7857C26.5714 16.785 22.6436 22.8579 14.7857 30Z" fill="#B0B0B0"/>
<path id="Vector_2" d="M14.7859 14.9992C15.6383 14.9992 16.4559 14.6605 17.0587 14.0577C17.6615 13.4549 18.0001 12.6374 18.0001 11.7849C18.0001 10.9324 17.6615 10.1148 17.0587 9.51203C16.4559 8.90924 15.6383 8.57059 14.7859 8.57059C13.9334 8.57059 13.1158 8.90924 12.513 9.51203C11.9102 10.1148 11.5716 10.9324 11.5716 11.7849C11.5716 12.6374 11.9102 13.4549 12.513 14.0577C13.1158 14.6605 13.9334 14.9992 14.7859 14.9992ZM14.7859 17.142C13.3651 17.142 12.0024 16.5776 10.9978 15.5729C9.99312 14.5683 9.42871 13.2057 9.42871 11.7849C9.42871 10.3641 9.99312 9.00146 10.9978 7.99681C12.0024 6.99215 13.3651 6.42773 14.7859 6.42773C16.2067 6.42773 17.5693 6.99215 18.5739 7.99681C19.5786 9.00146 20.143 10.3641 20.143 11.7849C20.143 13.2057 19.5786 14.5683 18.5739 15.5729C17.5693 16.5776 16.2067 17.142 14.7859 17.142Z" fill="#B0B0B0"/>
</g>
</g>
</svg>
