<svg width="18" height="18" viewBox="0 0 18 18" fill="current" xmlns="http://www.w3.org/2000/svg">
<path fill-rule="evenodd" clip-rule="evenodd" d="M0.46967 0.46967C0.762563 0.176777 1.23744 0.176777 1.53033 0.46967L17.5303 16.4697C17.8232 16.7626 17.8232 17.2374 17.5303 17.5303C17.2374 17.8232 16.7626 17.8232 16.4697 17.5303L0.46967 1.53033C0.176777 1.23744 0.176777 0.762563 0.46967 0.46967Z" fill="current"/>
<path fill-rule="evenodd" clip-rule="evenodd" d="M17.5303 0.46967C17.8232 0.762563 17.8232 1.23744 17.5303 1.53033L1.53033 17.5303C1.23744 17.8232 0.762563 17.8232 0.46967 17.5303C0.176777 17.2374 0.176777 16.7626 0.46967 16.4697L16.4697 0.46967C16.7626 0.176777 17.2374 0.176777 17.5303 0.46967Z" fill="current"/>
</svg>
