<svg width="current" height="current" viewBox="0 0 16 16" fill="none" xmlns="http://www.w3.org/2000/svg">
<path d="M13.897 3.1495H7.36252L6.732 1H2.433C2.05294 1 1.68846 1.15098 1.41972 1.41972C1.15098 1.68846 1 2.05294 1 2.433V11.7475C1 12.1276 1.15098 12.492 1.41972 12.7608C1.68846 13.0295 2.05294 13.1805 2.433 13.1805H7.4485L8.165 15.33H13.897C14.2771 15.33 14.6415 15.179 14.9103 14.9103C15.179 14.6415 15.33 14.2771 15.33 13.897V4.5825C15.33 4.20244 15.179 3.83796 14.9103 3.56922C14.6415 3.30048 14.2771 3.1495 13.897 3.1495ZM4.7043 10.0207C3.92709 10.0207 3.18171 9.71199 2.63214 9.16242C2.08257 8.61284 1.77382 7.86746 1.77382 7.09025C1.77382 6.31304 2.08257 5.56766 2.63214 5.01808C3.18171 4.46851 3.92709 4.15976 4.7043 4.15976C5.44946 4.15976 6.13014 4.42487 6.66751 4.94075L6.732 4.96941L5.83637 5.81488L5.79338 5.77906C5.5856 5.5856 5.23452 5.35632 4.7043 5.35632C3.76569 5.35632 2.99903 6.1373 2.99903 7.09025C2.99903 8.04319 3.76569 8.82418 4.7043 8.82418C5.68591 8.82418 6.10864 8.20082 6.22328 7.77809H4.63982V6.66751H7.46999L7.47716 6.732C7.50582 6.86813 7.51298 7.00427 7.51298 7.15474C7.51298 8.83851 6.37375 10.0207 4.7043 10.0207ZM9.0248 8.79552C9.26124 9.23975 9.55501 9.64099 9.87743 10.0136L9.49053 10.3933L9.0248 8.79552ZM9.5765 8.25098H8.8815L8.64505 7.50582H11.5039C11.5039 7.50582 11.2603 8.44443 10.3862 9.46903C10.0136 9.0248 9.74846 8.58773 9.5765 8.25098ZM14.6135 13.897C14.6135 14.087 14.538 14.2693 14.4036 14.4036C14.2693 14.538 14.087 14.6135 13.897 14.6135H8.8815L10.3145 13.1805L9.73413 11.1958L10.3933 10.5366L12.3135 12.464L12.8222 11.941L10.8949 10.0207C11.5397 9.28274 12.0413 8.40861 12.2705 7.50582H13.1805V6.76066H10.5724V6.0155H9.82728V6.76066H8.42294L7.57747 3.866H13.897C14.087 3.866 14.2693 3.94149 14.4036 4.07586C14.538 4.21023 14.6135 4.39247 14.6135 4.5825V13.897Z" fill="current"/>
</svg>
