<svg width="current" height="current" viewBox="0 0 182 214" fill="current" xmlns="http://www.w3.org/2000/svg">
<path d="M91.0265 61.6667C82.5395 61.6667 74.4002 65.0381 68.3991 71.0393C62.3979 77.0404 59.0265 85.1798 59.0265 93.6667C59.0265 102.154 62.3979 110.293 68.3991 116.294C74.4002 122.295 82.5395 125.667 91.0265 125.667C99.5134 125.667 107.653 122.295 113.654 116.294C119.655 110.293 123.026 102.154 123.026 93.6667C123.026 85.1798 119.655 77.0404 113.654 71.0393C107.653 65.0381 99.5134 61.6667 91.0265 61.6667ZM72.3598 93.6667C72.3598 88.716 74.3265 83.968 77.8271 80.4674C81.3278 76.9667 86.0758 75 91.0265 75C95.9772 75 100.725 76.9667 104.226 80.4674C107.726 83.968 109.693 88.716 109.693 93.6667C109.693 98.6174 107.726 103.365 104.226 106.866C100.725 110.367 95.9772 112.333 91.0265 112.333C86.0758 112.333 81.3278 110.367 77.8271 106.866C74.3265 103.365 72.3598 98.6174 72.3598 93.6667ZM160.333 149.667L106.53 206.787C104.536 208.905 102.129 210.592 99.4585 211.746C96.7876 212.899 93.9091 213.494 90.9998 213.494C88.0905 213.494 85.212 212.899 82.5412 211.746C79.8703 210.592 77.4637 208.905 75.4691 206.787L21.6665 149.667H21.8691L21.7785 149.56L21.6665 149.427C7.85685 133.094 0.296439 112.388 0.333141 91C0.333141 40.9254 40.9251 0.333374 90.9998 0.333374C141.074 0.333374 181.666 40.9254 181.666 91C181.703 112.388 174.143 133.094 160.333 149.427L160.221 149.56L160.13 149.667H160.333ZM149.97 141.032C161.854 127.073 168.365 109.332 168.333 91C168.333 48.2907 133.709 13.6667 90.9998 13.6667C48.2905 13.6667 13.6665 48.2907 13.6665 91C13.6331 109.332 20.1447 127.074 32.0291 141.032L33.6718 142.968L85.1758 197.64C85.9238 198.434 86.8263 199.067 87.8278 199.5C88.8294 199.932 89.9088 200.155 90.9998 200.155C92.0908 200.155 93.1702 199.932 94.1718 199.5C95.1734 199.067 96.0759 198.434 96.8238 197.64L148.328 142.968L149.97 141.032Z" fill="current"/>
</svg>
