<svg width="16" height="16" viewBox="0 0 16 16" fill="none" xmlns="http://www.w3.org/2000/svg">
<g id="material-symbols:lock-outline">
<path id="Vector" d="M3.99996 14.6667C3.63329 14.6667 3.31929 14.536 3.05796 14.2747C2.79663 14.0133 2.66618 13.6995 2.66663 13.3333V6.66666C2.66663 6.29999 2.79729 5.98599 3.05863 5.72466C3.31996 5.46332 3.63374 5.33288 3.99996 5.33332H4.66663V3.99999C4.66663 3.07777 4.99174 2.29155 5.64196 1.64132C6.29218 0.991101 7.07818 0.666213 7.99996 0.666657C8.92218 0.666657 9.7084 0.991768 10.3586 1.64199C11.0088 2.29221 11.3337 3.07821 11.3333 3.99999V5.33332H12C12.3666 5.33332 12.6806 5.46399 12.942 5.72532C13.2033 5.98666 13.3337 6.30043 13.3333 6.66666V13.3333C13.3333 13.7 13.2026 14.014 12.9413 14.2753C12.68 14.5367 12.3662 14.6671 12 14.6667H3.99996ZM3.99996 13.3333H12V6.66666H3.99996V13.3333ZM7.99996 11.3333C8.36663 11.3333 8.68063 11.2027 8.94196 10.9413C9.20329 10.68 9.33374 10.3662 9.33329 9.99999C9.33329 9.63332 9.20263 9.31932 8.94129 9.05799C8.67996 8.79666 8.36618 8.66621 7.99996 8.66666C7.63329 8.66666 7.31929 8.79732 7.05796 9.05866C6.79663 9.31999 6.66618 9.63377 6.66663 9.99999C6.66663 10.3667 6.79729 10.6807 7.05863 10.942C7.31996 11.2033 7.63374 11.3338 7.99996 11.3333ZM5.99996 5.33332H9.99996V3.99999C9.99996 3.44443 9.80552 2.97221 9.41663 2.58332C9.02774 2.19443 8.55552 1.99999 7.99996 1.99999C7.4444 1.99999 6.97218 2.19443 6.58329 2.58332C6.1944 2.97221 5.99996 3.44443 5.99996 3.99999V5.33332Z" fill="#14A032"/>
</g>
</svg>
