<svg width="24" height="24" viewBox="0 0 24 24" fill="none" xmlns="http://www.w3.org/2000/svg">
<g id="logos:mastercard">
<g id="Group 6">
<path id="Vector" d="M8.74658 6.27048H15.2294V17.7294H8.74658V6.27048Z" fill="#FF5F00"/>
<g id="Group 5">
<path id="Vector_2" d="M9.15834 12C9.15834 9.6718 10.2697 7.60671 11.9778 6.27048C10.7225 5.29871 9.13781 4.71161 7.40906 4.71161C3.31341 4.71161 0 7.97109 0 12C0 16.0288 3.31341 19.2884 7.40897 19.2884C9.13772 19.2884 10.7224 18.7013 11.9778 17.7294C10.2697 16.4135 9.15834 14.3282 9.15834 12Z" fill="#EB001B"/>
<path id="Vector_3" d="M23.9761 12C23.9761 16.0288 20.6627 19.2884 16.5671 19.2884C14.8384 19.2884 13.2537 18.7013 11.9983 17.7294C13.727 16.3933 14.8178 14.3282 14.8178 12C14.8178 9.6718 13.7064 7.60671 11.9983 6.27048C13.2536 5.29871 14.8384 4.71161 16.5671 4.71161C20.6627 4.71161 23.9761 7.99138 23.9761 12Z" fill="#F79E1B"/>
</g>
</g>
</g>
</svg>
