<svg width="49" height="48" viewBox="0 0 49 48" fill="none" xmlns="http://www.w3.org/2000/svg">
<g id="Group">
<path id="Vector" fill-rule="evenodd" clip-rule="evenodd" d="M25.3846 0.0357079C12.4919 -0.662133 1.42726 8.9504 0.201293 21.6826C1.04481 15.698 6.34174 11.2511 12.4887 11.5841C18.9801 11.9355 23.9575 17.4827 23.6056 23.9736C23.2541 30.4651 17.707 35.4425 11.216 35.0905C5.06861 34.758 0.282685 29.7649 0.0903047 23.7239C-0.0655418 36.5144 9.89615 47.266 22.7893 47.9643C36.0247 48.6806 47.3345 38.533 48.0513 25.2976C48.7681 12.0627 38.62 0.752509 25.3846 0.0357079Z" fill="url(#paint0_linear_7_207)"/>
<path id="Vector_2" d="M19.8949 4.96962C9.75376 4.42023 1.05826 12.0243 0.176826 22.0656C0.844145 15.8891 6.23773 11.246 12.5146 11.5859C19.0056 11.9374 23.983 17.4845 23.6315 23.9755C23.28 30.4669 17.7329 35.4439 11.2419 35.0924C4.9646 34.752 0.104221 29.5536 0.107921 23.3415C-0.0997202 33.4188 7.72313 41.9173 17.8642 42.4667C28.2186 43.0272 37.0676 35.0878 37.6281 24.7335C38.1886 14.3787 30.2492 5.53011 19.8949 4.96962Z" fill="#CAC9CA"/>
<path id="Vector_3" d="M0.110718 23.2085L0.111648 23.1653L0.110718 23.2085Z" fill="#CAC9CA"/>
<path id="Vector_4" d="M0.165465 22.1978L0.161743 22.2406L0.165465 22.1978Z" fill="#CAC9CA"/>
<path id="Vector_5" fill-rule="evenodd" clip-rule="evenodd" d="M37.4918 25.8591C37.4807 25.9506 37.4696 26.0422 37.4562 26.1338C37.4409 26.2609 37.4215 26.3858 37.4021 26.5102C37.3886 26.6059 37.3729 26.7017 37.3549 26.7969C37.3327 26.9403 37.3059 27.0832 37.2777 27.2247C37.2656 27.2931 37.2513 27.3593 37.237 27.4259C37.1463 27.867 37.0409 28.3017 36.9193 28.729C36.9031 28.791 36.885 28.853 36.867 28.9131C36.8467 28.9852 36.8258 29.0555 36.8036 29.1254C36.7828 29.1994 36.7602 29.272 36.7352 29.3436C36.7024 29.4445 36.6695 29.5453 36.6349 29.6465C36.6025 29.7474 36.5673 29.8482 36.5308 29.949C36.4614 30.1488 36.3856 30.3458 36.3079 30.5428C36.2302 30.7398 36.1483 30.934 36.0646 31.1269C36.0286 31.2087 35.9925 31.2887 35.9574 31.3687C35.907 31.4811 35.8547 31.5916 35.801 31.7022C35.7557 31.7983 35.7109 31.8922 35.6637 31.9861C35.6165 32.08 35.5698 32.1739 35.5208 32.2654C35.4718 32.3593 35.4232 32.4509 35.3737 32.5443C35.0755 33.0964 34.7508 33.632 34.4003 34.1476C34.3457 34.2285 34.2884 34.3113 34.2324 34.3899C33.93 34.82 33.6118 35.239 33.2756 35.6399C33.2109 35.7204 33.1433 35.7986 33.0744 35.8762C32.9958 35.9687 32.9153 36.0608 32.8353 36.1505C32.7775 36.2143 32.7193 36.2781 32.6615 36.3405C32.5033 36.5121 32.341 36.6814 32.1768 36.8465C32.0862 36.938 31.9951 37.0296 31.9003 37.1184C31.5992 37.4125 31.2861 37.6932 30.9656 37.9651C30.8796 38.0382 30.7922 38.1108 30.7044 38.1816C30.3187 38.496 29.921 38.7952 29.5117 39.0792C29.4396 39.1296 29.366 39.1782 29.292 39.2286C29.1857 39.3007 29.0765 39.3719 28.9683 39.4394C28.8684 39.5033 28.7685 39.5671 28.6668 39.6281C28.6104 39.6628 28.5563 39.6975 28.5022 39.7285C28.4434 39.765 28.3828 39.7997 28.3246 39.8339C28.2922 39.8552 28.2598 39.8746 28.2251 39.8913C28.0651 39.9833 27.9051 40.073 27.7433 40.1604C27.2184 40.4444 26.6806 40.7006 26.1316 40.9327C26.0202 40.9789 25.9106 41.0252 25.7991 41.0701C25.6132 41.144 25.4264 41.2153 25.2386 41.2809C25.0893 41.3378 24.9371 41.3901 24.7854 41.4409C24.5574 41.5168 24.3267 41.588 24.095 41.6551C23.9798 41.6888 23.8628 41.7221 23.7458 41.7536C23.6991 41.7656 23.6524 41.7776 23.6034 41.7919C23.5715 41.8007 23.5396 41.8095 23.5077 41.816C23.4735 41.8248 23.4397 41.8331 23.4036 41.8414C23.2825 41.8729 23.1613 41.902 23.0406 41.9288C23.0004 41.9371 22.9601 41.9455 22.9199 41.9561C22.6757 42.0102 22.432 42.0574 22.1864 42.1032C22.0916 42.1189 21.9941 42.1342 21.8988 42.1503C21.7083 42.1822 21.5182 42.2114 21.3263 42.2368C21.1806 42.2539 21.0331 42.2734 20.8874 42.2886C20.7464 42.3039 20.6053 42.3173 20.462 42.3284C20.2705 42.3455 20.0767 42.3598 19.8811 42.3705C19.7863 42.3756 19.6924 42.3793 19.5958 42.382C19.3562 42.3922 19.1171 42.3982 18.8757 42.3973C18.8277 42.3968 18.7796 42.3964 18.7315 42.3959C18.4461 42.395 18.1594 42.3857 17.8713 42.3723L17.8186 42.3695C17.5305 42.3515 17.2447 42.3298 16.9612 42.2997C16.9131 42.2951 16.865 42.2905 16.8169 42.2854C16.5774 42.2599 16.3401 42.228 16.1029 42.1924C16.0072 42.1785 15.9133 42.1651 15.8199 42.1499C15.6266 42.1184 15.436 42.0828 15.2473 42.0454C15.1063 42.019 14.9671 41.9903 14.8284 41.9598C14.6859 41.9293 14.5407 41.8937 14.3978 41.8608C14.2096 41.8146 14.0237 41.7651 13.8378 41.7133C13.7448 41.6874 13.65 41.6615 13.5571 41.6352C13.318 41.5639 13.0808 41.49 12.844 41.41C12.8051 41.3952 12.7658 41.3827 12.727 41.3697C12.6095 41.33 12.4925 41.2879 12.3755 41.2439C12.3427 41.2319 12.3075 41.2194 12.2747 41.2069C12.2437 41.1968 12.2127 41.1847 12.1822 41.1727C12.135 41.1533 12.0897 41.1362 12.0444 41.1191C11.9316 41.0756 11.8187 41.0294 11.7082 40.9836C11.4848 40.892 11.2633 40.7963 11.0446 40.6959C10.8809 40.6201 10.7176 40.5424 10.5585 40.4624C10.3948 40.3847 10.2357 40.3024 10.0771 40.2182C9.97122 40.1623 9.86763 40.104 9.76173 40.0462C9.50137 39.9019 9.24286 39.7516 8.99221 39.5934C8.90897 39.543 8.82573 39.4903 8.7448 39.4376C8.65138 39.3779 8.55843 39.3183 8.46548 39.2545C8.2065 39.081 7.95215 38.9039 7.70428 38.7185C7.39582 38.4919 7.09616 38.256 6.80388 38.0095C6.73775 37.9517 6.66977 37.8953 6.60364 37.837C6.49959 37.7478 6.39554 37.6562 6.2938 37.5623C6.20547 37.4847 6.11761 37.4042 6.03205 37.3219C5.93817 37.2354 5.84661 37.1485 5.75689 37.0597C5.6792 36.9824 5.59966 36.9047 5.52428 36.8271C5.44104 36.7429 5.35733 36.6587 5.27594 36.5727C4.8676 36.144 4.48099 35.6973 4.11611 35.2334C4.0435 35.1396 3.9709 35.0475 3.89876 34.9513C3.82615 34.857 3.75632 34.7636 3.68788 34.6674C3.61759 34.5717 3.54961 34.4759 3.48163 34.3774C3.41365 34.2817 3.3452 34.1837 3.28138 34.0861C3.21525 33.9881 3.14958 33.8882 3.08577 33.7883C2.82864 33.391 2.58632 32.9836 2.35972 32.5651C2.30283 32.4592 2.24734 32.3551 2.19231 32.2497C2.15254 32.1725 2.11277 32.0948 2.07299 32.0171C1.85934 31.5902 1.66049 31.1518 1.47921 30.7083C1.43851 30.6098 1.39966 30.5136 1.36359 30.4151C1.32475 30.319 1.28821 30.2205 1.25122 30.1219C1.02277 29.5041 0.824373 28.8682 0.662052 28.2227C0.632918 28.1061 0.603783 27.9891 0.576498 27.8698C0.547364 27.7468 0.521004 27.6215 0.494182 27.4966C0.471059 27.3842 0.447474 27.27 0.426664 27.1553C0.404004 27.0346 0.380881 26.9139 0.360071 26.7932C0.283766 26.3405 0.222722 25.8826 0.178789 25.4188C0.171852 25.3513 0.164916 25.2842 0.160753 25.2144C0.152892 25.1279 0.14688 25.0438 0.140868 24.9577C0.133469 24.8611 0.12607 24.764 0.123295 24.6655C0.118208 24.6086 0.114971 24.5499 0.114046 24.4907C0.102484 24.2724 0.0978599 24.0541 0.0950852 23.834C0.0918481 23.427 0.0992473 23.0187 0.121445 22.6071C0.143643 22.1955 0.180639 21.7867 0.227809 21.3825C1.16011 15.5015 6.40941 11.16 12.4865 11.4888C15.1137 11.6308 17.4935 12.6232 19.3724 14.1863C16.3767 16.1725 14.3266 19.5013 14.1176 23.3651C13.9081 27.2293 15.5872 30.7578 18.3509 33.0557C20.228 34.6184 22.6077 35.6126 25.2349 35.7551C31.312 36.0843 36.5609 31.7405 37.4936 25.8591H37.4918Z" fill="url(#paint1_linear_7_207)"/>
<path id="Vector_6" fill-rule="evenodd" clip-rule="evenodd" d="M37.5976 24.6363C37.5754 25.0484 37.5384 25.4549 37.4913 25.859C36.559 31.7401 31.3101 36.0843 25.2326 35.7551C22.6054 35.6126 20.2261 34.6184 18.3485 33.0557C21.342 31.0695 23.392 27.7431 23.6011 23.8788C23.8105 20.0146 22.1318 16.4842 19.3701 14.1863C17.4911 12.6232 15.1109 11.6308 12.4842 11.4888C6.40707 11.16 1.15777 15.5015 0.225464 21.3825C1.00192 14.8578 5.09416 9.42811 10.6954 6.7112L10.7338 6.69224C10.9081 6.60946 11.0825 6.52853 11.2582 6.45038C11.3678 6.40367 11.4774 6.35511 11.587 6.30887C11.9066 6.17337 12.2317 6.0485 12.5609 5.92965C12.6701 5.89173 12.7787 5.85335 12.8902 5.81543C12.9244 5.80479 12.9563 5.79369 12.9905 5.78306C13.2 5.71276 13.4109 5.64848 13.6236 5.58651C13.7388 5.55276 13.8558 5.51946 13.9728 5.48801C14.02 5.47599 14.0662 5.4635 14.1152 5.45148C14.3002 5.40107 14.4889 5.35436 14.678 5.31228L14.7987 5.28731C15.0424 5.2332 15.2862 5.18372 15.5322 5.14025C15.6274 5.12267 15.7246 5.10649 15.8198 5.09123C16.0104 5.05932 16.2004 5.03203 16.3923 5.00706C16.538 4.98718 16.6855 4.97053 16.8312 4.95295C16.9727 4.93723 17.1138 4.92428 17.2567 4.91272C17.4486 4.89607 17.6424 4.88359 17.8375 4.87295C17.9318 4.8674 18.0267 4.86185 18.1233 4.85861C18.3624 4.85075 18.6019 4.84474 18.8433 4.84335C18.8914 4.84382 18.9395 4.84428 18.9881 4.84474C19.273 4.84752 19.5597 4.85491 19.8483 4.87018L19.9005 4.87341C20.1886 4.88867 20.4749 4.91272 20.7584 4.94093C20.8065 4.94555 20.8541 4.95018 20.9022 4.95527C21.1417 4.98301 21.379 5.01446 21.6162 5.04868C21.7119 5.06209 21.8053 5.07782 21.8988 5.09308C22.0921 5.12452 22.2831 5.15782 22.4717 5.19528C22.6128 5.2221 22.7515 5.25031 22.8907 5.28083C23.0336 5.31413 23.1784 5.34696 23.3208 5.38165C23.509 5.42743 23.6954 5.47506 23.8808 5.52732C23.9738 5.55368 24.0686 5.57958 24.1615 5.60779C24.4011 5.67716 24.6374 5.753 24.8746 5.833L24.9921 5.87046C25.1752 5.93289 25.3579 5.99948 25.5364 6.06978C25.5836 6.08689 25.6294 6.10446 25.6742 6.12111C25.7871 6.16458 25.8999 6.21082 26.0109 6.25661C26.2158 6.34077 26.4188 6.42772 26.619 6.52021C26.6514 6.53454 26.6824 6.54888 26.7152 6.56275C26.8216 6.6127 26.9256 6.66264 27.032 6.71212C27.3441 6.8652 27.6545 7.02428 27.9574 7.194C28.0609 7.25181 28.165 7.31192 28.2686 7.36973C28.4351 7.46685 28.5997 7.56627 28.7639 7.66709L28.8004 7.68975C34.0751 10.9958 37.5569 16.8352 37.6245 23.4057C37.6277 23.8122 37.6198 24.2229 37.5976 24.6345V24.6363Z" fill="url(#paint2_linear_7_207)"/>
<path id="Vector_7" fill-rule="evenodd" clip-rule="evenodd" d="M31.2717 37.795C30.8842 38.1113 30.4846 38.4123 30.0731 38.6977C30.0009 38.7485 29.9265 38.7971 29.8525 38.848C29.7452 38.9206 29.636 38.9927 29.5274 39.0607C29.427 39.1245 29.3267 39.1888 29.224 39.2508C29.1676 39.2854 29.113 39.3206 29.0584 39.3516C28.9997 39.3881 28.9387 39.4228 28.8799 39.4575C28.8476 39.4792 28.8147 39.4986 28.78 39.5153C28.6196 39.6078 28.4586 39.698 28.2959 39.7863C27.7687 40.0721 27.2285 40.3297 26.6763 40.5627C26.564 40.6099 26.4544 40.6566 26.3425 40.701C26.1552 40.7755 25.9679 40.8472 25.7792 40.9133C25.6289 40.9702 25.4763 41.0233 25.3241 41.0742C25.0948 41.1501 24.8635 41.2222 24.6305 41.2897C24.5148 41.3235 24.3974 41.3572 24.2799 41.3887C24.2327 41.4007 24.186 41.4132 24.137 41.4275C24.1047 41.4363 24.0727 41.4446 24.0408 41.4516C24.0066 41.4604 23.9729 41.4692 23.9363 41.4779C23.8147 41.5094 23.6931 41.5385 23.5714 41.5658C23.5307 41.5741 23.4905 41.5825 23.4498 41.5931C23.2047 41.6472 22.9601 41.6953 22.7136 41.7411C22.6179 41.7568 22.5203 41.7725 22.4246 41.7882C22.2331 41.8202 22.0421 41.8502 21.8488 41.8752C21.7027 41.8928 21.5542 41.9122 21.4081 41.927C21.2661 41.9427 21.1246 41.9561 20.9808 41.9677C20.7879 41.9843 20.5937 41.9991 20.3972 42.0098C20.3024 42.0153 20.2071 42.0185 20.11 42.0213C19.8695 42.0315 19.629 42.0375 19.3872 42.037C19.3386 42.0366 19.2905 42.0361 19.242 42.0357C18.9557 42.0347 18.6676 42.0255 18.3776 42.0121L18.3249 42.0093C18.0354 41.9913 17.7478 41.9691 17.4634 41.9395C17.4153 41.9344 17.3672 41.9298 17.3186 41.9251C17.0777 41.8992 16.8395 41.8678 16.6014 41.8313C16.5052 41.8174 16.4113 41.804 16.3174 41.7882C16.1232 41.7568 15.9313 41.7207 15.7417 41.6833C15.6001 41.6564 15.4605 41.6278 15.3208 41.5972C15.1775 41.5663 15.0318 41.5307 14.888 41.4978C14.6993 41.4516 14.5125 41.4021 14.3252 41.3494C14.2318 41.323 14.1365 41.2967 14.0431 41.2708C13.8031 41.1986 13.5644 41.1246 13.3272 41.0442C13.2879 41.0294 13.2486 41.0169 13.2093 41.0039C13.0913 40.9642 12.9734 40.9216 12.856 40.8772C12.8227 40.8647 12.788 40.8527 12.7547 40.8402C12.7237 40.83 12.6927 40.818 12.6617 40.8055C12.6141 40.7856 12.5688 40.769 12.5235 40.7514C12.4102 40.7075 12.2969 40.6612 12.1854 40.615C11.9611 40.523 11.7387 40.4268 11.5185 40.326C11.3544 40.2497 11.1902 40.171 11.0302 40.0906C10.866 40.012 10.7065 39.9296 10.5465 39.8455C10.4401 39.7891 10.3361 39.7308 10.2297 39.6721C9.96794 39.5268 9.70897 39.3761 9.45647 39.217C9.37276 39.1661 9.28952 39.113 9.20767 39.0602C9.11425 39.0006 9.02037 38.9405 8.92742 38.8762C8.66706 38.7018 8.41132 38.5233 8.16252 38.337C7.85268 38.1094 7.55162 37.8717 7.2575 37.6239C7.19137 37.5656 7.12247 37.5092 7.05634 37.4509C6.95136 37.3612 6.84731 37.2692 6.74511 37.1748C6.65678 37.0962 6.56845 37.0153 6.48243 36.933C6.38809 36.8456 6.29607 36.7581 6.20589 36.6694C6.1282 36.5917 6.04773 36.513 5.97235 36.4354C5.88864 36.3507 5.80494 36.2661 5.72309 36.1796C5.31289 35.7482 4.92443 35.2991 4.55771 34.8325C4.4851 34.7377 4.41203 34.6457 4.33943 34.5485C4.26682 34.4542 4.19607 34.3599 4.12762 34.2632C4.05687 34.167 3.98889 34.0704 3.92045 33.9719C3.852 33.8757 3.78356 33.7767 3.71928 33.6787C3.65315 33.5802 3.58702 33.4798 3.52274 33.3795C3.26469 32.9794 3.02144 32.5697 2.79391 32.1489C2.73657 32.0425 2.68061 31.938 2.62558 31.8316C2.58535 31.7539 2.54557 31.6758 2.50534 31.5976C2.29076 31.1685 2.09145 30.7273 1.90924 30.281C1.86808 30.1821 1.82924 30.085 1.7927 29.986C1.75386 29.8889 1.71732 29.7899 1.68033 29.6909C1.45049 29.0689 1.25163 28.4298 1.08885 27.7801C1.05925 27.6626 1.02966 27.5452 1.00283 27.4254C0.973699 27.3019 0.946876 27.1757 0.920054 27.0499C0.896469 26.937 0.873346 26.8219 0.852074 26.7067C0.828951 26.5856 0.806291 26.464 0.78548 26.3428C0.709176 25.8877 0.647669 25.4267 0.603736 24.9605C0.5968 24.8925 0.589863 24.825 0.585701 24.7552C0.577377 24.6683 0.571365 24.5836 0.565815 24.4971C0.558416 24.3996 0.551017 24.3024 0.548242 24.203C0.542693 24.1457 0.539918 24.0865 0.538531 24.0278C0.527432 23.8081 0.522345 23.5884 0.51957 23.3664C0.516795 22.9572 0.524195 22.5465 0.546855 22.1326C0.569053 21.7183 0.606511 21.3071 0.653681 20.9007C1.07035 18.2707 2.9456 15.6033 4.76812 13.8621C2.50534 15.5108 0.5894 18.4945 0.134347 21.3677C0.087177 21.7742 0.0501808 22.1853 0.0275206 22.5992C0.00532293 23.0136 -0.00253877 23.4243 0.000698398 23.8335C0.00347311 24.055 0.00856009 24.2742 0.019659 24.4944C0.0205839 24.5536 0.023821 24.6128 0.0293705 24.6696C0.0321452 24.7691 0.0395444 24.8666 0.0469437 24.9638C0.0529555 25.0507 0.058505 25.1353 0.0668291 25.2218C0.0709912 25.2916 0.0783904 25.3596 0.0848648 25.4271C0.128798 25.8938 0.190304 26.3544 0.266609 26.8099C0.287419 26.931 0.310079 27.0527 0.333202 27.1738C0.354475 27.289 0.377597 27.4041 0.401182 27.517C0.428005 27.6427 0.455289 27.7685 0.483961 27.8925C0.511246 28.0118 0.540843 28.1297 0.57044 28.2472C0.733223 28.8969 0.932078 29.536 1.16192 30.1576C1.19845 30.2565 1.23545 30.3555 1.27429 30.4526C1.31129 30.5516 1.35013 30.6487 1.39083 30.7477C1.57304 31.1939 1.77235 31.6351 1.98693 32.0643C2.02717 32.1419 2.06694 32.2201 2.10671 32.2983C2.1622 32.4046 2.2177 32.5087 2.27504 32.615C2.50257 33.0363 2.74582 33.4461 3.00433 33.8461C3.06815 33.9464 3.13428 34.0468 3.20087 34.1453C3.26515 34.2438 3.33359 34.3423 3.40204 34.4385C3.47002 34.537 3.53846 34.6332 3.60922 34.7298C3.67766 34.8265 3.74841 34.9208 3.82102 35.0156C3.89362 35.1118 3.96669 35.2048 4.0393 35.2996C4.40602 35.7662 4.79402 36.2152 5.20468 36.6467C5.28653 36.7336 5.37023 36.8183 5.45394 36.9029C5.52978 36.9806 5.60979 37.0587 5.68748 37.1369C5.77719 37.2261 5.86922 37.3136 5.96402 37.4005C6.05004 37.4833 6.13837 37.5642 6.2267 37.6424C6.3289 37.7367 6.43341 37.8287 6.53793 37.9189C6.60452 37.9772 6.67296 38.0336 6.73909 38.0923C7.03321 38.3402 7.33427 38.5779 7.64365 38.8054C7.89291 38.9918 8.14819 39.1698 8.40855 39.3442C8.50196 39.408 8.59538 39.4681 8.68879 39.5282C8.77019 39.5814 8.85389 39.6341 8.93759 39.685C9.18963 39.8441 9.44907 39.9953 9.71081 40.1401C9.81718 40.1983 9.92123 40.2566 10.0281 40.313C10.1876 40.3976 10.3471 40.48 10.5118 40.5586C10.6718 40.6386 10.836 40.7172 11.0001 40.7935C11.2198 40.8939 11.4422 40.9905 11.6665 41.083C11.778 41.1288 11.8913 41.175 12.0046 41.2194C12.0499 41.2365 12.0952 41.2536 12.1429 41.2731C12.1738 41.2851 12.2048 41.2976 12.2358 41.3078C12.2691 41.3198 12.3038 41.3323 12.3371 41.3443C12.4545 41.3887 12.5725 41.4312 12.6904 41.471C12.7292 41.4835 12.769 41.496 12.8083 41.5112C13.046 41.5917 13.2842 41.6657 13.5247 41.7374C13.6181 41.7637 13.7133 41.7901 13.8068 41.816C13.9936 41.8678 14.1804 41.9182 14.3696 41.9644C14.5129 41.9977 14.6586 42.0329 14.8024 42.0639C14.9421 42.0949 15.0813 42.1235 15.2232 42.1499C15.4129 42.1878 15.6043 42.2234 15.799 42.2553C15.8929 42.271 15.9868 42.2845 16.0829 42.2979C16.3211 42.3339 16.5593 42.3658 16.8002 42.3913C16.8483 42.3959 16.8964 42.401 16.945 42.4056C17.2294 42.4361 17.517 42.4579 17.8065 42.4754L17.8592 42.4782C18.1492 42.4916 18.4368 42.5009 18.7236 42.5018C18.7721 42.5023 18.8207 42.5027 18.8688 42.5037C19.1111 42.5041 19.3511 42.4981 19.5916 42.4879C19.6887 42.4847 19.784 42.481 19.8788 42.4759C20.0753 42.4657 20.2695 42.4509 20.4624 42.4338C20.6062 42.4227 20.7477 42.4093 20.8897 42.3936C21.0358 42.3783 21.1843 42.3589 21.3304 42.3418C21.5237 42.3164 21.7147 42.2863 21.9062 42.2549C22.0019 42.2391 22.0995 42.2234 22.1952 42.2072C22.4417 42.1614 22.6868 42.1133 22.9319 42.0597C22.9726 42.0491 23.0128 42.0407 23.053 42.032C23.1747 42.0047 23.2963 41.976 23.4179 41.9441C23.4544 41.9358 23.4887 41.927 23.5229 41.9182C23.5548 41.9117 23.5867 41.9029 23.6191 41.8941C23.6681 41.8798 23.7148 41.8678 23.762 41.8558C23.8794 41.8239 23.9974 41.7906 24.1125 41.7568C24.3456 41.6893 24.5768 41.6171 24.8067 41.5413C24.9588 41.4904 25.1109 41.4377 25.2617 41.3804C25.4504 41.3147 25.6372 41.2425 25.8245 41.1686C25.9369 41.1242 26.0465 41.077 26.1589 41.0303C26.7106 40.7967 27.2507 40.5392 27.7779 40.2534C27.9407 40.1655 28.1012 40.0749 28.2626 39.9824C28.2972 39.9653 28.3296 39.9458 28.3625 39.9246C28.4207 39.8899 28.4818 39.8552 28.541 39.8182C28.5951 39.7877 28.6496 39.7525 28.7065 39.7174C28.8087 39.6554 28.9091 39.5916 29.0094 39.5268C29.1186 39.4589 29.2277 39.3872 29.3345 39.315C29.409 39.2642 29.483 39.2156 29.5551 39.1643C29.9667 38.879 30.3663 38.5779 30.7538 38.2616C30.8421 38.1904 30.9305 38.1173 31.0165 38.0438C31.2426 37.8518 31.4632 37.6535 31.6801 37.4509C31.632 37.4925 31.5848 37.5355 31.5363 37.5772C31.4502 37.6507 31.3619 37.7237 31.2736 37.795H31.2717Z" fill="white"/>
<path id="Vector_8" fill-rule="evenodd" clip-rule="evenodd" d="M24.0154 23.477C24.2245 19.6127 22.5462 16.0823 19.7845 13.7844C17.9051 12.2218 15.5253 11.2289 12.8985 11.0869C9.52264 10.9038 6.42004 12.226 4.15356 14.3884C6.3664 12.5122 9.25534 11.3815 12.3815 11.5508C15.0087 11.6927 17.388 12.6852 19.2674 14.2483C22.0292 16.5466 23.7074 20.0765 23.4984 23.9408C23.3296 27.0656 21.9557 29.838 19.8534 31.8353C22.2461 29.8153 23.8328 26.8515 24.0154 23.477Z" fill="white"/>
<path id="Vector_9" fill-rule="evenodd" clip-rule="evenodd" d="M37.8681 24.5411C38.4291 14.1812 30.437 5.32523 20.0174 4.76104C13.3045 4.39755 7.22692 7.56767 3.60083 12.6385C7.27317 7.9848 13.0899 5.12407 19.4842 5.47091C29.9037 6.0351 37.8959 14.8906 37.3349 25.2509C37.1351 28.9371 35.8365 32.2839 33.8323 35.0836C36.1464 32.154 37.6517 28.545 37.8686 24.5415L37.8681 24.5411Z" fill="white"/>
<path id="Vector_10" fill-rule="evenodd" clip-rule="evenodd" d="M18.3744 33.0229C19.0866 33.6162 19.8792 34.1055 20.7089 34.5083C21.5371 34.9144 22.4084 35.2297 23.3041 35.4388C24.2013 35.6376 25.1169 35.7588 26.0358 35.7421C26.9533 35.732 27.869 35.6094 28.7583 35.3828C28.9812 35.3278 29.1999 35.2593 29.4215 35.1983C29.6411 35.1322 29.8562 35.0512 30.074 34.9786C30.5045 34.8108 30.9318 34.6554 31.3277 34.4246C32.1282 33.977 32.8714 33.4257 33.5627 32.8194C34.2518 32.2095 34.8812 31.5297 35.4283 30.7865C35.7053 30.4175 35.9633 30.0336 36.201 29.6368C36.435 29.2382 36.651 28.8285 36.8503 28.41C36.5053 29.2706 36.0567 30.0914 35.5277 30.8577C34.9949 31.6212 34.3743 32.3251 33.6913 32.961C33.0087 33.5982 32.2494 34.1527 31.4378 34.6207C31.2333 34.734 31.0271 34.8505 30.8056 34.937C30.5892 35.0244 30.3755 35.1201 30.1563 35.2001C29.9352 35.276 29.7165 35.3597 29.4931 35.4291C29.2679 35.492 29.0459 35.5673 28.8175 35.6196C27.0014 36.0682 25.0716 36.0899 23.2597 35.6201C21.4539 35.1497 19.7474 34.2729 18.3744 33.0229Z" fill="white"/>
</g>
<defs>
<linearGradient id="paint0_linear_7_207" x1="9.34115" y1="7.58812" x2="35.5202" y2="30.6" gradientUnits="userSpaceOnUse">
<stop stop-color="#1526C0"/>
<stop offset="0.521569" stop-color="#0C6ECD"/>
<stop offset="1" stop-color="#0F20B0"/>
</linearGradient>
<linearGradient id="paint1_linear_7_207" x1="7.3038" y1="16.3603" x2="24.2795" y2="34.4061" gradientUnits="userSpaceOnUse">
<stop stop-color="#00C2FF"/>
<stop offset="0.521569" stop-color="#DFEFFF"/>
<stop offset="1" stop-color="#01A4FF"/>
</linearGradient>
<linearGradient id="paint2_linear_7_207" x1="7.43498" y1="9.73283" x2="24.4125" y2="27.779" gradientUnits="userSpaceOnUse">
<stop stop-color="#00C2FF"/>
<stop offset="0.55907" stop-color="#9ECFFF"/>
<stop offset="1" stop-color="#01A4FF"/>
</linearGradient>
</defs>
</svg>
