<svg width="current" height="current" viewBox="0 0 196 196" fill="current" xmlns="http://www.w3.org/2000/svg">
<path d="M187.59 134.3L140.35 113.13C138.21 112.213 135.874 111.844 133.556 112.057C131.237 112.27 129.008 113.058 127.07 114.35C126.874 114.476 126.686 114.617 126.51 114.77L101.82 135.77C101.564 135.91 101.279 135.988 100.987 135.998C100.696 136.009 100.406 135.951 100.14 135.83C84.2701 128.17 67.8301 111.83 60.1401 96.18C60.0121 95.9185 59.9455 95.6311 59.9455 95.34C59.9455 95.0488 60.0121 94.7615 60.1401 94.5L81.2101 69.5C81.3613 69.315 81.5015 69.1213 81.6301 68.92C82.904 66.975 83.6735 64.7434 83.869 62.4267C84.0645 60.1099 83.68 57.7809 82.7501 55.65L61.7301 8.48996C60.5364 5.70606 58.472 3.38439 55.8467 1.87341C53.2214 0.362438 50.1769 -0.256334 47.1701 0.109962C34.1024 1.82793 22.1073 8.24534 13.4263 18.163C4.74543 28.0806 -0.0272768 40.8198 0.000117274 54C0.000117274 132.3 63.7001 196 142 196C155.18 196.025 167.918 191.252 177.835 182.571C187.752 173.891 194.17 161.897 195.89 148.83C196.256 145.837 195.645 142.806 194.15 140.188C192.654 137.57 190.354 135.505 187.59 134.3ZM142 184C70.3201 184 12.0001 125.68 12.0001 54C11.9667 43.7393 15.6702 33.8174 22.4186 26.0881C29.167 18.3588 38.4987 13.3508 48.6701 12H48.9001C49.3031 12.0075 49.6944 12.1366 50.0227 12.3704C50.3511 12.6041 50.6011 12.9316 50.7401 13.31L71.8401 60.42C71.9604 60.6819 72.0228 60.9667 72.0228 61.255C72.0228 61.5432 71.9604 61.828 71.8401 62.09L50.7301 87.15C50.5726 87.3289 50.4289 87.5194 50.3001 87.72C48.9792 89.7365 48.2013 92.06 48.0419 94.4654C47.8825 96.8709 48.3469 99.2767 49.3901 101.45C58.2601 119.61 76.5601 137.77 94.9201 146.64C97.1061 147.677 99.5236 148.131 101.937 147.955C104.35 147.78 106.677 146.982 108.69 145.64C108.88 145.51 109.07 145.37 109.25 145.22L133.93 124.22C134.174 124.089 134.443 124.012 134.719 123.995C134.995 123.978 135.272 124.02 135.53 124.12L182.78 145.29C183.166 145.454 183.491 145.736 183.708 146.095C183.925 146.454 184.024 146.872 183.99 147.29C182.646 157.466 177.643 166.805 169.915 173.561C162.188 180.317 152.265 184.028 142 184Z" fill="current"/>
</svg>
