<svg width="18" height="21" viewBox="0 0 18 21" fill="none" xmlns="http://www.w3.org/2000/svg">
<path d="M18 17.377C18 18.3704 17.707 19.2227 17.1211 19.9336C16.5352 20.6445 15.8297 21 15.0047 21H2.99531C2.17031 21 1.46484 20.6445 0.878906 19.9336C0.292969 19.2227 0 18.3704 0 17.377C0 16.6022 0.0398438 15.8708 0.119531 15.1826C0.199219 14.4945 0.346875 13.8018 0.5625 13.1045C0.778125 12.4072 1.05234 11.8102 1.38516 11.3135C1.71797 10.8167 2.15859 10.4111 2.70703 10.0967C3.25547 9.78223 3.88594 9.625 4.59844 9.625C5.82656 10.7917 7.29375 11.375 9 11.375C10.7063 11.375 12.1734 10.7917 13.4016 9.625C14.1141 9.625 14.7445 9.78223 15.293 10.0967C15.8414 10.4111 16.282 10.8167 16.6148 11.3135C16.9477 11.8102 17.2219 12.4072 17.4375 13.1045C17.6531 13.8018 17.8008 14.4945 17.8805 15.1826C17.9602 15.8708 18 16.6022 18 17.377ZM14.4 5.25C14.4 6.69922 13.8727 7.93652 12.818 8.96191C11.7633 9.9873 10.4906 10.5 9 10.5C7.50937 10.5 6.23672 9.9873 5.18203 8.96191C4.12734 7.93652 3.6 6.69922 3.6 5.25C3.6 3.80078 4.12734 2.56348 5.18203 1.53809C6.23672 0.512695 7.50937 0 9 0C10.4906 0 11.7633 0.512695 12.818 1.53809C13.8727 2.56348 14.4 3.80078 14.4 5.25Z" fill="#1F3259"/>
</svg>
