<svg width="current" height="current" viewBox="0 0 30 30" fill="current" xmlns="http://www.w3.org/2000/svg">
<g clip-path="url(#clip0_1389_34990)">
<path d="M10.5003 7.75C10.6316 7.65151 10.781 7.57985 10.9401 7.53911C11.0991 7.49837 11.2646 7.48935 11.4271 7.51256C11.5896 7.53578 11.7459 7.59077 11.8871 7.67441C12.0284 7.75804 12.1518 7.86868 12.2503 8C12.3488 8.13132 12.4204 8.28076 12.4612 8.43977C12.5019 8.59879 12.5109 8.76427 12.4877 8.92678C12.4645 9.08928 12.4095 9.24562 12.3259 9.38687C12.2422 9.52812 12.1316 9.65151 12.0003 9.75C10.0453 11.2163 8.92528 12.6425 8.28403 13.8875C9.16449 13.6609 10.0937 13.7141 10.9425 14.0399C11.7913 14.3657 12.5175 14.9479 13.0201 15.7055C13.5228 16.463 13.777 17.3584 13.7473 18.267C13.7177 19.1757 13.4057 20.0526 12.8547 20.7758C12.3037 21.499 11.5411 22.0325 10.6729 22.3023C9.80468 22.5721 8.87399 22.5647 8.01017 22.2812C7.14635 21.9976 6.39233 21.452 5.85291 20.7201C5.31349 19.9883 5.01547 19.1065 5.00028 18.1975C4.84011 16.6624 5.05812 15.1114 5.63528 13.68C6.38153 11.7975 7.84028 9.745 10.5003 7.75ZM21.7503 7.75C21.8816 7.65151 22.031 7.57985 22.1901 7.53911C22.3491 7.49837 22.5146 7.48935 22.6771 7.51256C22.8396 7.53578 22.9959 7.59077 23.1371 7.67441C23.2784 7.75804 23.4018 7.86868 23.5003 8C23.5988 8.13132 23.6704 8.28076 23.7112 8.43977C23.7519 8.59879 23.7609 8.76427 23.7377 8.92678C23.7145 9.08928 23.6595 9.24562 23.5759 9.38687C23.4922 9.52812 23.3816 9.65151 23.2503 9.75C21.2953 11.2163 20.1753 12.6425 19.534 13.8875C20.4145 13.6609 21.3437 13.7141 22.1925 14.0399C23.0413 14.3657 23.7675 14.9479 24.2701 15.7055C24.7728 16.463 25.027 17.3584 24.9973 18.267C24.9677 19.1757 24.6557 20.0526 24.1047 20.7758C23.5537 21.499 22.7911 22.0325 21.9229 22.3023C21.0547 22.5721 20.124 22.5647 19.2602 22.2812C18.3964 21.9976 17.6423 21.452 17.1029 20.7201C16.5635 19.9883 16.2655 19.1065 16.2503 18.1975C16.0901 16.6624 16.3081 15.1114 16.8853 13.68C17.6328 11.7975 19.0903 9.745 21.7503 7.75Z" fill="current"/>
</g>
<defs>
<clipPath id="clip0_1389_34990">
<rect width="30" height="30" fill="white"/>
</clipPath>
</defs>
</svg>
