<svg width="34" height="34" viewBox="0 0 34 34" fill="none" xmlns="http://www.w3.org/2000/svg">
<g id="receipt_long">
<mask id="mask0_10_69" style="mask-type:alpha" maskUnits="userSpaceOnUse" x="0" y="0" width="34" height="34">
<rect id="Bounding box" width="34" height="34" fill="#D9D9D9"/>
</mask>
<g mask="url(#mask0_10_69)">
<path id="receipt_long_2" d="M8.5 30.7574C7.31944 30.7574 6.31597 30.3446 5.48958 29.5189C4.66319 28.6933 4.25 27.6907 4.25 26.5111V22.2648H8.5V2.44873L10.625 4.57188L12.75 2.44873L14.875 4.57188L17 2.44873L19.125 4.57188L21.25 2.44873L23.375 4.57188L25.5 2.44873L27.625 4.57188L29.75 2.44873V26.5111C29.75 27.6907 29.3368 28.6933 28.5104 29.5189C27.684 30.3446 26.6806 30.7574 25.5 30.7574H8.5ZM25.5 27.9266C25.9014 27.9266 26.2376 27.7907 26.5087 27.5189C26.7807 27.2481 26.9167 26.9122 26.9167 26.5111V6.69504H11.3333V22.2648H24.0833V26.5111C24.0833 26.9122 24.2193 27.2481 24.4913 27.5189C24.7624 27.7907 25.0986 27.9266 25.5 27.9266ZM12.75 12.3568V9.52591H21.25V12.3568H12.75ZM12.75 16.6031V13.7722H21.25V16.6031H12.75ZM24.0833 12.3568C23.6819 12.3568 23.3457 12.2209 23.0747 11.9491C22.8027 11.6783 22.6667 11.3424 22.6667 10.9413C22.6667 10.5403 22.8027 10.2039 23.0747 9.93214C23.3457 9.66132 23.6819 9.52591 24.0833 9.52591C24.4847 9.52591 24.8209 9.66132 25.092 9.93214C25.364 10.2039 25.5 10.5403 25.5 10.9413C25.5 11.3424 25.364 11.6783 25.092 11.9491C24.8209 12.2209 24.4847 12.3568 24.0833 12.3568ZM24.0833 16.6031C23.6819 16.6031 23.3457 16.4672 23.0747 16.1954C22.8027 15.9246 22.6667 15.5887 22.6667 15.1877C22.6667 14.7866 22.8027 14.4502 23.0747 14.1784C23.3457 13.9076 23.6819 13.7722 24.0833 13.7722C24.4847 13.7722 24.8209 13.9076 25.092 14.1784C25.364 14.4502 25.5 14.7866 25.5 15.1877C25.5 15.5887 25.364 15.9246 25.092 16.1954C24.8209 16.4672 24.4847 16.6031 24.0833 16.6031ZM8.5 27.9266H21.25V25.0957H7.08333V26.5111C7.08333 26.9122 7.21886 27.2481 7.48992 27.5189C7.76192 27.7907 8.09861 27.9266 8.5 27.9266Z" fill="#3758F9"/>
</g>
</g>
</svg>
