<svg width="current" height="current" viewBox="0 0 16 12" fill="current" xmlns="http://www.w3.org/2000/svg">
<path d="M0 5.53845C0 5.19858 0.275517 4.92307 0.615383 4.92307H15.3846C15.7244 4.92307 16 5.19858 16 5.53845C16 5.87832 15.7244 6.15383 15.3846 6.15383H0.615383C0.275517 6.15383 0 5.87832 0 5.53845Z" fill="currentFill"/>
<path d="M10.0264 0.180242C10.2667 -0.0600805 10.6564 -0.0600805 10.8967 0.180242L15.8198 5.10331C16.0601 5.34363 16.0601 5.73327 15.8198 5.97359L10.8967 10.8967C10.6564 11.137 10.2667 11.137 10.0264 10.8967C9.78609 10.6563 9.78609 10.2667 10.0264 10.0264L14.5143 5.53845L10.0264 1.05053C9.78609 0.810203 9.78609 0.420564 10.0264 0.180242Z" fill="current"/>
</svg>
