<svg width="21" height="21" viewBox="0 0 21 21" fill="none" xmlns="http://www.w3.org/2000/svg">
<path d="M20.6155 19.1364L16.7509 15.303C18.251 13.4326 18.9775 11.0585 18.7809 8.66896C18.5844 6.27938 17.4798 4.05592 15.6942 2.45578C13.9086 0.855632 11.5778 0.000427656 9.18107 0.0660114C6.78431 0.131595 4.50377 1.11298 2.80838 2.80838C1.11298 4.50377 0.131595 6.78431 0.0660114 9.18107C0.000427663 11.5778 0.855632 13.9086 2.45578 15.6942C4.05592 17.4798 6.27938 18.5844 8.66896 18.781C11.0585 18.9775 13.4326 18.251 15.303 16.7509L19.1364 20.5843C19.2332 20.6819 19.3484 20.7594 19.4753 20.8123C19.6023 20.8652 19.7384 20.8924 19.8759 20.8924C20.0135 20.8924 20.1496 20.8652 20.2765 20.8123C20.4035 20.7594 20.5187 20.6819 20.6155 20.5843C20.8033 20.39 20.9082 20.1305 20.9082 19.8603C20.9082 19.5902 20.8033 19.3306 20.6155 19.1364ZM9.45927 16.7509C8.01712 16.7509 6.60735 16.3233 5.40824 15.5221C4.20913 14.7209 3.27454 13.5821 2.72265 12.2497C2.17076 10.9173 2.02636 9.45118 2.30771 8.03674C2.58906 6.62229 3.28353 5.32304 4.30328 4.30328C5.32304 3.28353 6.62229 2.58906 8.03674 2.30771C9.45118 2.02636 10.9173 2.17076 12.2497 2.72265C13.582 3.27454 14.7209 4.20913 15.5221 5.40824C16.3233 6.60735 16.7509 8.01712 16.7509 9.45927C16.7509 11.3931 15.9827 13.2478 14.6153 14.6153C13.2478 15.9827 11.3931 16.7509 9.45927 16.7509Z" fill="#1F3259"/>
</svg>
