<svg width="16" height="17" viewBox="0 0 16 17" fill="none" xmlns="http://www.w3.org/2000/svg">
<path d="M12.1262 10.3997C11.6945 10.4018 11.2688 10.5009 10.8805 10.6896C10.4922 10.8782 10.1512 11.1517 9.88268 11.4897L5.66663 8.85397C5.82029 8.35806 5.82029 7.82726 5.66663 7.33135L9.88268 4.69559C10.3106 5.22546 10.9122 5.58677 11.5811 5.71552C12.2499 5.84427 12.9426 5.73215 13.5367 5.39901C14.1308 5.06588 14.5877 4.53323 14.8267 3.89544C15.0656 3.25764 15.0711 2.55586 14.8421 1.9144C14.6132 1.27295 14.1646 0.733232 13.5758 0.390855C12.9871 0.0484789 12.2961 -0.0744562 11.6254 0.0438274C10.9546 0.162111 10.3474 0.513979 9.91126 1.0371C9.47512 1.56022 9.2382 2.22083 9.24249 2.9019C9.24521 3.15981 9.28404 3.41607 9.35784 3.66321L5.14179 6.29896C4.76958 5.8304 4.26082 5.48923 3.68604 5.32275C3.11126 5.15627 2.49892 5.17272 1.9339 5.36982C1.36889 5.56693 0.879185 5.93492 0.532672 6.42279C0.186159 6.91066 0 7.49425 0 8.09266C0 8.69106 0.186159 9.27465 0.532672 9.76252C0.879185 10.2504 1.36889 10.6184 1.9339 10.8155C2.49892 11.0126 3.11126 11.029 3.68604 10.8626C4.26082 10.6961 4.76958 10.3549 5.14179 9.88635L9.35784 12.5221C9.28404 12.7692 9.24521 13.0255 9.24249 13.2834C9.24249 13.8538 9.41162 14.4113 9.72849 14.8855C10.0454 15.3598 10.4957 15.7294 11.0227 15.9477C11.5496 16.1659 12.1294 16.223 12.6888 16.1118C13.2482 16.0005 13.7621 15.7258 14.1654 15.3225C14.5687 14.9192 14.8433 14.4054 14.9546 13.846C15.0659 13.2866 15.0088 12.7068 14.7905 12.1799C14.5722 11.6529 14.2026 11.2025 13.7284 10.8857C13.2541 10.5688 12.6966 10.3997 12.1262 10.3997V10.3997ZM12.1262 1.17164C12.4685 1.17164 12.803 1.27312 13.0875 1.46324C13.3721 1.65337 13.5938 1.92359 13.7248 2.23976C13.8557 2.55592 13.89 2.90382 13.8233 3.23945C13.7565 3.57509 13.5917 3.88339 13.3497 4.12537C13.1077 4.36735 12.7994 4.53214 12.4638 4.5989C12.1282 4.66567 11.7803 4.6314 11.4641 4.50044C11.1479 4.36948 10.8777 4.14771 10.6876 3.86317C10.4975 3.57864 10.396 3.24411 10.396 2.9019C10.396 2.44301 10.5783 2.00291 10.9028 1.67842C11.2273 1.35394 11.6674 1.17164 12.1262 1.17164V1.17164ZM2.89822 9.82291C2.55601 9.82291 2.22149 9.72143 1.93695 9.53131C1.65241 9.34119 1.43064 9.07096 1.29968 8.7548C1.16872 8.43863 1.13446 8.09074 1.20122 7.7551C1.26798 7.41946 1.43277 7.11116 1.67475 6.86918C1.91673 6.6272 2.22503 6.46241 2.56067 6.39565C2.89631 6.32889 3.2442 6.36315 3.56036 6.49411C3.87653 6.62507 4.14675 6.84684 4.33688 7.13138C4.527 7.41592 4.62848 7.75044 4.62848 8.09266C4.62848 8.55155 4.44618 8.99165 4.1217 9.31613C3.79721 9.64062 3.35712 9.82291 2.89822 9.82291ZM12.1262 15.0137C11.784 15.0137 11.4495 14.9122 11.165 14.7221C10.8804 14.5319 10.6587 14.2617 10.5277 13.9456C10.3967 13.6294 10.3625 13.2815 10.4292 12.9459C10.496 12.6102 10.6608 12.3019 10.9028 12.0599C11.1447 11.818 11.4531 11.6532 11.7887 11.5864C12.1243 11.5196 12.4722 11.5539 12.7884 11.6849C13.1045 11.8158 13.3748 12.0376 13.5649 12.3221C13.755 12.6067 13.8565 12.9412 13.8565 13.2834C13.8565 13.7423 13.6742 14.1824 13.3497 14.5069C13.0252 14.8314 12.5851 15.0137 12.1262 15.0137V15.0137Z" fill="#093351"/>
</svg>
