<svg width="18" height="20" viewBox="0 0 18 20" fill="current" xmlns="http://www.w3.org/2000/svg">
<path d="M6.42857 4.375C6.42857 2.99609 7.5817 1.875 9 1.875C10.4183 1.875 11.5714 2.99609 11.5714 4.375V6.25H6.42857V4.375ZM4.5 6.25H1.92857C0.863839 6.25 0 7.08984 0 8.125V16.25C0 18.3203 1.72768 20 3.85714 20H14.1429C16.2723 20 18 18.3203 18 16.25V8.125C18 7.08984 17.1362 6.25 16.0714 6.25H13.5V4.375C13.5 1.95703 11.4871 0 9 0C6.51295 0 4.5 1.95703 4.5 4.375V6.25ZM5.46429 10C4.92991 10 4.5 9.58203 4.5 9.0625C4.5 8.54297 4.92991 8.125 5.46429 8.125C5.99866 8.125 6.42857 8.54297 6.42857 9.0625C6.42857 9.58203 5.99866 10 5.46429 10ZM13.5 9.0625C13.5 9.58203 13.0701 10 12.5357 10C12.0013 10 11.5714 9.58203 11.5714 9.0625C11.5714 8.54297 12.0013 8.125 12.5357 8.125C13.0701 8.125 13.5 8.54297 13.5 9.0625Z" fill="current"/>
</svg>
