<svg width="current" height="current" viewBox="0 0 14 14" fill="none" xmlns="http://www.w3.org/2000/svg">
<path d="M12.6875 3.47676C12.2692 3.65723 11.8139 3.78712 11.3449 3.8377C11.8318 3.54845 12.1964 3.09149 12.3703 2.55254C11.9135 2.82433 11.413 3.01491 10.891 3.11583C10.6729 2.88262 10.4091 2.69684 10.116 2.57005C9.8229 2.44327 9.50685 2.37821 9.18752 2.37891C7.89553 2.37891 6.85647 3.42618 6.85647 4.71133C6.85647 4.8918 6.87834 5.07227 6.91389 5.2459C4.97932 5.14473 3.25393 4.22051 2.10686 2.80547C1.89785 3.16247 1.78832 3.56895 1.78967 3.98262C1.78967 4.792 2.2012 5.50567 2.82874 5.9254C2.45892 5.91083 2.09776 5.80918 1.77463 5.62872V5.65743C1.77463 6.79083 2.57581 7.73008 3.64358 7.9461C3.44309 7.99818 3.23685 8.02482 3.02971 8.0254C2.87795 8.0254 2.7344 8.01036 2.58948 7.98985C2.88479 8.91407 3.74475 9.58536 4.76877 9.60723C3.9676 10.2348 2.96409 10.6039 1.87444 10.6039C1.67893 10.6039 1.49846 10.5971 1.31116 10.5752C2.34475 11.2383 3.57112 11.6211 4.89182 11.6211C9.17932 11.6211 11.5254 8.06915 11.5254 4.98614C11.5254 4.88497 11.5254 4.78379 11.5186 4.68262C11.9725 4.3504 12.3703 3.93887 12.6875 3.47676Z" fill="#0184FF"/>
</svg>
