<svg width="18" height="22" viewBox="0 0 18 22" fill="current" xmlns="http://www.w3.org/2000/svg">
<path d="M18 17.877C18 18.8704 17.707 19.7227 17.1211 20.4336C16.5352 21.1445 15.8297 21.5 15.0047 21.5H2.99531C2.17031 21.5 1.46484 21.1445 0.878906 20.4336C0.292969 19.7227 0 18.8704 0 17.877C0 17.1022 0.0398438 16.3708 0.119531 15.6826C0.199219 14.9945 0.346875 14.3018 0.5625 13.6045C0.778125 12.9072 1.05234 12.3102 1.38516 11.8135C1.71797 11.3167 2.15859 10.9111 2.70703 10.5967C3.25547 10.2822 3.88594 10.125 4.59844 10.125C5.82656 11.2917 7.29375 11.875 9 11.875C10.7063 11.875 12.1734 11.2917 13.4016 10.125C14.1141 10.125 14.7445 10.2822 15.293 10.5967C15.8414 10.9111 16.282 11.3167 16.6148 11.8135C16.9477 12.3102 17.2219 12.9072 17.4375 13.6045C17.6531 14.3018 17.8008 14.9945 17.8805 15.6826C17.9602 16.3708 18 17.1022 18 17.877ZM14.4 5.75C14.4 7.19922 13.8727 8.43652 12.818 9.46191C11.7633 10.4873 10.4906 11 9 11C7.50937 11 6.23672 10.4873 5.18203 9.46191C4.12734 8.43652 3.6 7.19922 3.6 5.75C3.6 4.30078 4.12734 3.06348 5.18203 2.03809C6.23672 1.0127 7.50937 0.5 9 0.5C10.4906 0.5 11.7633 1.0127 12.818 2.03809C13.8727 3.06348 14.4 4.30078 14.4 5.75Z" fill="current" />
</svg>
