<svg width="24" height="24" viewBox="0 0 24 24" fill="none" xmlns="http://www.w3.org/2000/svg">
<g id="solar:verified-check-linear">
<g id="Group">
<path id="Vector" d="M9.78078 3.88978C10.3448 3.40978 10.6268 3.16978 10.9208 3.02878C11.2575 2.86776 11.626 2.78418 11.9993 2.78418C12.3725 2.78418 12.741 2.86776 13.0778 3.02878C13.3728 3.16878 13.6548 3.40878 14.2178 3.88978C14.4428 4.08178 14.5548 4.17678 14.6748 4.25678C14.9496 4.44095 15.2582 4.56876 15.5828 4.63278C15.7238 4.66078 15.8708 4.67278 16.1648 4.69678C16.9038 4.75478 17.2728 4.78478 17.5808 4.89378C17.9326 5.01793 18.2521 5.21923 18.516 5.48294C18.7799 5.74664 18.9814 6.06606 19.1058 6.41778C19.2148 6.72678 19.2438 7.09578 19.3028 7.83378C19.3258 8.12778 19.3378 8.27478 19.3658 8.41678C19.4298 8.74078 19.5578 9.04978 19.7418 9.32378C19.8218 9.44378 19.9178 9.55578 20.1088 9.78078C20.5888 10.3448 20.8298 10.6268 20.9708 10.9208C21.1318 11.2575 21.2154 11.626 21.2154 11.9993C21.2154 12.3725 21.1318 12.741 20.9708 13.0778C20.8308 13.3718 20.5898 13.6538 20.1088 14.2178C19.978 14.3632 19.8555 14.5157 19.7418 14.6748C19.5577 14.9492 19.4298 15.2575 19.3658 15.5818C19.3378 15.7238 19.3258 15.8708 19.3028 16.1648C19.2438 16.9028 19.2148 17.2728 19.1058 17.5808C18.9814 17.9325 18.7799 18.2519 18.516 18.5156C18.2521 18.7793 17.9326 18.9806 17.5808 19.1048C17.2728 19.2148 16.9038 19.2438 16.1648 19.3018C15.8708 19.3258 15.7248 19.3378 15.5828 19.3658C15.2582 19.4298 14.9496 19.5576 14.6748 19.7418C14.5161 19.8555 14.3638 19.9781 14.2188 20.1088C13.6548 20.5888 13.3728 20.8288 13.0788 20.9698C12.742 21.1308 12.3735 21.2144 12.0003 21.2144C11.627 21.2144 11.2585 21.1308 10.9218 20.9698C10.6268 20.8298 10.3448 20.5898 9.78178 20.1088C9.63638 19.978 9.48381 19.8555 9.32478 19.7418C9.04997 19.5576 8.74134 19.4298 8.41678 19.3658C8.22411 19.3337 8.02981 19.3123 7.83478 19.3018C7.09578 19.2438 6.72678 19.2138 6.41878 19.1048C6.06698 18.9806 5.74743 18.7793 5.48355 18.5156C5.21967 18.2519 5.01816 17.9325 4.89378 17.5808C4.78478 17.2728 4.75578 16.9028 4.69678 16.1648C4.68679 15.9694 4.66576 15.7748 4.63378 15.5818C4.56963 15.2576 4.44183 14.9493 4.25778 14.6748C4.17778 14.5548 4.08178 14.4428 3.89078 14.2178C3.41078 13.6538 3.16978 13.3718 3.02878 13.0778C2.86776 12.741 2.78418 12.3725 2.78418 11.9993C2.78418 11.626 2.86776 11.2575 3.02878 10.9208C3.16978 10.6268 3.40978 10.3448 3.89078 9.78078C4.08178 9.55578 4.17778 9.44378 4.25778 9.32378C4.44183 9.04927 4.56963 8.74099 4.63378 8.41678C4.66178 8.27478 4.67378 8.12778 4.69678 7.83378C4.75578 7.09578 4.78478 6.72678 4.89378 6.41778C5.01826 6.06596 5.21993 5.74648 5.48399 5.48276C5.74805 5.21905 6.0678 5.0178 6.41978 4.89378C6.72778 4.78478 7.09678 4.75478 7.83578 4.69678C8.12978 4.67278 8.27578 4.66078 8.41778 4.63278C8.74234 4.56876 9.05097 4.44095 9.32578 4.25678C9.44578 4.17678 9.55678 4.08178 9.78078 3.88978Z" stroke="#3758F9" stroke-width="1.5"/>
<path id="Vector_2" d="M8.5 12.5L10.5 14.5L15.5 9.5" stroke="#3758F9" stroke-width="1.5" stroke-linecap="round" stroke-linejoin="round"/>
</g>
</g>
</svg>
