<svg width="30" height="30" viewBox="0 0 30 30" fill="none" xmlns="http://www.w3.org/2000/svg">
<g id="fi-rr-video-camera" clip-path="url(#clip0_1594_66830)">
<path id="Vector" d="M28.625 11.1948C27.7807 10.7669 26.7666 10.8561 26.01 11.4247L23.7188 13.126C23.3939 9.9343 20.7082 7.50506 17.5 7.50101H17.3938L12.2413 2.34974C11.5401 1.64363 10.5852 1.24789 9.59004 1.25099H1.24998C0.559629 1.25099 0 1.81068 0 2.50103C0 3.19139 0.559629 3.75101 1.24998 3.75101H9.58998C9.92133 3.75189 10.2389 3.88349 10.4738 4.11728L13.8575 7.50101H6.25002C2.79996 7.50517 0.00416016 10.301 0 13.751V23.7511C0.00416016 27.2011 2.79996 29.9969 6.25002 30.001H17.5C20.7083 29.997 23.3939 27.5677 23.7188 24.376L26.0063 26.081C27.1108 26.9094 28.6778 26.6856 29.5062 25.5811C29.8308 25.1483 30.0062 24.622 30.0062 24.0811V13.4298C30.0095 12.4824 29.4738 11.6156 28.625 11.1948ZM21.25 23.751C21.25 25.8221 19.5711 27.501 17.5 27.501H6.25002C4.17897 27.501 2.50002 25.8221 2.50002 23.751V13.751C2.50002 11.68 4.17897 10.001 6.25002 10.001H17.5C19.5711 10.001 21.25 11.68 21.25 13.751V23.751ZM27.5 24.0723L23.75 21.2773V16.2248L27.5 13.4298V24.0723Z" fill="#B0B0B0"/>
</g>
<defs>
<clipPath id="clip0_1594_66830">
<rect width="30" height="30" fill="white"/>
</clipPath>
</defs>
</svg>
