<svg viewBox="0 0 20 20" fill="none" xmlns="http://www.w3.org/2000/svg">
<path d="M10.0846 15.4583L10.0013 15.5417L9.90964 15.4583C5.9513 11.8667 3.33464 9.49167 3.33464 7.08333C3.33464 5.41667 4.58464 4.16667 6.2513 4.16667C7.53464 4.16667 8.78464 5 9.2263 6.13333H10.7763C11.218 5 12.468 4.16667 13.7513 4.16667C15.418 4.16667 16.668 5.41667 16.668 7.08333C16.668 9.49167 14.0513 11.8667 10.0846 15.4583ZM13.7513 2.5C12.3013 2.5 10.9096 3.175 10.0013 4.23333C9.09297 3.175 7.7013 2.5 6.2513 2.5C3.68464 2.5 1.66797 4.50833 1.66797 7.08333C1.66797 10.225 4.5013 12.8 8.79297 16.6917L10.0013 17.7917L11.2096 16.6917C15.5013 12.8 18.3346 10.225 18.3346 7.08333C18.3346 4.50833 16.318 2.5 13.7513 2.5Z" fill="#003459"/>
</svg>
