<svg width="20" height="20" viewBox="0 0 20 20" fill="none" xmlns="http://www.w3.org/2000/svg">
<path d="M10 19.8763L8.55 18.5221C6.86667 16.9423 5.475 15.5794 4.375 14.4336C3.275 13.2878 2.4 12.2589 1.75 11.3471C1.1 10.436 0.646 9.59852 0.388 8.83463C0.129333 8.07075 0 7.2895 0 6.49088C0 4.85894 0.525 3.49609 1.575 2.40234C2.625 1.30859 3.93333 0.761719 5.5 0.761719C6.36667 0.761719 7.19167 0.952691 7.975 1.33464C8.75833 1.71658 9.43333 2.25477 10 2.94922C10.5667 2.25477 11.2417 1.71658 12.025 1.33464C12.8083 0.952691 13.6333 0.761719 14.5 0.761719C16.0667 0.761719 17.375 1.30859 18.425 2.40234C19.475 3.49609 20 4.85894 20 6.49088C20 7.2895 19.871 8.07075 19.613 8.83463C19.3543 9.59852 18.9 10.436 18.25 11.3471C17.6 12.2589 16.725 13.2878 15.625 14.4336C14.525 15.5794 13.1333 16.9423 11.45 18.5221L10 19.8763ZM10 17.0638C11.6 15.5707 12.9167 14.2902 13.95 13.2221C14.9833 12.1548 15.8 11.2263 16.4 10.4367C17 9.64644 17.4167 8.94297 17.65 8.3263C17.8833 7.71033 18 7.09852 18 6.49088C18 5.44922 17.6667 4.58116 17 3.88672C16.3333 3.19227 15.5 2.84505 14.5 2.84505C13.7167 2.84505 12.9917 3.07491 12.325 3.53464C11.6583 3.99505 11.2 4.58116 10.95 5.29297H9.05C8.8 4.58116 8.34167 3.99505 7.675 3.53464C7.00833 3.07491 6.28333 2.84505 5.5 2.84505C4.5 2.84505 3.66667 3.19227 3 3.88672C2.33333 4.58116 2 5.44922 2 6.49088C2 7.09852 2.11667 7.71033 2.35 8.3263C2.58333 8.94297 3 9.64644 3.6 10.4367C4.2 11.2263 5.01667 12.1548 6.05 13.2221C7.08333 14.2902 8.4 15.5707 10 17.0638Z" fill="#1F3259"/>
</svg>
