<svg width="13" height="11" viewBox="0 0 13 11" fill="blue" xmlns="http://www.w3.org/2000/svg">
<path d="M12.3836 2.19017L12.3834 2.1898C11.9704 1.34215 10.7199 0.573665 9.20458 1.01577L9.20329 1.01614C8.47761 1.22576 7.84446 1.67528 7.40729 2.29127L6.99954 2.86581L6.59179 2.29127C6.15472 1.67541 5.52175 1.22595 4.79625 1.01628C3.27397 0.580134 2.02781 1.34402 1.61569 2.1898L1.6155 2.19017C0.994242 3.46244 1.20706 4.9458 2.47223 6.68091L12.3836 2.19017ZM12.3836 2.19017C13.005 3.46268 12.7919 4.94633 11.5301 6.68174L11.5292 6.68299M12.3836 2.19017L11.5292 6.68299M11.5292 6.68299C10.5372 8.05636 9.10532 9.44274 7.0015 11.0822M11.5292 6.68299L7.0015 11.0822M7.0015 11.0822C4.89563 9.44001 3.46578 8.04146 2.47228 6.68098L7.0015 11.0822Z" fill="blue" stroke="#003459"/>
</svg>
