<svg width="14" height="12" viewBox="0 0 14 12" fill="none" xmlns="http://www.w3.org/2000/svg">
<path d="M9.20329 1.01614L9.20458 1.01577C10.7199 0.573665 11.9704 1.34215 12.3834 2.1898L12.3836 2.19017C13.005 3.46268 12.7919 4.94633 11.5301 6.68174L11.5292 6.68299C10.5372 8.05636 9.10532 9.44274 7.0015 11.0822C4.89573 9.44009 3.46592 8.0416 2.47243 6.68118C1.20708 4.94596 0.994209 3.4625 1.6155 2.19017L1.61569 2.1898C2.02781 1.34402 3.27397 0.580134 4.79625 1.01628C5.52175 1.22595 6.15472 1.67541 6.59179 2.29127L6.99954 2.86581L7.40729 2.29127C7.84446 1.67528 8.47761 1.22576 9.20329 1.01614Z" fill="current" stroke="current"/>
</svg>
