<svg width="16" height="16" viewBox="0 0 16 16" fill="none" xmlns="http://www.w3.org/2000/svg">
<g id="fluent:delete-28-regular">
<path id="Vector" d="M6.57119 3.42866H9.42834C9.42834 3.04978 9.27783 2.68642 9.00992 2.41851C8.74201 2.1506 8.37864 2.00009 7.99976 2.00009C7.62088 2.00009 7.25752 2.1506 6.98961 2.41851C6.7217 2.68642 6.57119 3.04978 6.57119 3.42866ZM5.71405 3.42866C5.71405 2.82245 5.95487 2.24107 6.38352 1.81241C6.81217 1.38376 7.39356 1.14294 7.99976 1.14294C8.60597 1.14294 9.18735 1.38376 9.61601 1.81241C10.0447 2.24107 10.2855 2.82245 10.2855 3.42866H13.8569C13.9706 3.42866 14.0796 3.47381 14.16 3.55418C14.2403 3.63456 14.2855 3.74357 14.2855 3.85723C14.2855 3.97089 14.2403 4.0799 14.16 4.16028C14.0796 4.24065 13.9706 4.2858 13.8569 4.2858H13.1083L12.4129 12.6304C12.3623 13.2374 12.0854 13.8033 11.6372 14.2158C11.1889 14.6282 10.6021 14.8572 9.99291 14.8572H6.00662C5.39747 14.8572 4.81059 14.6282 4.36234 14.2158C3.91409 13.8033 3.63722 13.2374 3.58662 12.6304L2.89119 4.2858H2.14262C2.02896 4.2858 1.91995 4.24065 1.83958 4.16028C1.7592 4.0799 1.71405 3.97089 1.71405 3.85723C1.71405 3.74357 1.7592 3.63456 1.83958 3.55418C1.91995 3.47381 2.02896 3.42866 2.14262 3.42866H5.71405ZM4.44091 12.5589C4.47359 12.9517 4.65269 13.3179 4.94271 13.5849C5.23272 13.8518 5.61246 14 6.00662 14.0001H9.99291C10.3871 14 10.7668 13.8518 11.0568 13.5849C11.3468 13.3179 11.5259 12.9517 11.5586 12.5589L12.2489 4.2858H3.75119L4.44091 12.5589ZM6.71405 6.2858C6.82771 6.2858 6.93672 6.33095 7.0171 6.41133C7.09747 6.4917 7.14262 6.60071 7.14262 6.71437V11.5715C7.14262 11.6852 7.09747 11.7942 7.0171 11.8746C6.93672 11.9549 6.82771 12.0001 6.71405 12.0001C6.60039 12.0001 6.49138 11.9549 6.411 11.8746C6.33063 11.7942 6.28548 11.6852 6.28548 11.5715V6.71437C6.28548 6.60071 6.33063 6.4917 6.411 6.41133C6.49138 6.33095 6.60039 6.2858 6.71405 6.2858ZM9.71405 6.71437C9.71405 6.60071 9.6689 6.4917 9.58852 6.41133C9.50815 6.33095 9.39914 6.2858 9.28548 6.2858C9.17181 6.2858 9.06281 6.33095 8.98243 6.41133C8.90206 6.4917 8.85691 6.60071 8.85691 6.71437V11.5715C8.85691 11.6852 8.90206 11.7942 8.98243 11.8746C9.06281 11.9549 9.17181 12.0001 9.28548 12.0001C9.39914 12.0001 9.50815 11.9549 9.58852 11.8746C9.6689 11.7942 9.71405 11.6852 9.71405 11.5715V6.71437Z" fill="#A5A5A5"/>
</g>
</svg>
