<svg width="26" height="26" viewBox="0 0 26 26" fill="none" xmlns="http://www.w3.org/2000/svg">
<g id="fluent:delete-48-filled">
<path id="Vector" d="M10.8333 5.68758V5.95841H15.1666V5.68758C15.1666 5.11295 14.9383 4.56185 14.532 4.15552C14.1257 3.74919 13.5746 3.52091 12.9999 3.52091C12.4253 3.52091 11.8742 3.74919 11.4679 4.15552C11.0615 4.56185 10.8333 5.11295 10.8333 5.68758ZM9.47909 5.95841V5.68758C9.47909 4.7538 9.85003 3.85826 10.5103 3.19798C11.1706 2.53769 12.0661 2.16675 12.9999 2.16675C13.9337 2.16675 14.8292 2.53769 15.4895 3.19798C16.1498 3.85826 16.5208 4.7538 16.5208 5.68758V5.95841H22.6145C22.7941 5.95841 22.9663 6.02975 23.0933 6.15673C23.2203 6.28371 23.2916 6.45592 23.2916 6.6355C23.2916 6.81507 23.2203 6.98729 23.0933 7.11427C22.9663 7.24125 22.7941 7.31258 22.6145 7.31258H21.0345L19.9511 20.2346C19.8688 21.2159 19.4208 22.1304 18.696 22.797C17.9711 23.4636 17.0223 23.8335 16.0376 23.8334H9.96225C8.97761 23.8333 8.02892 23.4634 7.30419 22.7968C6.57945 22.1303 6.13155 21.2158 6.04925 20.2346L4.96592 7.31258H3.38534C3.20576 7.31258 3.03354 7.24125 2.90657 7.11427C2.77959 6.98729 2.70825 6.81507 2.70825 6.6355C2.70825 6.45592 2.77959 6.28371 2.90657 6.15673C3.03354 6.02975 3.20576 5.95841 3.38534 5.95841H9.47909ZM11.6458 10.9688C11.6458 10.8799 11.6282 10.7919 11.5942 10.7097C11.5602 10.6276 11.5103 10.5529 11.4474 10.4901C11.3846 10.4272 11.3099 10.3773 11.2278 10.3433C11.1456 10.3093 11.0576 10.2917 10.9687 10.2917C10.8798 10.2917 10.7917 10.3093 10.7096 10.3433C10.6274 10.3773 10.5528 10.4272 10.4899 10.4901C10.427 10.5529 10.3772 10.6276 10.3431 10.7097C10.3091 10.7919 10.2916 10.8799 10.2916 10.9688V18.823C10.2916 18.9119 10.3091 19 10.3431 19.0821C10.3772 19.1643 10.427 19.2389 10.4899 19.3018C10.5528 19.3646 10.6274 19.4145 10.7096 19.4485C10.7917 19.4826 10.8798 19.5001 10.9687 19.5001C11.0576 19.5001 11.1456 19.4826 11.2278 19.4485C11.3099 19.4145 11.3846 19.3646 11.4474 19.3018C11.5103 19.2389 11.5602 19.1643 11.5942 19.0821C11.6282 19 11.6458 18.9119 11.6458 18.823V10.9688ZM15.0312 10.2917C14.6574 10.2917 14.3541 10.5951 14.3541 10.9688V18.823C14.3541 19.0026 14.4254 19.1748 14.5524 19.3018C14.6794 19.4287 14.8516 19.5001 15.0312 19.5001C15.2107 19.5001 15.383 19.4287 15.5099 19.3018C15.6369 19.1748 15.7083 19.0026 15.7083 18.823V10.9688C15.7083 10.5951 15.4049 10.2917 15.0312 10.2917Z" fill="white"/>
</g>
</svg>
