<svg width="16" height="16" viewBox="0 0 16 16" fill="none" xmlns="http://www.w3.org/2000/svg">
<g id="ci:edit">
<path id="Vector" d="M2.94745 13.7197C2.85496 13.7195 2.76351 13.7001 2.67892 13.6627C2.59434 13.6253 2.51846 13.5707 2.45612 13.5023C2.39265 13.4346 2.34422 13.3542 2.31401 13.2664C2.28379 13.1786 2.27247 13.0855 2.28079 12.993L2.44412 11.197L9.98945 3.65434L12.3475 6.01168L4.80412 13.5537L3.00812 13.717C2.98795 13.7189 2.96771 13.7198 2.94745 13.7197ZM12.8181 5.54034L10.4608 3.18301L11.8748 1.76901C11.9367 1.70703 12.0102 1.65785 12.0912 1.6243C12.1721 1.59075 12.2588 1.57349 12.3465 1.57349C12.4341 1.57349 12.5208 1.59075 12.6017 1.6243C12.6827 1.65785 12.7562 1.70703 12.8181 1.76901L14.2321 3.18301C14.2941 3.24493 14.3433 3.31845 14.3768 3.39938C14.4104 3.48032 14.4276 3.56707 14.4276 3.65468C14.4276 3.74229 14.4104 3.82904 14.3768 3.90997C14.3433 3.9909 14.2941 4.06443 14.2321 4.12634L12.8188 5.53968L12.8181 5.54034Z" fill="#A5A5A5"/>
</g>
</svg>
