<svg width="50" height="24" viewBox="0 0 50 24" fill="none" xmlns="http://www.w3.org/2000/svg">
<g clip-path="url(#clip0_6463_436)">
<path d="M45 0H31C29.6744 0.00158786 28.4036 0.528882 27.4662 1.46622C26.5289 2.40356 26.0016 3.6744 26 5V19C26.0016 20.3256 26.5289 21.5964 27.4662 22.5338C28.4036 23.4711 29.6744 23.9984 31 24H45C46.3256 23.9984 47.5964 23.4711 48.5338 22.5338C49.4711 21.5964 49.9984 20.3256 50 19V5C49.9984 3.6744 49.4711 2.40356 48.5338 1.46622C47.5964 0.528882 46.3256 0.00158786 45 0V0ZM31 2H45C45.7956 2 46.5587 2.31607 47.1213 2.87868C47.6839 3.44129 48 4.20435 48 5V19C47.9983 19.4455 47.8957 19.8848 47.7 20.285L38.537 11.122C38.0727 10.6576 37.5214 10.2892 36.9147 10.0378C36.308 9.78644 35.6577 9.65707 35.001 9.65707C34.3443 9.65707 33.694 9.78644 33.0873 10.0378C32.4806 10.2892 31.9293 10.6576 31.465 11.122L28 14.586V5C28 4.20435 28.3161 3.44129 28.8787 2.87868C29.4413 2.31607 30.2044 2 31 2V2ZM31 22C30.2044 22 29.4413 21.6839 28.8787 21.1213C28.3161 20.5587 28 19.7956 28 19V17.414L32.878 12.536C33.1566 12.2572 33.4874 12.0361 33.8515 11.8852C34.2156 11.7343 34.6059 11.6566 35 11.6566C35.3941 11.6566 35.7844 11.7343 36.1485 11.8852C36.5126 12.0361 36.8434 12.2572 37.122 12.536L46.285 21.7C45.8848 21.8957 45.4455 21.9983 45 22H31Z" fill="#A5A5A5"/>
<path d="M42 10.4995C42.6922 10.4995 43.3689 10.2942 43.9445 9.90966C44.5201 9.52507 44.9687 8.97845 45.2336 8.33891C45.4985 7.69936 45.5678 6.99563 45.4327 6.3167C45.2977 5.63776 44.9644 5.01412 44.4749 4.52464C43.9854 4.03516 43.3617 3.70181 42.6828 3.56676C42.0039 3.43172 41.3002 3.50103 40.6606 3.76593C40.0211 4.03084 39.4744 4.47945 39.0899 5.05502C38.7053 5.63059 38.5 6.30728 38.5 6.99951C38.5 7.92777 38.8687 8.81801 39.5251 9.47439C40.1815 10.1308 41.0717 10.4995 42 10.4995V10.4995ZM42 5.49951C42.2967 5.49951 42.5867 5.58749 42.8334 5.75231C43.08 5.91713 43.2723 6.1514 43.3858 6.42549C43.4994 6.69958 43.5291 7.00118 43.4712 7.29215C43.4133 7.58312 43.2704 7.8504 43.0607 8.06017C42.8509 8.26995 42.5836 8.41281 42.2926 8.47069C42.0017 8.52857 41.7001 8.49886 41.426 8.38533C41.1519 8.2718 40.9176 8.07954 40.7528 7.83287C40.588 7.5862 40.5 7.29619 40.5 6.99951C40.5 6.60169 40.658 6.22016 40.9393 5.93885C41.2206 5.65755 41.6022 5.49951 42 5.49951V5.49951Z" fill="#A5A5A5"/>
</g>
<rect y="3" width="20" height="2" fill="#A5A5A5"/>
<rect y="8" width="17" height="1" fill="#A5A5A5"/>
<rect y="10" width="17" height="1" fill="#A5A5A5"/>
<rect y="12" width="17" height="1" fill="#A5A5A5"/>
<rect y="14" width="17" height="1" fill="#A5A5A5"/>
<rect y="19" width="8" height="2" rx="1" fill="#A5A5A5"/>
<defs>
<clipPath id="clip0_6463_436">
<rect width="24" height="24" fill="white" transform="translate(26)"/>
</clipPath>
</defs>
</svg>
