<svg width="30" height="26" viewBox="0 0 30 26" fill="none" xmlns="http://www.w3.org/2000/svg">
<g clip-path="url(#clip0_6464_515)">
<path d="M18.2083 10H11.7917C11.1841 10.0007 10.6016 10.2424 10.172 10.672C9.7424 11.1016 9.50073 11.6841 9.5 12.2917V18.7083C9.50073 19.3159 9.7424 19.8984 10.172 20.328C10.6016 20.7576 11.1841 20.9993 11.7917 21H18.2083C18.8159 20.9993 19.3984 20.7576 19.828 20.328C20.2576 19.8984 20.4993 19.3159 20.5 18.7083V12.2917C20.4993 11.6841 20.2576 11.1016 19.828 10.672C19.3984 10.2424 18.8159 10.0007 18.2083 10V10ZM11.7917 10.9167H18.2083C18.573 10.9167 18.9227 11.0615 19.1806 11.3194C19.4385 11.5773 19.5833 11.927 19.5833 12.2917V18.7083C19.5825 18.9125 19.5355 19.1139 19.4458 19.2973L15.2461 15.0976C15.0333 14.8847 14.7807 14.7159 14.5026 14.6007C14.2245 14.4855 13.9265 14.4262 13.6255 14.4262C13.3245 14.4262 13.0264 14.4855 12.7483 14.6007C12.4703 14.7159 12.2176 14.8847 12.0048 15.0976L10.4167 16.6853V12.2917C10.4167 11.927 10.5615 11.5773 10.8194 11.3194C11.0773 11.0615 11.427 10.9167 11.7917 10.9167V10.9167ZM11.7917 20.0833C11.427 20.0833 11.0773 19.9385 10.8194 19.6806C10.5615 19.4227 10.4167 19.073 10.4167 18.7083V17.9814L12.6524 15.7457C12.7801 15.6179 12.9317 15.5165 13.0986 15.4474C13.2655 15.3782 13.4444 15.3426 13.625 15.3426C13.8056 15.3426 13.9845 15.3782 14.1514 15.4474C14.3183 15.5165 14.4699 15.6179 14.5976 15.7457L18.7973 19.9458C18.6139 20.0355 18.4125 20.0825 18.2083 20.0833H11.7917Z" fill="#A5A5A5"/>
<path d="M16.8332 14.8123C17.1504 14.8123 17.4606 14.7183 17.7244 14.542C17.9882 14.3657 18.1938 14.1152 18.3152 13.8221C18.4366 13.5289 18.4684 13.2064 18.4065 12.8952C18.3446 12.584 18.1918 12.2982 17.9675 12.0739C17.7431 11.8495 17.4573 11.6967 17.1461 11.6348C16.8349 11.5729 16.5124 11.6047 16.2193 11.7261C15.9262 11.8475 15.6756 12.0531 15.4994 12.3169C15.3231 12.5807 15.229 12.8909 15.229 13.2082C15.229 13.6336 15.398 14.0416 15.6989 14.3425C15.9997 14.6433 16.4077 14.8123 16.8332 14.8123V14.8123ZM16.8332 12.5207C16.9691 12.5207 17.1021 12.561 17.2151 12.6365C17.3282 12.7121 17.4163 12.8195 17.4683 12.9451C17.5204 13.0707 17.534 13.2089 17.5075 13.3423C17.4809 13.4757 17.4155 13.5982 17.3193 13.6943C17.2232 13.7905 17.1007 13.8559 16.9673 13.8825C16.8339 13.909 16.6957 13.8954 16.5701 13.8433C16.4445 13.7913 16.3371 13.7032 16.2615 13.5901C16.186 13.4771 16.1457 13.3441 16.1457 13.2082C16.1457 13.0258 16.2181 12.851 16.347 12.722C16.476 12.5931 16.6508 12.5207 16.8332 12.5207V12.5207Z" fill="#A5A5A5"/>
</g>
<rect x="3" width="24" height="1.5" fill="#A5A5A5"/>
<rect y="4" width="30" height="1" fill="#A5A5A5"/>
<rect x="5" y="6" width="20" height="1" fill="#A5A5A5"/>
<rect x="11" y="24" width="8" height="2" rx="1" fill="#A5A5A5"/>
<defs>
<clipPath id="clip0_6464_515">
<rect width="11" height="11" fill="white" transform="translate(9.5 10)"/>
</clipPath>
</defs>
</svg>
