<svg width="29" height="26" viewBox="0 0 29 26" fill="none" xmlns="http://www.w3.org/2000/svg">
<g clip-path="url(#clip0_6464_494)">
<path d="M18.2917 4H10.7083C9.9903 4.00086 9.30193 4.28648 8.7942 4.7942C8.28648 5.30193 8.00086 5.9903 8 6.70833V14.2917C8.00086 15.0097 8.28648 15.6981 8.7942 16.2058C9.30193 16.7135 9.9903 16.9991 10.7083 17H18.2917C19.0097 16.9991 19.6981 16.7135 20.2058 16.2058C20.7135 15.6981 20.9991 15.0097 21 14.2917V6.70833C20.9991 5.9903 20.7135 5.30193 20.2058 4.7942C19.6981 4.28648 19.0097 4.00086 18.2917 4V4ZM10.7083 5.08333H18.2917C18.7226 5.08333 19.136 5.25454 19.4407 5.55928C19.7455 5.86403 19.9167 6.27736 19.9167 6.70833V14.2917C19.9157 14.533 19.8602 14.7709 19.7542 14.9877L14.7909 10.0244C14.5394 9.77285 14.2408 9.57329 13.9121 9.43714C13.5835 9.30099 13.2313 9.23091 12.8755 9.23091C12.5198 9.23091 12.1676 9.30099 11.8389 9.43714C11.5103 9.57329 11.2117 9.77285 10.9602 10.0244L9.08333 11.9008V6.70833C9.08333 6.27736 9.25454 5.86403 9.55928 5.55928C9.86403 5.25454 10.2774 5.08333 10.7083 5.08333V5.08333ZM10.7083 15.9167C10.2774 15.9167 9.86403 15.7455 9.55928 15.4407C9.25454 15.136 9.08333 14.7226 9.08333 14.2917V13.4326L11.7256 10.7903C11.8765 10.6393 12.0557 10.5195 12.2529 10.4378C12.4501 10.3561 12.6615 10.314 12.875 10.314C13.0885 10.314 13.2999 10.3561 13.4971 10.4378C13.6943 10.5195 13.8735 10.6393 14.0244 10.7903L18.9877 15.7542C18.7709 15.8602 18.533 15.9157 18.2917 15.9167H10.7083Z" fill="#A5A5A5"/>
<path d="M16.6668 9.68718C17.0418 9.68718 17.4083 9.57599 17.7201 9.36767C18.0319 9.15935 18.2749 8.86326 18.4184 8.51685C18.5618 8.17043 18.5994 7.78924 18.5262 7.42148C18.4531 7.05373 18.2725 6.71592 18.0074 6.45079C17.7422 6.18565 17.4044 6.00509 17.0367 5.93194C16.6689 5.85879 16.2877 5.89633 15.9413 6.03982C15.5949 6.18331 15.2988 6.42631 15.0905 6.73807C14.8822 7.04984 14.771 7.41638 14.771 7.79134C14.771 8.29415 14.9707 8.77636 15.3263 9.1319C15.6818 9.48744 16.164 9.68718 16.6668 9.68718V9.68718ZM16.6668 6.97884C16.8275 6.97884 16.9846 7.02649 17.1182 7.11577C17.2518 7.20505 17.356 7.33195 17.4175 7.48041C17.479 7.62888 17.4951 7.79224 17.4637 7.94985C17.4324 8.10746 17.355 8.25224 17.2414 8.36587C17.1277 8.4795 16.9829 8.55688 16.8253 8.58823C16.6677 8.61958 16.5044 8.60349 16.3559 8.54199C16.2074 8.4805 16.0805 8.37636 15.9913 8.24274C15.902 8.10913 15.8543 7.95204 15.8543 7.79134C15.8543 7.57585 15.9399 7.36919 16.0923 7.21682C16.2447 7.06444 16.4513 6.97884 16.6668 6.97884V6.97884Z" fill="#A5A5A5"/>
</g>
<rect x="2" width="24" height="1.5" fill="#A5A5A5"/>
<rect y="19" width="29" height="1" fill="#A5A5A5"/>
<rect x="5" y="21" width="19" height="1" fill="#A5A5A5"/>
<rect x="10" y="24" width="8" height="2" rx="1" fill="#A5A5A5"/>
<defs>
<clipPath id="clip0_6464_494">
<rect width="13" height="13" fill="white" transform="translate(8 4)"/>
</clipPath>
</defs>
</svg>
