<svg width="current" height="current" viewBox="0 0 14 12" fill="currentColor" xmlns="http://www.w3.org/2000/svg">
<path d="M13.3742 2.15357C12.9175 2.35058 12.4205 2.49237 11.9086 2.54759C12.4401 2.23183 12.8381 1.73298 13.028 1.14463C12.5292 1.44133 11.9829 1.64937 11.4131 1.75955C11.1749 1.50496 10.8869 1.30215 10.567 1.16375C10.247 1.02534 9.90201 0.954314 9.55342 0.955084C8.143 0.955084 7.00869 2.09835 7.00869 3.5013C7.00869 3.69831 7.03257 3.89533 7.07138 4.08487C4.95948 3.97443 3.07593 2.96549 1.82372 1.42075C1.59555 1.81046 1.47598 2.2542 1.47746 2.7058C1.47746 3.58936 1.9267 4.36845 2.61176 4.82665C2.20805 4.81075 1.81378 4.69978 1.46104 4.50278V4.53412C1.46104 5.77141 2.33565 6.79676 3.5013 7.03258C3.28243 7.08943 3.05729 7.11851 2.83116 7.11914C2.66549 7.11914 2.50878 7.10273 2.35057 7.08034C2.67295 8.08927 3.61174 8.82209 4.72963 8.84597C3.85502 9.53104 2.75952 9.93401 1.56999 9.93401C1.35656 9.93401 1.15955 9.92655 0.955078 9.90267C2.08341 10.6265 3.42219 11.0444 4.86396 11.0444C9.54446 11.0444 12.1056 7.1669 12.1056 3.8013C12.1056 3.69085 12.1056 3.58041 12.0981 3.46996C12.5937 3.10728 13.028 2.65804 13.3742 2.15357Z" fill="currentColor"/>
</svg>
