<svg width="20" height="20" viewBox="0 0 20 20" fill="none" xmlns="http://www.w3.org/2000/svg">
<path d="M8.82493 11.1759C9.1666 11.5009 9.1666 12.0342 8.82493 12.3592C8.49994 12.6842 7.9666 12.6842 7.6416 12.3592C6.0166 10.7342 6.0166 8.09258 7.6416 6.46758L10.5916 3.51758C12.2166 1.89258 14.8583 1.89258 16.4833 3.51758C18.1083 5.14258 18.1083 7.78425 16.4833 9.40925L15.2416 10.6509C15.2499 9.96758 15.1416 9.28424 14.9083 8.63424L15.2999 8.23424C16.2833 7.25924 16.2833 5.67591 15.2999 4.70091C14.3249 3.71758 12.7416 3.71758 11.7666 4.70091L8.82493 7.64258C7.8416 8.61758 7.8416 10.2009 8.82493 11.1759ZM11.1749 7.64258C11.4999 7.31758 12.0333 7.31758 12.3583 7.64258C13.9833 9.26758 13.9833 11.9092 12.3583 13.5342L9.40827 16.4842C7.78327 18.1092 5.1416 18.1092 3.5166 16.4842C1.8916 14.8592 1.8916 12.2176 3.5166 10.5926L4.75827 9.35091C4.74994 10.0342 4.85827 10.7176 5.0916 11.3759L4.69993 11.7676C3.7166 12.7426 3.7166 14.3259 4.69993 15.3009C5.67493 16.2842 7.25827 16.2842 8.23327 15.3009L11.1749 12.3592C12.1583 11.3842 12.1583 9.80091 11.1749 8.82591C10.8333 8.50091 10.8333 7.96758 11.1749 7.64258Z" fill="current"/>
</svg>
