<svg width="20" height="20" viewBox="0 0 12 12" fill="none" xmlns="http://www.w3.org/2000/svg">
<path d="M11.3348 7.43311C11.187 7.43311 11.0452 7.49182 10.9407 7.59634C10.8362 7.70085 10.7774 7.84261 10.7774 7.99041V9.10503C10.7774 9.54846 10.6013 9.97372 10.2878 10.2873C9.97421 10.6008 9.54894 10.777 9.10552 10.777H7.9909C7.8431 10.777 7.70134 10.8357 7.59683 10.9402C7.49231 11.0447 7.43359 11.1865 7.43359 11.3343C7.43359 11.4821 7.49231 11.6238 7.59683 11.7283C7.70134 11.8329 7.8431 11.8916 7.9909 11.8916H9.10552C9.84429 11.8907 10.5525 11.5968 11.0749 11.0744C11.5973 10.5521 11.8912 9.8438 11.8921 9.10503V7.99041C11.8921 7.84261 11.8334 7.70085 11.7288 7.59634C11.6243 7.49182 11.4826 7.43311 11.3348 7.43311Z" fill="current" stroke="current" stroke-width="0.2"/>
<path d="M0.665709 4.56688C0.813517 4.56688 0.955271 4.50816 1.05979 4.40365C1.1643 4.29913 1.22302 4.15738 1.22302 4.00957V2.89495C1.22302 2.45153 1.39917 2.02626 1.71272 1.71272C2.02626 1.39917 2.45153 1.22302 2.89495 1.22302H4.00957C4.15738 1.22302 4.29913 1.1643 4.40365 1.05979C4.50816 0.955271 4.56688 0.813517 4.56688 0.665709C4.56688 0.517901 4.50816 0.376147 4.40365 0.271631C4.29913 0.167115 4.15738 0.108398 4.00957 0.108398L2.89495 0.108398C2.15618 0.109283 1.44793 0.40315 0.925538 0.925538C0.40315 1.44793 0.109283 2.15618 0.108398 2.89495L0.108398 4.00957C0.108398 4.15738 0.167115 4.29913 0.271631 4.40365C0.376147 4.50816 0.517901 4.56688 0.665709 4.56688Z" fill="current" stroke="current" stroke-width="0.2"/>
<path d="M4.00957 10.777H2.89495C2.45153 10.777 2.02626 10.6008 1.71272 10.2873C1.39917 9.97372 1.22302 9.54846 1.22302 9.10503V7.99041C1.22302 7.84261 1.1643 7.70085 1.05979 7.59634C0.955271 7.49182 0.813517 7.43311 0.665709 7.43311C0.517901 7.43311 0.376147 7.49182 0.271631 7.59634C0.167115 7.70085 0.108398 7.84261 0.108398 7.99041L0.108398 9.10503C0.109283 9.8438 0.40315 10.5521 0.925538 11.0744C1.44793 11.5968 2.15618 11.8907 2.89495 11.8916H4.00957C4.15738 11.8916 4.29913 11.8329 4.40365 11.7283C4.50816 11.6238 4.56688 11.4821 4.56688 11.3343C4.56688 11.1865 4.50816 11.0447 4.40365 10.9402C4.29913 10.8357 4.15738 10.777 4.00957 10.777Z" fill="current" stroke="current" stroke-width="0.2"/>
<path d="M9.10552 0.108398H7.9909C7.8431 0.108398 7.70134 0.167115 7.59683 0.271631C7.49231 0.376147 7.43359 0.517901 7.43359 0.665709C7.43359 0.813517 7.49231 0.955271 7.59683 1.05979C7.70134 1.1643 7.8431 1.22302 7.9909 1.22302H9.10552C9.54894 1.22302 9.97421 1.39917 10.2878 1.71272C10.6013 2.02626 10.7774 2.45153 10.7774 2.89495V4.00957C10.7774 4.15738 10.8362 4.29913 10.9407 4.40365C11.0452 4.50816 11.187 4.56688 11.3348 4.56688C11.4826 4.56688 11.6243 4.50816 11.7288 4.40365C11.8334 4.29913 11.8921 4.15738 11.8921 4.00957V2.89495C11.8912 2.15618 11.5973 1.44793 11.0749 0.925538C10.5525 0.40315 9.84429 0.109283 9.10552 0.108398V0.108398Z" fill="current" stroke="current" stroke-width="0.2"/>
</svg>
