<svg width="20" height="21" viewBox="0 0 20 21" fill="none" xmlns="http://www.w3.org/2000/svg">
<rect x="0.25" y="19.251" width="16.5" height="1.5" fill="current" stroke="current" stroke-width="0.5"/>
<path d="M17.0025 11.501C17.0025 11.501 15.0025 13.671 15.0025 15.001C15.0025 15.5314 15.2132 16.0401 15.5883 16.4152C15.9634 16.7903 16.4721 17.001 17.0025 17.001C17.5329 17.001 18.0416 16.7903 18.4167 16.4152C18.7918 16.0401 19.0025 15.5314 19.0025 15.001C19.0025 13.671 17.0025 11.501 17.0025 11.501ZM3.2125 10.001L8.0025 5.21098L12.7925 10.001M14.5625 8.94098L5.6225 0.000976562L4.2125 1.41098L6.5925 3.79098L1.4425 8.94098C0.8525 9.50098 0.8525 10.471 1.4425 11.061L6.9425 16.561C7.2325 16.851 7.6225 17.001 8.0025 17.001C8.3825 17.001 8.7725 16.851 9.0625 16.561L14.5625 11.061C15.1525 10.471 15.1525 9.50098 14.5625 8.94098Z" fill="current"/>
</svg>
