<svg width="18" height="17" viewBox="0 0 18 17" fill="none" xmlns="http://www.w3.org/2000/svg">
<path fill-rule="evenodd" clip-rule="evenodd" d="M2.59105 1.44856C2.23702 1.44856 1.95002 1.73555 1.95002 2.08958V14.9101C1.95002 15.2641 2.23702 15.5511 2.59105 15.5511H15.4116C15.7656 15.5511 16.0526 15.2641 16.0526 14.9101V2.08958C16.0526 1.73555 15.7656 1.44856 15.4116 1.44856H2.59105ZM0.667969 2.08958C0.667969 1.02749 1.52896 0.166504 2.59105 0.166504H15.4116C16.4736 0.166504 17.3346 1.02749 17.3346 2.08958V14.9101C17.3346 15.9722 16.4736 16.8332 15.4116 16.8332H2.59105C1.52896 16.8332 0.667969 15.9722 0.667969 14.9101V2.08958Z" fill="#202020"/>
<path fill-rule="evenodd" clip-rule="evenodd" d="M3.65942 3.79898C3.65942 3.44495 3.94642 3.15796 4.30045 3.15796H7.71925C8.07328 3.15796 8.36028 3.44495 8.36028 3.79898V7.21779C8.36028 7.57181 8.07328 7.85881 7.71925 7.85881H4.30045C3.94642 7.85881 3.65942 7.57181 3.65942 7.21779V3.79898ZM4.94147 4.44001V6.57676H7.07822V4.44001H4.94147Z" fill="#202020"/>
<path fill-rule="evenodd" clip-rule="evenodd" d="M9.64233 3.79898C9.64233 3.44495 9.92932 3.15796 10.2834 3.15796H13.7022C14.0562 3.15796 14.3432 3.44495 14.3432 3.79898C14.3432 4.15301 14.0562 4.44001 13.7022 4.44001H10.2834C9.92932 4.44001 9.64233 4.15301 9.64233 3.79898Z" fill="#202020"/>
<path fill-rule="evenodd" clip-rule="evenodd" d="M9.64233 6.79044C9.64233 6.43641 9.92932 6.14941 10.2834 6.14941H13.7022C14.0562 6.14941 14.3432 6.43641 14.3432 6.79044C14.3432 7.14446 14.0562 7.43146 13.7022 7.43146H10.2834C9.92932 7.43146 9.64233 7.14446 9.64233 6.79044Z" fill="#202020"/>
<path fill-rule="evenodd" clip-rule="evenodd" d="M3.65942 10.2092C3.65942 9.85521 3.94642 9.56821 4.30045 9.56821H13.7022C14.0562 9.56821 14.3432 9.85521 14.3432 10.2092C14.3432 10.5633 14.0562 10.8503 13.7022 10.8503H4.30045C3.94642 10.8503 3.65942 10.5633 3.65942 10.2092Z" fill="#202020"/>
<path fill-rule="evenodd" clip-rule="evenodd" d="M3.65942 13.2007C3.65942 12.8467 3.94642 12.5597 4.30045 12.5597H13.7022C14.0562 12.5597 14.3432 12.8467 14.3432 13.2007C14.3432 13.5547 14.0562 13.8417 13.7022 13.8417H4.30045C3.94642 13.8417 3.65942 13.5547 3.65942 13.2007Z" fill="#202020"/>
</svg>
