<svg width="20" height="17" viewBox="0 0 20 17" fill="none" xmlns="http://www.w3.org/2000/svg">
<path d="M6.66797 13.5C4.3113 13.5 3.13214 13.5 2.40047 12.7675C1.66797 12.0358 1.66797 10.8567 1.66797 8.5C1.66797 6.14333 1.66797 4.96417 2.40047 4.2325C3.13214 3.5 4.3113 3.5 6.66797 3.5H13.3346C15.6913 3.5 16.8705 3.5 17.6021 4.2325C18.3346 4.96417 18.3346 6.14333 18.3346 8.5C18.3346 10.8567 18.3346 12.0358 17.6021 12.7675C16.8705 13.5 15.6913 13.5 13.3346 13.5H6.66797Z" stroke="#202020" stroke-width="1.5"/>
<path opacity="0.5" d="M3.75 1H16.25M3.75 16H16.25" stroke="#202020" stroke-width="1.5" stroke-linecap="round"/>
</svg>
