<svg width="18" height="17" viewBox="0 0 18 17" fill="none" xmlns="http://www.w3.org/2000/svg">
<path fill-rule="evenodd" clip-rule="evenodd" d="M7.37886 12.5741C7.69747 12.5343 7.98805 12.7603 8.02788 13.0789L8.41547 16.1797C8.4553 16.4983 8.2293 16.7889 7.91068 16.8287C7.59207 16.8685 7.30149 16.6425 7.26166 16.3239L6.87407 13.2231C6.83424 12.9045 7.06024 12.6139 7.37886 12.5741Z" fill="#202020"/>
<path fill-rule="evenodd" clip-rule="evenodd" d="M8.95304 3.4639C9.06341 3.33889 9.22214 3.26728 9.3889 3.26728H16.7532C17.0743 3.26728 17.3346 3.52758 17.3346 3.84867V16.2518C17.3346 16.5729 17.0743 16.8332 16.7532 16.8332H7.83852C7.61039 16.8332 7.40334 16.6997 7.30908 16.492C7.21481 16.2843 7.25075 16.0406 7.40097 15.8689L9.94245 12.9644L8.812 3.92079C8.79131 3.75531 8.84268 3.58892 8.95304 3.4639ZM10.0475 4.43007L11.1286 13.0789C11.1492 13.2435 11.0985 13.409 10.9892 13.5338L9.11978 15.6704H16.1718V4.43007H10.0475Z" fill="#202020"/>
<path fill-rule="evenodd" clip-rule="evenodd" d="M9.58269 10.0502C9.58269 9.72912 9.84299 9.46882 10.1641 9.46882H13.2649C13.586 9.46882 13.8463 9.72912 13.8463 10.0502C13.8463 10.3713 13.586 10.6316 13.2649 10.6316H10.1641C9.84299 10.6316 9.58269 10.3713 9.58269 10.0502Z" fill="#202020"/>
<path fill-rule="evenodd" clip-rule="evenodd" d="M9.1951 6.94945C9.1951 6.62835 9.45539 6.36805 9.77649 6.36805H13.2649C13.586 6.36805 13.8463 6.62835 13.8463 6.94945C13.8463 7.27054 13.586 7.53084 13.2649 7.53084H9.77649C9.45539 7.53084 9.1951 7.27054 9.1951 6.94945Z" fill="#202020"/>
<path fill-rule="evenodd" clip-rule="evenodd" d="M0.667969 0.747899C0.667969 0.426803 0.928268 0.166504 1.24936 0.166504H9.0013C9.29451 0.166504 9.54183 0.384839 9.5782 0.675786L11.1286 13.0789C11.1493 13.2444 11.0979 13.4107 10.9875 13.5358C10.8772 13.6608 10.7184 13.7324 10.5517 13.7324H1.24936C0.928268 13.7324 0.667969 13.4721 0.667969 13.151V0.747899ZM1.83076 1.32929V12.5696H9.89309L8.48805 1.32929H1.83076Z" fill="#202020"/>
<path fill-rule="evenodd" clip-rule="evenodd" d="M2.99355 3.84867C2.99355 3.52758 3.25385 3.26728 3.57494 3.26728H6.28812C6.60922 3.26728 6.86952 3.52758 6.86952 3.84867C6.86952 4.16977 6.60922 4.43007 6.28812 4.43007H3.57494C3.25385 4.43007 2.99355 4.16977 2.99355 3.84867Z" fill="#202020"/>
<path fill-rule="evenodd" clip-rule="evenodd" d="M2.99355 6.94945C2.99355 6.62835 3.25385 6.36805 3.57494 6.36805H6.67572C6.99681 6.36805 7.25711 6.62835 7.25711 6.94945C7.25711 7.27054 6.99681 7.53084 6.67572 7.53084H3.57494C3.25385 7.53084 2.99355 7.27054 2.99355 6.94945Z" fill="#202020"/>
<path fill-rule="evenodd" clip-rule="evenodd" d="M2.99355 10.0502C2.99355 9.72912 3.25385 9.46882 3.57494 9.46882H7.06331C7.38441 9.46882 7.64471 9.72912 7.64471 10.0502C7.64471 10.3713 7.38441 10.6316 7.06331 10.6316H3.57494C3.25385 10.6316 2.99355 10.3713 2.99355 10.0502Z" fill="#202020"/>
</svg>
