<svg width="18" height="17" viewBox="0 0 18 17" fill="none" xmlns="http://www.w3.org/2000/svg">
<g clip-path="url(#clip0_883_310)">
<path d="M17.1328 15.6473L16.3849 14.8994L15.1835 13.7001L17.1203 11.7633C17.2027 11.6807 17.263 11.5787 17.2956 11.4667C17.3282 11.3547 17.3321 11.2362 17.3068 11.1223C17.2816 11.0084 17.228 10.9027 17.1511 10.8149C17.0742 10.7272 16.9764 10.6602 16.8668 10.6203L10.6383 8.36053C10.3902 8.27086 10.1217 8.2537 9.86423 8.31106C9.60674 8.36843 9.37091 8.49793 9.18433 8.68444C8.99776 8.87094 8.86816 9.10672 8.81069 9.36419C8.75323 9.62166 8.77028 9.89017 8.85986 10.1383L11.1258 16.3668C11.1656 16.4765 11.2324 16.5744 11.32 16.6515C11.4077 16.7286 11.5133 16.7823 11.6272 16.8078C11.6767 16.8185 11.7273 16.8239 11.7779 16.8237C11.9621 16.8237 12.1387 16.7505 12.2689 16.6203L14.2036 14.68L15.4029 15.8793L16.1508 16.6272C16.2818 16.7537 16.4572 16.8237 16.6393 16.8221C16.8214 16.8205 16.9956 16.7475 17.1243 16.6187C17.2531 16.49 17.3261 16.3158 17.3277 16.1337C17.3293 15.9516 17.2593 15.7762 17.1328 15.6453V15.6473ZM12.0585 14.864L10.1668 9.66261L15.3682 11.5543L12.0585 14.864Z" fill="#202020"/>
<path d="M7.61242 14.0554C6.23893 14.0554 4.8963 13.6481 3.75429 12.885C2.61228 12.122 1.72219 11.0374 1.19659 9.76848C0.670978 8.49954 0.533455 7.10325 0.801407 5.75616C1.06936 4.40907 1.73075 3.17169 2.70195 2.20049C3.67315 1.22929 4.91053 0.567896 6.25762 0.299943C7.60471 0.0319897 9.00101 0.169513 10.2699 0.695121C11.5389 1.22073 12.6234 2.11082 13.3865 3.25282C14.1496 4.39483 14.5569 5.73747 14.5569 7.11095C14.5569 7.29513 14.4837 7.47176 14.3535 7.602C14.2232 7.73223 14.0466 7.8054 13.8624 7.8054C13.6782 7.8054 13.5016 7.73223 13.3714 7.602C13.2411 7.47176 13.168 7.29513 13.168 7.11095C13.168 6.01217 12.8421 4.93806 12.2317 4.02445C11.6212 3.11084 10.7536 2.39877 9.73843 1.97829C8.72329 1.5578 7.60625 1.44778 6.52858 1.66214C5.45091 1.87651 4.461 2.40562 3.68405 3.18258C2.90709 3.95954 2.37797 4.94944 2.16361 6.02712C1.94925 7.10479 2.05927 8.22183 2.47975 9.23697C2.90024 10.2521 3.61231 11.1198 4.52591 11.7302C5.43952 12.3407 6.51363 12.6665 7.61242 12.6665C7.79659 12.6665 7.97323 12.7397 8.10346 12.8699C8.2337 13.0001 8.30686 13.1768 8.30686 13.361C8.30686 13.5451 8.2337 13.7218 8.10346 13.852C7.97323 13.9822 7.79659 14.0554 7.61242 14.0554Z" fill="#202020"/>
<path d="M6.28366 11.0137C6.19239 11.0137 6.10201 10.9958 6.01769 10.9609C5.38495 10.6981 4.82678 10.2833 4.39261 9.75332C3.95844 9.2233 3.66167 8.5944 3.52858 7.92231C3.3955 7.25021 3.4302 6.55567 3.62962 5.90019C3.82904 5.24471 4.18702 4.64852 4.67186 4.16442C5.1567 3.68032 5.75344 3.32325 6.40923 3.12484C7.06501 2.92642 7.75961 2.89278 8.4315 3.0269C9.10339 3.16101 9.73184 3.45874 10.2612 3.89372C10.7905 4.3287 11.2045 4.8875 11.4663 5.52064C11.503 5.60523 11.5225 5.69629 11.5236 5.78849C11.5248 5.88069 11.5075 5.97219 11.4729 6.05766C11.4383 6.14313 11.387 6.22085 11.3221 6.28629C11.2571 6.35172 11.1798 6.40357 11.0945 6.4388C11.0093 6.47403 10.918 6.49193 10.8257 6.49147C10.7335 6.49101 10.6424 6.47219 10.5575 6.43611C10.4726 6.40003 10.3958 6.34741 10.3315 6.28133C10.2672 6.21524 10.2167 6.13701 10.183 6.0512C10.008 5.62949 9.7318 5.2574 9.37879 4.96787C9.02577 4.67833 8.60683 4.48028 8.15903 4.39123C7.71124 4.30217 7.2484 4.32487 6.81146 4.45731C6.37453 4.58975 5.97698 4.82784 5.65398 5.15053C5.33099 5.47321 5.09251 5.87054 4.95966 6.30734C4.8268 6.74415 4.80366 7.20697 4.89229 7.65485C4.98091 8.10273 5.17857 8.52186 5.46776 8.87515C5.75696 9.22844 6.12878 9.505 6.55033 9.68036C6.69888 9.74184 6.82151 9.85296 6.89728 9.99477C6.97304 10.1366 6.99726 10.3003 6.96579 10.4579C6.93432 10.6156 6.84912 10.7575 6.72472 10.8593C6.60032 10.9612 6.44444 11.0167 6.28366 11.0165V11.0137Z" fill="#202020"/>
</g>
<defs>
<clipPath id="clip0_883_310">
<rect width="16.6667" height="16.6667" fill="white" transform="translate(0.667969 0.166504)"/>
</clipPath>
</defs>
</svg>
