<svg width="19" height="17" viewBox="0 0 19 17" fill="none" xmlns="http://www.w3.org/2000/svg">
<path d="M7.5 15.375C7.5 15.6222 7.42669 15.8639 7.28934 16.0695C7.15199 16.275 6.95676 16.4352 6.72835 16.5298C6.49995 16.6245 6.24861 16.6492 6.00614 16.601C5.76366 16.5528 5.54093 16.4337 5.36612 16.2589C5.1913 16.0841 5.07225 15.8613 5.02402 15.6189C4.97579 15.3764 5.00054 15.1251 5.09515 14.8966C5.18976 14.6682 5.34998 14.473 5.55554 14.3357C5.7611 14.1983 6.00277 14.125 6.25 14.125C6.58152 14.125 6.89946 14.2567 7.13388 14.4911C7.3683 14.7255 7.5 15.0435 7.5 15.375ZM14.375 14.125C14.1278 14.125 13.8861 14.1983 13.6805 14.3357C13.475 14.473 13.3148 14.6682 13.2202 14.8966C13.1255 15.1251 13.1008 15.3764 13.149 15.6189C13.1972 15.8613 13.3163 16.0841 13.4911 16.2589C13.6659 16.4337 13.8887 16.5528 14.1311 16.601C14.3736 16.6492 14.6249 16.6245 14.8534 16.5298C15.0818 16.4352 15.277 16.275 15.4143 16.0695C15.5517 15.8639 15.625 15.6222 15.625 15.375C15.625 15.0435 15.4933 14.7255 15.2589 14.4911C15.0245 14.2567 14.7065 14.125 14.375 14.125ZM18.0977 4.30859L15.8687 11.5516C15.752 11.9355 15.5146 12.2716 15.1918 12.51C14.8689 12.7484 14.4779 12.8764 14.0766 12.875H6.56797C6.16092 12.8735 5.76531 12.7401 5.4404 12.4949C5.11548 12.2497 4.87874 11.9059 4.76562 11.5148L1.93906 1.625H0.625C0.45924 1.625 0.300269 1.55915 0.183058 1.44194C0.065848 1.32473 0 1.16576 0 1C0 0.83424 0.065848 0.675268 0.183058 0.558058C0.300269 0.440848 0.45924 0.375 0.625 0.375H1.93906C2.21048 0.3759 2.4743 0.464678 2.69104 0.628045C2.90778 0.791412 3.06579 1.02058 3.14141 1.28125L3.775 3.5H17.5C17.5978 3.49996 17.6943 3.52288 17.7816 3.56691C17.8689 3.61094 17.9447 3.67485 18.0028 3.75351C18.061 3.83216 18.0998 3.92336 18.1163 4.01977C18.1328 4.11618 18.1264 4.2151 18.0977 4.30859ZM16.6539 4.75H4.13203L5.96719 11.1719C6.00452 11.3024 6.08335 11.4172 6.19174 11.499C6.30014 11.5807 6.4322 11.625 6.56797 11.625H14.0766C14.2103 11.625 14.3405 11.5822 14.4481 11.5027C14.5557 11.4233 14.6349 11.3114 14.6742 11.1836L16.6539 4.75Z" fill="black"/>
</svg>
