<svg width="17" height="17" viewBox="0 0 17 17" fill="none" xmlns="http://www.w3.org/2000/svg">
<g clip-path="url(#clip0_985_3412)">
<path d="M13.1971 0H3.47292C2.55218 0.0011029 1.66947 0.367353 1.01841 1.01841C0.367353 1.66947 0.0011029 2.55218 0 3.47292L0 13.1971C0.0011029 14.1178 0.367353 15.0005 1.01841 15.6516C1.66947 16.3026 2.55218 16.6689 3.47292 16.67H13.1971C14.1178 16.6689 15.0005 16.3026 15.6516 15.6516C16.3026 15.0005 16.6689 14.1178 16.67 13.1971V3.47292C16.6689 2.55218 16.3026 1.66947 15.6516 1.01841C15.0005 0.367353 14.1178 0.0011029 13.1971 0V0ZM15.2808 3.47292H10.4188V1.38917H13.1971C13.7497 1.38917 14.2797 1.6087 14.6705 1.99948C15.0613 2.39026 15.2808 2.92027 15.2808 3.47292ZM7.64042 1.38917H9.02958V4.86208C9.02958 5.0463 8.9564 5.22297 8.82615 5.35323C8.69588 5.48349 8.51922 5.55667 8.335 5.55667C8.15079 5.55667 7.97412 5.48349 7.84386 5.35323C7.7136 5.22297 7.64042 5.0463 7.64042 4.86208V1.38917ZM3.47292 1.38917H6.25125V3.47292H1.38917C1.38917 2.92027 1.6087 2.39026 1.99948 1.99948C2.39026 1.6087 2.92027 1.38917 3.47292 1.38917ZM13.1971 15.2808H3.47292C2.92027 15.2808 2.39026 15.0613 1.99948 14.6705C1.6087 14.2797 1.38917 13.7497 1.38917 13.1971V4.86208H6.25125C6.25125 5.41473 6.47079 5.94474 6.86157 6.33552C7.25235 6.7263 7.78236 6.94583 8.335 6.94583C8.88764 6.94583 9.41765 6.7263 9.80843 6.33552C10.1992 5.94474 10.4188 5.41473 10.4188 4.86208H15.2808V13.1971C15.2808 13.7497 15.0613 14.2797 14.6705 14.6705C14.2797 15.0613 13.7497 15.2808 13.1971 15.2808ZM13.8917 13.1971C13.8917 13.3813 13.8185 13.558 13.6882 13.6882C13.558 13.8185 13.3813 13.8917 13.1971 13.8917H11.1133C10.9291 13.8917 10.7524 13.8185 10.6222 13.6882C10.4919 13.558 10.4188 13.3813 10.4188 13.1971C10.4188 13.0129 10.4919 12.8362 10.6222 12.7059C10.7524 12.5757 10.9291 12.5025 11.1133 12.5025H13.1971C13.3813 12.5025 13.558 12.5757 13.6882 12.7059C13.8185 12.8362 13.8917 13.0129 13.8917 13.1971Z" fill="#202020"/>
</g>
<defs>
<clipPath id="clip0_985_3412">
<rect width="16.67" height="16.67" fill="white"/>
</clipPath>
</defs>
</svg>
