<svg width="18" height="19" viewBox="0 0 18 19" fill="none" xmlns="http://www.w3.org/2000/svg">
<path d="M8.87636 7.42105L11.1818 9.74947V9.63158C11.1818 9.04531 10.9519 8.48305 10.5428 8.0685C10.1336 7.65395 9.57865 7.42105 9 7.42105H8.87636ZM5.74909 8.01053L6.87636 9.15263C6.84 9.30737 6.81818 9.46211 6.81818 9.63158C6.81818 10.2178 7.04805 10.7801 7.45722 11.1947C7.86639 11.6092 8.42135 11.8421 9 11.8421C9.16 11.8421 9.32 11.82 9.47273 11.7832L10.6 12.9253C10.1127 13.1684 9.57455 13.3158 9 13.3158C8.03558 13.3158 7.11065 12.9276 6.4287 12.2367C5.74675 11.5458 5.36364 10.6087 5.36364 9.63158C5.36364 9.04947 5.50909 8.50421 5.74909 8.01053ZM1.72727 3.93579L3.38545 5.61579L3.71273 5.94737C2.51273 6.90526 1.56727 8.15789 1 9.63158C2.25818 12.8663 5.36364 15.1579 9 15.1579C10.1273 15.1579 11.2036 14.9368 12.1855 14.5389L12.4982 14.8484L14.6218 17L15.5455 16.0642L2.65091 3M9 5.94737C9.96442 5.94737 10.8893 6.33553 11.5713 7.02645C12.2532 7.71737 12.6364 8.65447 12.6364 9.63158C12.6364 10.1032 12.5418 10.56 12.3745 10.9726L14.5055 13.1316C15.5964 12.2105 16.4691 11.0021 17 9.63158C15.7418 6.39684 12.6364 4.10526 9 4.10526C7.98182 4.10526 7.00727 4.28947 6.09091 4.62105L7.66909 6.20526C8.08364 6.04316 8.52727 5.94737 9 5.94737Z" fill="#A6A6A6"/>
</svg>
