<svg width="16" height="17" viewBox="0 0 16 17" fill="none" xmlns="http://www.w3.org/2000/svg">
<path d="M13.2923 16.67C13.0354 16.6693 12.7811 16.6177 12.5442 16.5181C12.3073 16.4186 12.0925 16.2731 11.9122 16.09L7.6405 11.8433L3.36881 16.0928C3.09447 16.3711 2.74264 16.5604 2.35918 16.6358C1.97572 16.7113 1.57842 16.6695 1.21908 16.5158C0.856171 16.3698 0.545713 16.1178 0.328247 15.7927C0.110782 15.4675 -0.00358353 15.0844 8.55979e-05 14.6932V3.47292C8.55979e-05 2.55184 0.365981 1.66849 1.01728 1.01719C1.66858 0.365896 2.55193 0 3.473 0L11.808 0C12.2641 0 12.7157 0.0898297 13.137 0.26436C13.5584 0.43889 13.9412 0.694704 14.2637 1.01719C14.5862 1.33968 14.842 1.72254 15.0166 2.14389C15.1911 2.56524 15.2809 3.01685 15.2809 3.47292V14.6932C15.2848 15.084 15.1709 15.467 14.9539 15.7921C14.737 16.1172 14.4271 16.3694 14.0647 16.5158C13.8201 16.6181 13.5575 16.6705 13.2923 16.67ZM3.473 1.38917C2.92036 1.38917 2.39035 1.6087 1.99957 1.99948C1.60879 2.39026 1.38925 2.92027 1.38925 3.47292V14.6932C1.389 14.809 1.42306 14.9222 1.48712 15.0186C1.55118 15.115 1.64237 15.1902 1.74918 15.2348C1.85598 15.2794 1.97361 15.2913 2.0872 15.2691C2.20079 15.2469 2.30524 15.1915 2.38737 15.11L7.15429 10.3722C7.28443 10.2428 7.46048 10.1702 7.64398 10.1702C7.82748 10.1702 8.00352 10.2428 8.13366 10.3722L12.895 15.1086C12.9772 15.1901 13.0816 15.2455 13.1952 15.2677C13.3088 15.29 13.4264 15.278 13.5332 15.2334C13.64 15.1888 13.7312 15.1136 13.7953 15.0172C13.8593 14.9208 13.8934 14.8076 13.8931 14.6918V3.47292C13.8931 2.92027 13.6736 2.39026 13.2828 1.99948C12.892 1.6087 12.362 1.38917 11.8094 1.38917H3.473Z" fill="#202020"/>
</svg>
