<svg width="18" height="17" viewBox="0 0 18 17" fill="none" xmlns="http://www.w3.org/2000/svg">
<path d="M10.3004 0.233751C11.0991 0.114696 11.9169 0.153703 12.7034 0.350938C13.7433 0.611691 14.7282 1.14895 15.5402 1.96093C16.3522 2.77291 16.8895 3.75778 17.1502 4.79772C17.3474 5.5843 17.3864 6.40197 17.2674 7.20067C17.2158 7.54687 16.8933 7.78569 16.5471 7.73408C16.2009 7.68247 15.9621 7.35998 16.0137 7.01378C16.1082 6.37945 16.0772 5.73007 15.9207 5.10601C15.7142 4.28247 15.2892 3.50253 14.6439 2.85724C13.9986 2.21195 13.2187 1.78694 12.3951 1.58044C11.7711 1.42395 11.1217 1.39291 10.4873 1.48746C10.1411 1.53907 9.81864 1.30025 9.76703 0.954047C9.71542 0.607845 9.95424 0.285357 10.3004 0.233751Z" fill="#202020"/>
<path d="M10.4572 3.25797C11.4148 3.11521 12.4282 3.41251 13.1671 4.15135C13.906 4.89023 14.2032 5.9037 14.0605 6.86134C14.0089 7.20754 13.6864 7.44636 13.3402 7.39475C12.994 7.34314 12.7552 7.02065 12.8068 6.67445C12.8929 6.09699 12.7137 5.49051 12.2708 5.04769M12.2708 5.04769C11.8279 4.60483 11.2215 4.4256 10.644 4.51168C10.2978 4.56329 9.97535 4.32447 9.92375 3.97827C9.87214 3.63207 10.111 3.30958 10.4572 3.25797" fill="#202020"/>
<path d="M2.91847 2.75003C2.22303 2.75003 1.78923 3.3732 1.9879 3.96199C2.70024 6.07313 4.02767 9.24901 6.00734 11.2286C7.98696 13.2083 11.1628 14.5357 13.274 15.2481C13.8628 15.4468 14.486 15.013 14.486 14.3175V12.1738C14.486 12.0971 14.4444 12.0265 14.3774 11.9892L12.5101 10.9511C12.4491 10.9172 12.3754 10.9156 12.313 10.9468L10.3216 11.9424C10.1971 12.0047 10.0556 12.0242 9.91883 11.998L10.0382 11.3755C9.91883 11.998 9.91883 11.998 9.91883 11.998L9.91701 11.9976L9.91463 11.9972L9.90826 11.9959L9.88915 11.9919C9.87363 11.9886 9.85261 11.9839 9.82654 11.9778C9.77441 11.9655 9.70191 11.9471 9.61254 11.9213C9.43409 11.8698 9.18681 11.7883 8.89945 11.6658C8.32718 11.4219 7.58017 11.0089 6.90363 10.3324C6.22719 9.65592 5.81296 8.90782 5.56796 8.33473C5.44491 8.04691 5.36281 7.79918 5.31084 7.62041C5.28481 7.5309 5.26623 7.45827 5.25377 7.40608C5.24753 7.37997 5.24282 7.35894 5.23947 7.34342L5.23545 7.32432L5.23416 7.31796L5.23369 7.3156L5.2335 7.31463C5.2335 7.31463 5.23334 7.31379 5.85546 7.19278L5.2335 7.31463C5.20681 7.17741 5.22607 7.03438 5.28859 6.90935L6.28439 4.91775C6.31555 4.85544 6.31399 4.78168 6.28014 4.72071L5.24652 2.8588C5.20923 2.79163 5.13847 2.75003 5.0618 2.75003H2.91847ZM6.5277 7.26549L6.52801 7.26655C6.56788 7.40372 6.63341 7.60239 6.73348 7.83646C6.9347 8.30714 7.26863 8.90475 7.79992 9.43604M7.79992 9.43604C8.33115 9.96725 8.92737 10.2999 9.39637 10.4997C9.62964 10.5991 9.82752 10.664 9.96405 10.7034L11.746 9.81305C12.1828 9.59464 12.6993 9.60595 13.126 9.84321L14.9932 10.8813C15.4626 11.1422 15.7535 11.637 15.7535 12.1738V14.3175C15.7535 15.8054 14.3487 16.9485 12.8687 16.4491C10.7311 15.7278 7.31166 14.3256 5.11103 12.1249C2.91036 9.9243 1.50814 6.50489 0.78686 4.36724C0.2875 2.88729 1.43062 1.48246 2.91847 1.48246H5.0618C5.59904 1.48246 6.09396 1.77386 6.35471 2.24347L7.38839 4.10548C7.6252 4.53208 7.6364 5.04812 7.41813 5.48462L6.5277 7.26549" fill="#202020"/>
</svg>
