<svg width="18" height="17" viewBox="0 0 18 17" fill="none" xmlns="http://www.w3.org/2000/svg">
<path fill-rule="evenodd" clip-rule="evenodd" d="M2.59007 1.44856C2.23604 1.44856 1.94904 1.73555 1.94904 2.08958V14.9101C1.94904 15.2641 2.23604 15.5511 2.59007 15.5511H15.4106C15.7646 15.5511 16.0516 15.2641 16.0516 14.9101V2.08958C16.0516 1.73555 15.7646 1.44856 15.4106 1.44856H2.59007ZM0.666992 2.08958C0.666992 1.02749 1.52798 0.166504 2.59007 0.166504H15.4106C16.4727 0.166504 17.3337 1.02749 17.3337 2.08958V14.9101C17.3337 15.9722 16.4727 16.8332 15.4106 16.8332H2.59007C1.52798 16.8332 0.666992 15.9722 0.666992 14.9101V2.08958Z" fill="black"/>
<path fill-rule="evenodd" clip-rule="evenodd" d="M3.65845 3.79898C3.65845 3.44495 3.94544 3.15796 4.29947 3.15796H7.71827C8.0723 3.15796 8.3593 3.44495 8.3593 3.79898V7.21779C8.3593 7.57181 8.0723 7.85881 7.71827 7.85881H4.29947C3.94544 7.85881 3.65845 7.57181 3.65845 7.21779V3.79898ZM4.9405 4.44001V6.57676H7.07725V4.44001H4.9405Z" fill="black"/>
<path fill-rule="evenodd" clip-rule="evenodd" d="M9.64135 3.79898C9.64135 3.44495 9.92835 3.15796 10.2824 3.15796H13.7012C14.0552 3.15796 14.3422 3.44495 14.3422 3.79898C14.3422 4.15301 14.0552 4.44001 13.7012 4.44001H10.2824C9.92835 4.44001 9.64135 4.15301 9.64135 3.79898Z" fill="black"/>
<path fill-rule="evenodd" clip-rule="evenodd" d="M9.64135 6.79044C9.64135 6.43641 9.92835 6.14941 10.2824 6.14941H13.7012C14.0552 6.14941 14.3422 6.43641 14.3422 6.79044C14.3422 7.14446 14.0552 7.43146 13.7012 7.43146H10.2824C9.92835 7.43146 9.64135 7.14446 9.64135 6.79044Z" fill="black"/>
<path fill-rule="evenodd" clip-rule="evenodd" d="M3.65845 10.2092C3.65845 9.85521 3.94544 9.56821 4.29947 9.56821H13.7012C14.0552 9.56821 14.3422 9.85521 14.3422 10.2092C14.3422 10.5633 14.0552 10.8503 13.7012 10.8503H4.29947C3.94544 10.8503 3.65845 10.5633 3.65845 10.2092Z" fill="black"/>
<path fill-rule="evenodd" clip-rule="evenodd" d="M3.65845 13.2007C3.65845 12.8467 3.94544 12.5597 4.29947 12.5597H13.7012C14.0552 12.5597 14.3422 12.8467 14.3422 13.2007C14.3422 13.5547 14.0552 13.8417 13.7012 13.8417H4.29947C3.94544 13.8417 3.65845 13.5547 3.65845 13.2007Z" fill="black"/>
</svg>
