<svg width="18" height="17" viewBox="0 0 18 17" fill="none" xmlns="http://www.w3.org/2000/svg">
<g clip-path="url(#clip0_883_820)">
<path d="M5.52908 9.88873C5.52908 10.0729 5.45591 10.2495 5.32568 10.3798C5.19545 10.51 5.01881 10.5832 4.83464 10.5832H4.14019C3.95601 10.5832 3.77938 10.51 3.64914 10.3798C3.51891 10.2495 3.44575 10.0729 3.44575 9.88873C3.44575 9.70455 3.51891 9.52791 3.64914 9.39768C3.77938 9.26745 3.95601 9.19428 4.14019 9.19428H4.83464C5.01881 9.19428 5.19545 9.26745 5.32568 9.39768C5.45591 9.52791 5.52908 9.70455 5.52908 9.88873ZM8.30686 9.19428H7.61241C7.42823 9.19428 7.2516 9.26745 7.12137 9.39768C6.99113 9.52791 6.91797 9.70455 6.91797 9.88873C6.91797 10.0729 6.99113 10.2495 7.12137 10.3798C7.2516 10.51 7.42823 10.5832 7.61241 10.5832H8.30686C8.49104 10.5832 8.66767 10.51 8.7979 10.3798C8.92814 10.2495 9.0013 10.0729 9.0013 9.88873C9.0013 9.70455 8.92814 9.52791 8.7979 9.39768C8.66767 9.26745 8.49104 9.19428 8.30686 9.19428ZM4.83464 11.9721H4.14019C3.95601 11.9721 3.77938 12.0452 3.64914 12.1755C3.51891 12.3057 3.44575 12.4823 3.44575 12.6665C3.44575 12.8507 3.51891 13.0273 3.64914 13.1575C3.77938 13.2878 3.95601 13.3609 4.14019 13.3609H4.83464C5.01881 13.3609 5.19545 13.2878 5.32568 13.1575C5.45591 13.0273 5.52908 12.8507 5.52908 12.6665C5.52908 12.4823 5.45591 12.3057 5.32568 12.1755C5.19545 12.0452 5.01881 11.9721 4.83464 11.9721ZM8.30686 11.9721H7.61241C7.42823 11.9721 7.2516 12.0452 7.12137 12.1755C6.99113 12.3057 6.91797 12.4823 6.91797 12.6665C6.91797 12.8507 6.99113 13.0273 7.12137 13.1575C7.2516 13.2878 7.42823 13.3609 7.61241 13.3609H8.30686C8.49104 13.3609 8.66767 13.2878 8.7979 13.1575C8.92814 13.0273 9.0013 12.8507 9.0013 12.6665C9.0013 12.4823 8.92814 12.3057 8.7979 12.1755C8.66767 12.0452 8.49104 11.9721 8.30686 11.9721ZM4.83464 3.63873H4.14019C3.95601 3.63873 3.77938 3.71189 3.64914 3.84212C3.51891 3.97236 3.44575 4.14899 3.44575 4.33317C3.44575 4.51735 3.51891 4.69398 3.64914 4.82422C3.77938 4.95445 3.95601 5.02761 4.14019 5.02761H4.83464C5.01881 5.02761 5.19545 4.95445 5.32568 4.82422C5.45591 4.69398 5.52908 4.51735 5.52908 4.33317C5.52908 4.14899 5.45591 3.97236 5.32568 3.84212C5.19545 3.71189 5.01881 3.63873 4.83464 3.63873ZM8.30686 3.63873H7.61241C7.42823 3.63873 7.2516 3.71189 7.12137 3.84212C6.99113 3.97236 6.91797 4.14899 6.91797 4.33317C6.91797 4.51735 6.99113 4.69398 7.12137 4.82422C7.2516 4.95445 7.42823 5.02761 7.61241 5.02761H8.30686C8.49104 5.02761 8.66767 4.95445 8.7979 4.82422C8.92814 4.69398 9.0013 4.51735 9.0013 4.33317C9.0013 4.14899 8.92814 3.97236 8.7979 3.84212C8.66767 3.71189 8.49104 3.63873 8.30686 3.63873ZM4.83464 6.4165H4.14019C3.95601 6.4165 3.77938 6.48967 3.64914 6.6199C3.51891 6.75014 3.44575 6.92677 3.44575 7.11095C3.44575 7.29513 3.51891 7.47176 3.64914 7.60199C3.77938 7.73223 3.95601 7.80539 4.14019 7.80539H4.83464C5.01881 7.80539 5.19545 7.73223 5.32568 7.60199C5.45591 7.47176 5.52908 7.29513 5.52908 7.11095C5.52908 6.92677 5.45591 6.75014 5.32568 6.6199C5.19545 6.48967 5.01881 6.4165 4.83464 6.4165ZM8.30686 6.4165H7.61241C7.42823 6.4165 7.2516 6.48967 7.12137 6.6199C6.99113 6.75014 6.91797 6.92677 6.91797 7.11095C6.91797 7.29513 6.99113 7.47176 7.12137 7.60199C7.2516 7.73223 7.42823 7.80539 7.61241 7.80539H8.30686C8.49104 7.80539 8.66767 7.73223 8.7979 7.60199C8.92814 7.47176 9.0013 7.29513 9.0013 7.11095C9.0013 6.92677 8.92814 6.75014 8.7979 6.6199C8.66767 6.48967 8.49104 6.4165 8.30686 6.4165ZM17.3346 7.11095V13.3609C17.3335 14.2815 16.9674 15.164 16.3164 15.815C15.6655 16.4659 14.783 16.8321 13.8624 16.8332H4.14019C3.21964 16.8321 2.33711 16.4659 1.68618 15.815C1.03525 15.164 0.669071 14.2815 0.667969 13.3609L0.667969 3.63873C0.669071 2.71817 1.03525 1.83564 1.68618 1.18471C2.33711 0.533783 3.21964 0.167607 4.14019 0.166504L8.30686 0.166504C9.22741 0.167607 10.1099 0.533783 10.7609 1.18471C11.4118 1.83564 11.778 2.71817 11.7791 3.63873H13.8624C14.783 3.63983 15.6655 4.00601 16.3164 4.65693C16.9674 5.30786 17.3335 6.1904 17.3346 7.11095ZM4.14019 15.4443H10.3902V3.63873C10.3902 3.08619 10.1707 2.55629 9.78 2.16559C9.3893 1.77489 8.85939 1.55539 8.30686 1.55539H4.14019C3.58766 1.55539 3.05775 1.77489 2.66705 2.16559C2.27635 2.55629 2.05686 3.08619 2.05686 3.63873V13.3609C2.05686 13.9135 2.27635 14.4434 2.66705 14.8341C3.05775 15.2248 3.58766 15.4443 4.14019 15.4443ZM15.9457 7.11095C15.9457 6.55841 15.7263 6.02851 15.3356 5.63781C14.9449 5.24711 14.4149 5.02761 13.8624 5.02761H11.7791V15.4443H13.8624C14.4149 15.4443 14.9449 15.2248 15.3356 14.8341C15.7263 14.4434 15.9457 13.9135 15.9457 13.3609V7.11095ZM13.8624 9.19428C13.7251 9.19428 13.5908 9.23501 13.4766 9.31132C13.3624 9.38762 13.2734 9.49608 13.2208 9.62297C13.1683 9.74987 13.1545 9.8895 13.1813 10.0242C13.2081 10.1589 13.2742 10.2827 13.3714 10.3798C13.4685 10.4769 13.5922 10.543 13.7269 10.5698C13.8616 10.5966 14.0013 10.5829 14.1282 10.5303C14.2551 10.4777 14.3635 10.3887 14.4398 10.2745C14.5161 10.1603 14.5569 10.0261 14.5569 9.88873C14.5569 9.70455 14.4837 9.52791 14.3535 9.39768C14.2232 9.26745 14.0466 9.19428 13.8624 9.19428ZM13.8624 11.9721C13.7251 11.9721 13.5908 12.0128 13.4766 12.0891C13.3624 12.1654 13.2734 12.2739 13.2208 12.4008C13.1683 12.5276 13.1545 12.6673 13.1813 12.802C13.2081 12.9367 13.2742 13.0604 13.3714 13.1575C13.4685 13.2547 13.5922 13.3208 13.7269 13.3476C13.8616 13.3744 14.0013 13.3606 14.1282 13.3081C14.2551 13.2555 14.3635 13.1665 14.4398 13.0523C14.5161 12.9381 14.5569 12.8039 14.5569 12.6665C14.5569 12.4823 14.4837 12.3057 14.3535 12.1755C14.2232 12.0452 14.0466 11.9721 13.8624 11.9721ZM13.8624 6.4165C13.7251 6.4165 13.5908 6.45723 13.4766 6.53354C13.3624 6.60985 13.2734 6.7183 13.2208 6.8452C13.1683 6.97209 13.1545 7.11172 13.1813 7.24643C13.2081 7.38114 13.2742 7.50487 13.3714 7.60199C13.4685 7.69911 13.5922 7.76525 13.7269 7.79205C13.8616 7.81884 14.0013 7.80509 14.1282 7.75253C14.2551 7.69997 14.3635 7.61096 14.4398 7.49676C14.5161 7.38256 14.5569 7.2483 14.5569 7.11095C14.5569 6.92677 14.4837 6.75014 14.3535 6.6199C14.2232 6.48967 14.0466 6.4165 13.8624 6.4165Z" fill="#202020"/>
</g>
<defs>
<clipPath id="clip0_883_820">
<rect width="16.6667" height="16.6667" fill="white" transform="translate(0.667969 0.166504)"/>
</clipPath>
</defs>
</svg>
