<svg width="18" height="17" viewBox="0 0 18 17" fill="none" xmlns="http://www.w3.org/2000/svg">
<g clip-path="url(#clip0_883_882)">
<path d="M9.00131 0.166504C7.35313 0.166504 5.74196 0.655245 4.37155 1.57092C3.00114 2.4866 1.93304 3.78809 1.30231 5.31081C0.671579 6.83353 0.506552 8.50908 0.828095 10.1256C1.14964 11.7421 1.94331 13.227 3.10875 14.3924C4.27419 15.5578 5.75905 16.3515 7.37555 16.673C8.99206 16.9946 10.6676 16.8296 12.1903 16.1988C13.7131 15.5681 15.0145 14.5 15.9302 13.1296C16.8459 11.7592 17.3346 10.148 17.3346 8.49984C17.3322 6.29043 16.4535 4.17221 14.8912 2.60992C13.3289 1.04763 11.2107 0.168894 9.00131 0.166504ZM9.00131 15.4443C7.62782 15.4443 6.28519 15.037 5.14318 14.2739C4.00117 13.5109 3.11108 12.4263 2.58548 11.1574C2.05987 9.88843 1.92234 8.49213 2.1903 7.14504C2.45825 5.79795 3.11964 4.56057 4.09084 3.58937C5.06204 2.61818 6.29942 1.95678 7.64651 1.68883C8.9936 1.42088 10.3899 1.5584 11.6588 2.08401C12.9278 2.60962 14.0123 3.4997 14.7754 4.64171C15.5385 5.78372 15.9458 7.12636 15.9458 8.49984C15.9437 10.341 15.2114 12.1062 13.9095 13.4081C12.6076 14.71 10.8425 15.4423 9.00131 15.4443Z" fill="#202020"/>
<path d="M8.50939 10.38C8.63962 10.5102 8.81626 10.5834 9.00043 10.5834C9.18461 10.5834 9.36125 10.5102 9.49148 10.38C9.62171 10.2497 9.69488 10.0731 9.69488 9.88893C9.72069 9.6843 9.79204 9.48806 9.90368 9.31465C10.0153 9.14123 10.1644 8.99505 10.34 8.88685C10.6789 8.6996 10.9749 8.44358 11.209 8.13521C11.4432 7.82684 11.6102 7.47292 11.6995 7.09618C11.7888 6.71945 11.7984 6.3282 11.7276 5.94755C11.6568 5.5669 11.5072 5.20525 11.2884 4.88582C11.0696 4.56639 10.7865 4.29622 10.4571 4.09265C10.1278 3.88909 9.7595 3.75662 9.37594 3.70375C8.99239 3.65088 8.60202 3.67878 8.22989 3.78566C7.85775 3.89253 7.51207 4.07602 7.21502 4.32435C6.9042 4.58513 6.65428 4.91083 6.48284 5.27855C6.31139 5.64628 6.22259 6.04709 6.22266 6.45282C6.22266 6.637 6.29582 6.81363 6.42605 6.94387C6.55629 7.0741 6.73292 7.14726 6.9171 7.14726C7.10128 7.14726 7.27791 7.0741 7.40815 6.94387C7.53838 6.81363 7.61155 6.637 7.61155 6.45282C7.61111 6.24883 7.65563 6.04724 7.74191 5.8624C7.8282 5.67756 7.95415 5.51399 8.1108 5.38332C8.26745 5.25266 8.45096 5.15811 8.64829 5.10638C8.84562 5.05466 9.05191 5.04704 9.25252 5.08407C9.52732 5.13756 9.77988 5.27189 9.97784 5.46985C10.1758 5.66781 10.3101 5.92038 10.3636 6.19518C10.4188 6.48289 10.3813 6.78067 10.2565 7.04571C10.1317 7.31075 9.92608 7.52939 9.66918 7.67018C9.27604 7.89825 8.94569 8.22037 8.70776 8.60763C8.46983 8.99488 8.33178 9.43516 8.30599 9.88893C8.30599 10.0731 8.37915 10.2497 8.50939 10.38Z" fill="#202020"/>
<path d="M8.61462 12.0893C8.72882 12.013 8.86309 11.9723 9.00043 11.9723C9.18461 11.9723 9.36125 12.0454 9.49148 12.1757C9.62171 12.3059 9.69488 12.4825 9.69488 12.6667C9.69488 12.8041 9.65415 12.9383 9.57784 13.0525C9.50154 13.1667 9.39308 13.2557 9.26619 13.3083C9.13929 13.3609 8.99966 13.3746 8.86495 13.3478C8.73025 13.321 8.60651 13.2549 8.50939 13.1578C8.41227 13.0606 8.34613 12.9369 8.31933 12.8022C8.29254 12.6675 8.30629 12.5279 8.35885 12.401C8.41141 12.2741 8.50042 12.1656 8.61462 12.0893Z" fill="#202020"/>
</g>
<defs>
<clipPath id="clip0_883_882">
<rect width="16.6667" height="16.6667" fill="white" transform="translate(0.667969 0.166504)"/>
</clipPath>
</defs>
</svg>
