<svg width="18" height="17" viewBox="0 0 18 17" fill="none" xmlns="http://www.w3.org/2000/svg">
<g clip-path="url(#clip0_3234_4295)">
<path d="M13.8614 0.166687H4.13921C3.21866 0.16779 2.33613 0.533966 1.6852 1.1849C1.03427 1.83582 0.668095 2.71836 0.666992 3.63891L0.666992 13.3611C0.668095 14.2817 1.03427 15.1642 1.6852 15.8151C2.33613 16.4661 3.21866 16.8323 4.13921 16.8334H13.8614C14.782 16.8323 15.6645 16.4661 16.3155 15.8151C16.9664 15.1642 17.3326 14.2817 17.3337 13.3611V3.63891C17.3326 2.71836 16.9664 1.83582 16.3155 1.1849C15.6645 0.533966 14.782 0.16779 13.8614 0.166687ZM4.13921 1.55558H13.8614C14.414 1.55558 14.9439 1.77507 15.3346 2.16577C15.7253 2.55647 15.9448 3.08637 15.9448 3.63891V13.3611C15.9436 13.6705 15.8723 13.9756 15.7364 14.2535L9.37324 7.8903C9.0508 7.56777 8.66799 7.31193 8.24666 7.13738C7.82533 6.96283 7.37374 6.87298 6.91769 6.87298C6.46163 6.87298 6.01004 6.96283 5.58871 7.13738C5.16738 7.31193 4.78457 7.56777 4.46213 7.8903L2.05588 10.2959V3.63891C2.05588 3.08637 2.27537 2.55647 2.66608 2.16577C3.05678 1.77507 3.58668 1.55558 4.13921 1.55558ZM4.13921 15.4445C3.58668 15.4445 3.05678 15.225 2.66608 14.8343C2.27537 14.4436 2.05588 13.9137 2.05588 13.3611V12.2597L5.44338 8.87224C5.63685 8.67865 5.86658 8.52507 6.11943 8.42029C6.37228 8.31551 6.64329 8.26158 6.91699 8.26158C7.19069 8.26158 7.46171 8.31551 7.71456 8.42029C7.96741 8.52507 8.19713 8.67865 8.3906 8.87224L14.7538 15.2361C14.4759 15.372 14.1708 15.4433 13.8614 15.4445H4.13921Z" fill="#202020"/>
<path d="M11.7782 7.4581C12.2589 7.4581 12.7289 7.31555 13.1286 7.04848C13.5283 6.7814 13.8398 6.4018 14.0238 5.95767C14.2077 5.51355 14.2558 5.02485 14.1621 4.55336C14.0683 4.08188 13.8368 3.6488 13.4969 3.30888C13.157 2.96896 12.7239 2.73747 12.2524 2.64369C11.7809 2.5499 11.2922 2.59804 10.8481 2.782C10.404 2.96596 10.0244 3.27749 9.75728 3.6772C9.49021 4.0769 9.34766 4.54682 9.34766 5.02754C9.34766 5.67217 9.60373 6.29039 10.0595 6.7462C10.5154 7.20202 11.1336 7.4581 11.7782 7.4581ZM11.7782 3.98588C11.9842 3.98588 12.1856 4.04697 12.3569 4.16143C12.5282 4.27589 12.6617 4.43857 12.7406 4.62891C12.8194 4.81925 12.8401 5.0287 12.7999 5.23076C12.7597 5.43282 12.6605 5.61843 12.5148 5.76411C12.3691 5.90979 12.1835 6.009 11.9814 6.04919C11.7794 6.08939 11.5699 6.06876 11.3796 5.98992C11.1892 5.91108 11.0266 5.77756 10.9121 5.60626C10.7976 5.43496 10.7365 5.23356 10.7365 5.02754C10.7365 4.75127 10.8463 4.48632 11.0416 4.29097C11.237 4.09562 11.5019 3.98588 11.7782 3.98588Z" fill="#202020"/>
</g>
<defs>
<clipPath id="clip0_3234_4295">
<rect width="16.6667" height="16.6667" fill="white" transform="translate(0.666992 0.166687)"/>
</clipPath>
</defs>
</svg>
