<svg width="20" height="20" viewBox="0 0 20 20" fill="none" xmlns="http://www.w3.org/2000/svg">
<g clip-path="url(#clip0_3230_35079)">
<path d="M14.8614 0.666672H5.13921C4.21866 0.667774 3.33613 1.03395 2.6852 1.68488C2.03427 2.33581 1.66809 3.21834 1.66699 4.13889L1.66699 13.8611C1.66809 14.7817 2.03427 15.6642 2.6852 16.3151C3.33613 16.9661 4.21866 17.3322 5.13921 17.3333H14.8614C15.782 17.3322 16.6645 16.9661 17.3155 16.3151C17.9664 15.6642 18.3326 14.7817 18.3337 13.8611V4.13889C18.3326 3.21834 17.9664 2.33581 17.3155 1.68488C16.6645 1.03395 15.782 0.667774 14.8614 0.666672ZM5.13921 2.05556H14.8614C15.414 2.05556 15.9439 2.27505 16.3346 2.66575C16.7253 3.05646 16.9448 3.58636 16.9448 4.13889V13.8611C16.9436 14.1705 16.8723 14.4756 16.7364 14.7535L10.3732 8.39028C10.0508 8.06776 9.66799 7.81192 9.24666 7.63736C8.82533 7.46281 8.37374 7.37297 7.91769 7.37297C7.46163 7.37297 7.01004 7.46281 6.58871 7.63736C6.16738 7.81192 5.78457 8.06776 5.46213 8.39028L3.05588 10.7958V4.13889C3.05588 3.58636 3.27537 3.05646 3.66608 2.66575C4.05678 2.27505 4.58668 2.05556 5.13921 2.05556ZM5.13921 15.9444C4.58668 15.9444 4.05678 15.725 3.66608 15.3343C3.27537 14.9436 3.05588 14.4136 3.05588 13.8611V12.7597L6.44338 9.37223C6.63685 9.17863 6.86658 9.02505 7.11943 8.92027C7.37228 8.81549 7.64329 8.76156 7.91699 8.76156C8.19069 8.76156 8.46171 8.81549 8.71456 8.92027C8.96741 9.02505 9.19713 9.17863 9.3906 9.37223L15.7538 15.7361C15.4759 15.872 15.1708 15.9433 14.8614 15.9444H5.13921Z" fill="#202020"/>
<path d="M12.7782 7.9581C13.2589 7.9581 13.7289 7.81555 14.1286 7.54848C14.5283 7.2814 14.8398 6.9018 15.0238 6.45767C15.2077 6.01355 15.2558 5.52485 15.1621 5.05336C15.0683 4.58188 14.8368 4.1488 14.4969 3.80888C14.157 3.46896 13.7239 3.23747 13.2524 3.14369C12.7809 3.0499 12.2922 3.09804 11.8481 3.282C11.404 3.46596 11.0244 3.77749 10.7573 4.1772C10.4902 4.5769 10.3477 5.04682 10.3477 5.52754C10.3477 6.17217 10.6037 6.79039 11.0595 7.2462C11.5154 7.70202 12.1336 7.9581 12.7782 7.9581V7.9581ZM12.7782 4.48588C12.9842 4.48588 13.1856 4.54697 13.3569 4.66143C13.5282 4.77589 13.6617 4.93857 13.7406 5.12891C13.8194 5.31925 13.8401 5.5287 13.7999 5.73076C13.7597 5.93282 13.6605 6.11843 13.5148 6.26411C13.3691 6.40979 13.1835 6.509 12.9814 6.54919C12.7794 6.58939 12.5699 6.56876 12.3796 6.48992C12.1892 6.41108 12.0266 6.27756 11.9121 6.10626C11.7976 5.93496 11.7365 5.73356 11.7365 5.52754C11.7365 5.25127 11.8463 4.98632 12.0416 4.79097C12.237 4.59562 12.5019 4.48588 12.7782 4.48588V4.48588Z" fill="#202020"/>
</g>
<circle cx="8" cy="19.5" r="0.5" fill="#202020"/>
<circle cx="10" cy="19.5" r="0.5" fill="#D9D9D9"/>
<circle cx="12" cy="19.5" r="0.5" fill="#D9D9D9"/>
<defs>
<clipPath id="clip0_3230_35079">
<rect width="16.6667" height="16.6667" fill="white" transform="translate(1.66699 0.666672)"/>
</clipPath>
</defs>
</svg>
