<svg width="18" height="17" viewBox="0 0 18 17" fill="none" xmlns="http://www.w3.org/2000/svg">
<path d="M6.91699 0.375C4.96098 0.375 3.37533 1.96066 3.37533 3.91667C3.37533 5.87268 4.96098 7.45833 6.91699 7.45833C8.873 7.45833 10.4587 5.87268 10.4587 3.91667C10.4587 1.96066 8.873 0.375 6.91699 0.375ZM12.9094 0.881333C12.6138 0.703182 12.2297 0.798436 12.0515 1.09409C11.8734 1.38974 11.9686 1.77383 12.2643 1.95198C12.9314 2.35398 13.3753 3.08379 13.3753 3.91666C13.3753 4.74953 12.9314 5.47934 12.2643 5.88133C11.9686 6.05948 11.8734 6.44358 12.0515 6.73923C12.2297 7.03488 12.6138 7.13013 12.9094 6.95198C13.9363 6.33323 14.6253 5.20571 14.6253 3.91666C14.6253 2.62761 13.9363 1.50009 12.9094 0.881333ZM7.86117 9.54167C8.77127 9.54166 9.49253 9.54166 10.0739 9.58915C10.6684 9.63772 11.1714 9.73906 11.6307 9.97307C12.3755 10.3526 12.9811 10.9582 13.3606 11.703C13.5946 12.1623 13.6959 12.6653 13.7445 13.2598C13.792 13.8411 13.792 14.5623 13.792 15.4724V16C13.792 16.3452 13.5122 16.625 13.167 16.625H0.666992C0.321815 16.625 0.0419923 16.3452 0.0419923 16V15.4725C0.0419876 14.5624 0.0419838 13.8411 0.0894823 13.2598C0.138054 12.6653 0.239395 12.1623 0.473426 11.703C0.852918 10.9582 1.45846 10.3526 2.20328 9.97308C2.66259 9.73907 3.16563 9.63772 3.76011 9.58915C4.34146 9.54166 5.0627 9.54166 5.97281 9.54167H7.86117ZM2.77075 11.0868C2.26116 11.3465 1.84684 11.7608 1.58719 12.2704C1.4579 12.5242 1.37759 12.8444 1.33533 13.3616C1.2944 13.8626 1.29212 14.4966 1.292 15.375H12.542C12.5419 14.4966 12.5396 13.8626 12.4987 13.3616C12.4564 12.8444 12.3761 12.5242 12.2468 12.2705C11.9872 11.7609 11.5728 11.3465 11.0632 11.0868C10.8095 10.9576 10.4893 10.8773 9.97208 10.835C9.4476 10.7922 8.77739 10.7917 7.83366 10.7917H6.00033C5.0566 10.7917 4.38639 10.7922 3.8619 10.835C3.34472 10.8773 3.02449 10.9576 2.77075 11.0868ZM15.7975 9.97308C15.4899 9.81637 15.1136 9.93866 14.9568 10.2462C14.8001 10.5538 14.9224 10.9301 15.23 11.0868L16.4136 12.2705C16.5429 12.5242 16.6232 12.8444 16.6654 13.3616C16.7083 13.8861 16.7088 14.5563 16.7088 15.5V16C16.7088 16.3452 16.9886 16.625 17.3338 16.625C17.6789 16.625 17.9588 16.3452 17.9588 16V15.4725C17.9588 14.5624 17.9588 13.8411 17.9113 13.2598C17.8627 12.6653 17.7614 12.1623 17.5273 11.703C17.1478 10.9582 16.5423 10.3526 15.7975 9.97308Z" fill="black"/>
</svg>
