<svg width="16" height="12" viewBox="0 0 16 12" fill="none" xmlns="http://www.w3.org/2000/svg">
<path d="M0 1.25C0 1.05109 0.0790175 0.860322 0.21967 0.71967C0.360322 0.579018 0.551088 0.5 0.75 0.5H15.25C15.4489 0.5 15.6397 0.579018 15.7803 0.71967C15.921 0.860322 16 1.05109 16 1.25C16 1.44891 15.921 1.63968 15.7803 1.78033C15.6397 1.92098 15.4489 2 15.25 2H0.75C0.551088 2 0.360322 1.92098 0.21967 1.78033C0.0790175 1.63968 0 1.44891 0 1.25ZM0 6.25C0 6.05109 0.0790175 5.86032 0.21967 5.71967C0.360322 5.57902 0.551088 5.5 0.75 5.5H15.25C15.4489 5.5 15.6397 5.57902 15.7803 5.71967C15.921 5.86032 16 6.05109 16 6.25C16 6.44891 15.921 6.63968 15.7803 6.78033C15.6397 6.92098 15.4489 7 15.25 7H0.75C0.551088 7 0.360322 6.92098 0.21967 6.78033C0.0790175 6.63968 0 6.44891 0 6.25ZM0.75 10.5C0.551088 10.5 0.360322 10.579 0.21967 10.7197C0.0790175 10.8603 0 11.0511 0 11.25C0 11.4489 0.0790175 11.6397 0.21967 11.7803C0.360322 11.921 0.551088 12 0.75 12H15.25C15.4489 12 15.6397 11.921 15.7803 11.7803C15.921 11.6397 16 11.4489 16 11.25C16 11.0511 15.921 10.8603 15.7803 10.7197C15.6397 10.579 15.4489 10.5 15.25 10.5H0.75Z" fill="black"/>
</svg>
