<svg width="16" height="19" viewBox="0 0 16 19" fill="none" xmlns="http://www.w3.org/2000/svg">
<path fill-rule="evenodd" clip-rule="evenodd" d="M0.708008 1.99984C0.708008 1.19442 1.36093 0.541504 2.16634 0.541504H10.9163C11.0935 0.541504 11.2624 0.616705 11.3809 0.748401L15.1309 4.91507C15.2342 5.02983 15.2913 5.17877 15.2913 5.33317V9.08317C15.2913 9.42835 15.0115 9.70817 14.6663 9.70817C14.3212 9.70817 14.0413 9.42835 14.0413 9.08317V5.57301L10.638 1.7915H2.16634C2.05128 1.7915 1.95801 1.88478 1.95801 1.99984V16.9998C1.95801 17.1149 2.05128 17.2082 2.16634 17.2082H7.16634C7.51152 17.2082 7.79134 17.488 7.79134 17.8332C7.79134 18.1783 7.51152 18.4582 7.16634 18.4582H2.16634C1.36093 18.4582 0.708008 17.8053 0.708008 16.9998V1.99984Z" fill="black"/>
<path fill-rule="evenodd" clip-rule="evenodd" d="M12.3485 10.5687L12.1663 11.1665L11.9841 10.5687C12.1029 10.5325 12.2298 10.5325 12.3485 10.5687ZM12.1663 17.8332C11.8411 18.3668 11.8408 18.3667 11.8406 18.3665L11.8387 18.3654L11.8352 18.3632L11.8251 18.357C11.8171 18.3519 11.8062 18.345 11.7929 18.3363C11.7662 18.319 11.7294 18.2944 11.6838 18.2627C11.5926 18.1992 11.4663 18.1066 11.3164 17.9849C11.0174 17.7418 10.6212 17.3794 10.2248 16.8962C9.43124 15.9289 8.62467 14.46 8.62467 12.4998C8.62467 12.3003 8.70526 12.1475 8.76819 12.0564C8.83277 11.9629 8.90928 11.8898 8.97354 11.8359C9.10205 11.7282 9.2599 11.6333 9.41128 11.5525C9.71998 11.3879 10.1139 11.224 10.4855 11.0824C10.8619 10.939 11.2361 10.8108 11.5147 10.7188C11.6544 10.6727 11.7709 10.6354 11.8529 10.6096C11.8939 10.5966 11.9263 10.5865 11.9486 10.5796L11.9744 10.5716L11.9841 10.5687C11.9842 10.5686 11.9841 10.5687 12.1663 11.1665C12.3485 10.5687 12.3485 10.5686 12.3485 10.5687L12.3583 10.5716L12.3841 10.5796C12.4064 10.5865 12.4388 10.5966 12.4798 10.6096C12.5618 10.6354 12.6783 10.6727 12.818 10.7188C13.0966 10.8108 13.4708 10.939 13.8472 11.0824C14.2188 11.224 14.6127 11.3879 14.9214 11.5525C15.0728 11.6333 15.2306 11.7282 15.3591 11.8359C15.4234 11.8898 15.4999 11.9629 15.5645 12.0564C15.6274 12.1475 15.708 12.3003 15.708 12.4998C15.708 14.46 14.9014 15.9289 14.1079 16.8962C13.7115 17.3794 13.3153 17.7418 13.0162 17.9849C12.8664 18.1066 12.74 18.1992 12.6489 18.2627C12.6033 18.2944 12.5664 18.319 12.5398 18.3363C12.5264 18.345 12.5156 18.3519 12.5075 18.357L12.4975 18.3632L12.494 18.3654L12.4927 18.3662C12.4924 18.3664 12.4916 18.3668 12.1663 17.8332ZM12.1663 17.8332L11.8406 18.3665C12.0403 18.4883 12.2919 18.4886 12.4916 18.3668L12.1663 17.8332ZM12.1663 17.0641C12.1465 17.0485 12.126 17.032 12.1048 17.0148C11.8569 16.8134 11.524 16.5091 11.1912 16.1034C10.5579 15.3314 9.93642 14.2077 9.87899 12.7238C9.91166 12.7039 9.95158 12.681 9.99952 12.6555C10.2377 12.5284 10.573 12.3867 10.9305 12.2506C11.2833 12.1162 11.6383 11.9944 11.9066 11.9058C12.0076 11.8725 12.0958 11.844 12.1663 11.8215C12.2369 11.844 12.3251 11.8725 12.4261 11.9058C12.6944 11.9944 13.0494 12.1162 13.4022 12.2506C13.7597 12.3867 14.095 12.5284 14.3332 12.6555C14.3811 12.681 14.421 12.7039 14.4537 12.7238C14.3963 14.2077 13.7748 15.3314 13.1415 16.1034C12.8087 16.5091 12.4757 16.8134 12.2279 17.0148C12.2067 17.032 12.1862 17.0485 12.1663 17.0641Z" fill="black"/>
<path fill-rule="evenodd" clip-rule="evenodd" d="M10.4997 0.541504C10.8449 0.541504 11.1247 0.821326 11.1247 1.1665V4.70817H14.6663C15.0115 4.70817 15.2913 4.98799 15.2913 5.33317C15.2913 5.67835 15.0115 5.95817 14.6663 5.95817H10.4997C10.1545 5.95817 9.87467 5.67835 9.87467 5.33317V1.1665C9.87467 0.821326 10.1545 0.541504 10.4997 0.541504Z" fill="black"/>
</svg>
