<svg width="17" height="17" viewBox="0 0 17 17" fill="none" xmlns="http://www.w3.org/2000/svg">
<g clip-path="url(#clip0_985_3447)">
<path d="M6.25147 9.7242H10.419C10.6032 9.7242 10.7798 9.65102 10.9101 9.52076C11.0404 9.3905 11.1135 9.21383 11.1135 9.02961C11.1135 8.84539 11.0404 8.66872 10.9101 8.53846C10.7798 8.4082 10.6032 8.33502 10.419 8.33502H6.25147C6.06725 8.33502 5.89058 8.4082 5.76032 8.53846C5.63006 8.66872 5.55688 8.84539 5.55688 9.02961C5.55688 9.21383 5.63006 9.3905 5.76032 9.52076C5.89058 9.65102 6.06725 9.7242 6.25147 9.7242V9.7242Z" fill="#202020"/>
<path d="M13.1971 0H3.47292C2.55218 0.0011029 1.66947 0.367353 1.01841 1.01841C0.367353 1.66947 0.0011029 2.55218 0 3.47292L0 4.1675C0.00020199 4.46044 0.0621658 4.75004 0.181848 5.01741C0.301531 5.28478 0.476242 5.52391 0.694583 5.7192V13.1971C0.695686 14.1178 1.06194 15.0005 1.713 15.6516C2.36405 16.3026 3.24676 16.6689 4.1675 16.67H12.5025C13.4232 16.6689 14.3059 16.3026 14.957 15.6516C15.6081 15.0005 15.9743 14.1178 15.9754 13.1971V5.7192C16.1938 5.52391 16.3685 5.28478 16.4882 5.01741C16.6078 4.75004 16.6698 4.46044 16.67 4.1675V3.47292C16.6689 2.55218 16.3026 1.66947 15.6516 1.01841C15.0005 0.367353 14.1178 0.0011029 13.1971 0V0ZM1.38917 3.47292C1.38917 2.92027 1.6087 2.39026 1.99948 1.99948C2.39026 1.6087 2.92027 1.38917 3.47292 1.38917H13.1971C13.7497 1.38917 14.2797 1.6087 14.6705 1.99948C15.0613 2.39026 15.2808 2.92027 15.2808 3.47292V4.1675C15.2808 4.35172 15.2077 4.52838 15.0774 4.65864C14.9471 4.7889 14.7705 4.86208 14.5863 4.86208H2.08375C1.89954 4.86208 1.72287 4.7889 1.59261 4.65864C1.46235 4.52838 1.38917 4.35172 1.38917 4.1675V3.47292ZM14.5863 13.1971C14.5863 13.7497 14.3667 14.2797 13.9759 14.6705C13.5852 15.0613 13.0551 15.2808 12.5025 15.2808H4.1675C3.61486 15.2808 3.08485 15.0613 2.69407 14.6705C2.30329 14.2797 2.08375 13.7497 2.08375 13.1971V6.25125H14.5863V13.1971Z" fill="#202020"/>
</g>
<defs>
<clipPath id="clip0_985_3447">
<rect width="16.67" height="16.67" fill="white"/>
</clipPath>
</defs>
</svg>
