<svg width="14" height="15" viewBox="0 0 14 15" fill="none" xmlns="http://www.w3.org/2000/svg">
<path d="M11.0833 0.5H2.91667C2.1434 0.500926 1.40208 0.808514 0.855295 1.35529C0.308514 1.90208 0.00092625 2.6434 0 3.41667L0 11.5833C0.00092625 12.3566 0.308514 13.0979 0.855295 13.6447C1.40208 14.1915 2.1434 14.4991 2.91667 14.5H11.0833C11.8566 14.4991 12.5979 14.1915 13.1447 13.6447C13.6915 13.0979 13.9991 12.3566 14 11.5833V3.41667C13.9991 2.6434 13.6915 1.90208 13.1447 1.35529C12.5979 0.808514 11.8566 0.500926 11.0833 0.5V0.5ZM12.8333 11.5833C12.8333 12.0475 12.649 12.4926 12.3208 12.8208C11.9926 13.149 11.5475 13.3333 11.0833 13.3333H2.91667C2.45254 13.3333 2.00742 13.149 1.67923 12.8208C1.35104 12.4926 1.16667 12.0475 1.16667 11.5833V3.41667C1.16667 2.95254 1.35104 2.50742 1.67923 2.17923C2.00742 1.85104 2.45254 1.66667 2.91667 1.66667H11.0833C11.5475 1.66667 11.9926 1.85104 12.3208 2.17923C12.649 2.50742 12.8333 2.95254 12.8333 3.41667V11.5833ZM10.5 5.75C10.5 5.90471 10.4385 6.05308 10.3291 6.16248C10.2197 6.27187 10.0714 6.33333 9.91667 6.33333C9.76196 6.33333 9.61358 6.27187 9.50419 6.16248C9.39479 6.05308 9.33333 5.90471 9.33333 5.75C9.33333 5.59529 9.27187 5.44692 9.16248 5.33752C9.05308 5.22812 8.90471 5.16667 8.75 5.16667H7.58333V9.83333H8.16667C8.32138 9.83333 8.46975 9.89479 8.57915 10.0042C8.68854 10.1136 8.75 10.262 8.75 10.4167C8.75 10.5714 8.68854 10.7197 8.57915 10.8291C8.46975 10.9385 8.32138 11 8.16667 11H5.83333C5.67862 11 5.53025 10.9385 5.42085 10.8291C5.31146 10.7197 5.25 10.5714 5.25 10.4167C5.25 10.262 5.31146 10.1136 5.42085 10.0042C5.53025 9.89479 5.67862 9.83333 5.83333 9.83333H6.41667V5.16667H5.25C5.09529 5.16667 4.94692 5.22812 4.83752 5.33752C4.72812 5.44692 4.66667 5.59529 4.66667 5.75C4.66667 5.90471 4.60521 6.05308 4.49581 6.16248C4.38642 6.27187 4.23804 6.33333 4.08333 6.33333C3.92862 6.33333 3.78025 6.27187 3.67085 6.16248C3.56146 6.05308 3.5 5.90471 3.5 5.75C3.5 5.28587 3.68437 4.84075 4.01256 4.51256C4.34075 4.18437 4.78587 4 5.25 4H8.75C9.21413 4 9.65925 4.18437 9.98744 4.51256C10.3156 4.84075 10.5 5.28587 10.5 5.75Z" fill="#A6A6A6"/>
</svg>
