<svg width="14" height="15" viewBox="0 0 14 15" fill="none" xmlns="http://www.w3.org/2000/svg">
<path fill-rule="evenodd" clip-rule="evenodd" d="M4.21219 6.2691C4.21219 4.65638 4.44426 3.81244 5.58906 2.65846C6.77622 1.46171 8.80575 1.09483 10.3889 1.77965C10.6871 1.90859 11.479 2.42682 11.6729 2.63341L11.8843 2.87546C12.2607 3.28087 12.2897 3.37582 12.5848 3.85932C13.2182 4.8974 13.1502 6.74748 12.6154 7.8027C11.9266 9.16194 10.4675 10.2843 8.94252 10.2843C7.74495 10.2843 7.06869 10.195 6.06389 9.46978C5.48951 9.05528 4.9446 8.52767 4.64583 7.84314C4.48677 7.4789 4.21219 6.73971 4.21219 6.26881V6.2691ZM3.24023 5.68625C3.24023 7.21062 3.78734 8.66466 4.81002 9.68692C6.39873 11.2752 8.62557 11.6451 10.8043 10.7851C11.144 10.651 11.3507 10.5147 11.6392 10.3241C14.9251 8.1539 14.8454 2.96952 10.9949 1.04457C8.19574 -0.354817 4.7829 1.10303 3.73867 3.59369C3.51071 4.13756 3.24038 4.95615 3.24038 5.68611L3.24023 5.68625Z" fill="#A5A5A5"/>
<path fill-rule="evenodd" clip-rule="evenodd" d="M8.5542 4.71508C9.26315 4.71508 9.78534 5.34774 9.78534 5.81601C9.78534 6.3426 9.3215 6.98171 8.81338 6.98171C8.05693 6.98171 7.50601 6.68838 7.47405 5.87286C7.44971 5.25104 8.14885 4.71508 8.5542 4.71508ZM5.70312 4.90936C5.70312 5.22276 6.2863 5.4566 6.2863 5.94553C6.2863 6.16062 5.70312 6.56296 5.70312 6.85218L6.15978 7.691C6.23616 7.81041 6.27252 7.8359 6.3511 7.95312C6.81479 7.95312 7.32672 7.6992 7.56597 7.96777C7.75743 8.18256 7.77253 8.92453 8.10076 8.92453H9.13752C9.48056 8.92453 9.49141 8.22037 9.68873 7.98418C9.93458 7.68997 10.4015 7.95312 10.887 7.95312C10.9927 7.95312 11.535 7.02493 11.535 6.78742C11.535 6.5086 10.9518 6.23784 10.9518 5.81601C10.9518 5.60092 11.535 5.19859 11.535 4.90936C11.535 4.74467 11.2289 4.25589 11.148 4.13047C10.9093 3.76081 10.9191 3.71641 10.3964 3.83451C9.94836 3.93575 9.80337 3.9945 9.60898 3.59642C9.1963 2.75174 9.74459 2.83687 8.10076 2.83687C7.66463 2.83687 7.85286 3.7233 7.3987 3.87788C6.91844 4.04139 6.50473 3.42235 6.11668 4.09194C6.04514 4.21545 5.70327 4.83156 5.70327 4.90936H5.70312Z" fill="#A5A5A5"/>
<path fill-rule="evenodd" clip-rule="evenodd" d="M0.0001466 13.1989C0.0001466 14.5064 1.42304 14.9543 2.31349 13.9567C2.32903 13.9393 2.40394 13.8534 2.40424 13.8531C2.41347 13.8434 2.42666 13.8297 2.43619 13.8201L3.50945 12.7555C4.24494 11.9437 5.14008 11.6101 4.34214 10.9963C4.04776 10.7698 3.32356 9.83105 3.04561 9.83105C2.7829 9.83105 2.36289 10.3513 2.18697 10.5273L0.572765 12.1522C0.305807 12.391 0 12.7122 0 13.1988L0.0001466 13.1989Z" fill="#A5A5A5"/>
<path fill-rule="evenodd" clip-rule="evenodd" d="M3.70522 9.71329C3.75771 9.79637 3.8228 9.91432 3.91046 10.003C4.01352 10.1071 3.96866 10.0487 4.04988 10.1227C4.42488 10.4641 4.34 10.4976 4.79534 10.8024L5.06655 10.4898C4.87802 10.2151 4.7282 10.1723 4.53058 9.96604L4.47004 9.89703C4.46124 9.88692 4.44951 9.87168 4.44086 9.86142L4.01778 9.44238L3.70508 9.71344L3.70522 9.71329Z" fill="#A5A5A5"/>
</svg>
