<svg width="18" height="17" viewBox="0 0 18 17" fill="none" xmlns="http://www.w3.org/2000/svg">
<path fill-rule="evenodd" clip-rule="evenodd" d="M0.667969 6.87382C0.667969 6.53706 0.940966 6.26406 1.27772 6.26406H16.7249C17.0616 6.26406 17.3346 6.53706 17.3346 6.87382V15.4104C17.3346 16.1962 16.6977 16.8332 15.9119 16.8332H2.09073C1.30497 16.8332 0.667969 16.1962 0.667969 15.4104V6.87382ZM1.88748 7.48358V15.4104C1.88748 15.5227 1.97847 15.6137 2.09073 15.6137H15.9119C16.0241 15.6137 16.1151 15.5227 16.1151 15.4104V7.48358H1.88748Z" fill="#202020"/>
<path fill-rule="evenodd" clip-rule="evenodd" d="M2.09073 2.60553C1.97848 2.60553 1.88748 2.69653 1.88748 2.80878V6.26406H16.1151V2.80878C16.1151 2.69652 16.0241 2.60553 15.9119 2.60553H2.09073ZM0.667969 2.80878C0.667969 2.02301 1.30496 1.38602 2.09073 1.38602H15.9119C16.6977 1.38602 17.3346 2.02302 17.3346 2.80878V6.87382C17.3346 7.21058 17.0616 7.48358 16.7249 7.48358H1.27772C0.940966 7.48358 0.667969 7.21058 0.667969 6.87382V2.80878Z" fill="#202020"/>
<path fill-rule="evenodd" clip-rule="evenodd" d="M5.74927 0.166504C6.08603 0.166504 6.35903 0.439501 6.35903 0.77626V4.02829C6.35903 4.36505 6.08603 4.63805 5.74927 4.63805C5.41251 4.63805 5.13951 4.36505 5.13951 4.02829V0.77626C5.13951 0.439501 5.41251 0.166504 5.74927 0.166504Z" fill="#202020"/>
<path fill-rule="evenodd" clip-rule="evenodd" d="M12.2533 0.166504C12.5901 0.166504 12.8631 0.439501 12.8631 0.77626V4.02829C12.8631 4.36505 12.5901 4.63805 12.2533 4.63805C11.9166 4.63805 11.6436 4.36505 11.6436 4.02829V0.77626C11.6436 0.439501 11.9166 0.166504 12.2533 0.166504Z" fill="#202020"/>
<path fill-rule="evenodd" clip-rule="evenodd" d="M10.0176 12.9714C10.0176 12.6346 10.2906 12.3616 10.6273 12.3616H13.0663C13.4031 12.3616 13.6761 12.6346 13.6761 12.9714C13.6761 13.3081 13.4031 13.5811 13.0663 13.5811H10.6273C10.2906 13.5811 10.0176 13.3081 10.0176 12.9714Z" fill="#202020"/>
<path fill-rule="evenodd" clip-rule="evenodd" d="M4.32651 12.9714C4.32651 12.6346 4.5995 12.3616 4.93626 12.3616H7.37529C7.71204 12.3616 7.98504 12.6346 7.98504 12.9714C7.98504 13.3081 7.71204 13.5811 7.37529 13.5811H4.93626C4.5995 13.5811 4.32651 13.3081 4.32651 12.9714Z" fill="#202020"/>
<path fill-rule="evenodd" clip-rule="evenodd" d="M10.0176 9.71935C10.0176 9.38259 10.2906 9.10959 10.6273 9.10959H13.0663C13.4031 9.10959 13.6761 9.38259 13.6761 9.71935C13.6761 10.0561 13.4031 10.3291 13.0663 10.3291H10.6273C10.2906 10.3291 10.0176 10.0561 10.0176 9.71935Z" fill="#202020"/>
<path fill-rule="evenodd" clip-rule="evenodd" d="M4.32651 9.71935C4.32651 9.38259 4.5995 9.10959 4.93626 9.10959H7.37529C7.71204 9.10959 7.98504 9.38259 7.98504 9.71935C7.98504 10.0561 7.71204 10.3291 7.37529 10.3291H4.93626C4.5995 10.3291 4.32651 10.0561 4.32651 9.71935Z" fill="#202020"/>
</svg>
