<svg width="18" height="17" viewBox="0 0 18 17" fill="none" xmlns="http://www.w3.org/2000/svg">
<g clip-path="url(#clip0_883_2175)">
<path d="M15.2513 4.33317H13.168C13.168 3.2281 12.729 2.16829 11.9476 1.38689C11.1662 0.605491 10.1064 0.166504 9.0013 0.166504C7.89623 0.166504 6.83643 0.605491 6.05502 1.38689C5.27362 2.16829 4.83464 3.2281 4.83464 4.33317H2.7513C2.19877 4.33317 1.66886 4.55266 1.27816 4.94336C0.887462 5.33407 0.667969 5.86397 0.667969 6.4165L0.667969 13.3609C0.669071 14.2815 1.03525 15.164 1.68618 15.815C2.33711 16.4659 3.21964 16.8321 4.14019 16.8332H13.8624C14.783 16.8321 15.6655 16.4659 16.3164 15.815C16.9674 15.164 17.3335 14.2815 17.3346 13.3609V6.4165C17.3346 5.86397 17.1151 5.33407 16.7244 4.94336C16.3337 4.55266 15.8038 4.33317 15.2513 4.33317ZM9.0013 1.55539C9.73801 1.55539 10.4446 1.84805 10.9655 2.36898C11.4864 2.88992 11.7791 3.59646 11.7791 4.33317H6.22352C6.22352 3.59646 6.51618 2.88992 7.03712 2.36898C7.55805 1.84805 8.26459 1.55539 9.0013 1.55539ZM15.9457 13.3609C15.9457 13.9135 15.7263 14.4434 15.3356 14.8341C14.9449 15.2248 14.4149 15.4443 13.8624 15.4443H4.14019C3.58766 15.4443 3.05775 15.2248 2.66705 14.8341C2.27635 14.4434 2.05686 13.9135 2.05686 13.3609V6.4165C2.05686 6.23233 2.13002 6.05569 2.26026 5.92546C2.39049 5.79522 2.56712 5.72206 2.7513 5.72206H4.83464V7.11095C4.83464 7.29513 4.9078 7.47176 5.03803 7.60199C5.16827 7.73223 5.3449 7.80539 5.52908 7.80539C5.71326 7.80539 5.88989 7.73223 6.02013 7.60199C6.15036 7.47176 6.22352 7.29513 6.22352 7.11095V5.72206H11.7791V7.11095C11.7791 7.29513 11.8522 7.47176 11.9825 7.60199C12.1127 7.73223 12.2893 7.80539 12.4735 7.80539C12.6577 7.80539 12.8343 7.73223 12.9646 7.60199C13.0948 7.47176 13.168 7.29513 13.168 7.11095V5.72206H15.2513C15.4355 5.72206 15.6121 5.79522 15.7423 5.92546C15.8726 6.05569 15.9457 6.23233 15.9457 6.4165V13.3609Z" fill="#202020"/>
</g>
<defs>
<clipPath id="clip0_883_2175">
<rect width="16.6667" height="16.6667" fill="white" transform="translate(0.667969 0.166504)"/>
</clipPath>
</defs>
</svg>
