<svg width="18" height="17" viewBox="0 0 18 17" fill="none" xmlns="http://www.w3.org/2000/svg">
<path d="M5.12533 9.08123C4.37611 9.08123 3.76874 9.6886 3.76874 10.4378C3.76874 11.187 4.37611 11.7944 5.12533 11.7944C5.87456 11.7944 6.48192 11.187 6.48192 10.4378C6.48192 9.6886 5.87456 9.08123 5.12533 9.08123ZM2.60595 10.4378C2.60595 9.04641 3.73392 7.91844 5.12533 7.91844C6.51675 7.91844 7.64471 9.04641 7.64471 10.4378C7.64471 11.8292 6.51675 12.9572 5.12533 12.9572C3.73392 12.9572 2.60595 11.8292 2.60595 10.4378Z" fill="#202020"/>
<path d="M12.8773 9.08123C12.128 9.08123 11.5207 9.6886 11.5207 10.4378C11.5207 11.187 12.128 11.7944 12.8773 11.7944C13.6265 11.7944 14.2339 11.187 14.2339 10.4378C14.2339 9.6886 13.6265 9.08123 12.8773 9.08123ZM10.3579 10.4378C10.3579 9.04641 11.4859 7.91844 12.8773 7.91844C14.2687 7.91844 15.3967 9.04641 15.3967 10.4378C15.3967 11.8292 14.2687 12.9572 12.8773 12.9572C11.4859 12.9572 10.3579 11.8292 10.3579 10.4378Z" fill="#202020"/>
<path d="M9.0013 1.32929C8.25208 1.32929 7.64471 1.93666 7.64471 2.68588C7.64471 3.43511 8.25208 4.04247 9.0013 4.04247C9.75053 4.04247 10.3579 3.43511 10.3579 2.68588C10.3579 1.93666 9.75053 1.32929 9.0013 1.32929ZM6.48192 2.68588C6.48192 1.29447 7.60989 0.166504 9.0013 0.166504C10.3927 0.166504 11.5207 1.29447 11.5207 2.68588C11.5207 4.0773 10.3927 5.20526 9.0013 5.20526C7.60989 5.20526 6.48192 4.0773 6.48192 2.68588Z" fill="#202020"/>
<path d="M0.667969 16.2518C0.667969 13.7901 2.6636 11.7944 5.12533 11.7944C7.58705 11.7944 9.5827 13.7901 9.5827 16.2518C9.5827 16.5729 9.3224 16.8332 9.0013 16.8332C8.68021 16.8332 8.41991 16.5729 8.41991 16.2518C8.41991 14.4322 6.94486 12.9572 5.12533 12.9572C3.30579 12.9572 1.83076 14.4322 1.83076 16.2518C1.83076 16.5729 1.57046 16.8332 1.24936 16.8332C0.928268 16.8332 0.667969 16.5729 0.667969 16.2518Z" fill="#202020"/>
<path d="M8.41991 16.2518C8.41991 13.7901 10.4156 11.7944 12.8773 11.7944C15.339 11.7944 17.3346 13.7901 17.3346 16.2518C17.3346 16.5729 17.0743 16.8332 16.7532 16.8332C16.4321 16.8332 16.1718 16.5729 16.1718 16.2518C16.1718 14.4322 14.6968 12.9572 12.8773 12.9572C11.0577 12.9572 9.5827 14.4322 9.5827 16.2518C9.5827 16.5729 9.3224 16.8332 9.0013 16.8332C8.68021 16.8332 8.41991 16.5729 8.41991 16.2518Z" fill="#202020"/>
<path d="M4.54394 8.49984C4.54394 6.03812 6.53959 4.04247 9.0013 4.04247C11.463 4.04247 13.4587 6.03812 13.4587 8.49984C13.4587 8.82093 13.1984 9.08123 12.8773 9.08123C12.5562 9.08123 12.2959 8.82093 12.2959 8.49984C12.2959 6.68031 10.8208 5.20526 9.0013 5.20526C7.18178 5.20526 5.70673 6.68031 5.70673 8.49984C5.70673 8.82093 5.44643 9.08123 5.12533 9.08123C4.80424 9.08123 4.54394 8.82093 4.54394 8.49984Z" fill="#202020"/>
</svg>
