<svg width="18" height="17" viewBox="0 0 18 17" fill="none" xmlns="http://www.w3.org/2000/svg">
<g clip-path="url(#clip0_883_2644)">
<path d="M14.5569 0.166504H3.44575C2.70903 0.166504 2.0025 0.459162 1.48156 0.980096C0.960627 1.50103 0.667969 2.20757 0.667969 2.94428L0.667969 11.2776C0.667969 12.0143 0.960627 12.7209 1.48156 13.2418C2.0025 13.7627 2.70903 14.0554 3.44575 14.0554H5.45964L8.55061 16.6686C8.676 16.7747 8.83495 16.8329 8.99922 16.8329C9.16349 16.8329 9.32244 16.7747 9.44783 16.6686L12.543 14.0554H14.5569C15.2936 14.0554 16.0001 13.7627 16.521 13.2418C17.042 12.7209 17.3346 12.0143 17.3346 11.2776V2.94428C17.3346 2.20757 17.042 1.50103 16.521 0.980096C16.0001 0.459162 15.2936 0.166504 14.5569 0.166504V0.166504ZM15.9457 11.2776C15.9457 11.646 15.7994 11.9992 15.5389 12.2597C15.2785 12.5202 14.9252 12.6665 14.5569 12.6665H12.543C12.2147 12.6666 11.8971 12.783 11.6464 12.995L9.0013 15.229L6.35755 12.995C6.10655 12.7827 5.78838 12.6663 5.45964 12.6665H3.44575C3.07739 12.6665 2.72412 12.5202 2.46365 12.2597C2.20319 11.9992 2.05686 11.646 2.05686 11.2776V2.94428C2.05686 2.57593 2.20319 2.22266 2.46365 1.96219C2.72412 1.70172 3.07739 1.55539 3.44575 1.55539H14.5569C14.9252 1.55539 15.2785 1.70172 15.5389 1.96219C15.7994 2.22266 15.9457 2.57593 15.9457 2.94428V11.2776Z" fill="#202020"/>
<path d="M5.53038 5.02756H9.0026C9.18678 5.02756 9.36342 4.95439 9.49365 4.82416C9.62388 4.69393 9.69705 4.51729 9.69705 4.33312C9.69705 4.14894 9.62388 3.9723 9.49365 3.84207C9.36342 3.71184 9.18678 3.63867 9.0026 3.63867H5.53038C5.3462 3.63867 5.16957 3.71184 5.03934 3.84207C4.9091 3.9723 4.83594 4.14894 4.83594 4.33312C4.83594 4.51729 4.9091 4.69393 5.03934 4.82416C5.16957 4.95439 5.3462 5.02756 5.53038 5.02756Z" fill="#202020"/>
<path d="M12.4748 6.4165H5.53038C5.3462 6.4165 5.16957 6.48967 5.03934 6.6199C4.9091 6.75014 4.83594 6.92677 4.83594 7.11095C4.83594 7.29512 4.9091 7.47176 5.03934 7.60199C5.16957 7.73223 5.3462 7.80539 5.53038 7.80539H12.4748C12.659 7.80539 12.8356 7.73223 12.9659 7.60199C13.0961 7.47176 13.1693 7.29512 13.1693 7.11095C13.1693 6.92677 13.0961 6.75014 12.9659 6.6199C12.8356 6.48967 12.659 6.4165 12.4748 6.4165Z" fill="#202020"/>
<path d="M12.4748 9.19434H5.53038C5.3462 9.19434 5.16957 9.2675 5.03934 9.39774C4.9091 9.52797 4.83594 9.7046 4.83594 9.88878C4.83594 10.073 4.9091 10.2496 5.03934 10.3798C5.16957 10.5101 5.3462 10.5832 5.53038 10.5832H12.4748C12.659 10.5832 12.8356 10.5101 12.9659 10.3798C13.0961 10.2496 13.1693 10.073 13.1693 9.88878C13.1693 9.7046 13.0961 9.52797 12.9659 9.39774C12.8356 9.2675 12.659 9.19434 12.4748 9.19434Z" fill="#202020"/>
</g>
<defs>
<clipPath id="clip0_883_2644">
<rect width="16.6667" height="16.6667" fill="white" transform="translate(0.667969 0.166504)"/>
</clipPath>
</defs>
</svg>
