<svg width="18" height="17" viewBox="0 0 18 17" fill="none" xmlns="http://www.w3.org/2000/svg">
<g clip-path="url(#clip0_883_1824)">
<path d="M13.8624 0.166504H4.14019C3.21964 0.167607 2.33711 0.533783 1.68618 1.18471C1.03525 1.83564 0.669071 2.71817 0.667969 3.63873L0.667969 13.3609C0.669071 14.2815 1.03525 15.164 1.68618 15.815C2.33711 16.4659 3.21964 16.8321 4.14019 16.8332H13.8624C14.783 16.8321 15.6655 16.4659 16.3164 15.815C16.9674 15.164 17.3335 14.2815 17.3346 13.3609V3.63873C17.3335 2.71817 16.9674 1.83564 16.3164 1.18471C15.6655 0.533783 14.783 0.167607 13.8624 0.166504V0.166504ZM15.9457 13.3609C15.9457 13.9135 15.7263 14.4434 15.3356 14.8341C14.9449 15.2248 14.4149 15.4443 13.8624 15.4443H4.14019C3.58766 15.4443 3.05775 15.2248 2.66705 14.8341C2.27635 14.4434 2.05686 13.9135 2.05686 13.3609V3.63873C2.05686 3.08619 2.27635 2.55629 2.66705 2.16559C3.05775 1.77489 3.58766 1.55539 4.14019 1.55539H13.8624C14.4149 1.55539 14.9449 1.77489 15.3356 2.16559C15.7263 2.55629 15.9457 3.08619 15.9457 3.63873V13.3609ZM13.168 6.4165C13.168 6.60068 13.0948 6.77732 12.9646 6.90755C12.8343 7.03778 12.6577 7.11095 12.4735 7.11095C12.2893 7.11095 12.1127 7.03778 11.9825 6.90755C11.8522 6.77732 11.7791 6.60068 11.7791 6.4165C11.7791 6.23233 11.7059 6.05569 11.5757 5.92546C11.4454 5.79522 11.2688 5.72206 11.0846 5.72206H9.69575V11.2776H10.3902C10.5744 11.2776 10.751 11.3508 10.8812 11.481C11.0115 11.6112 11.0846 11.7879 11.0846 11.9721C11.0846 12.1562 11.0115 12.3329 10.8812 12.4631C10.751 12.5933 10.5744 12.6665 10.3902 12.6665H7.61241C7.42823 12.6665 7.2516 12.5933 7.12137 12.4631C6.99113 12.3329 6.91797 12.1562 6.91797 11.9721C6.91797 11.7879 6.99113 11.6112 7.12137 11.481C7.2516 11.3508 7.42823 11.2776 7.61241 11.2776H8.30686V5.72206H6.91797C6.73379 5.72206 6.55716 5.79522 6.42692 5.92546C6.29669 6.05569 6.22352 6.23233 6.22352 6.4165C6.22352 6.60068 6.15036 6.77732 6.02013 6.90755C5.88989 7.03778 5.71326 7.11095 5.52908 7.11095C5.3449 7.11095 5.16827 7.03778 5.03803 6.90755C4.9078 6.77732 4.83464 6.60068 4.83464 6.4165C4.83464 5.86397 5.05413 5.33407 5.44483 4.94336C5.83553 4.55266 6.36543 4.33317 6.91797 4.33317H11.0846C11.6372 4.33317 12.1671 4.55266 12.5578 4.94336C12.9485 5.33407 13.168 5.86397 13.168 6.4165Z" fill="#202020"/>
</g>
<defs>
<clipPath id="clip0_883_1824">
<rect width="16.6667" height="16.6667" fill="white" transform="translate(0.667969 0.166504)"/>
</clipPath>
</defs>
</svg>
