<svg width="17" height="18" viewBox="0 0 17 18" fill="none" xmlns="http://www.w3.org/2000/svg">
<g clip-path="url(#clip0_883_1738)">
<path d="M15.9059 6.02543C15.4368 5.78769 14.8733 5.83724 14.4529 6.15322L13.1797 7.09856C12.9992 5.32503 11.5069 3.97518 9.72418 3.97294H9.66515L6.80208 1.11055C6.41245 0.718185 5.88184 0.498284 5.32887 0.50001H0.694573C0.310967 0.50001 0 0.81101 0 1.19462C0 1.57822 0.310967 1.88919 0.694573 1.88919H5.32883C5.51295 1.88968 5.68942 1.9628 5.81991 2.09271L7.70014 3.97294H3.47293C1.55585 3.97525 0.00231166 5.52878 0 7.44587V13.0025C0.00231166 14.9196 1.55585 16.4732 3.47293 16.4754H9.72418C11.5069 16.4732 12.9992 15.1233 13.1797 13.3498L14.4508 14.2972C15.0646 14.7575 15.9353 14.6332 16.3956 14.0194C16.576 13.779 16.6735 13.4865 16.6735 13.1859V7.26735C16.6753 6.74091 16.3776 6.25927 15.9059 6.02543ZM11.8079 13.0025C11.8079 14.1533 10.875 15.0863 9.72418 15.0863H3.47293C2.32211 15.0863 1.38918 14.1533 1.38918 13.0025V7.44587C1.38918 6.29505 2.32211 5.36212 3.47293 5.36212H9.72418C10.875 5.36212 11.8079 6.29505 11.8079 7.44587V13.0025ZM15.2808 13.181L13.1971 11.628V8.82046L15.2808 7.26738V13.181Z" fill="#202020"/>
</g>
<defs>
<clipPath id="clip0_883_1738">
<rect width="16.67" height="16.67" fill="white" transform="translate(0 0.5)"/>
</clipPath>
</defs>
</svg>
