<svg width="current" height="current" viewBox="0 0 21 18" fill="current" xmlns="http://www.w3.org/2000/svg">
<path d="M10.5 1.5C8.90625 1.5 7.41602 1.77148 6.0293 2.31445C4.64258 2.85742 3.54102 3.58984 2.72461 4.51172C1.9082 5.43359 1.5 6.42969 1.5 7.5C1.5 8.375 1.7793 9.20898 2.33789 10.002C2.89648 10.7949 3.68359 11.4805 4.69922 12.0586L5.71875 12.6445L5.40234 13.7695C5.21484 14.4805 4.94141 15.1523 4.58203 15.7852C5.76953 15.293 6.84375 14.625 7.80469 13.7812L8.30859 13.3359L8.97656 13.4062C9.51562 13.4688 10.0234 13.5 10.5 13.5C12.0938 13.5 13.584 13.2285 14.9707 12.6855C16.3574 12.1426 17.459 11.4102 18.2754 10.4883C19.0918 9.56641 19.5 8.57031 19.5 7.5C19.5 6.42969 19.0918 5.43359 18.2754 4.51172C17.459 3.58984 16.3574 2.85742 14.9707 2.31445C13.584 1.77148 12.0938 1.5 10.5 1.5ZM21 7.5C21 8.85938 20.5312 10.1152 19.5938 11.2676C18.6562 12.4199 17.3828 13.3301 15.7734 13.998C14.1641 14.666 12.4062 15 10.5 15C9.95312 15 9.38672 14.9688 8.80078 14.9062C7.25391 16.2734 5.45703 17.2188 3.41016 17.7422C3.02734 17.8516 2.58203 17.9375 2.07422 18H2.01562C1.89844 18 1.79297 17.959 1.69922 17.877C1.60547 17.7949 1.54297 17.6875 1.51172 17.5547V17.543C1.48828 17.5117 1.48633 17.4648 1.50586 17.4023C1.52539 17.3398 1.5332 17.3008 1.5293 17.2852C1.52539 17.2695 1.54297 17.2324 1.58203 17.1738L1.65234 17.0684L1.73438 16.9688L1.82812 16.8633C1.88281 16.8008 2.00391 16.666 2.19141 16.459C2.37891 16.252 2.51367 16.1035 2.5957 16.0137C2.67773 15.9238 2.79883 15.7695 2.95898 15.5508C3.11914 15.332 3.24609 15.1328 3.33984 14.9531C3.43359 14.7734 3.53906 14.543 3.65625 14.2617C3.77344 13.9805 3.875 13.6836 3.96094 13.3711C2.73438 12.6758 1.76758 11.8164 1.06055 10.793C0.353516 9.76953 0 8.67188 0 7.5C0 6.14062 0.46875 4.88477 1.40625 3.73242C2.34375 2.58008 3.61719 1.66992 5.22656 1.00195C6.83594 0.333984 8.59375 0 10.5 0C12.4062 0 14.1641 0.333984 15.7734 1.00195C17.3828 1.66992 18.6562 2.58008 19.5938 3.73242C20.5312 4.88477 21 6.14062 21 7.5Z" fill="current" fill-opacity=""/>
</svg>
