<svg width="current" height="current" viewBox="0 0 20 20" fill="current" xmlns="http://www.w3.org/2000/svg">
<path d="M8.59031 11.4103C9.00031 11.8003 9.00031 12.4403 8.59031 12.8303C8.20031 13.2203 7.56031 13.2203 7.17031 12.8303C5.22031 10.8803 5.22031 7.71031 7.17031 5.76031L10.7103 2.22031C12.6603 0.270313 15.8303 0.270313 17.7803 2.22031C19.7303 4.17031 19.7303 7.34031 17.7803 9.29031L16.2903 10.7803C16.3003 9.96031 16.1703 9.14031 15.8903 8.36031L16.3603 7.88031C17.5403 6.71031 17.5403 4.81031 16.3603 3.64031C15.1903 2.46031 13.2903 2.46031 12.1203 3.64031L8.59031 7.17031C7.41031 8.34031 7.41031 10.2403 8.59031 11.4103ZM11.4103 7.17031C11.8003 6.78031 12.4403 6.78031 12.8303 7.17031C14.7803 9.12031 14.7803 12.2903 12.8303 14.2403L9.29031 17.7803C7.34031 19.7303 4.17031 19.7303 2.22031 17.7803C0.270313 15.8303 0.270313 12.6603 2.22031 10.7103L3.71031 9.22031C3.70031 10.0403 3.83031 10.8603 4.11031 11.6503L3.64031 12.1203C2.46031 13.2903 2.46031 15.1903 3.64031 16.3603C4.81031 17.5403 6.71031 17.5403 7.88031 16.3603L11.4103 12.8303C12.5903 11.6603 12.5903 9.76031 11.4103 8.59031C11.0003 8.20031 11.0003 7.56031 11.4103 7.17031Z" fill="current" fill-opacity=""/>
</svg>
