<svg width="current" height="current" viewBox="0 0 20 19" fill="current" xmlns="http://www.w3.org/2000/svg">
<path d="M9.71155 13.237L10.0404 12.25H9H2C1.66848 12.25 1.35054 12.1183 1.11612 11.8839C0.881697 11.6495 0.75 11.3315 0.75 11V9.08073L0.803783 8.83382L4.48269 0.75H14.25V13.2696L9.67451 18.2459C9.51136 18.2327 9.35205 18.1875 9.20577 18.1126C9.02952 18.0223 8.87724 17.8915 8.76146 17.7309C8.64568 17.5702 8.56972 17.3844 8.53984 17.1887C8.50995 16.9929 8.527 16.7929 8.58957 16.605L9.71155 13.237ZM18 12.25H17.75V0.75H18C18.3315 0.75 18.6495 0.881697 18.8839 1.11612C19.1183 1.35054 19.25 1.66848 19.25 2V11C19.25 11.3315 19.1183 11.6495 18.8839 11.8839C18.6495 12.1183 18.3315 12.25 18 12.25Z" stroke="current" stroke-opacity="" stroke-width="1.5"/>
</svg>
