<svg width="current" height="current" viewBox="0 0 29 24" fill="current" xmlns="http://www.w3.org/2000/svg">
<path d="M27.0232 23.6745H22.6085V11.5796V11.1559L22.2814 11.4252L14.5 17.8313L6.71858 11.4252L6.39146 11.1559V11.5796V23.6758H1.97683C1.74613 23.6758 1.51716 23.626 1.30285 23.5285C1.08846 23.431 0.892415 23.2876 0.726444 23.1053C0.560441 22.923 0.427923 22.7057 0.337276 22.4652L0.150465 22.5356L0.337276 22.4652C0.246624 22.2247 0.199855 21.9664 0.2 21.7052V21.7051V3.26141C0.2 1.99255 0.858243 1.00652 1.73564 0.524941C2.61078 0.0445966 3.70788 0.0621065 4.618 0.811485L6.4643 2.33241L6.46437 2.33247L14.3729 8.84062L14.5 8.94523L14.6271 8.8406L22.5356 2.32987L22.5357 2.3298L24.3819 0.811565L24.382 0.811498C25.2915 0.0627925 26.3886 0.04523 27.2639 0.525458C28.1415 1.0069 28.8 1.99261 28.8 3.26141V21.7051C28.8 22.8113 27.988 23.6745 27.0232 23.6745Z" fill="current" stroke="current" stroke-width="0.4"/>
</svg>
