<svg width="current" height="current" viewBox="0 0 18 18" fill="current" xmlns="http://www.w3.org/2000/svg">
<path d="M17.0916 15.9075L13.9999 12.8409C15.2 11.3445 15.7812 9.44527 15.6239 7.5336C15.4667 5.62194 14.583 3.84317 13.1545 2.56306C11.7261 1.28294 9.86143 0.59878 7.94402 0.651247C6.02662 0.703714 4.20219 1.48882 2.84587 2.84514C1.48956 4.20146 0.704446 6.02589 0.651979 7.94329C0.599512 9.86069 1.28368 11.7253 2.56379 13.1538C3.84391 14.5822 5.62267 15.466 7.53434 15.6232C9.446 15.7804 11.3453 15.1993 12.8416 13.9992L15.9083 17.0659C15.9857 17.144 16.0779 17.206 16.1794 17.2483C16.281 17.2906 16.3899 17.3124 16.4999 17.3124C16.6099 17.3124 16.7189 17.2906 16.8204 17.2483C16.9219 17.206 17.0141 17.144 17.0916 17.0659C17.2418 16.9105 17.3257 16.7028 17.3257 16.4867C17.3257 16.2706 17.2418 16.0629 17.0916 15.9075ZM8.16659 13.9992C7.01286 13.9992 5.88505 13.6571 4.92576 13.0161C3.96647 12.3751 3.2188 11.4641 2.77729 10.3982C2.33578 9.33227 2.22026 8.15938 2.44534 7.02783C2.67042 5.89627 3.22599 4.85687 4.0418 4.04107C4.8576 3.22526 5.897 2.66969 7.02856 2.44461C8.16012 2.21953 9.333 2.33505 10.3989 2.77656C11.4648 3.21807 12.3759 3.96574 13.0168 4.92503C13.6578 5.88432 13.9999 7.01213 13.9999 8.16585C13.9999 9.71295 13.3853 11.1967 12.2914 12.2906C11.1974 13.3846 9.71368 13.9992 8.16659 13.9992Z" fill="current"/>
</svg>
