<svg width="current" height="current" viewBox="0 0 19 20" fill="current" xmlns="http://www.w3.org/2000/svg">
<path d="M15.7657 13.7897C15.3511 13.7913 14.9411 13.8773 14.5603 14.0428C14.1794 14.2082 13.8357 14.4495 13.5496 14.7523L6.04556 10.964C6.23015 10.3993 6.23015 9.78973 6.04556 9.22506L13.5619 5.36843C14.1003 5.9408 14.8304 6.29077 15.6103 6.35032C16.3902 6.40988 17.1642 6.17477 17.7818 5.69068C18.3995 5.2066 18.8166 4.50813 18.9523 3.73103C19.0879 2.95393 18.9322 2.15372 18.5156 1.48593C18.099 0.818149 17.4511 0.330494 16.698 0.117754C15.9448 -0.0949864 15.1401 -0.0176129 14.4403 0.334835C13.7406 0.687283 13.1957 1.28963 12.9116 2.02479C12.6275 2.75995 12.6245 3.57541 12.9032 4.31268L5.46075 8.13204C5.0588 7.63611 4.51464 7.27773 3.90288 7.10604C3.29112 6.93435 2.64169 6.95774 2.04363 7.17301C1.44556 7.38828 0.92813 7.7849 0.562263 8.30848C0.196395 8.83207 0 9.457 0 10.0976C0 10.7382 0.196395 11.3631 0.562263 11.8867C0.92813 12.4103 1.44556 12.8069 2.04363 13.0222C2.64169 13.2375 3.29112 13.2609 3.90288 13.0892C4.51464 12.9175 5.0588 12.5591 5.46075 12.0632L12.8848 15.8329C12.7593 16.1727 12.6947 16.5322 12.6939 16.8948C12.6939 17.509 12.8744 18.1093 13.2127 18.62C13.5509 19.1306 14.0316 19.5286 14.594 19.7636C15.1564 19.9987 15.7753 20.0601 16.3723 19.9403C16.9694 19.8205 17.5178 19.5248 17.9483 19.0905C18.3788 18.6562 18.6719 18.103 18.7907 17.5006C18.9094 16.8983 18.8485 16.2739 18.6155 15.7065C18.3826 15.1391 17.9881 14.6542 17.4819 14.313C16.9757 13.9718 16.3806 13.7897 15.7719 13.7897H15.7657Z" fill="current" fill-opacity=""/>
</svg>
