<svg width="current" height="current" viewBox="0 0 26 22" fill="current" xmlns="http://www.w3.org/2000/svg">
<path d="M25.96 2.50523C25.0054 2.91705 23.9665 3.21343 22.8964 3.32886C24.0074 2.66882 24.8394 1.62606 25.2362 0.39623C24.1937 1.01642 23.0516 1.4513 21.8606 1.6816C21.3628 1.14944 20.7608 0.725495 20.092 0.436187C19.4232 0.146879 18.702 -0.00159667 17.9733 1.29485e-05C15.0251 1.29485e-05 12.654 2.3898 12.654 5.32243C12.654 5.73424 12.7039 6.14606 12.785 6.54228C8.37048 6.31141 4.43327 4.20241 1.81574 0.973397C1.33879 1.78803 1.08886 2.71559 1.09194 3.65956C1.09194 5.5065 2.031 7.13504 3.463 8.09283C2.6191 8.05959 1.79497 7.82764 1.05762 7.41583V7.48134C1.05762 10.0677 2.88583 12.211 5.32241 12.7039C4.86492 12.8228 4.39429 12.8836 3.92162 12.8849C3.57531 12.8849 3.24773 12.8506 2.91703 12.8038C3.59091 14.9128 5.55328 16.4446 7.89003 16.4945C6.06181 17.9265 3.77186 18.7689 1.28537 18.7689C0.839232 18.7689 0.427415 18.7533 0 18.7033C2.35858 20.2164 5.15706 21.09 8.17081 21.09C17.9546 21.09 23.3082 12.9847 23.3082 5.94951C23.3082 5.71864 23.3082 5.48778 23.2926 5.25691C24.3284 4.49879 25.2362 3.55973 25.96 2.50523Z" fill="current"/>
</svg>
