<svg viewBox="0 0 13 10" xmlns="http://www.w3.org/2000/svg">
<path d="M11.25 0H1.25C0.5625 0 0 0.5625 0 1.25V8.75C0 9.4375 0.5625 10 1.25 10H11.25C11.9375 10 12.5 9.4375 12.5 8.75V1.25C12.5 0.5625 11.9375 0 11.25 0ZM11 2.65625L6.9125 5.2125C6.50625 5.46875 5.99375 5.46875 5.5875 5.2125L1.5 2.65625C1.43733 2.62107 1.38245 2.57354 1.33868 2.51653C1.29491 2.45953 1.26316 2.39424 1.24536 2.32461C1.22756 2.25498 1.22406 2.18246 1.2351 2.11144C1.24613 2.04042 1.27146 1.97238 1.30955 1.91144C1.34764 1.85049 1.3977 1.79791 1.4567 1.75687C1.5157 1.71583 1.58242 1.68719 1.65281 1.67269C1.7232 1.65818 1.7958 1.6581 1.86622 1.67247C1.93664 1.68683 2.00341 1.71533 2.0625 1.75625L6.25 4.375L10.4375 1.75625C10.4966 1.71533 10.5634 1.68683 10.6338 1.67247C10.7042 1.6581 10.7768 1.65818 10.8472 1.67269C10.9176 1.68719 10.9843 1.71583 11.0433 1.75687C11.1023 1.79791 11.1524 1.85049 11.1904 1.91144C11.2285 1.97238 11.2539 2.04042 11.2649 2.11144C11.2759 2.18246 11.2724 2.25498 11.2546 2.32461C11.2368 2.39424 11.2051 2.45953 11.1613 2.51653C11.1176 2.57354 11.0627 2.62107 11 2.65625Z" />
</svg>
