<svg width="50" height="42" viewBox="0 0 50 42" fill="none" xmlns="http://www.w3.org/2000/svg">
<path d="M1.61296 9.52741H1.46296V9.67741V38.4073C1.46296 39.052 1.64059 39.5739 2.00111 39.9344C2.36164 40.295 2.88361 40.4726 3.52825 40.4726H46.4719C47.1166 40.4726 47.6386 40.295 47.9991 39.9344C48.3596 39.5739 48.5372 39.052 48.5372 38.4073V9.67741V9.52741H48.3872H1.61296ZM17.592 1.61278V1.76278V8.06426V8.21426H17.742H48.3872H48.5372V8.06426V3.52806C48.5372 2.88342 48.3596 2.36145 47.9991 2.00093C47.6386 1.6404 47.1166 1.46278 46.4719 1.46278H17.742V1.61259H17.592V1.61278ZM16.2791 1.61278V1.46278H16.1291H3.52825C2.87036 1.46278 2.34704 1.63089 1.98906 1.98887C1.63108 2.34685 1.46296 2.87017 1.46296 3.52806V3.52825V8.06444V8.21444H1.61296H16.1291H16.2791V8.06444V1.61278ZM0.15 38.9112V3.02419C0.15 3.02413 0.15 3.02406 0.15 3.024C0.150059 2.29307 0.495992 1.57361 1.0348 1.0348C1.57366 0.495946 2.29319 0.15 3.02419 0.15H46.9758C47.7368 0.15 48.4562 0.524473 48.9886 1.06728C49.5223 1.61152 49.85 2.3066 49.85 2.92342V39.0121C49.85 39.3562 49.7283 39.7309 49.5522 40.0738C49.3766 40.4158 49.1535 40.7133 48.9657 40.9011C48.7779 41.0889 48.4804 41.312 48.1385 41.4876C47.7955 41.6637 47.4208 41.7854 47.0768 41.7854H2.92342C2.30485 41.7854 1.6098 41.457 1.06601 40.923C0.523638 40.3903 0.15 39.6708 0.15 38.9112Z" fill="#8F8F8F" stroke="white" stroke-width="0.3"/>
<path d="M40.6595 32.4133L40.6427 32.4094H40.6254H40.6252H40.4548L40.4764 32.5785C40.5236 32.9463 40.6193 33.3357 40.7132 33.7178C40.7573 33.8969 40.8009 34.0745 40.839 34.2475L40.839 34.2475C40.8834 34.4494 40.9238 34.6368 40.9629 34.818C41.0356 35.1552 41.1036 35.4709 41.1848 35.8192L41.2514 36.1052L41.444 35.8836C41.472 35.8514 41.4867 35.8366 41.4945 35.829C41.4946 35.8289 41.4949 35.8287 41.4953 35.8283C41.4996 35.8244 41.5199 35.8057 41.5346 35.7839C41.5456 35.7675 41.5555 35.7466 41.5628 35.731C41.5639 35.7288 41.5649 35.7266 41.5659 35.7246C41.5765 35.7023 41.5935 35.667 41.6232 35.6086C41.7632 35.3337 41.8428 35.1093 41.9049 34.9219C41.9138 34.895 41.9223 34.8692 41.9304 34.8444C41.9803 34.6926 42.0179 34.578 42.0731 34.4737C42.1908 34.2516 42.3977 34.0619 43.084 33.7923L43.0841 33.7926L43.0932 33.7884L43.9151 33.4007L44.3051 33.2168L43.8852 33.1189C43.3511 32.9945 42.8127 32.8806 42.2752 32.7668L42.2718 32.766C41.7326 32.6519 41.1944 32.538 40.6595 32.4133ZM41.9359 29.6876H39.6665V28.3746C40.182 28.3731 40.6302 28.3641 41.0192 28.3554C41.0785 28.354 41.1364 28.3527 41.1929 28.3514C41.5435 28.3434 41.8408 28.3365 42.0947 28.3372C42.3902 28.3379 42.619 28.3489 42.798 28.378C42.977 28.407 43.0939 28.4524 43.1744 28.5131C43.328 28.629 43.4011 28.8421 43.4184 29.327C43.4276 29.5861 43.4213 29.8983 43.4134 30.2835C43.4067 30.6144 43.3988 30.9992 43.3988 31.4505V31.5449L43.4839 31.5858C43.6494 31.6651 43.9741 31.7467 44.2869 31.8174C44.4562 31.8557 44.621 31.8906 44.7683 31.9218C44.9076 31.9512 45.0311 31.9774 45.1278 31.9999L45.3118 32.0428V31.8538V20.1601V20.0101H45.1618H24.194H24.044V20.1601V32.761C24.044 33.4056 24.2216 33.9276 24.5822 34.2881C24.9427 34.6486 25.4647 34.8263 26.1093 34.8263H39.315H39.465V34.6763C39.465 34.3193 39.369 33.8824 39.2587 33.4429C39.2296 33.3268 39.1994 33.2103 39.1693 33.0943C39.0835 32.7632 38.9985 32.4353 38.9413 32.1287C38.8631 31.71 38.8446 31.3672 38.9268 31.1351C38.9659 31.0246 39.0263 30.9437 39.1126 30.8884C39.2007 30.832 39.3288 30.7939 39.5165 30.7939C39.5898 30.7939 39.7585 30.8163 39.9879 30.8559C40.212 30.8947 40.4812 30.9475 40.7467 31.0038C41.0123 31.0601 41.273 31.1194 41.4801 31.171C41.5838 31.1968 41.6731 31.2205 41.7425 31.2406C41.8157 31.2618 41.8567 31.2764 41.871 31.2832L42.0859 31.3864V31.148V29.8376V29.6876H41.9359ZM37.5748 15.7056L37.5748 15.7056C37.5431 15.6504 37.519 15.598 37.4943 15.5442L37.491 15.537C37.4666 15.4839 37.4386 15.4231 37.4026 15.37C37.3645 15.3138 37.3141 15.2605 37.2414 15.2233C37.1698 15.1867 37.0881 15.1714 36.9962 15.1714H32.359C32.2542 15.1714 32.1681 15.2185 32.0999 15.2761C32.0329 15.3326 31.9727 15.4079 31.9167 15.4861C31.8743 15.5452 31.8299 15.6123 31.7845 15.6811C31.7696 15.7035 31.7547 15.7261 31.7397 15.7487C31.6774 15.8422 31.6108 15.9394 31.5358 16.0358C31.2397 16.4161 30.8138 16.7844 30.0405 16.7844C29.4513 16.7844 29.0394 16.6863 28.743 16.5467C28.448 16.4078 28.259 16.2238 28.1203 16.0381C28.0502 15.9444 27.9925 15.8495 27.9396 15.7572C27.9236 15.7293 27.9076 15.7008 27.8916 15.6722C27.8567 15.6099 27.8219 15.5479 27.7881 15.494C27.6903 15.3375 27.5563 15.1714 27.3188 15.1714C27.1962 15.1714 27.0699 15.1698 26.9421 15.1681C26.6976 15.1649 26.4478 15.1616 26.2086 15.1698C25.8417 15.1823 25.4788 15.2217 25.1581 15.3349C24.8341 15.4492 24.5504 15.6399 24.3501 15.9536C24.1696 16.2362 24.0645 16.6068 24.0466 17.0867H24.0436V17.2367V18.5472V18.6972H24.1936H45.1614H45.3114V18.5472C45.3114 18.4202 45.3134 18.2875 45.3155 18.1524C45.3191 17.9141 45.3228 17.6679 45.3159 17.4307C45.3049 17.0556 45.2674 16.6802 45.1561 16.3464C45.0439 16.0098 44.855 15.711 44.5407 15.4985C44.2279 15.2871 43.8061 15.1714 43.2461 15.1714C42.9865 15.1714 42.784 15.1689 42.6156 15.1668C42.5062 15.1654 42.4112 15.1642 42.3243 15.164C42.121 15.1636 41.9725 15.1683 41.8632 15.202C41.803 15.2207 41.7513 15.2488 41.7063 15.2901C41.6631 15.3297 41.6322 15.3761 41.6065 15.4214C41.5869 15.4558 41.5667 15.4963 41.5457 15.5383C41.54 15.5498 41.5342 15.5613 41.5284 15.5729C41.5001 15.6291 41.4667 15.6936 41.4225 15.769C41.0365 16.428 40.2916 16.7894 39.5265 16.794C38.7637 16.7986 38.0001 16.4481 37.5748 15.7056ZM26.6885 13.8471C26.9228 13.8522 27.1774 13.8577 27.4583 13.8584L27.5583 13.9583L27.6533 13.7788C27.6812 13.726 27.7079 13.6747 27.7339 13.6249C27.9324 13.2435 28.086 12.9484 28.4097 12.7174C28.7169 12.4981 29.1466 12.2457 29.6376 12.2457C30.2268 12.2457 30.6387 12.3438 30.9352 12.4834C31.2301 12.6224 31.4192 12.8063 31.5579 12.992C31.628 13.0857 31.6857 13.1806 31.7386 13.2729C31.7546 13.3008 31.7706 13.3294 31.7866 13.3579C31.8216 13.4202 31.8564 13.4822 31.8901 13.5361C31.9879 13.6926 32.1219 13.8587 32.3594 13.8587H36.9966C37.1014 13.8587 37.1875 13.8116 37.2558 13.754C37.3227 13.6975 37.383 13.6222 37.439 13.544C37.4814 13.4849 37.5257 13.4178 37.5712 13.349C37.586 13.3266 37.6009 13.304 37.6159 13.2815C37.6782 13.1879 37.7448 13.0907 37.8198 12.9943C38.1159 12.614 38.5418 12.2457 39.3152 12.2457C40.0348 12.2457 40.4816 12.3671 40.8184 12.6055C41.1593 12.8469 41.4079 13.2217 41.7027 13.7788L41.7449 13.8587H41.8353C42.141 13.8587 42.4159 13.8527 42.6673 13.8473C43.7483 13.8239 44.3968 13.8099 45.2056 14.3172L45.2851 14.1905L45.2056 14.3172C45.521 14.5151 45.8786 14.8533 46.1565 15.2669C46.4345 15.6806 46.6248 16.1573 46.6248 16.6321V32.2571V32.4038L46.7714 32.4071C47.1175 32.4148 47.257 32.5041 47.3275 32.615C47.4102 32.745 47.4312 32.9483 47.4312 33.2652C47.4312 33.2679 47.4299 33.2838 47.409 33.3157C47.3883 33.3472 47.3541 33.3858 47.303 33.431C47.2007 33.5214 47.0485 33.6226 46.8567 33.7304C46.4743 33.9454 45.9594 34.173 45.4368 34.3822C44.9153 34.5908 44.3909 34.7791 43.992 34.9157C43.7927 34.9839 43.6251 35.0391 43.5053 35.0774C43.4453 35.0965 43.3977 35.1113 43.3643 35.1212C43.3475 35.1262 43.3351 35.1298 43.3267 35.1321L43.3247 35.1326L43.2084 35.1422L43.1978 35.2688C43.1908 35.3522 43.1499 35.5045 43.0806 35.7076C43.013 35.9057 42.9236 36.1379 42.8285 36.3741C42.7334 36.61 42.6333 36.8483 42.5447 37.0584C42.5325 37.0872 42.5206 37.1154 42.5089 37.1431C42.4356 37.3167 42.3719 37.4674 42.3296 37.5731L42.4689 37.6288L42.3296 37.5731C42.2568 37.7551 42.1918 37.9356 42.1308 38.1054C42.1084 38.1675 42.0866 38.2283 42.065 38.2871C41.9836 38.5096 41.9064 38.7061 41.8189 38.8704C41.7314 39.0346 41.6383 39.1573 41.5301 39.2391C41.4251 39.3185 41.2982 39.3652 41.1295 39.3652C40.9378 39.3652 40.8018 39.3043 40.6967 39.2069C40.5875 39.1057 40.5031 38.9569 40.435 38.769C40.367 38.5818 40.3192 38.3672 40.276 38.1435C40.2634 38.0785 40.2512 38.0122 40.2389 37.9458C40.2098 37.7881 40.1805 37.6295 40.1465 37.4847C40.0836 37.2172 40.0469 37.0117 40.017 36.8444C40.0033 36.7677 39.991 36.6991 39.9783 36.6362C39.9418 36.4556 39.8974 36.2842 39.7476 36.1897C39.6755 36.1442 39.5923 36.1248 39.5052 36.1159C39.4183 36.107 39.314 36.1075 39.1921 36.111C39.1257 36.113 39.0528 36.1159 38.9719 36.1191C38.7508 36.128 38.4708 36.1392 38.1053 36.1392H38.1052L25.7023 36.1439C25.7022 36.1439 25.7021 36.1439 25.702 36.1439C24.1442 36.1337 22.7311 34.7872 22.7311 33.265V16.7327C22.7311 15.6529 23.4537 14.7538 24.1502 14.3171L24.1502 14.3171C24.959 13.8097 25.6075 13.8238 26.6885 13.8471ZM43.3193 35.134C43.3176 35.1344 43.3179 35.1343 43.3196 35.134L43.3193 35.134ZM40.4729 14.5149C40.4729 14.2166 40.353 13.9834 40.1675 13.8272C39.9853 13.6738 39.7479 13.601 39.5164 13.601C39.285 13.601 39.0476 13.6738 38.8654 13.8272C38.6798 13.9834 38.5599 14.2166 38.5599 14.5149C38.5599 14.8131 38.6798 15.0463 38.8654 15.2025C39.0476 15.3559 39.285 15.4287 39.5164 15.4287C39.7479 15.4287 39.9853 15.3559 40.1675 15.2025C40.353 15.0463 40.4729 14.8131 40.4729 14.5149ZM30.7955 14.5149C30.7955 14.2166 30.6756 13.9834 30.4901 13.8272C30.3079 13.6738 30.0705 13.601 29.839 13.601C29.6076 13.601 29.3702 13.6738 29.188 13.8272C29.0024 13.9834 28.8825 14.2166 28.8825 14.5149C28.8825 14.8131 29.0024 15.0463 29.188 15.2025C29.3702 15.3559 29.6076 15.4287 29.839 15.4287C30.0705 15.4287 30.3079 15.3559 30.4901 15.2025C30.6756 15.0463 30.7955 14.8131 30.7955 14.5149Z" fill="#8F8F8F" stroke="white" stroke-width="0.3"/>
<path d="M12.903 25.6558H12.753V25.8058V33.8703V34.0203H12.903H19.3547H19.5047V33.8703V25.8058V25.6558H19.3547H12.903ZM11.29 34.0204H11.44V33.8704V24.9994V24.9992C11.44 24.7888 11.5081 24.6276 11.6164 24.5193C11.7247 24.411 11.8859 24.3428 12.0964 24.3428H16.1287H16.2787V24.1928V16.1284V15.9784H16.1287H4.83836H4.68836V16.1284V33.8704V34.0204H4.83836H11.29ZM17.5917 24.193V24.343H17.7417C18.0735 24.343 18.3984 24.3311 18.7031 24.3199C18.796 24.3165 18.8869 24.3131 18.9757 24.3102C19.359 24.2976 19.6992 24.293 19.9838 24.3221C20.2711 24.3515 20.4793 24.4134 20.614 24.5164C20.7387 24.6117 20.8174 24.7554 20.8174 24.9994V34.6768C20.8174 34.8873 20.7493 35.0485 20.6411 35.1568C20.5328 35.2651 20.3715 35.3332 20.161 35.3332H4.03197C3.82155 35.3332 3.6603 35.2651 3.55202 35.1568C3.44374 35.0486 3.37559 34.8873 3.37559 34.6768V15.322C3.37559 15.1116 3.4437 14.9503 3.55197 14.8421C3.66022 14.7338 3.82147 14.6656 4.03197 14.6656H16.9353C17.1457 14.6656 17.307 14.7337 17.4153 14.842C17.5235 14.9503 17.5917 15.1115 17.5917 15.322V24.193Z" fill="#8F8F8F" stroke="white" stroke-width="0.3"/>
<path d="M33.8708 23.2362H33.7208V23.3862V24.9992V25.1492H33.8708H35.4837H35.6337V24.9992V23.3862V23.2362H35.4837H33.8708ZM32.4078 25.8056V22.5798C32.4078 22.3694 32.4759 22.2081 32.5842 22.0999C32.6924 21.9916 32.8537 21.9234 33.0642 21.9234H36.2899C36.5004 21.9234 36.6616 21.9916 36.7699 22.0998C36.8782 22.2081 36.9463 22.3693 36.9463 22.5798V25.8056C36.9463 26.016 36.8782 26.1772 36.7699 26.2855C36.6617 26.3938 36.5004 26.462 36.2899 26.462H33.0642C32.8538 26.462 32.6925 26.3938 32.5842 26.2856C32.476 26.1773 32.4078 26.0161 32.4078 25.8056Z" fill="#8F8F8F" stroke="white" stroke-width="0.3"/>
<path d="M40.3229 23.2362H40.1729V23.3862V24.9992V25.1492H40.3229H41.9359H42.0859V24.9992V23.3862V23.2362H41.9359H40.3229ZM38.86 25.8056V22.5798C38.86 22.3694 38.9281 22.2081 39.0363 22.0999C39.1446 21.9916 39.3058 21.9234 39.5164 21.9234H42.7421C42.9525 21.9234 43.1138 21.9916 43.222 22.0998C43.3303 22.2081 43.3985 22.3693 43.3985 22.5798V25.8056C43.3985 26.016 43.3304 26.1772 43.2221 26.2855C43.1138 26.3938 42.9526 26.462 42.7421 26.462H39.5164C39.3059 26.462 39.1447 26.3938 39.0364 26.2856C38.9281 26.1773 38.86 26.0161 38.86 25.8056Z" fill="#8F8F8F" stroke="white" stroke-width="0.3"/>
<path d="M27.4196 23.2362H27.2696V23.3862V24.9992V25.1492H27.4196H29.0326H29.1826V24.9992V23.3862V23.2362H29.0326H27.4196ZM25.9566 25.8056V22.5798C25.9566 22.3694 26.0248 22.2081 26.133 22.0999C26.2413 21.9916 26.4025 21.9234 26.613 21.9234H29.8388C30.0492 21.9234 30.2104 21.9916 30.3187 22.0998C30.427 22.2081 30.4952 22.3693 30.4952 22.5798V25.8056C30.4952 26.016 30.427 26.1772 30.3188 26.2855C30.2105 26.3938 30.0493 26.462 29.8388 26.462H26.613C26.4026 26.462 26.2414 26.3938 26.1331 26.2856C26.0248 26.1773 25.9566 26.0161 25.9566 25.8056Z" fill="#8F8F8F" stroke="white" stroke-width="0.3"/>
<path d="M27.4196 29.6893H27.2696V29.8393V31.4523V31.6023H27.4196H29.0326H29.1826V31.4523V29.8393V29.6893H29.0326H27.4196ZM25.9566 32.2587V29.033C25.9566 28.8225 26.0248 28.6613 26.133 28.553C26.2413 28.4447 26.4025 28.3766 26.613 28.3766H29.8388C30.0492 28.3766 30.2104 28.4447 30.3187 28.5529C30.427 28.6612 30.4952 28.8224 30.4952 29.033V32.2587C30.4952 32.4691 30.427 32.6304 30.3188 32.7386C30.2105 32.8469 30.0493 32.9151 29.8388 32.9151H26.613C26.4026 32.9151 26.2414 32.847 26.1331 32.7387C26.0248 32.6304 25.9566 32.4692 25.9566 32.2587Z" fill="#8F8F8F" stroke="white" stroke-width="0.3"/>
<path d="M35.6337 30.6459C35.6337 30.3477 35.5139 30.1145 35.3283 29.9583C35.1461 29.8049 34.9087 29.7321 34.6773 29.7321C34.4458 29.7321 34.2084 29.8049 34.0262 29.9583C33.8407 30.1145 33.7208 30.3477 33.7208 30.6459C33.7208 30.9442 33.8407 31.1773 34.0262 31.3335C34.2084 31.4869 34.4458 31.5598 34.6773 31.5598C34.9087 31.5598 35.1461 31.4869 35.3283 31.3335C35.5139 31.1773 35.6337 30.9442 35.6337 30.6459ZM36.9465 30.4444C36.9465 31.2864 36.6577 31.905 36.2361 32.3132C35.8128 32.7231 35.2464 32.9298 34.6772 32.9298C34.1079 32.9298 33.5416 32.7231 33.1182 32.3132C32.6966 31.905 32.4078 31.2864 32.4078 30.4444C32.4078 29.9386 32.6622 29.4204 33.0569 29.0256C33.4517 28.6309 33.9699 28.3766 34.4756 28.3766C35.9743 28.3766 36.9465 29.3122 36.9465 30.4444Z" fill="#8F8F8F" stroke="white" stroke-width="0.3"/>
<path d="M14.3658 17.8922V19.205H11.44V17.8922H14.3658Z" fill="#8F8F8F" stroke="white" stroke-width="0.3"/>
<path d="M9.52691 17.8922V19.205H6.60117V17.8922H9.52691Z" fill="#8F8F8F" stroke="white" stroke-width="0.3"/>
<path d="M14.3658 21.1168V22.4298H11.44V21.1168H14.3658Z" fill="#8F8F8F" stroke="white" stroke-width="0.3"/>
<path d="M9.52691 21.1168V22.4298H6.60117V21.1168H9.52691Z" fill="#8F8F8F" stroke="white" stroke-width="0.3"/>
<path d="M9.52691 24.3434V25.6563H6.60117V24.3434H9.52691Z" fill="#8F8F8F" stroke="white" stroke-width="0.3"/>
<path d="M9.52691 27.5699V28.8827H6.60117V27.5699H9.52691Z" fill="#8F8F8F" stroke="white" stroke-width="0.3"/>
<path d="M17.5925 27.5699V28.8827H14.6666V27.5699H17.5925Z" fill="#8F8F8F" stroke="white" stroke-width="0.3"/>
<path d="M9.52691 30.7965V32.1094H6.60117V30.7965H9.52691Z" fill="#8F8F8F" stroke="white" stroke-width="0.3"/>
<path d="M17.5925 30.7965V32.1094H14.6666V30.7965H17.5925Z" fill="#8F8F8F" stroke="white" stroke-width="0.3"/>
<path d="M4.68855 4.1832V5.49598H3.37559V4.1832H4.68855Z" fill="#8F8F8F" stroke="white" stroke-width="0.3"/>
<path d="M7.91395 4.1832V5.49598H6.60117V4.1832H7.91395Z" fill="#8F8F8F" stroke="white" stroke-width="0.3"/>
<path d="M11.1407 4.1832V5.49598H9.82773V4.1832H11.1407Z" fill="#8F8F8F" stroke="white" stroke-width="0.3"/>
<path d="M14.3661 4.1832V5.49598H13.0533V4.1832H14.3661Z" fill="#8F8F8F" stroke="white" stroke-width="0.3"/>
</svg>
