<svg width="30" height="30" viewBox="0 0 30 30" fill="none" xmlns="http://www.w3.org/2000/svg">
<g clip-path="url(#clip0_1631_80695)">
<path d="M23.75 0H6.25C4.59301 0.00198482 3.00445 0.661102 1.83277 1.83277C0.661102 3.00445 0.00198482 4.59301 0 6.25L0 23.75C0.00198482 25.407 0.661102 26.9956 1.83277 28.1672C3.00445 29.3389 4.59301 29.998 6.25 30H23.75C25.407 29.998 26.9956 29.3389 28.1672 28.1672C29.3389 26.9956 29.998 25.407 30 23.75V6.25C29.998 4.59301 29.3389 3.00445 28.1672 1.83277C26.9956 0.661102 25.407 0.00198482 23.75 0V0ZM6.25 2.5H23.75C24.7446 2.5 25.6984 2.89509 26.4017 3.59835C27.1049 4.30161 27.5 5.25544 27.5 6.25V23.75C27.4978 24.3069 27.3696 24.856 27.125 25.3563L15.6712 13.9025C15.0909 13.322 14.4018 12.8614 13.6434 12.5472C12.885 12.2331 12.0722 12.0713 11.2513 12.0713C10.4304 12.0713 9.61749 12.2331 8.8591 12.5472C8.10071 12.8614 7.41164 13.322 6.83125 13.9025L2.5 18.2325V6.25C2.5 5.25544 2.89509 4.30161 3.59835 3.59835C4.30161 2.89509 5.25544 2.5 6.25 2.5ZM6.25 27.5C5.25544 27.5 4.30161 27.1049 3.59835 26.4017C2.89509 25.6984 2.5 24.7446 2.5 23.75V21.7675L8.5975 15.67C8.94575 15.3215 9.35925 15.0451 9.81438 14.8565C10.2695 14.6679 10.7573 14.5708 11.25 14.5708C11.7427 14.5708 12.2305 14.6679 12.6856 14.8565C13.1407 15.0451 13.5542 15.3215 13.9025 15.67L25.3563 27.125C24.856 27.3696 24.3069 27.4978 23.75 27.5H6.25Z" fill="#B0B0B0"/>
<path d="M20 13.1245C20.8653 13.1245 21.7112 12.8679 22.4306 12.3872C23.1501 11.9065 23.7108 11.2232 24.042 10.4238C24.3731 9.62433 24.4597 8.74466 24.2909 7.89599C24.1221 7.04733 23.7054 6.26778 23.0936 5.65592C22.4817 5.04407 21.7022 4.62739 20.8535 4.45858C20.0049 4.28977 19.1252 4.37641 18.3258 4.70754C17.5263 5.03867 16.8431 5.59943 16.3623 6.31889C15.8816 7.03836 15.625 7.88422 15.625 8.74951C15.625 9.90984 16.0859 11.0226 16.9064 11.8431C17.7269 12.6636 18.8397 13.1245 20 13.1245ZM20 6.87451C20.3708 6.87451 20.7334 6.98448 21.0417 7.19051C21.35 7.39654 21.5904 7.68937 21.7323 8.03198C21.8742 8.37459 21.9113 8.75159 21.839 9.11531C21.7666 9.47902 21.588 9.81312 21.3258 10.0753C21.0636 10.3376 20.7295 10.5161 20.3658 10.5885C20.0021 10.6608 19.6251 10.6237 19.2825 10.4818C18.9399 10.3399 18.647 10.0995 18.441 9.79121C18.235 9.48287 18.125 9.12035 18.125 8.74951C18.125 8.25223 18.3225 7.77532 18.6742 7.42369C19.0258 7.07206 19.5027 6.87451 20 6.87451Z" fill="#B0B0B0"/>
</g>
<defs>
<clipPath id="clip0_1631_80695">
<rect width="30" height="30" fill="white"/>
</clipPath>
</defs>
</svg>
