<svg width="20" height="20" viewBox="0 0 20 20" fill="none" xmlns="http://www.w3.org/2000/svg">
<path d="M9.5 0.25C9.91421 0.25 10.25 0.585786 10.25 1V8C10.25 8.41421 9.91421 8.75 9.5 8.75H1C0.585787 8.75 0.25 8.41421 0.25 8V1C0.25 0.585786 0.585787 0.25 1 0.25H9.5ZM8.75 1.75H1.75V7.25H8.75V1.75Z" fill="white"/>
<path d="M19 11.25C19.4142 11.25 19.75 11.5858 19.75 12V19C19.75 19.4142 19.4142 19.75 19 19.75H10.5C10.0858 19.75 9.75 19.4142 9.75 19V12C9.75 11.5858 10.0858 11.25 10.5 11.25H19ZM18.25 12.75H11.25V18.25H18.25V12.75Z" fill="white"/>
<path d="M13.5 8.75C13.0858 8.75 12.75 8.41421 12.75 8V1C12.75 0.585787 13.0858 0.25 13.5 0.25H19C19.4142 0.25 19.75 0.585787 19.75 1V8C19.75 8.41421 19.4142 8.75 19 8.75H13.5ZM14.25 7.25H18.25V1.75H14.25V7.25Z" fill="white"/>
<path d="M1 19.75C0.585786 19.75 0.25 19.4142 0.25 19V12C0.25 11.5858 0.585786 11.25 1 11.25H6.5C6.91421 11.25 7.25 11.5858 7.25 12V19C7.25 19.4142 6.91421 19.75 6.5 19.75H1ZM1.75 18.25H5.75V12.75H1.75V18.25Z" fill="white"/>
</svg>
