<svg width="51" height="51" viewBox="0 0 51 51" fill="none" xmlns="http://www.w3.org/2000/svg">
<g clip-path="url(#clip0_12982_8857)">
<path d="M6.61648 1.44336H44.381C45.892 1.44336 47.265 2.06091 48.26 3.0559C49.2549 4.0508 49.8726 5.42394 49.8726 6.93485V33.614C49.8726 35.1249 49.255 36.4981 48.26 37.493C47.2651 38.4879 45.892 39.1055 44.381 39.1055H6.61648C5.10557 39.1055 3.73245 38.4879 2.73754 37.493C1.74259 36.4981 1.125 35.1249 1.125 33.614V6.93485C1.125 5.42393 1.74259 4.0508 2.73754 3.0559C3.73245 2.06095 5.10558 1.44336 6.61648 1.44336ZM44.381 2.96672H6.61648C5.52606 2.96672 4.53415 3.41339 3.81461 4.13297C3.09502 4.85252 2.64836 5.84443 2.64836 6.93485V33.614C2.64836 34.7044 3.09503 35.6964 3.81461 36.4159C4.53416 37.1355 5.52607 37.5821 6.61648 37.5821H44.381C45.4715 37.5821 46.4634 37.1355 47.1829 36.4159C47.9025 35.6963 48.3492 34.7044 48.3492 33.614V6.93485C48.3492 5.84442 47.9025 4.85251 47.1829 4.13297C46.4634 3.41338 45.4714 2.96672 44.381 2.96672Z" fill="#8f8f8f"/>
<path d="M11.0097 1.44336H20.7024C21.123 1.44336 21.4641 1.78439 21.4641 2.20504V7.99506C21.4641 9.53806 20.8334 10.9402 19.8174 11.9563C18.8014 12.9723 17.3992 13.6029 15.8562 13.6029H15.8559C14.3129 13.6029 12.9107 12.9723 11.8947 11.9563C10.8787 10.9402 10.248 9.53799 10.248 7.99506V2.20504C10.248 1.78439 10.5891 1.44336 11.0097 1.44336H11.0097ZM19.9407 2.96672H11.7714V7.99506C11.7714 9.11749 12.2311 10.1385 12.9718 10.8792C13.7124 11.6198 14.7334 12.0796 15.8559 12.0796H15.8561C16.9786 12.0796 17.9996 11.6198 18.7403 10.8792C19.4809 10.1385 19.9407 9.11752 19.9407 7.99506V2.96672H19.9407ZM30.3445 1.44336H40.0372C40.4578 1.44336 40.7989 1.78439 40.7989 2.20504V7.99506C40.7989 9.53806 40.1682 10.9402 39.1522 11.9563C38.1362 12.9723 36.734 13.6029 35.191 13.6029H35.1908C33.6478 13.6029 32.2456 12.9723 31.2295 11.9563C30.2135 10.9402 29.5829 9.53799 29.5829 7.99506V2.20504C29.5829 1.78439 29.9239 1.44336 30.3445 1.44336H30.3445ZM39.2755 2.96672H31.1062V7.99506C31.1062 9.11749 31.5659 10.1385 32.3066 10.8792C33.0473 11.6198 34.0683 12.0796 35.1908 12.0796H35.191C36.3134 12.0796 37.3344 11.6198 38.0751 10.8792C38.8157 10.1385 39.2755 9.11752 39.2755 7.99506V2.96672Z" fill="#8f8f8f"/>
<path d="M6.61649 1.44336H11.0103C11.4309 1.44336 11.7719 1.7844 11.7719 2.20504V7.99506C11.7719 8.20704 11.6853 8.39873 11.5456 8.53682L6.70259 13.3798L6.70263 13.3798C6.55393 13.5285 6.35901 13.6029 6.16406 13.6029V13.6029H6.16379C5.95182 13.6029 5.76013 13.5163 5.62203 13.3766L1.34814 9.10268L1.34811 9.10272C1.19937 8.95398 1.12504 8.75906 1.12504 8.56415H1.125V6.93485C1.125 5.42393 1.74259 4.05081 2.73754 3.0559C3.73244 2.06095 5.10557 1.44336 6.61648 1.44336H6.61649ZM10.2486 2.96673H6.61649C5.52607 2.96673 4.53416 3.41339 3.81462 4.13298C3.09503 4.85252 2.64837 5.84444 2.64837 6.93485V8.24875L6.16391 11.7643L10.2486 7.67966V2.96672L10.2486 2.96673ZM20.7028 1.44336H30.3451C30.7657 1.44336 31.1067 1.7844 31.1067 2.20504V7.99506C31.1067 8.20704 31.0201 8.39873 30.8804 8.53682L26.0374 13.3798L26.0374 13.3798C25.8887 13.5285 25.6938 13.6029 25.4989 13.6029V13.6029H25.4986C25.3709 13.6029 25.2505 13.5714 25.1447 13.5158L25.1445 13.5157C25.0749 13.4791 25.0117 13.432 24.9569 13.3766L20.1637 8.58338L20.1636 8.58341C20.0075 8.42725 19.9333 8.22015 19.9412 8.0156H19.9409L19.9412 8.00439V7.99506V2.20504C19.9412 1.78439 20.2822 1.44336 20.7029 1.44336L20.7028 1.44336ZM29.5834 2.96673H21.4645V7.73008L25.4987 11.7643L29.5834 7.67967V2.96673H29.5834ZM40.0377 1.44336H44.381C45.892 1.44336 47.265 2.06092 48.26 3.0559C49.2549 4.05081 49.8726 5.42394 49.8726 6.93485V8.56415C49.8726 8.77612 49.7859 8.96781 49.6462 9.10591L45.3723 13.3798L45.3723 13.3798C45.2236 13.5285 45.0287 13.6029 44.8338 13.6029V13.6029H44.8335C44.6215 13.6029 44.4298 13.5163 44.2917 13.3766L39.4986 8.58338L39.4985 8.58341C39.3424 8.42725 39.2682 8.22015 39.276 8.0156H39.2757L39.276 8.00439V7.99506V2.20504C39.276 1.78439 39.6171 1.44336 40.0377 1.44336L40.0377 1.44336ZM44.381 2.96673H40.7994V7.73008L44.8337 11.7643L48.3492 8.24876V6.93486C48.3492 5.84444 47.9025 4.85253 47.183 4.13298C46.4634 3.4134 45.4715 2.96674 44.381 2.96674V2.96673ZM15.524 43.203H36.7588C38.2697 43.203 39.6428 43.8206 40.6378 44.8156C41.6327 45.8105 42.2503 47.1836 42.2503 48.6945V48.7931C42.2503 49.2138 41.9093 49.5548 41.4886 49.5548H10.7941C10.3735 49.5548 10.0324 49.2138 10.0324 48.7931V48.6945C10.0324 47.1836 10.6501 45.8105 11.645 44.8156C12.64 43.8206 14.013 43.203 15.524 43.203H15.524ZM36.7588 44.7264H15.524C14.4336 44.7264 13.4416 45.1731 12.7221 45.8927C12.1515 46.4632 11.7526 47.2051 11.6118 48.0314H40.671C40.5302 47.2051 40.1312 46.4632 39.5607 45.8927C38.8411 45.1731 37.8492 44.7264 36.7588 44.7264H36.7588Z" fill="#8f8f8f"/>
<path d="M33.6179 38.2997L35.1461 43.2888H33.5264L32.0733 38.5449H30.6437L31.1341 43.2888H29.6054L29.0896 38.2997H33.6179H33.6179ZM34.6371 45.1436C34.626 45.1439 34.615 45.1439 34.604 45.1436H34.6371ZM17.1358 43.2888L18.664 38.2997H23.1923L22.6765 43.2888H21.1478L21.6382 38.5449H20.2086L18.7555 43.2888H17.1358H17.1358ZM32.8775 18.8456C33.6611 18.847 34.2844 19.3581 34.9077 19.869C35.9826 20.7503 35.9629 20.7519 37.0311 19.869C37.6502 19.3573 38.2694 18.8455 39.055 18.8455C39.267 18.8455 39.4587 18.9322 39.5968 19.0719C40.9845 20.4597 42.3732 21.8464 43.763 23.2321C44.0604 23.5295 44.0604 24.0118 43.763 24.3093L41.8076 26.2646C41.5816 26.4906 41.2489 26.5448 40.9717 26.4274L40.0706 26.1098V31.6037C40.0706 32.0244 39.7295 32.3654 39.3089 32.3654H32.6203C32.1997 32.3654 31.8587 32.0244 31.8587 31.6037V26.1098L30.9133 26.4444C30.6214 26.5473 30.3088 26.4617 30.1083 26.2512L28.1663 24.3092C28.1663 24.3092 27.8408 23.5089 28.2091 23.1924L32.336 19.0682C32.4782 18.9263 32.6761 18.8431 32.8776 18.8456L32.8775 18.8456ZM33.9437 21.0413C33.6475 20.7985 33.3512 20.5556 33.1156 20.4395L29.7808 23.7696L30.8605 24.8493L32.3223 24.3341C32.4139 24.2952 32.5146 24.2736 32.6203 24.2736C33.041 24.2736 33.382 24.6146 33.382 25.0353V30.842H38.5472V25.0507C38.5298 24.2093 39.5791 24.2144 39.5618 24.3182L41.0687 24.8493L42.1473 23.7707C41.037 22.6604 39.9247 21.5521 38.8136 20.4427C38.5834 20.56 38.2922 20.8007 38.001 21.0413C36.3535 22.4031 35.5937 22.394 33.9437 21.0413L33.9437 21.0413ZM7.77242 24.447C7.35178 24.447 7.01074 24.788 7.01074 25.2087C7.01074 25.6293 7.35178 25.9703 7.77242 25.9703H12.0331C12.4537 25.9703 12.7948 25.6293 12.7948 25.2087C12.7948 24.788 12.4537 24.447 12.0331 24.447H7.77242ZM7.77242 27.6445C7.35178 27.6445 7.01074 27.9855 7.01074 28.4062C7.01074 28.8268 7.35178 29.1679 7.77242 29.1679H19.1738C19.5945 29.1679 19.9355 28.8268 19.9355 28.4062C19.9355 27.9855 19.5945 27.6445 19.1738 27.6445H7.77242ZM7.77242 30.842C7.35178 30.842 7.01074 31.183 7.01074 31.6036C7.01074 32.0243 7.35178 32.3653 7.77242 32.3653H19.1738C19.5945 32.3653 19.9355 32.0243 19.9355 31.6036C19.9355 31.183 19.5945 30.842 19.1738 30.842H7.77242ZM21.3138 15.802C21.313 15.5766 21.2143 15.3743 21.0581 15.2353V15.1794H20.9872C20.8638 15.0934 20.7139 15.043 20.5521 15.043C20.3904 15.043 20.2405 15.0934 20.1171 15.1794H20.0514V15.2307C19.8929 15.3692 19.7922 15.5722 19.7905 15.7988C19.1132 15.8969 18.5613 16.1414 18.1331 16.5351C17.6534 16.9782 17.4137 17.5249 17.4137 18.1753C17.4137 18.8176 17.6273 19.3644 18.0499 19.8156C18.4332 20.2225 19.0134 20.5352 19.7905 20.7567V23.1842C19.64 23.0887 19.4996 22.9672 19.37 22.8197C19.1658 22.59 19.0257 22.3156 18.9521 21.9985L17.1359 22.1652C17.2759 22.9478 17.5941 23.5535 18.095 23.9803C18.5405 24.3617 19.1063 24.6064 19.7905 24.7145V25.2087C19.7905 25.4376 19.8915 25.643 20.0514 25.7826V25.834H20.1171C20.2405 25.9199 20.3904 25.9704 20.5521 25.9704C20.7139 25.9704 20.8638 25.9199 20.9871 25.834H21.0581V25.778C21.2149 25.6385 21.3138 25.4351 21.3138 25.2087V24.6826C22.0971 24.5486 22.7191 24.26 23.1783 23.8136C23.684 23.3217 23.938 22.7161 23.938 21.9985C23.938 21.3542 23.7362 20.8278 23.3326 20.4173C22.9629 20.0389 22.2887 19.7245 21.3138 19.4754V17.2075C21.616 17.3891 21.8089 17.666 21.8938 18.0392L23.6531 17.842C23.532 17.2465 23.2542 16.7709 22.8198 16.4152C22.4346 16.1016 21.9331 15.8986 21.3138 15.802L21.3138 15.802ZM19.7905 17.1682V19.0134C19.6161 18.9218 19.4775 18.8138 19.3748 18.6896C19.2276 18.5107 19.1539 18.3135 19.1539 18.1042C19.1539 17.8745 19.2347 17.6631 19.3961 17.4721C19.5042 17.3474 19.635 17.2457 19.7905 17.1682V17.1682ZM21.3138 23.3443V21.1547C21.6013 21.25 21.8172 21.3738 21.9603 21.5249C22.1431 21.7181 22.2357 21.9457 22.2357 22.212C22.2357 22.5107 22.1265 22.7689 21.908 22.9904C21.7457 23.1536 21.548 23.2718 21.3138 23.3443V23.3443Z" fill="#8f8f8f"/>
</g>
<defs>
<clipPath id="clip0_12982_8857">
<rect width="51" height="51" fill="white"/>
</clipPath>
</defs>
</svg>
