<svg width="16" height="17" viewBox="0 0 16 17" fill="none" xmlns="http://www.w3.org/2000/svg">
<path d="M8 15.5C4.14 15.5 1 12.36 1 8.5C1 4.64 4.14 1.5 8 1.5C11.86 1.5 15 4.64 15 8.5C15 12.36 11.86 15.5 8 15.5ZM8 2.5C4.69 2.5 2 5.19 2 8.5C2 11.81 4.69 14.5 8 14.5C11.31 14.5 14 11.81 14 8.5C14 5.19 11.31 2.5 8 2.5Z" fill="#4D4D4D"/>
<path d="M10 11C9.91003 11 9.82003 10.98 9.74003 10.93L7.24003 9.43C7.16598 9.3855 7.10487 9.3224 7.06277 9.24696C7.02066 9.17153 6.99904 9.08638 7.00003 9V5C7.00003 4.72 7.22003 4.5 7.50003 4.5C7.78003 4.5 8.00003 4.72 8.00003 5V8.72L10.26 10.07C10.3531 10.1271 10.4251 10.2129 10.465 10.3145C10.5049 10.4162 10.5106 10.528 10.4812 10.6332C10.4518 10.7383 10.3889 10.831 10.3021 10.8972C10.2152 10.9634 10.1092 10.9995 10 11Z" fill="#BCBCBC"/>
</svg>
