<svg width="14" height="10" viewBox="0 0 14 10" fill="none" xmlns="http://www.w3.org/2000/svg">
<path d="M7 6C7.55228 6 8 5.55228 8 5C8 4.44772 7.55228 4 7 4C6.44772 4 6 4.44772 6 5C6 5.55228 6.44772 6 7 6Z" fill="black"/>
<path d="M13.5799 4.66674C13.1532 3.92674 10.8065 0.21341 6.81988 0.33341C3.13322 0.426744 0.999883 3.66674 0.419883 4.66674C0.361371 4.76809 0.330566 4.88305 0.330566 5.00008C0.330566 5.1171 0.361371 5.23206 0.419883 5.33341C0.839883 6.06008 3.08655 9.66674 7.01322 9.66674H7.17988C10.8666 9.57341 13.0066 6.33341 13.5799 5.33341C13.6384 5.23206 13.6692 5.1171 13.6692 5.00008C13.6692 4.88305 13.6384 4.76809 13.5799 4.66674ZM6.99988 7.33341C6.53839 7.33341 6.08727 7.19656 5.70355 6.94017C5.31984 6.68378 5.02077 6.31937 4.84416 5.893C4.66756 5.46664 4.62135 4.99749 4.71138 4.54487C4.80142 4.09224 5.02364 3.67648 5.34997 3.35016C5.67629 3.02384 6.09205 2.80161 6.54467 2.71158C6.99729 2.62155 7.46645 2.66775 7.89281 2.84436C8.31917 3.02096 8.68359 3.32003 8.93998 3.70375C9.19637 4.08746 9.33322 4.53859 9.33322 5.00008C9.33322 5.61892 9.08738 6.21241 8.6498 6.64999C8.21221 7.08758 7.61872 7.33341 6.99988 7.33341Z" fill="black"/>
</svg>
