<svg width="current" height="current" viewBox="0 0 13 14" fill="current" xmlns="http://www.w3.org/2000/svg">
<g id="fa-solid:font" clip-path="url(#clip0_1808_43353)">
<path id="Vector" d="M12.5357 11.375H11.8564L8.06348 1.46809C8.001 1.29509 7.88261 1.14487 7.72492 1.03851C7.56724 0.93214 7.37817 0.874964 7.18424 0.875H5.81576C5.62183 0.874964 5.43276 0.93214 5.27508 1.03851C5.11739 1.14487 4.999 1.29509 4.93652 1.46809L1.14359 11.375H0.464286C0.341149 11.375 0.223057 11.4211 0.135986 11.5031C0.0489157 11.5852 0 11.6965 0 11.8125L0 12.6875C0 12.8035 0.0489157 12.9148 0.135986 12.9969C0.223057 13.0789 0.341149 13.125 0.464286 13.125H4.17857C4.30171 13.125 4.4198 13.0789 4.50687 12.9969C4.59394 12.9148 4.64286 12.8035 4.64286 12.6875V11.8125C4.64286 11.6965 4.59394 11.5852 4.50687 11.5031C4.4198 11.4211 4.30171 11.375 4.17857 11.375H3.6104L4.28652 9.625H8.71348L9.3896 11.375H8.82143C8.69829 11.375 8.5802 11.4211 8.49313 11.5031C8.40606 11.5852 8.35714 11.6965 8.35714 11.8125V12.6875C8.35714 12.8035 8.40606 12.9148 8.49313 12.9969C8.5802 13.0789 8.69829 13.125 8.82143 13.125H12.5357C12.6588 13.125 12.7769 13.0789 12.864 12.9969C12.9511 12.9148 13 12.8035 13 12.6875V11.8125C13 11.6965 12.9511 11.5852 12.864 11.5031C12.7769 11.4211 12.6588 11.375 12.5357 11.375ZM5.13181 7.4375L6.5 3.89676L7.86819 7.4375H5.13181Z" fill="black"/>
</g>
<defs>
<clipPath id="clip0_1808_43353">
<rect width="13" height="14" fill="white"/>
</clipPath>
</defs>
</svg>
