<svg width="17" height="16" viewBox="0 0 17 16" fill="none" xmlns="http://www.w3.org/2000/svg">
<path d="M7.16602 3.49967V3.66634H9.83268V3.49967C9.83268 3.14605 9.69221 2.80691 9.44216 2.55687C9.19211 2.30682 8.85297 2.16634 8.49935 2.16634C8.14573 2.16634 7.80659 2.30682 7.55654 2.55687C7.30649 2.80691 7.16602 3.14605 7.16602 3.49967ZM6.33268 3.66634V3.49967C6.33268 2.92504 6.56096 2.37394 6.96728 1.96761C7.37361 1.56128 7.92471 1.33301 8.49935 1.33301C9.07399 1.33301 9.62508 1.56128 10.0314 1.96761C10.4377 2.37394 10.666 2.92504 10.666 3.49967V3.66634H14.416C14.5265 3.66634 14.6325 3.71024 14.7106 3.78838C14.7888 3.86652 14.8327 3.9725 14.8327 4.08301C14.8327 4.19351 14.7888 4.2995 14.7106 4.37764C14.6325 4.45578 14.5265 4.49967 14.416 4.49967H13.4437L12.777 12.4517C12.7264 13.0555 12.4507 13.6184 12.0046 14.0285C11.5586 14.4387 10.9747 14.6664 10.3687 14.6663H6.63002C6.02408 14.6663 5.44027 14.4386 4.99428 14.0284C4.54829 13.6182 4.27266 13.0555 4.22202 12.4517L3.55535 4.49967H2.58268C2.47218 4.49967 2.36619 4.45578 2.28805 4.37764C2.20991 4.2995 2.16602 4.19351 2.16602 4.08301C2.16602 3.9725 2.20991 3.86652 2.28805 3.78838C2.36619 3.71024 2.47218 3.66634 2.58268 3.66634H6.33268ZM7.66602 6.74967C7.66602 6.69496 7.65524 6.64078 7.6343 6.59022C7.61336 6.53967 7.58267 6.49374 7.54398 6.45505C7.50529 6.41636 7.45935 6.38566 7.4088 6.36472C7.35825 6.34378 7.30407 6.33301 7.24935 6.33301C7.19463 6.33301 7.14045 6.34378 7.0899 6.36472C7.03935 6.38566 6.99341 6.41636 6.95472 6.45505C6.91603 6.49374 6.88534 6.53967 6.8644 6.59022C6.84346 6.64078 6.83268 6.69496 6.83268 6.74967V11.583C6.83268 11.6377 6.84346 11.6919 6.8644 11.7425C6.88534 11.793 6.91603 11.8389 6.95472 11.8776C6.99341 11.9163 7.03935 11.947 7.0899 11.968C7.14045 11.9889 7.19463 11.9997 7.24935 11.9997C7.30407 11.9997 7.35825 11.9889 7.4088 11.968C7.45935 11.947 7.50529 11.9163 7.54398 11.8776C7.58267 11.8389 7.61336 11.793 7.6343 11.7425C7.65524 11.6919 7.66602 11.6377 7.66602 11.583V6.74967ZM9.74935 6.33301C9.51935 6.33301 9.33268 6.51967 9.33268 6.74967V11.583C9.33268 11.6935 9.37658 11.7995 9.45472 11.8776C9.53286 11.9558 9.63884 11.9997 9.74935 11.9997C9.85986 11.9997 9.96584 11.9558 10.044 11.8776C10.1221 11.7995 10.166 11.6935 10.166 11.583V6.74967C10.166 6.51967 9.97935 6.33301 9.74935 6.33301Z" fill="#EA0000"/>
</svg>
