<svg width="13" height="12" viewBox="0 0 13 12" fill="none" xmlns="http://www.w3.org/2000/svg">
<path d="M12.875 4.5H8.125C8.05625 4.5 8 4.55625 8 4.625V6.375C8 6.44375 8.05625 6.5 8.125 6.5H8.875C8.94375 6.5 9 6.44375 9 6.375V5.5H9.9375V10.5H9.21875C9.15 10.5 9.09375 10.5562 9.09375 10.625V11.375C9.09375 11.4438 9.15 11.5 9.21875 11.5H11.7812C11.85 11.5 11.9062 11.4438 11.9062 11.375V10.625C11.9062 10.5562 11.85 10.5 11.7812 10.5H11.0625V5.5H12V6.375C12 6.44375 12.0562 6.5 12.125 6.5H12.875C12.9438 6.5 13 6.44375 13 6.375V4.625C13 4.55625 12.9438 4.5 12.875 4.5ZM8.75 2.625V0.625C8.75 0.55625 8.69375 0.5 8.625 0.5H0.125C0.05625 0.5 0 0.55625 0 0.625V2.625C0 2.69375 0.05625 2.75 0.125 2.75H1C1.06875 2.75 1.125 2.69375 1.125 2.625V1.625H3.75V10.375H2.3125C2.24375 10.375 2.1875 10.4312 2.1875 10.5V11.375C2.1875 11.4438 2.24375 11.5 2.3125 11.5H6.4375C6.50625 11.5 6.5625 11.4438 6.5625 11.375V10.5C6.5625 10.4312 6.50625 10.375 6.4375 10.375H5V1.625H7.625V2.625C7.625 2.69375 7.68125 2.75 7.75 2.75H8.625C8.69375 2.75 8.75 2.69375 8.75 2.625Z" fill="#202020"/>
</svg>
