<svg width="24" height="24" viewBox="0 0 24 24" fill="none" xmlns="http://www.w3.org/2000/svg">
<mask id="mask0_689_2141" style="mask-type:alpha" maskUnits="userSpaceOnUse" x="0" y="0" width="24" height="24">
<rect width="24" height="24" fill="white"/>
</mask>
<g mask="url(#mask0_689_2141)">
<path d="M10.2524 5.88318L10.5308 10.0231L10.669 12.1039C10.6705 12.3179 10.704 12.5305 10.7687 12.7348C10.9356 13.1314 11.3372 13.3834 11.7741 13.3658L18.4313 12.9303C18.7196 12.9256 18.998 13.0334 19.2052 13.2301C19.3779 13.394 19.4894 13.6084 19.5246 13.839L19.5364 13.979C19.2609 17.7937 16.4592 20.9755 12.6524 21.7968C8.84555 22.6181 4.94186 20.8831 3.06071 17.5337C2.51839 16.5606 2.17965 15.4911 2.06438 14.3878C2.01623 14.0612 1.99503 13.7313 2.00098 13.4013C1.99503 9.31157 4.90747 5.7758 8.98433 4.92341C9.47501 4.847 9.95603 5.10676 10.1528 5.55437C10.2037 5.65803 10.2373 5.76905 10.2524 5.88318Z" fill="#202020"/>
<path opacity="0.6" d="M22.0025 9.8162L21.9955 9.84879L21.9753 9.89618L21.9781 10.0263C21.9677 10.1986 21.9011 10.3644 21.7865 10.4984C21.667 10.6379 21.5038 10.7329 21.3241 10.7698L21.2145 10.7848L13.5337 11.2825C13.2782 11.3077 13.0238 11.2253 12.8339 11.0559C12.6755 10.9146 12.5743 10.724 12.5457 10.5186L12.0302 2.84897C12.0212 2.82304 12.0212 2.79493 12.0302 2.76899C12.0372 2.55758 12.1303 2.35775 12.2886 2.21414C12.4468 2.07053 12.6572 1.99511 12.8725 2.00473C17.4324 2.12074 21.2648 5.3997 22.0025 9.8162Z" fill="#202020" fill-opacity="0.5"/>
</g>
</svg>
