<svg width="20" height="20" viewBox="0 0 20 20" fill="none" xmlns="http://www.w3.org/2000/svg">
<path d="M10 15.0002C10.2833 15.0002 10.521 14.9042 10.713 14.7122C10.9043 14.5209 11 14.2836 11 14.0002C11 13.7169 10.9043 13.4792 10.713 13.2872C10.521 13.0959 10.2833 13.0002 10 13.0002C9.71667 13.0002 9.47933 13.0959 9.288 13.2872C9.096 13.4792 9 13.7169 9 14.0002C9 14.2836 9.096 14.5209 9.288 14.7122C9.47933 14.9042 9.71667 15.0002 10 15.0002ZM10 11.0002C10.2833 11.0002 10.521 10.9042 10.713 10.7122C10.9043 10.5209 11 10.2836 11 10.0002V6.00024C11 5.71691 10.9043 5.47924 10.713 5.28724C10.521 5.09591 10.2833 5.00024 10 5.00024C9.71667 5.00024 9.47933 5.09591 9.288 5.28724C9.096 5.47924 9 5.71691 9 6.00024V10.0002C9 10.2836 9.096 10.5209 9.288 10.7122C9.47933 10.9042 9.71667 11.0002 10 11.0002ZM10 20.0002C8.61667 20.0002 7.31667 19.7376 6.1 19.2122C4.88333 18.6876 3.825 17.9752 2.925 17.0752C2.025 16.1752 1.31267 15.1169 0.788 13.9002C0.262667 12.6836 0 11.3836 0 10.0002C0 8.61691 0.262667 7.31691 0.788 6.10024C1.31267 4.88358 2.025 3.82524 2.925 2.92524C3.825 2.02524 4.88333 1.31258 6.1 0.787244C7.31667 0.262577 8.61667 0.000244141 10 0.000244141C11.3833 0.000244141 12.6833 0.262577 13.9 0.787244C15.1167 1.31258 16.175 2.02524 17.075 2.92524C17.975 3.82524 18.6873 4.88358 19.212 6.10024C19.7373 7.31691 20 8.61691 20 10.0002C20 11.3836 19.7373 12.6836 19.212 13.9002C18.6873 15.1169 17.975 16.1752 17.075 17.0752C16.175 17.9752 15.1167 18.6876 13.9 19.2122C12.6833 19.7376 11.3833 20.0002 10 20.0002ZM10 18.0002C12.2333 18.0002 14.125 17.2252 15.675 15.6752C17.225 14.1252 18 12.2336 18 10.0002C18 7.76691 17.225 5.87524 15.675 4.32524C14.125 2.77524 12.2333 2.00024 10 2.00024C7.76667 2.00024 5.875 2.77524 4.325 4.32524C2.775 5.87524 2 7.76691 2 10.0002C2 12.2336 2.775 14.1252 4.325 15.6752C5.875 17.2252 7.76667 18.0002 10 18.0002Z" fill="#D93025"/>
</svg>
