<svg width="48" height="43" viewBox="0 0 48 43" fill="none" xmlns="http://www.w3.org/2000/svg">
<path d="M1.54842 8.56204H1.39842V8.71204V39.4862C1.39842 40.4585 2.08302 41.2814 3.09685 41.2814H44.9033C45.9171 41.2814 46.6017 40.4585 46.6017 39.4862V8.71204V8.56204H46.4517H1.54842ZM16.8822 2.51849V2.66849V7.06675V7.21675H17.0322H46.4516H46.6016V7.06675V4.26035C46.6016 3.19013 45.9201 2.36849 45.0967 2.36849H17.0322V2.51834H16.8822V2.51849ZM15.634 2.51849V2.36849H15.484H2.90326C2.07988 2.36849 1.39842 3.19013 1.39842 4.26035V4.2605V7.06689V7.21689H1.54842H15.484H15.634V7.06689V2.51849ZM46.8249 41.8744L46.8249 41.8744C46.2427 42.3685 45.6019 42.6265 44.5161 42.6265H3.29029C1.61075 42.6265 0.15 41.3846 0.15 39.7765V3.74184L0.150147 3.74169V3.67959C0.150147 3.03283 0.492239 2.36874 1.04068 1.86258C1.58803 1.35741 2.32701 1.02305 3.09685 1.02305H44.9033C45.6759 1.02305 46.4148 1.3584 46.9614 1.86401C47.5092 2.37065 47.85 3.03477 47.85 3.67959V39.7764C47.85 40.6089 47.4303 41.3609 46.8249 41.8744Z" fill="#8F8F8F" stroke="white" stroke-width="0.3"/>
<path d="M12.3871 28.5949H12.2371V28.7449V36.4869V36.6369H12.3871H18.5806H18.7306V36.4869V28.7449V28.5949H18.5806H12.3871ZM10.8387 36.6369H10.9887V36.4869V27.9709C10.9887 27.9708 10.9887 27.9708 10.9887 27.9707C10.9887 27.77 11.0537 27.6169 11.1563 27.5143C11.259 27.4116 11.4122 27.3467 11.6129 27.3467H15.4838H15.6338V27.1967V19.4547V19.3047H15.4838H4.6451H4.4951V19.4547V36.4869V36.6369H4.6451H10.8387ZM16.8822 27.1967V27.3467H17.0322C17.3508 27.3467 17.6627 27.3352 17.9552 27.3244C18.0444 27.3212 18.1318 27.318 18.217 27.3152C18.585 27.3031 18.9113 27.2987 19.184 27.3266C19.4594 27.3548 19.658 27.4141 19.786 27.5119C19.904 27.6021 19.9789 27.7382 19.9789 27.9709V37.2611C19.9789 37.4619 19.9139 37.6151 19.8113 37.7177C19.7086 37.8204 19.5554 37.8853 19.3547 37.8853H3.87089C3.67015 37.8853 3.51694 37.8204 3.41429 37.7177C3.31163 37.615 3.24668 37.4618 3.24668 37.2611V18.6805C3.24668 18.4797 3.31166 18.3265 3.41433 18.2239C3.517 18.1212 3.67021 18.0563 3.87089 18.0563H16.258C16.4587 18.0563 16.6119 18.1212 16.7146 18.2239C16.8173 18.3266 16.8822 18.4798 16.8822 18.6805V27.1967Z" fill="#8F8F8F" stroke="white" stroke-width="0.3"/>
<path d="M4.4951 13.3575V13.5075H4.50513C4.54811 13.8381 4.72903 14.1742 5.00089 14.4371C5.31648 14.7424 5.76424 14.959 6.2904 14.959H35.5162C36.0841 14.959 36.6309 14.6984 36.966 14.27C37.3055 13.836 37.4215 13.2374 37.1353 12.5892L37.1353 12.5891C37.0365 12.3655 36.8331 12.1363 36.5997 11.9639C36.3673 11.7922 36.081 11.6591 35.8065 11.6591H5.99994C5.5834 11.6591 5.20612 11.8897 4.93814 12.2062C4.66973 12.5231 4.4951 12.9437 4.4951 13.3575ZM3.24668 13.3329L3.24683 13.333V12.9706C3.24683 11.6531 4.5861 10.3141 6.2904 10.3141H35.5162C36.4263 10.3141 37.1844 10.624 37.7148 11.1643C38.2453 11.7047 38.5597 12.4875 38.5597 13.4544C38.5597 14.8916 37.2437 16.2076 35.8065 16.2076H5.99994C4.56268 16.2076 3.24668 14.8916 3.24668 13.4544V13.3329Z" fill="#8F8F8F" stroke="white" stroke-width="0.3"/>
<path d="M23.075 36.4869V36.6369H23.225H31.5912V37.8853H22.451C22.2502 37.8853 22.097 37.8204 21.9944 37.7177C21.8917 37.615 21.8268 37.4618 21.8268 37.2611V18.6805C21.8268 18.4797 21.8917 18.3265 21.9944 18.2239C22.0971 18.1212 22.2503 18.0563 22.451 18.0563H44.1283C44.3291 18.0563 44.4823 18.1212 44.5849 18.2239C44.6876 18.3266 44.7525 18.4798 44.7525 18.6805V37.2611C44.7525 37.4619 44.6876 37.6151 44.5849 37.7177C44.4822 37.8204 44.329 37.8853 44.1283 37.8853H38.859V36.6369H43.3541H43.5041V36.4869V19.4547V19.3047H43.3541H23.225H23.075V19.4547V36.4869Z" fill="#8F8F8F" stroke="white" stroke-width="0.3"/>
<path d="M36.8292 36.1549L36.9557 36.1443C37.0349 36.1377 37.1805 36.0987 37.3755 36.0322C37.5655 35.9673 37.7883 35.8815 38.015 35.7902C38.2415 35.699 38.4702 35.6029 38.6719 35.5178C38.6989 35.5064 38.7256 35.4951 38.7517 35.4841C38.919 35.4135 39.0642 35.3521 39.1661 35.3114C39.1661 35.3114 39.1661 35.3114 39.1661 35.3114L39.2218 35.4506C39.4355 35.3651 39.6283 35.2937 39.801 35.2297C40.6683 34.9083 41.0328 34.7732 41.0328 33.9712C41.0328 33.4129 39.2953 33.075 38.1037 32.8432C37.8192 32.7879 37.5657 32.7386 37.3745 32.6938L36.8292 36.1549ZM36.8292 36.1549L36.8187 36.2814M36.8292 36.1549L36.8187 36.2814M35.3644 32.4001C35.9627 32.5276 36.7323 32.6975 37.3403 32.8399L35.5465 39.6009C35.468 39.7971 35.3961 39.9458 35.2933 40.0482C35.1983 40.1429 35.0658 40.2083 34.8391 40.2083C34.6625 40.2083 34.541 40.1617 34.4511 40.0912C34.3586 40.0188 34.2871 39.9113 34.2289 39.7699C34.1705 39.6279 34.1292 39.4611 34.0918 39.2784C34.0782 39.2117 34.0647 39.1413 34.0511 39.0697C34.0287 38.952 34.0056 38.8309 33.9798 38.7176C33.9571 38.6179 33.9243 38.4746 33.8836 38.2976C33.7342 37.6464 33.48 36.5384 33.2421 35.4596C33.0908 34.7735 32.9463 34.1003 32.8397 33.5647C32.7864 33.2968 32.7427 33.0643 32.7125 32.8823C32.6815 32.6957 32.6666 32.5738 32.6666 32.5196V32.5195C32.6666 32.3904 32.6961 32.3001 32.7393 32.2353C32.7826 32.1704 32.8471 32.1197 32.936 32.0824C33.1204 32.005 33.3895 31.9935 33.704 32.0275C34.0137 32.061 34.3456 32.1358 34.6431 32.212C34.7598 32.2419 34.8735 32.2727 34.9782 32.301C35.1333 32.343 35.2685 32.3797 35.3644 32.4001ZM35.3644 32.4001L35.3956 32.2534L35.3644 32.4001ZM36.8187 36.2814C36.8165 36.3068 36.8028 36.3675 36.7719 36.4682M36.8187 36.2814L36.7719 36.4682M36.7719 36.4682C36.7424 36.5643 36.701 36.6855 36.6507 36.825M36.7719 36.4682L36.6507 36.825M36.6507 36.825C36.5501 37.104 36.4157 37.4511 36.2735 37.8089M36.6507 36.825L36.2735 37.8089M36.2735 37.8089C36.0942 38.2601 35.9061 38.7195 35.7582 39.0809M36.2735 37.8089L35.7582 39.0809M35.7582 39.0809C35.6699 39.2966 35.5959 39.4775 35.5465 39.6009L35.7582 39.0809ZM34.3678 33.5314L34.183 33.516L34.2066 33.6999C34.242 33.9766 34.3017 34.2341 34.3657 34.492C34.377 34.5376 34.3884 34.5832 34.3999 34.6289C34.4536 34.8433 34.5081 35.0606 34.5547 35.2986L34.5547 35.2986C34.6622 35.8485 34.7656 36.2925 34.8818 36.7912L34.8866 36.8117L34.9532 37.0977L35.1459 36.8762C35.2561 36.7495 35.3347 36.5881 35.3984 36.4323C35.4307 36.3534 35.4603 36.2728 35.4885 36.1958C35.4905 36.1902 35.4926 36.1846 35.4946 36.1791C35.5208 36.1073 35.5458 36.0391 35.5715 35.9748L35.5715 35.9748C35.718 35.608 35.8632 35.3815 36.0039 35.2343C36.1423 35.0895 36.2827 35.0148 36.4333 34.9614C36.5045 34.9361 36.5832 34.9152 36.6675 34.8928C36.9279 34.8235 37.2415 34.7401 37.5504 34.4716L37.7721 34.2789L37.4861 34.2123C37.2066 34.1471 36.9346 34.0887 36.657 34.0291C36.4119 33.9764 36.1623 33.9228 35.8993 33.8628C35.77 33.8333 35.6295 33.7978 35.482 33.7605C35.3681 33.7318 35.2501 33.7019 35.1298 33.673C34.8608 33.6083 34.5873 33.5497 34.3678 33.5314Z" fill="#8F8F8F" stroke="white" stroke-width="0.3"/>
<path d="M41.6566 21.152V22.4002H24.9244V21.152H41.6566Z" fill="#8F8F8F" stroke="white" stroke-width="0.3"/>
<path d="M41.6566 24.2477V25.4961H24.9244V24.2477H41.6566Z" fill="#8F8F8F" stroke="white" stroke-width="0.3"/>
<path d="M41.6566 27.3453V28.5936H24.9244V27.3453H41.6566Z" fill="#8F8F8F" stroke="white" stroke-width="0.3"/>
<path d="M39.6335 12.2931V12.2732C39.6407 11.7854 39.91 11.2991 40.3226 10.9286C40.7403 10.5534 41.2865 10.3141 41.806 10.3141C42.3307 10.3141 42.8769 10.5479 43.2928 10.9192C43.7088 11.2906 43.9787 11.7849 43.9787 12.2931C43.9787 12.8101 43.9633 12.9372 43.9416 13.0146C43.9366 13.0325 43.9296 13.0513 43.9212 13.0742C43.8951 13.1452 43.8545 13.2555 43.8109 13.5015L43.7975 13.5771L43.8509 13.6322L45.2494 15.0741L44.301 15.9783L42.8782 14.6046L42.8293 14.5573L42.7615 14.563C42.573 14.5787 42.406 14.6266 42.2597 14.6686C42.2505 14.6713 42.2413 14.6739 42.2322 14.6765C42.0749 14.7215 41.9433 14.7561 41.8062 14.7561C40.6327 14.7561 39.6335 13.8431 39.6335 12.2931ZM41.8062 13.4108C42.0952 13.4108 42.3239 13.3046 42.4793 13.1354C42.6325 12.9687 42.7064 12.7498 42.7064 12.535C42.7064 12.3202 42.6325 12.1013 42.4793 11.9345C42.3239 11.7654 42.0952 11.6592 41.8062 11.6592C41.5171 11.6592 41.2885 11.7654 41.1331 11.9345C40.9799 12.1013 40.906 12.3202 40.906 12.535C40.906 12.7498 40.9799 12.9687 41.1331 13.1354C41.2885 13.3046 41.5171 13.4108 41.8062 13.4108Z" fill="#8F8F8F" stroke="white" stroke-width="0.3"/>
<path d="M30.818 30.443V31.6914H24.9244V30.443H30.818Z" fill="#8F8F8F" stroke="white" stroke-width="0.3"/>
<path d="M41.6568 30.443V31.6914H35.7633V30.443H41.6568Z" fill="#8F8F8F" stroke="white" stroke-width="0.3"/>
<path d="M13.7857 21.152V22.4002H10.9889V21.152H13.7857Z" fill="#8F8F8F" stroke="white" stroke-width="0.3"/>
<path d="M9.14006 21.152V22.4002H6.34336V21.152H9.14006Z" fill="#8F8F8F" stroke="white" stroke-width="0.3"/>
<path d="M9.14006 24.2477V25.4961H6.34336V24.2477H9.14006Z" fill="#8F8F8F" stroke="white" stroke-width="0.3"/>
<path d="M13.7857 24.2477V25.4961H10.9889V24.2477H13.7857Z" fill="#8F8F8F" stroke="white" stroke-width="0.3"/>
<path d="M9.14006 27.3453V28.5936H6.34336V27.3453H9.14006Z" fill="#8F8F8F" stroke="white" stroke-width="0.3"/>
<path d="M9.14006 30.443V31.6914H6.34336V30.443H9.14006Z" fill="#8F8F8F" stroke="white" stroke-width="0.3"/>
<path d="M16.8823 30.443V31.6914H14.0855V30.443H16.8823Z" fill="#8F8F8F" stroke="white" stroke-width="0.3"/>
<path d="M9.14006 33.5387V34.787H6.34336V33.5387H9.14006Z" fill="#8F8F8F" stroke="white" stroke-width="0.3"/>
<path d="M16.8823 33.5387V34.787H14.0855V33.5387H16.8823Z" fill="#8F8F8F" stroke="white" stroke-width="0.3"/>
<path d="M4.4951 4.1207V5.466H3.24668V4.1207H4.4951Z" fill="#8F8F8F" stroke="white" stroke-width="0.3"/>
<path d="M7.59178 4.1207V5.466H6.34336V4.1207H7.59178Z" fill="#8F8F8F" stroke="white" stroke-width="0.3"/>
<path d="M10.6894 4.1207V5.466H9.44102V4.1207H10.6894Z" fill="#8F8F8F" stroke="white" stroke-width="0.3"/>
<path d="M13.7851 4.1207V5.466H12.5367V4.1207H13.7851Z" fill="#8F8F8F" stroke="white" stroke-width="0.3"/>
</svg>
