<svg width="14" height="13" viewBox="0 0 15 14" fill="none" xmlns="http://www.w3.org/2000/svg">
<path d="M11.6667 6.3335H6.33333V7.66683H11.6667V9.66683L15 7.00016L11.6667 4.3335V6.3335ZM12.3333 11.0002H10.528C9.75821 11.6791 8.80888 12.1214 7.79392 12.2741C6.77895 12.4268 5.74148 12.2835 4.806 11.8612C3.87051 11.4389 3.07675 10.7556 2.51995 9.89337C1.96316 9.03114 1.667 8.02655 1.667 7.00016C1.667 5.97378 1.96316 4.96919 2.51995 4.10695C3.07675 3.24472 3.87051 2.56146 4.806 2.13916C5.74148 1.71687 6.77895 1.57348 7.79392 1.7262C8.80888 1.87893 9.75821 2.32127 10.528 3.00016H12.3333C11.7129 2.17161 10.9078 1.49917 9.98195 1.03626C9.05613 0.573346 8.0351 0.33272 7 0.333498C3.318 0.333498 0.333333 3.31816 0.333333 7.00016C0.333333 10.6822 3.318 13.6668 7 13.6668C8.0351 13.6676 9.05613 13.427 9.98195 12.9641C10.9078 12.5012 11.7129 11.8287 12.3333 11.0002Z" fill="#202020" fill-opacity="0.6"/>
</svg>
