<svg width="14" height="4" viewBox="0 0 14 4" fill="none" xmlns="http://www.w3.org/2000/svg">
<path d="M10.333 2.00016C10.333 1.55814 10.5086 1.13421 10.8212 0.821652C11.1337 0.509091 11.5576 0.333496 11.9997 0.333496C12.4417 0.333496 12.8656 0.509091 13.1782 0.821652C13.4907 1.13421 13.6663 1.55814 13.6663 2.00016C13.6663 2.44219 13.4907 2.86611 13.1782 3.17867C12.8656 3.49123 12.4417 3.66683 11.9997 3.66683C11.5576 3.66683 11.1337 3.49123 10.8212 3.17867C10.5086 2.86611 10.333 2.44219 10.333 2.00016ZM5.33301 2.00016C5.33301 1.55814 5.5086 1.13421 5.82116 0.821652C6.13372 0.509091 6.55765 0.333496 6.99967 0.333496C7.4417 0.333496 7.86562 0.509091 8.17818 0.821652C8.49075 1.13421 8.66634 1.55814 8.66634 2.00016C8.66634 2.44219 8.49075 2.86611 8.17818 3.17867C7.86562 3.49123 7.4417 3.66683 6.99967 3.66683C6.55765 3.66683 6.13372 3.49123 5.82116 3.17867C5.5086 2.86611 5.33301 2.44219 5.33301 2.00016ZM0.333008 2.00016C0.333008 1.55814 0.508602 1.13421 0.821163 0.821652C1.13372 0.509091 1.55765 0.333496 1.99967 0.333496C2.4417 0.333496 2.86562 0.509091 3.17819 0.821652C3.49075 1.13421 3.66634 1.55814 3.66634 2.00016C3.66634 2.44219 3.49075 2.86611 3.17819 3.17867C2.86562 3.49123 2.4417 3.66683 1.99967 3.66683C1.55765 3.66683 1.13372 3.49123 0.821163 3.17867C0.508602 2.86611 0.333008 2.44219 0.333008 2.00016Z" fill="#202020" fill-opacity="0.6"/>
</svg>
