<svg width="8" height="10" viewBox="0 0 8 10" fill="none" xmlns="http://www.w3.org/2000/svg">
<path d="M0.666016 9.66683V8.3335H1.99935V9.66683H0.666016ZM3.33268 9.66683V8.3335H4.66602V9.66683H3.33268ZM5.99935 9.66683V8.3335H7.33268V9.66683H5.99935ZM0.666016 7.00016V5.66683H1.99935V7.00016H0.666016ZM3.33268 7.00016V5.66683H4.66602V7.00016H3.33268ZM5.99935 7.00016V5.66683H7.33268V7.00016H5.99935ZM0.666016 4.3335V3.00016H1.99935V4.3335H0.666016ZM3.33268 4.3335V3.00016H4.66602V4.3335H3.33268ZM5.99935 4.3335V3.00016H7.33268V4.3335H5.99935ZM0.666016 1.66683V0.333496H1.99935V1.66683H0.666016ZM3.33268 1.66683V0.333496H4.66602V1.66683H3.33268ZM5.99935 1.66683V0.333496H7.33268V1.66683H5.99935Z" fill="#202020" fill-opacity="0.3"/>
</svg>
