<svg width="24" height="24" viewBox="0 0 24 24" fill="none" xmlns="http://www.w3.org/2000/svg">
<rect x="3.5" y="9.5" width="17" height="5" rx="1.5" stroke="white"/>
<path d="M10.5 4.25H10.25V4.5V6V6.25H10.5H12C13.1129 6.25 14 7.13707 14 8.25V11H12H11.75V11.25V12.75V13H12H14V17.25C14 18.3629 13.1129 19.25 12 19.25H10.5H10.25V19.5V21V21.25H10.5H12C13.1957 21.25 14.2678 20.7066 15 19.8729C15.7322 20.7066 16.8043 21.25 18 21.25H19.5H19.75V21V19.5V19.25H19.5H18C16.8871 19.25 16 18.3629 16 17.25V13H18H18.25V12.75V11.25V11H18H16V8.25C16 7.13707 16.8871 6.25 18 6.25H19.5H19.75V6V4.5V4.25H19.5H18C16.8043 4.25 15.7322 4.79343 15 5.62706C14.2678 4.79343 13.1957 4.25 12 4.25H10.5Z" fill="white" stroke="#3758F9" stroke-width="0.5"/>
</svg>
