<svg width="24" height="24" viewBox="0 0 24 24" fill="none" xmlns="http://www.w3.org/2000/svg">
<rect x="3.5" y="7.50073" width="17" height="9" rx="1.5" stroke="#4D4D4D"/>
<path d="M10.5 3.50073H10.25V3.75073V5.25073V5.50073H10.5H12C13.1129 5.50073 14 6.3878 14 7.50073V10.2507H12H11.75V10.5007V12.0007V12.2507H12H14V16.5007C14 17.6137 13.1129 18.5007 12 18.5007H10.5H10.25V18.7507V20.2507V20.5007H10.5H12C13.1957 20.5007 14.2678 19.9573 15 19.1237C15.7322 19.9573 16.8043 20.5007 18 20.5007H19.5H19.75V20.2507V18.7507V18.5007H19.5H18C16.8871 18.5007 16 17.6137 16 16.5007V12.2507H18H18.25V12.0007V10.5007V10.2507H18H16V7.50073C16 6.3878 16.8871 5.50073 18 5.50073H19.5H19.75V5.25073V3.75073V3.50073H19.5H18C16.8043 3.50073 15.7322 4.04416 15 4.87779C14.2678 4.04416 13.1957 3.50073 12 3.50073H10.5Z" fill="#BCBCBC" stroke="white" stroke-width="0.5"/>
</svg>
