<svg width="14" height="14" viewBox="0 0 14 14" fill="none" xmlns="http://www.w3.org/2000/svg">
<path d="M9.19322 11.08L8.33322 10.1867L8.28655 10.14L7.43988 9.29338C7.30553 9.31691 7.16958 9.33028 7.03322 9.33337C6.72401 9.33779 6.417 9.2807 6.13005 9.16542C5.8431 9.05014 5.58192 8.87897 5.36171 8.66186C5.1415 8.44474 4.96664 8.18603 4.8473 7.90074C4.72796 7.61545 4.66652 7.30928 4.66655 7.00004C4.66964 6.86367 4.68301 6.72773 4.70655 6.59338L3.37322 5.26004L2.33322 4.24671C1.58077 4.95569 0.936155 5.771 0.419883 6.66671C0.361371 6.76805 0.330566 6.88302 0.330566 7.00004C0.330566 7.11707 0.361371 7.23203 0.419883 7.33337C0.839883 8.06004 3.08655 11.6667 7.01322 11.6667H7.17988C7.91825 11.6448 8.64706 11.4936 9.33322 11.22L9.19322 11.08ZM4.72655 2.84004L6.59322 4.70671C6.72757 4.68317 6.86351 4.6698 6.99988 4.66671C7.61872 4.66671 8.21221 4.91254 8.6498 5.35013C9.08738 5.78771 9.33322 6.3812 9.33322 7.00004C9.33012 7.13641 9.31675 7.27235 9.29322 7.40671L11.0799 9.19338L11.6399 9.75337C12.4018 9.04626 13.0555 8.23085 13.5799 7.33337C13.6384 7.23203 13.6692 7.11707 13.6692 7.00004C13.6692 6.88302 13.6384 6.76805 13.5799 6.66671C13.1532 5.92671 10.8066 2.21338 6.81988 2.33338C6.08152 2.35528 5.35271 2.50646 4.66655 2.78004L4.72655 2.84004ZM12.8065 11.86L11.9399 11L10.6066 9.66671L4.25988 3.31338L3.27988 2.33338L2.13988 1.19338C2.07772 1.13122 2.00393 1.08191 1.92272 1.04827C1.8415 1.01463 1.75446 0.997314 1.66655 0.997314C1.57864 0.997314 1.4916 1.01463 1.41038 1.04827C1.32917 1.08191 1.25538 1.13122 1.19322 1.19338C1.06768 1.31891 0.997155 1.48917 0.997155 1.66671C0.997155 1.84424 1.06768 2.01451 1.19322 2.14004L2.68655 3.66671L3.85322 4.80004L8.72655 9.66671L8.77322 9.71337L9.66655 10.6067L10.0599 11L11.8599 12.8067C11.9219 12.8692 11.9956 12.9188 12.0768 12.9526C12.1581 12.9865 12.2452 13.0039 12.3332 13.0039C12.4212 13.0039 12.5084 12.9865 12.5896 12.9526C12.6708 12.9188 12.7446 12.8692 12.8065 12.8067C12.869 12.7447 12.9186 12.671 12.9525 12.5898C12.9863 12.5085 13.0037 12.4214 13.0037 12.3334C13.0037 12.2454 12.9863 12.1582 12.9525 12.077C12.9186 11.9958 12.869 11.922 12.8065 11.86Z" fill="black"/>
</svg>
