<svg width="20" height="20" viewBox="0 0 20 20" fill="none" xmlns="http://www.w3.org/2000/svg">
<path fill-rule="evenodd" clip-rule="evenodd" d="M2.5 1.75C2.08579 1.75 1.75 2.08579 1.75 2.5V17.5C1.75 17.9142 2.08579 18.25 2.5 18.25H17.5C17.9142 18.25 18.25 17.9142 18.25 17.5V2.5C18.25 2.08579 17.9142 1.75 17.5 1.75H2.5ZM0.25 2.5C0.25 1.25736 1.25736 0.25 2.5 0.25H17.5C18.7426 0.25 19.75 1.25736 19.75 2.5V17.5C19.75 18.7426 18.7426 19.75 17.5 19.75H2.5C1.25736 19.75 0.25 18.7426 0.25 17.5V2.5Z" fill="white"/>
<path fill-rule="evenodd" clip-rule="evenodd" d="M3.75 4.5C3.75 4.08579 4.08579 3.75 4.5 3.75H8.5C8.91421 3.75 9.25 4.08579 9.25 4.5V8.5C9.25 8.91421 8.91421 9.25 8.5 9.25H4.5C4.08579 9.25 3.75 8.91421 3.75 8.5V4.5ZM5.25 5.25V7.75H7.75V5.25H5.25Z" fill="white"/>
<path fill-rule="evenodd" clip-rule="evenodd" d="M10.75 4.5C10.75 4.08579 11.0858 3.75 11.5 3.75H15.5C15.9142 3.75 16.25 4.08579 16.25 4.5C16.25 4.91421 15.9142 5.25 15.5 5.25H11.5C11.0858 5.25 10.75 4.91421 10.75 4.5Z" fill="white"/>
<path fill-rule="evenodd" clip-rule="evenodd" d="M10.75 8C10.75 7.58579 11.0858 7.25 11.5 7.25H15.5C15.9142 7.25 16.25 7.58579 16.25 8C16.25 8.41421 15.9142 8.75 15.5 8.75H11.5C11.0858 8.75 10.75 8.41421 10.75 8Z" fill="white"/>
<path fill-rule="evenodd" clip-rule="evenodd" d="M3.75 12C3.75 11.5858 4.08579 11.25 4.5 11.25H15.5C15.9142 11.25 16.25 11.5858 16.25 12C16.25 12.4142 15.9142 12.75 15.5 12.75H4.5C4.08579 12.75 3.75 12.4142 3.75 12Z" fill="white"/>
<path fill-rule="evenodd" clip-rule="evenodd" d="M3.75 15.5C3.75 15.0858 4.08579 14.75 4.5 14.75H15.5C15.9142 14.75 16.25 15.0858 16.25 15.5C16.25 15.9142 15.9142 16.25 15.5 16.25H4.5C4.08579 16.25 3.75 15.9142 3.75 15.5Z" fill="white"/>
</svg>
