<svg width="16" height="12" viewBox="0 0 16 12" fill="none" xmlns="http://www.w3.org/2000/svg">
<path d="M7.99935 3.99438C7.46736 3.99438 6.95716 4.20572 6.58099 4.58189C6.20482 4.95806 5.99349 5.46826 5.99349 6.00024C5.99349 6.53223 6.20482 7.04243 6.58099 7.4186C6.95716 7.79477 7.46736 8.0061 7.99935 8.0061C8.53134 8.0061 9.04153 7.79477 9.41771 7.4186C9.79388 7.04243 10.0052 6.53223 10.0052 6.00024C10.0052 5.46826 9.79388 4.95806 9.41771 4.58189C9.04153 4.20572 8.53134 3.99438 7.99935 3.99438ZM7.99935 9.34334C7.1127 9.34334 6.26237 8.99113 5.63542 8.36417C5.00847 7.73722 4.65625 6.88689 4.65625 6.00024C4.65625 5.1136 5.00847 4.26327 5.63542 3.63632C6.26237 3.00936 7.1127 2.65715 7.99935 2.65715C8.88599 2.65715 9.73632 3.00936 10.3633 3.63632C10.9902 4.26327 11.3424 5.1136 11.3424 6.00024C11.3424 6.88689 10.9902 7.73722 10.3633 8.36417C9.73632 8.99113 8.88599 9.34334 7.99935 9.34334ZM7.99935 0.985596C4.65625 0.985596 1.80124 3.065 0.644531 6.00024C1.80124 8.93549 4.65625 11.0149 7.99935 11.0149C11.3424 11.0149 14.1975 8.93549 15.3542 6.00024C14.1975 3.065 11.3424 0.985596 7.99935 0.985596Z" fill="current" fill-opacity="0.4"/>
</svg>
