<svg width="16" height="14" viewBox="0 0 16 14" fill="none" xmlns="http://www.w3.org/2000/svg">
<path d="M7.88838 4.91613L9.97496 7.0235V6.9168C9.97496 6.38619 9.76692 5.87731 9.39659 5.50211C9.02627 5.12691 8.524 4.91613 8.00028 4.91613H7.88838ZM5.058 5.44964L6.07825 6.48332C6.04534 6.62337 6.02559 6.76341 6.02559 6.9168C6.02559 7.44741 6.23364 7.95629 6.60396 8.33149C6.97429 8.70668 7.47656 8.91747 8.00028 8.91747C8.14509 8.91747 8.2899 8.89746 8.42813 8.86412L9.44838 9.89779C9.00737 10.1179 8.52028 10.2512 8.00028 10.2512C7.12741 10.2512 6.2903 9.89994 5.67309 9.27461C5.05588 8.64928 4.70914 7.80115 4.70914 6.9168C4.70914 6.38996 4.84078 5.89646 5.058 5.44964ZM1.41799 1.76174L2.91876 3.28225L3.21496 3.58235C2.12888 4.44931 1.27318 5.58302 0.759766 6.9168C1.8985 9.84444 4.70914 11.9185 8.00028 11.9185C9.02053 11.9185 9.99471 11.7184 10.8833 11.3583L11.1664 11.6384L13.0884 13.5857L13.9243 12.7387L2.25394 0.914795M8.00028 3.58235C8.87314 3.58235 9.71026 3.93366 10.3275 4.55899C10.9447 5.18432 11.2914 6.03245 11.2914 6.9168C11.2914 7.34361 11.2059 7.75708 11.0545 8.13054L12.9831 10.0845C13.9704 9.25091 14.7603 8.15721 15.2408 6.9168C14.1021 3.98916 11.2914 1.91513 8.00028 1.91513C7.07876 1.91513 6.19673 2.08185 5.36736 2.38195L6.79572 3.81576C7.17091 3.66905 7.57243 3.58235 8.00028 3.58235Z" fill="current" fill-opacity="0.4"/>
</svg>
