<svg width="14" height="17" viewBox="0 0 14 17" fill="none" xmlns="http://www.w3.org/2000/svg">
<path d="M6.99956 3.33333C8.74956 3.33333 10.4162 4 11.6662 5.25C14.2496 7.83333 14.2496 12.0833 11.6662 14.6667C10.1662 16.25 8.08289 16.8333 6.08289 16.5833L6.49956 14.9167C7.91622 15.0833 9.41622 14.5833 10.4996 13.5C12.4162 11.5833 12.4162 8.41667 10.4996 6.41667C9.58289 5.5 8.24956 5 6.99956 5V8.83333L2.83289 4.66667L6.99956 0.5V3.33333ZM2.24956 14.6667C0.0828897 12.5 -0.250444 9.16667 1.24956 6.58333L2.49956 7.83333C1.58289 9.66667 1.91622 12 3.49956 13.5C3.91622 13.9167 4.41622 14.25 4.99956 14.5L4.49956 16.1667C3.66622 15.8333 2.91622 15.3333 2.24956 14.6667Z" fill="#9DACBA"/>
</svg>
