<svg width="16" height="16" viewBox="0 0 16 16" fill="none" xmlns="http://www.w3.org/2000/svg">
<path d="M5.8565 15.5005C4.61602 15.1152 3.49257 14.4023 2.5955 13.4312C2.88413 13.0751 3.06405 12.6374 3.11225 12.1743C3.16044 11.7111 3.07472 11.2436 2.86604 10.8314C2.65737 10.4193 2.33523 10.0812 1.94086 9.86063C1.54649 9.64002 1.09781 9.54684 0.652251 9.59303C0.550745 9.07575 0.499736 8.54912 0.500001 8.02117C0.500001 7.20578 0.620001 6.41926 0.843501 5.68034C1.22591 5.68047 1.63354 5.57919 1.96788 5.38608C2.30221 5.19297 2.58372 4.91438 2.78582 4.57664C2.98793 4.2389 3.10395 3.85313 3.12295 3.45578C3.14194 3.05843 3.06327 2.66259 2.89438 2.30565C3.7736 1.45391 4.8369 0.834768 5.9945 0.500488C6.18289 0.885321 6.46994 1.20843 6.82389 1.43407C7.17784 1.65971 7.58489 1.77907 8 1.77897C8.41511 1.77907 8.82216 1.65971 9.17611 1.43407C9.53006 1.20843 9.81711 0.885321 10.0055 0.500488C11.1631 0.834768 12.2264 1.45391 13.1056 2.30565C12.9355 2.66509 12.8569 3.06394 12.8773 3.46403C12.8978 3.86412 13.0166 4.25205 13.2224 4.5907C13.4282 4.92934 13.7141 5.20736 14.0527 5.39815C14.3914 5.58894 14.7714 5.6861 15.1565 5.68034C15.3849 6.43788 15.5007 7.22725 15.5 8.02117C15.5 8.55955 15.4475 9.08546 15.3477 9.59342C14.9022 9.54724 14.4535 9.64041 14.0591 9.86102C13.6648 10.0816 13.3426 10.4196 13.134 10.8318C12.9253 11.244 12.8396 11.7115 12.8878 12.1747C12.9359 12.6378 13.1159 13.0754 13.4045 13.4316C12.5074 14.4025 11.3839 15.1153 10.1435 15.5005C9.99783 15.0281 9.71176 14.6161 9.32653 14.3238C8.94131 14.0315 8.47681 13.874 8 13.874C7.52319 13.874 7.05869 14.0315 6.67346 14.3238C6.28823 14.6161 6.00217 15.0281 5.8565 15.5005Z" stroke="current" stroke-opacity="0.3" stroke-linejoin="round"/>
<path d="M8 10.5005C8.3283 10.5005 8.65339 10.4358 8.95671 10.3102C9.26002 10.1846 9.53562 10.0004 9.76777 9.76826C9.99991 9.53611 10.1841 9.26051 10.3097 8.9572C10.4353 8.65388 10.5 8.32879 10.5 8.00049C10.5 7.67218 10.4353 7.34709 10.3097 7.04378C10.1841 6.74047 9.99991 6.46487 9.76777 6.23272C9.53562 6.00058 9.26002 5.81643 8.95671 5.69079C8.65339 5.56515 8.3283 5.50049 8 5.50049C7.33696 5.50049 6.70107 5.76388 6.23223 6.23272C5.76339 6.70156 5.5 7.33745 5.5 8.00049C5.5 8.66353 5.76339 9.29941 6.23223 9.76826C6.70107 10.2371 7.33696 10.5005 8 10.5005V10.5005Z" stroke="current" stroke-opacity="0.3" stroke-linejoin="round"/>
</svg>
