<svg width="24" height="24" viewBox="0 0 24 24" fill="none" xmlns="http://www.w3.org/2000/svg">
<rect x="3.5" y="9.50049" width="17" height="5" rx="1.5" stroke="#4D4D4D"/>
<path d="M10.5 4.25049H10.25V4.50049V6.00049V6.25049H10.5H12C13.1129 6.25049 14 7.13756 14 8.25049V11.0005H12H11.75V11.2505V12.7505V13.0005H12H14V17.2505C14 18.3634 13.1129 19.2505 12 19.2505H10.5H10.25V19.5005V21.0005V21.2505H10.5H12C13.1957 21.2505 14.2678 20.7071 15 19.8734C15.7322 20.7071 16.8043 21.2505 18 21.2505H19.5H19.75V21.0005V19.5005V19.2505H19.5H18C16.8871 19.2505 16 18.3634 16 17.2505V13.0005H18H18.25V12.7505V11.2505V11.0005H18H16V8.25049C16 7.13756 16.8871 6.25049 18 6.25049H19.5H19.75V6.00049V4.50049V4.25049H19.5H18C16.8043 4.25049 15.7322 4.79392 15 5.62755C14.2678 4.79392 13.1957 4.25049 12 4.25049H10.5Z" fill="#BCBCBC" stroke="white" stroke-width="0.5"/>
</svg>
