<svg width="24" height="24" viewBox="0 0 24 24" fill="none" xmlns="http://www.w3.org/2000/svg">
<rect x="3.5" y="7.5" width="17" height="9" rx="1.5" stroke="white"/>
<path d="M10.5 3.5H10.25V3.75V5.25V5.5H10.5H12C13.1129 5.5 14 6.38707 14 7.5V10.25H12H11.75V10.5V12V12.25H12H14V16.5C14 17.6129 13.1129 18.5 12 18.5H10.5H10.25V18.75V20.25V20.5H10.5H12C13.1957 20.5 14.2678 19.9566 15 19.1229C15.7322 19.9566 16.8043 20.5 18 20.5H19.5H19.75V20.25V18.75V18.5H19.5H18C16.8871 18.5 16 17.6129 16 16.5V12.25H18H18.25V12V10.5V10.25H18H16V7.5C16 6.38707 16.8871 5.5 18 5.5H19.5H19.75V5.25V3.75V3.5H19.5H18C16.8043 3.5 15.7322 4.04343 15 4.87706C14.2678 4.04343 13.1957 3.5 12 3.5H10.5Z" fill="white" stroke="#3758F9" stroke-width="0.5"/>
</svg>
