<svg width="20" height="20" viewBox="0 0 20 20" fill="none" xmlns="http://www.w3.org/2000/svg">
<path d="M0 10L4 6V9H12V11H4V14M2 16C3.25929 17.6791 5.01497 18.9193 7.01832 19.5451C9.02168 20.1709 11.1712 20.1505 13.1623 19.4868C15.1534 18.8231 16.8852 17.5498 18.1124 15.8471C19.3396 14.1444 20 12.0988 20 10C20 7.90118 19.3396 5.85555 18.1124 4.1529C16.8852 2.45024 15.1534 1.17687 13.1623 0.513167C11.1712 -0.15054 9.02168 -0.170937 7.01832 0.454865C5.01497 1.08067 3.25929 2.32094 2 4H4.73C5.88468 2.98166 7.30869 2.31814 8.83113 2.08906C10.3536 1.85997 11.9098 2.07506 13.313 2.7085C14.7162 3.34194 15.9069 4.36683 16.7421 5.66019C17.5773 6.95354 18.0215 8.46042 18.0215 10C18.0215 11.5396 17.5773 13.0465 16.7421 14.3398C15.9069 15.6332 14.7162 16.6581 13.313 17.2915C11.9098 17.9249 10.3536 18.14 8.83113 17.9109C7.30869 17.6819 5.88468 17.0183 4.73 16H2Z" fill="white"/>
</svg>
