<svg width="24" height="24" viewBox="0 0 24 24" fill="none" xmlns="http://www.w3.org/2000/svg">
<path d="M12 22.5007C6.21 22.5007 1.5 17.7907 1.5 12.0007C1.5 6.21073 6.21 1.50073 12 1.50073C17.79 1.50073 22.5 6.21073 22.5 12.0007C22.5 17.7907 17.79 22.5007 12 22.5007ZM12 3.00073C7.035 3.00073 3 7.03573 3 12.0007C3 16.9657 7.035 21.0007 12 21.0007C16.965 21.0007 21 16.9657 21 12.0007C21 7.03573 16.965 3.00073 12 3.00073Z" fill="#4D4D4D"/>
<path d="M15 15.7507C14.865 15.7507 14.73 15.7207 14.61 15.6457L10.86 13.3957C10.749 13.329 10.6573 13.2343 10.5942 13.1212C10.531 13.008 10.4986 12.8803 10.5 12.7507V6.75073C10.5 6.33073 10.83 6.00073 11.25 6.00073C11.67 6.00073 12 6.33073 12 6.75073V12.3307L15.39 14.3557C15.5297 14.4413 15.6376 14.5701 15.6975 14.7225C15.7573 14.875 15.7658 15.0428 15.7218 15.2005C15.6777 15.3582 15.5833 15.4973 15.4531 15.5965C15.3229 15.6958 15.1638 15.75 15 15.7507Z" fill="#BCBCBC"/>
</svg>
