<svg width="22" height="21" viewBox="0 0 22 21" fill="none" xmlns="http://www.w3.org/2000/svg">
<path fill-rule="evenodd" clip-rule="evenodd" d="M10.0785 0.894287C7.573 0.894287 5.54188 2.92541 5.54188 5.43092V5.50259H2.70525C1.7268 5.50259 0.933594 6.29578 0.933594 7.27425V14.6475C0.933594 17.6621 3.37736 20.1058 6.39189 20.1058H15.6085C18.623 20.1058 21.0668 17.6621 21.0668 14.6475V7.27425C21.0668 6.29578 20.2736 5.50259 19.2951 5.50259H16.4585V5.43092C16.4585 2.92541 14.4273 0.894287 11.9218 0.894287H10.0785ZM14.7585 7.20259V8.1959C14.7585 8.66534 15.139 9.0459 15.6085 9.0459C16.0779 9.0459 16.4585 8.66534 16.4585 8.1959V7.20259H19.2951C19.3347 7.20259 19.3668 7.23467 19.3668 7.27425V14.6475C19.3668 16.7232 17.6841 18.4058 15.6085 18.4058H6.39189C4.31624 18.4058 2.63359 16.7232 2.63359 14.6475V7.27425C2.63359 7.23467 2.66568 7.20259 2.70525 7.20259H5.54188V8.1959C5.54188 8.66534 5.92244 9.0459 6.39188 9.0459C6.86132 9.0459 7.24188 8.66534 7.24188 8.1959V7.20259H14.7585ZM14.7585 5.50259V5.43092C14.7585 3.86429 13.4885 2.59429 11.9218 2.59429H10.0785C8.51189 2.59429 7.24188 3.86429 7.24188 5.43092V5.50259H14.7585Z" fill="white"/>
</svg>
