<svg width="30" height="29" viewBox="0 0 30 29" fill="none" xmlns="http://www.w3.org/2000/svg">
<path d="M28.625 10.1948C27.7807 9.76691 26.7666 9.85609 26.01 10.4247L23.7188 12.126C23.3939 8.9343 20.7082 6.50506 17.5 6.50101H17.3938L12.2413 1.34974C11.5401 0.643631 10.5852 0.247889 9.59004 0.250995H1.24998C0.559629 0.250995 0 0.810682 0 1.50103C0 2.19139 0.559629 2.75101 1.24998 2.75101H9.58998C9.92133 2.75189 10.2389 2.88349 10.4738 3.11728L13.8575 6.50101H6.25002C2.79996 6.50518 0.00416016 9.30098 0 12.751V22.7511C0.00416016 26.2011 2.79996 28.9969 6.25002 29.001H17.5C20.7083 28.997 23.3939 26.5677 23.7188 23.376L26.0063 25.081C27.1108 25.9094 28.6778 25.6856 29.5062 24.5811C29.8308 24.1483 30.0062 23.622 30.0062 23.0811V12.4298C30.0095 11.4824 29.4738 10.6156 28.625 10.1948ZM21.25 22.751C21.25 24.8221 19.5711 26.501 17.5 26.501H6.25002C4.17897 26.501 2.50002 24.8221 2.50002 22.751V12.751C2.50002 10.68 4.17897 9.00103 6.25002 9.00103H17.5C19.5711 9.00103 21.25 10.68 21.25 12.751V22.751ZM27.5 23.0723L23.75 20.2773V15.2248L27.5 12.4298V23.0723Z" fill="#B0B0B0"/>
</svg>
