<svg width="167" height="30" viewBox="0 0 1463 263" fill="none" xmlns="http://www.w3.org/2000/svg">
<path d="M233.082 0H29.0959C13.0266 0 0 13.0397 0 29.1254V233.319C0 249.404 13.0266 262.444 29.0959 262.444H233.082C249.151 262.444 262.177 249.404 262.177 233.319V29.1254C262.177 13.0397 249.151 0 233.082 0Z" fill="#3758F9"/>
<path fill-rule="evenodd" clip-rule="evenodd" d="M125.288 116.136L47.8137 209.856L48.7095 212.12L91.1669 262.113L201.08 262.445C220.292 258.74 230.524 247.259 233.762 229.726L253.623 111.5L220.5 55V49.5L156.761 171.335L125.288 116.136Z" fill="#1634C5"/>
<path fill-rule="evenodd" clip-rule="evenodd" d="M183.449 262.36L229.492 262.444C249.709 262.94 263.178 250.151 262.178 229.725V98.9999L221.5 46.9999L213 63.9999L139.583 211.979L183.449 262.36Z" fill="#07209A"/>
<path d="M218.5 52.4998L166.802 204.329C164.913 208.515 164.554 214.062 158.894 214.062H143.689C139.437 214.062 138.388 209.984 137.59 206.757L121.047 131.164C120.002 127.651 118.507 128.809 117.27 130.871L74.8433 210.333C74.0661 212.555 72.5955 213.709 70.5951 214.062H52.3825C49.8768 213.772 48.2842 212.451 47.8137 209.856V115.609C47.8137 112.658 49.3784 110.251 52.8112 110.251H69.8459C73.188 110.251 74.798 112.532 74.8014 115.424L74.8712 155.134L115.848 86.6122C116.83 84.3517 118.702 82.9353 121.828 82.705L131.171 82.7016C133.635 83.183 135.015 84.4249 135.451 86.3366L153.308 146.36C154.98 152.071 160.982 152.127 164.069 147.229L218.5 52.4998Z" fill="#FEFEFE"/>
<path fill-rule="evenodd" clip-rule="evenodd" d="M209.31 56.3355C209.621 56.4855 210.112 56.3111 210.44 56.2483L216.563 55.0726C217.807 54.8319 217.538 54.7515 217.838 55.3411C217.925 55.5085 217.995 55.6448 218.082 55.8122C218.242 56.1297 218.392 56.4225 218.556 56.7365L221.156 61.8194C221.292 62.081 221.309 62.1893 221.553 62.3079C221.828 62.4439 222.166 62.3253 222.299 62.0497C222.379 61.8822 222.358 61.6727 222.362 61.5192L222.393 60.4413C222.396 60.3576 222.39 60.2844 222.39 60.1903L222.49 55.6586C222.525 55.1214 222.511 54.1064 222.532 53.5134L222.56 52.2052C222.574 51.3679 222.637 50.0352 222.626 49.2607L222.7 45.5279C222.675 45.2942 222.56 45.1512 222.348 45.0466C221.912 44.8338 221.456 45.399 221.013 45.7409C220.874 45.849 220.745 45.9641 220.598 46.0757L215.231 50.4677C214.569 50.984 213.789 51.6818 213.154 52.1667C213.005 52.2818 212.889 52.3864 212.74 52.5016C212.105 52.983 211.321 53.6947 210.68 54.1865C210.596 54.2458 210.554 54.2945 210.481 54.3538C210.192 54.598 209.185 55.3202 209.042 55.6167C208.948 55.8086 209 56.182 209.31 56.3355Z" fill="#FEFEFE"/>
<path d="M565.736 216.418C551.27 216.418 538.981 213.879 528.872 208.802C518.757 203.724 511.717 195.964 507.75 185.528C503.785 175.089 503.596 162.065 507.18 146.455C510.542 132.161 515.548 119.843 522.195 109.501C528.839 99.1556 537.823 91.1658 549.143 85.5216C560.463 79.8807 574.576 77.0585 591.485 77.0585C612.151 77.0585 626.72 82.4663 635.182 93.2816C643.649 104.094 645.786 118.247 641.589 135.737L635.91 159.996H539.247C538.794 170.718 541.477 178.051 547.296 182C553.114 185.951 564.194 187.924 580.541 187.924C587.68 187.924 595.116 187.268 602.852 185.951C610.59 184.635 617.301 182.943 622.989 180.874L616.675 207.955C609.842 210.774 602.086 212.89 593.409 214.303C584.731 215.712 575.508 216.418 565.736 216.418ZM544.906 136.583H608.314L609.908 129.249C611.792 121.536 611.007 115.472 607.545 111.054C604.087 106.632 597.003 104.423 586.292 104.423C573.707 104.423 564.344 106.962 558.2 112.04C552.062 117.118 547.632 125.298 544.906 136.583ZM727.498 216.418C718.104 216.418 710.156 215.052 703.646 212.327C697.142 209.601 691.783 205.886 687.582 201.185C674.984 211.317 662.385 215.219 649.787 213.596C655.648 188.86 681.85 64.6007 690.431 52.0761C701.718 35.5799 716.221 26.8901 732.886 23.4583L717.765 87.2142C730.337 80.4438 744.227 77.0585 759.445 77.0585C771.094 77.0585 780.993 79.5042 789.135 84.3955C797.28 89.2833 802.965 96.76 806.19 106.822C809.412 116.881 809.229 129.812 805.641 145.609C800.152 169.682 790.879 187.501 777.815 199.069C764.75 210.634 747.978 216.418 727.498 216.418ZM723.407 188.49C735.619 188.49 745.102 184.915 751.856 177.769C758.609 170.622 763.668 159.903 767.03 145.609C770.598 130.752 770.675 120.266 767.257 114.156C763.842 108.042 755.74 104.986 742.965 104.986C730.567 104.986 719.965 108.278 711.155 114.862L696.656 176.359C699.375 180.307 703.056 183.316 707.7 185.385C712.349 187.454 717.582 188.49 723.407 188.49ZM816.342 213.596C821.438 191.985 835.767 115.319 846.136 101.861C856.62 88.2604 869.139 79.0575 883.095 76.5753L881.651 92.5752C888.141 88.437 895.887 84.8187 904.887 81.7133C913.894 78.6114 922.994 77.0585 932.201 77.0585C966.018 77.0585 978.933 93.9846 970.951 127.837C967.586 142.13 960.26 187.271 951.773 196.014C941.125 207.009 927.731 212.06 912.722 213.596L932.574 129.812C934.677 120.786 934.461 114.389 931.925 110.631C929.388 106.869 923.424 104.986 914.027 104.986C907.077 104.986 900.377 106.303 893.923 108.938C888.344 111.214 883.315 113.986 878.835 117.241C871.659 122.476 868.816 182.523 854.59 196.614C844.688 206.369 831.613 211.564 816.342 213.596ZM1046.23 216.418C1031.77 216.418 1019.48 213.879 1009.37 208.802C999.254 203.724 992.214 195.964 988.246 185.528C984.282 175.089 984.092 162.065 987.677 146.455C991.039 132.161 996.045 119.843 1002.69 109.501C1009.34 99.1556 1018.32 91.1658 1029.64 85.5216C1040.96 79.8807 1055.07 77.0585 1071.98 77.0585C1092.65 77.0585 1107.22 82.4663 1115.68 93.2816C1124.15 104.094 1126.28 118.247 1122.09 135.737L1116.41 159.996H1019.74C1019.29 170.718 1021.97 178.051 1027.79 182C1033.61 185.951 1044.69 187.924 1061.04 187.924C1068.18 187.924 1075.61 187.268 1083.35 185.951C1091.09 184.635 1097.8 182.943 1103.49 180.874L1097.17 207.955C1090.34 210.774 1082.58 212.89 1073.91 214.303C1065.23 215.712 1056 216.418 1046.23 216.418ZM1025.4 136.583H1088.81L1090.4 129.249C1092.29 121.536 1091.5 115.472 1088.04 111.054C1084.58 106.632 1077.5 104.423 1066.79 104.423C1054.2 104.423 1044.84 106.962 1038.7 112.04C1032.56 117.118 1028.13 125.298 1025.4 136.583ZM1199.26 216.418C1184.79 216.418 1172.5 213.879 1162.39 208.802C1152.28 203.724 1145.24 195.964 1141.27 185.528C1137.31 175.089 1137.12 162.065 1140.7 146.455C1144.06 132.161 1149.07 119.843 1155.72 109.501C1162.36 99.1556 1171.34 91.1658 1182.66 85.5216C1193.98 79.8807 1208.1 77.0585 1225.01 77.0585C1245.67 77.0585 1260.24 82.4663 1268.7 93.2816C1277.17 104.094 1279.31 118.247 1275.11 135.737L1269.43 159.996H1172.77C1172.32 170.718 1175 178.051 1180.82 182C1186.64 185.951 1197.72 187.924 1214.06 187.924C1221.2 187.924 1228.64 187.268 1236.37 185.951C1244.11 184.635 1250.82 182.943 1256.51 180.874L1250.2 207.955C1243.36 210.774 1235.61 212.89 1226.93 214.303C1218.25 215.712 1209.03 216.418 1199.26 216.418ZM1178.43 136.583H1241.84L1243.43 129.249C1245.31 121.536 1244.53 115.472 1241.07 111.054C1237.61 106.632 1230.53 104.423 1219.81 104.423C1207.23 104.423 1197.87 106.962 1191.72 112.04C1185.58 117.118 1181.15 125.298 1178.43 136.583ZM1338.48 216.418C1327.39 216.418 1317.78 214.019 1309.63 209.225C1301.48 204.427 1295.8 196.953 1292.57 186.798C1289.35 176.642 1289.63 163.571 1293.41 147.585C1299.09 123.698 1308.92 105.976 1322.93 94.4077C1336.93 82.8427 1353.89 77.0585 1373.8 77.0585C1388.84 77.0585 1400.77 80.4438 1409.62 87.2142C1412.44 75.316 1413.4 61.6485 1421.12 51.8594C1433.38 36.2994 1447.55 27.863 1462.79 23.4583L1417.73 213.596C1406.15 212.353 1395.27 208.792 1385.64 201.185C1378.56 206.263 1371.28 210.071 1363.79 212.61C1356.31 215.149 1347.87 216.418 1338.48 216.418ZM1355.52 188.49C1367.35 188.49 1378.35 184.445 1388.51 176.359L1402.72 115.425C1396.88 108.465 1388.32 104.986 1377.05 104.986C1365.97 104.986 1356.58 108.418 1348.89 115.285C1341.21 122.149 1335.58 133.104 1332.01 148.148C1328.65 162.442 1328.76 172.737 1332.36 179.038C1335.97 185.338 1343.68 188.49 1355.52 188.49Z" fill="#1634C5"/>
<path d="M324.526 216.185V109.078C324.526 103.177 329.036 97.749 335.19 93.3509C343.685 87.2802 355.321 83.1653 362.571 82.4689L359.965 169.355L397.903 104.23C406.091 90.1824 418.507 85.0378 434.151 82.4689L436.617 169.355L467.096 107.225C476.46 88.1364 497.143 82.169 517.008 82.4689L446.832 216.185H413.297L408.115 138.042L361.442 216.185H324.526Z" fill="#07209A"/>
</svg>
