<svg width="6" height="10" viewBox="0 0 6 10" fill="none" xmlns="http://www.w3.org/2000/svg">
<path d="M0.574219 9.55C0.449219 9.425 0.386719 9.277 0.386719 9.106C0.386719 8.93533 0.449219 8.7875 0.574219 8.6625L4.23672 5L0.561719 1.325C0.445052 1.20833 0.386719 1.0625 0.386719 0.8875C0.386719 0.7125 0.449219 0.5625 0.574219 0.4375C0.699219 0.3125 0.847219 0.25 1.01822 0.25C1.18889 0.25 1.33672 0.3125 1.46172 0.4375L5.66172 4.65C5.71172 4.7 5.74722 4.75417 5.76822 4.8125C5.78889 4.87083 5.79922 4.93333 5.79922 5C5.79922 5.06667 5.78889 5.12917 5.76822 5.1875C5.74722 5.24583 5.71172 5.3 5.66172 5.35L1.44922 9.5625C1.33255 9.67917 1.18889 9.7375 1.01822 9.7375C0.847219 9.7375 0.699219 9.675 0.574219 9.55Z" fill="#1F3259"/>
</svg>
