<svg width="current" height="current" viewBox="0 0 18 17" fill="none" xmlns="http://www.w3.org/2000/svg">
<path d="M9.9 11.3684H13.5V8.74494L18 12.6802L13.5 16.6154V13.9919H9.9V11.3684ZM16.2 0H1.8C1.32261 0 0.864773 0.184268 0.527208 0.512267C0.189642 0.840265 0 1.28513 0 1.74899V12.2429C0 12.7068 0.189642 13.1516 0.527208 13.4796C0.864773 13.8076 1.32261 13.9919 1.8 13.9919H8.415C8.20498 13.4314 8.09835 12.8394 8.1 12.2429C8.10128 11.1162 8.47576 10.0199 9.16805 9.11606C9.86033 8.21223 10.8337 7.54893 11.944 7.22428C13.0544 6.89964 14.2428 6.93089 15.3334 7.31342C16.4241 7.69595 17.359 8.40944 18 9.34834V1.74899C18 1.28513 17.8104 0.840265 17.4728 0.512267C17.1352 0.184268 16.6774 0 16.2 0ZM16.2 3.49798L9 7.87044L1.8 3.49798V1.74899L9 6.12146L16.2 1.74899V3.49798Z" fill="#202020"/>
</svg>
