<svg width="current" height="current" viewBox="0 0 24 25" fill="current" xmlns="http://www.w3.org/2000/svg">
<path d="M4.38226 0C1.95468 0 0 1.95508 0 4.38315V19.6218C0 22.0499 1.95468 24.0049 4.38226 24.0049H12.6398V14.6205H10.1588V11.2418H12.6398V8.35522C12.6398 6.08736 14.1057 4.00508 17.4825 4.00508C18.8497 4.00508 19.8608 4.13636 19.8608 4.13636L19.7813 7.29152C19.7813 7.29152 18.7501 7.28177 17.625 7.28177C16.4073 7.28177 16.212 7.84296 16.212 8.77459V11.2418H19.878L19.7183 14.6205H16.212V24.005H19.6177C22.0453 24.005 24 22.0499 24 19.6218V4.38318C24 1.9551 22.0453 2.40049e-05 19.6177 2.40049e-05H4.38223L4.38226 0Z" fill="#202020"/>
</svg>
