<svg width="24" height="25" viewBox="0 0 24 25" fill="none" xmlns="http://www.w3.org/2000/svg">
<path d="M11.9968 7.99994C9.79333 7.99994 7.99515 9.79852 7.99515 12.0025C7.99515 14.2064 9.79333 16.005 11.9968 16.005C14.2002 16.005 15.9984 14.2064 15.9984 12.0025C15.9984 9.79852 14.2002 7.99994 11.9968 7.99994ZM23.9987 12.0025C23.9987 10.345 24.0137 8.70255 23.9206 7.0481C23.8275 5.12641 23.3893 3.4209 21.9843 2.01567C20.5764 0.607427 18.8743 0.172044 16.953 0.0789618C15.2959 -0.0141201 13.6539 0.000893119 11.9998 0.000893119C10.3427 0.000893119 8.70061 -0.0141201 7.04652 0.0789618C5.12526 0.172044 3.42014 0.61043 2.01522 2.01567C0.607291 3.42391 0.172005 5.12641 0.0789442 7.0481C-0.014117 8.70556 0.000892919 10.348 0.000892919 12.0025C0.000892919 13.6569 -0.014117 15.3024 0.0789442 16.9568C0.172005 18.8785 0.610293 20.584 2.01522 21.9893C3.42314 23.3975 5.12526 23.8329 7.04652 23.926C8.70361 24.019 10.3457 24.004 11.9998 24.004C13.6569 24.004 15.2989 24.019 16.953 23.926C18.8743 23.8329 20.5794 23.3945 21.9843 21.9893C23.3923 20.581 23.8275 18.8785 23.9206 16.9568C24.0167 15.3024 23.9987 13.6599 23.9987 12.0025ZM11.9968 18.1609C8.58954 18.1609 5.83973 15.4105 5.83973 12.0025C5.83973 8.59446 8.58954 5.84404 11.9968 5.84404C15.404 5.84404 18.1538 8.59446 18.1538 12.0025C18.1538 15.4105 15.404 18.1609 11.9968 18.1609ZM18.406 7.03008C17.6105 7.03008 16.968 6.38752 16.968 5.59182C16.968 4.79612 17.6105 4.15355 18.406 4.15355C19.2015 4.15355 19.8439 4.79612 19.8439 5.59182C19.8442 5.78076 19.8071 5.96789 19.735 6.1425C19.6628 6.3171 19.5569 6.47575 19.4233 6.60935C19.2897 6.74296 19.1311 6.84889 18.9565 6.92108C18.782 6.99328 18.5949 7.03032 18.406 7.03008Z" fill="#202020"/>
</svg>
