<svg width="24" height="25" viewBox="0 0 24 25" fill="none" xmlns="http://www.w3.org/2000/svg">
<path d="M20 7.53279C19.4167 7.79326 18.7865 7.97038 18.1094 8.06415C18.8177 7.6474 19.3021 7.0379 19.5625 6.23565C18.8854 6.63157 18.1875 6.89725 17.4688 7.03269C16.8333 6.34505 16.0365 6.00123 15.0781 6.00123C14.1719 6.00123 13.3984 6.32161 12.7578 6.96236C12.1172 7.60312 11.7969 8.37672 11.7969 9.28315C11.7969 9.5853 11.8229 9.83535 11.875 10.0333C10.5312 9.96037 9.27083 9.62176 8.09375 9.01747C6.91667 8.41318 5.91667 7.60573 5.09375 6.5951C4.79167 7.11604 4.64062 7.66824 4.64062 8.25169C4.64062 9.43944 5.11458 10.3511 6.0625 10.9866C5.57292 10.9762 5.05208 10.8408 4.5 10.5803V10.6116C4.5 11.393 4.76042 12.0884 5.28125 12.6979C5.80208 13.3074 6.44271 13.6851 7.20312 13.831C6.90104 13.9143 6.63542 13.956 6.40625 13.956C6.27083 13.956 6.06771 13.9351 5.79688 13.8935C6.01562 14.5499 6.40365 15.0916 6.96094 15.5188C7.51823 15.946 8.15104 16.1648 8.85938 16.1752C7.65104 17.1129 6.29167 17.5817 4.78125 17.5817C4.51042 17.5817 4.25 17.5661 4 17.5348C5.54167 18.5142 7.21875 19.0039 9.03125 19.0039C10.1979 19.0039 11.2917 18.819 12.3125 18.4491C13.3333 18.0792 14.2083 17.5843 14.9375 16.9644C15.6667 16.3445 16.2943 15.6308 16.8203 14.8234C17.3464 14.0159 17.737 13.172 17.9922 12.2916C18.2474 11.4112 18.375 10.5334 18.375 9.65823C18.375 9.47069 18.3698 9.33004 18.3594 9.23627C19.0156 8.76742 19.5625 8.1996 20 7.53279ZM24 4.50092V19.504C24 20.7438 23.5599 21.8039 22.6797 22.6843C21.7995 23.5647 20.7396 24.0049 19.5 24.0049H4.5C3.26042 24.0049 2.20052 23.5647 1.32031 22.6843C0.440104 21.8039 0 20.7438 0 19.504V4.50092C0 3.26109 0.440104 2.20097 1.32031 1.32058C2.20052 0.440194 3.26042 0 4.5 0H19.5C20.7396 0 21.7995 0.440194 22.6797 1.32058C23.5599 2.20097 24 3.26109 24 4.50092Z" fill="#202020"/>
</svg>
