<svg width="current" height="current" viewBox="0 0 14 13" fill="current" xmlns="http://www.w3.org/2000/svg">
<path d="M8.09609 10.6173C8.28245 10.5097 8.41792 10.3316 8.4727 10.1222C8.52748 9.91274 8.49707 9.68912 8.38818 9.50052L7.9776 8.7894C7.8687 8.6008 7.69024 8.46266 7.48146 8.40538C7.27269 8.3481 7.0507 8.37636 6.86434 8.48395C5.459 9.29528 4.63783 7.87304 4.22725 7.16192C3.81666 6.45081 2.99549 5.02857 4.40084 4.21723C4.5872 4.10964 4.72266 3.93153 4.77744 3.7221C4.83222 3.51266 4.80182 3.28904 4.69292 3.10044L4.28234 2.38932C4.17344 2.20072 3.99498 2.06258 3.7862 2.0053C3.57743 1.94802 3.35544 1.97628 3.16908 2.08387C1.4124 3.09804 0.768983 4.41766 2.8219 7.97326C4.87483 11.5289 6.33942 11.6315 8.09609 10.6173Z" stroke="current" stroke-width="0.764848" stroke-linecap="round" stroke-linejoin="round"/>
<path d="M11.8365 7.68082C12.2098 6.25061 12.0018 4.72394 11.2583 3.43621C10.5148 2.14849 9.29658 1.20505 7.8713 0.813177M9.68515 7.09053C9.79635 6.66577 9.82303 6.22226 9.76368 5.78534C9.70432 5.34842 9.56009 4.92665 9.33923 4.54413C9.11837 4.16161 8.82521 3.82582 8.47648 3.55596C8.12776 3.28611 7.73031 3.08746 7.30684 2.97137M7.54535 6.49594C7.61997 6.20975 7.57833 5.90429 7.42956 5.64663C7.28079 5.38897 7.03707 5.20017 6.7519 5.1217" stroke="current" stroke-width="0.764848" stroke-linecap="round" stroke-linejoin="round"/>
</svg>
