<svg width="current" height="current" viewBox="0 0 10 10" fill="current" xmlns="http://www.w3.org/2000/svg">
<g clip-path="url(#clip0_267_65637)">
<path fill-rule="evenodd" clip-rule="evenodd" d="M0.313477 5.3818C0.313477 7.66334 1.97052 9.56054 4.13771 9.94526V6.63079H2.99044V5.35617H4.13771V4.33625C4.13771 3.18898 4.87694 2.55186 5.92249 2.55186C6.25366 2.55186 6.61085 2.60272 6.94203 2.65359V3.82648H6.35577C5.79476 3.82648 5.66741 4.1068 5.66741 4.46398V5.35617H6.89117L6.68733 6.63079H5.66741V9.94526C7.8346 9.56054 9.49165 7.66372 9.49165 5.3818C9.49165 2.84365 7.42656 0.76709 4.90256 0.76709C2.37856 0.76709 0.313477 2.84365 0.313477 5.3818Z" fill="current"/>
</g>
<defs>
<clipPath id="clip0_267_65637">
<rect width="9.17817" height="9.17817" fill="white" transform="translate(0.313477 0.76709)"/>
</clipPath>
</defs>
</svg>
