<svg width="current" height="current" viewBox="0 0 11 10" fill="current" xmlns="http://www.w3.org/2000/svg">
<path d="M10.1176 9.2283H8.56667V4.84152V4.51745L8.31648 4.72343L5.49358 7.04741L2.67068 4.72343L2.42049 4.51745V4.84152V9.22879H0.869568C0.795854 9.22879 0.722466 9.21287 0.653461 9.18149L0.590137 9.32073L0.65346 9.18149C0.584405 9.15008 0.520692 9.10361 0.466378 9.04397C0.412037 8.9843 0.368277 8.91271 0.33822 8.83298C0.308159 8.75323 0.29257 8.66735 0.292618 8.58033V8.58025V1.77015C0.292618 1.33029 0.520131 0.992919 0.818581 0.829107C1.11531 0.666241 1.48512 0.671896 1.79449 0.926629L2.4762 1.4882L2.47626 1.48825L5.39638 3.89129L5.4936 3.9713L5.59081 3.89128L8.51086 1.4873L8.51093 1.48725L9.1926 0.92669L9.19266 0.926639C9.50179 0.672158 9.87162 0.666463 10.1684 0.829305C10.467 0.993076 10.6945 1.33033 10.6945 1.77015V8.58025C10.6945 8.95207 10.4234 9.2283 10.1176 9.2283Z" fill="current" stroke="current" stroke-width="0.305939"/>
</svg>
