<svg width="current" height="current" viewBox="0 0 10 10" fill="none" xmlns="http://www.w3.org/2000/svg">
<g clip-path="url(#clip0_267_65643)">
<path d="M5.08518 0.76709C3.83982 0.76709 3.68321 0.772826 3.1939 0.794624C2.70459 0.81757 2.37131 0.894437 2.07933 1.00802C1.77306 1.12321 1.49565 1.30391 1.26649 1.53748C1.03306 1.76676 0.852383 2.04414 0.737021 2.35032C0.623441 2.64173 0.546 2.97559 0.523628 3.46318C0.50183 3.95364 0.496094 4.10966 0.496094 5.35675C0.496094 6.60269 0.50183 6.75871 0.523628 7.24803C0.546574 7.73676 0.623441 8.07004 0.737021 8.36203C0.854616 8.66376 1.01122 8.9196 1.26649 9.17487C1.52118 9.43013 1.77702 9.58731 2.07875 9.70433C2.37131 9.81791 2.70402 9.89535 3.19275 9.91773C3.68264 9.93952 3.83867 9.94526 5.08518 9.94526C6.33169 9.94526 6.48714 9.93952 6.97703 9.91773C7.46519 9.89478 7.79962 9.81791 8.0916 9.70433C8.39767 9.58908 8.67489 9.40838 8.90387 9.17487C9.15914 8.9196 9.31574 8.66376 9.43334 8.36203C9.54634 8.07004 9.62378 7.73676 9.64673 7.24803C9.66853 6.75871 9.67426 6.60269 9.67426 5.35617C9.67426 4.10966 9.66853 3.95364 9.64673 3.46375C9.62378 2.97559 9.54634 2.64173 9.43334 2.35032C9.31799 2.04413 9.13731 1.76675 8.90387 1.53748C8.67478 1.30383 8.39735 1.12311 8.09103 1.00802C7.79848 0.894437 7.46462 0.816996 6.97646 0.794624C6.48657 0.772826 6.33112 0.76709 5.08403 0.76709H5.08575H5.08518ZM4.67388 1.59427H5.08575C6.31104 1.59427 6.45617 1.59829 6.93974 1.62066C7.38718 1.64074 7.6304 1.71588 7.79217 1.77841C8.00613 1.86159 8.15929 1.9614 8.31991 2.12202C8.48053 2.28264 8.57977 2.43522 8.66294 2.64976C8.72604 2.81095 8.80062 3.05418 8.82069 3.50161C8.84307 3.98519 8.84766 4.13032 8.84766 5.35503C8.84766 6.57974 8.84307 6.72544 8.82069 7.20902C8.80062 7.65645 8.72547 7.8991 8.66294 8.06087C8.58937 8.26012 8.47194 8.44029 8.31934 8.58804C8.15872 8.74866 8.00613 8.8479 7.79159 8.93107C7.63097 8.99417 7.38775 9.06874 6.93974 9.0894C6.45617 9.11119 6.31104 9.11636 5.08575 9.11636C3.86047 9.11636 3.71476 9.11119 3.23119 9.0894C2.78375 9.06874 2.5411 8.99417 2.37934 8.93107C2.18 8.8576 1.99967 8.74038 1.85159 8.58804C1.69886 8.44006 1.58125 8.25972 1.50741 8.06029C1.44489 7.8991 1.36974 7.65588 1.34966 7.20844C1.32787 6.72487 1.32328 6.57974 1.32328 5.35388C1.32328 4.12859 1.32787 3.98404 1.34966 3.50046C1.37031 3.05303 1.44489 2.80981 1.50799 2.64804C1.59116 2.43407 1.69098 2.28091 1.85159 2.1203C2.01221 1.95968 2.1648 1.86044 2.37934 1.77726C2.5411 1.71416 2.78375 1.63959 3.23119 1.61894C3.65453 1.59944 3.81859 1.5937 4.67388 1.59313V1.59427ZM7.53518 2.35606C7.46286 2.35606 7.39125 2.3703 7.32444 2.39798C7.25762 2.42565 7.19692 2.46622 7.14578 2.51735C7.09464 2.56849 7.05408 2.6292 7.0264 2.69601C6.99873 2.76282 6.98449 2.83443 6.98449 2.90675C6.98449 2.97907 6.99873 3.05068 7.0264 3.11749C7.05408 3.1843 7.09464 3.24501 7.14578 3.29615C7.19692 3.34728 7.25762 3.38785 7.32444 3.41552C7.39125 3.4432 7.46286 3.45744 7.53518 3.45744C7.68123 3.45744 7.8213 3.39942 7.92457 3.29615C8.02785 3.19287 8.08587 3.0528 8.08587 2.90675C8.08587 2.7607 8.02785 2.62063 7.92457 2.51735C7.8213 2.41408 7.68123 2.35606 7.53518 2.35606ZM5.08575 2.99968C4.77316 2.9948 4.46272 3.05216 4.17251 3.16841C3.8823 3.28466 3.61811 3.45748 3.39533 3.67681C3.17255 3.89614 2.99563 4.1576 2.87487 4.44596C2.75411 4.73433 2.69191 5.04383 2.69191 5.35646C2.69191 5.66909 2.75411 5.9786 2.87487 6.26696C2.99563 6.55532 3.17255 6.81678 3.39533 7.03611C3.61811 7.25544 3.8823 7.42826 4.17251 7.54451C4.46272 7.66076 4.77316 7.71812 5.08575 7.71324C5.70444 7.70359 6.29453 7.45104 6.72863 7.01011C7.16274 6.56918 7.40605 5.97523 7.40605 5.35646C7.40605 4.7377 7.16274 4.14375 6.72863 3.70281C6.29453 3.26188 5.70444 3.00933 5.08575 2.99968ZM5.08575 3.82629C5.4915 3.82629 5.88064 3.98747 6.16755 4.27438C6.45445 4.56129 6.61564 4.95042 6.61564 5.35617C6.61564 5.76193 6.45445 6.15106 6.16755 6.43797C5.88064 6.72488 5.4915 6.88606 5.08575 6.88606C4.68 6.88606 4.29087 6.72488 4.00396 6.43797C3.71705 6.15106 3.55587 5.76193 3.55587 5.35617C3.55587 4.95042 3.71705 4.56129 4.00396 4.27438C4.29087 3.98747 4.68 3.82629 5.08575 3.82629Z" fill="current"/>
</g>
<defs>
<clipPath id="clip0_267_65643">
<rect width="9.17817" height="9.17817" fill="current" transform="translate(0.496094 0.76709)"/>
</clipPath>
</defs>
</svg>
