<svg width="current" height="current" viewBox="0 0 11 9" fill="current" xmlns="http://www.w3.org/2000/svg">
<path d="M10.1863 1.41471C9.83695 1.56539 9.45682 1.67384 9.06527 1.71608C9.47179 1.47457 9.77621 1.09302 9.92142 0.643027C9.53996 0.869953 9.12206 1.02908 8.68628 1.11334C8.50414 0.918625 8.28385 0.763505 8.03914 0.657648C7.79443 0.55179 7.53054 0.497463 7.26392 0.498052C6.18516 0.498052 5.31759 1.37247 5.31759 2.44552C5.31759 2.5962 5.33585 2.74689 5.36553 2.89186C3.75025 2.80739 2.30963 2.03571 1.35188 0.854212C1.17736 1.15229 1.08591 1.49168 1.08704 1.83708C1.08704 2.51287 1.43064 3.10876 1.95461 3.45921C1.64583 3.44705 1.34428 3.36218 1.07448 3.21149V3.23547C1.07448 4.1818 1.74343 4.96604 2.63497 5.14641C2.46757 5.18989 2.29537 5.21213 2.12242 5.21262C1.99571 5.21262 1.87584 5.20006 1.75484 5.18294C2.00141 5.95462 2.71944 6.51511 3.57446 6.53338C2.90551 7.05735 2.06762 7.36556 1.15781 7.36556C0.994575 7.36556 0.843891 7.35985 0.6875 7.34159C1.5505 7.89524 2.57447 8.21487 3.6772 8.21487C7.25707 8.21487 9.21595 5.24915 9.21595 2.67497C9.21595 2.5905 9.21595 2.50602 9.21024 2.42155C9.58924 2.14415 9.92142 1.80055 10.1863 1.41471Z" fill="current"/>
</svg>
