<svg  viewBox="0 0 15 14" fill="currentColor" xmlns="http://www.w3.org/2000/svg">
<path d="M7.9974 0.334631C11.6794 0.334631 14.6641 3.3193 14.6641 7.0013C14.6641 10.6833 11.6794 13.668 7.9974 13.668C6.96229 13.6687 5.94127 13.4281 5.01544 12.9652C4.08962 12.5023 3.2845 11.8298 2.66406 11.0013H4.47073C5.24057 11.6801 6.18995 12.1224 7.20492 12.275C8.21989 12.4277 9.25735 12.2842 10.1928 11.8618C11.1283 11.4395 11.922 10.7561 12.4787 9.89384C13.0354 9.03156 13.3315 8.02695 13.3314 7.00056C13.3313 5.97417 13.0351 4.96961 12.4782 4.10742C11.9213 3.24523 11.1275 2.56204 10.192 2.13982C9.25647 1.7176 8.21899 1.5743 7.20404 1.72711C6.18909 1.87992 5.23979 2.32234 4.47006 3.0013H2.66339C3.2839 2.17266 4.08912 1.50016 5.01507 1.03724C5.94102 0.574326 6.96218 0.33375 7.9974 0.334631ZM3.33073 4.33463V6.33463H8.66406V7.66797H3.33073V9.66797L-0.00260544 7.0013L3.33073 4.33463Z" />
</svg>
