<svg width="18" height="21" viewBox="0 0 18 21" fill="current" xmlns="http://www.w3.org/2000/svg">
<path d="M6.42857 4.59375C6.42857 3.1459 7.5817 1.96875 9 1.96875C10.4183 1.96875 11.5714 3.1459 11.5714 4.59375V6.5625H6.42857V4.59375ZM4.5 6.5625H1.92857C0.863839 6.5625 0 7.44434 0 8.53125V17.0625C0 19.2363 1.72768 21 3.85714 21H14.1429C16.2723 21 18 19.2363 18 17.0625V8.53125C18 7.44434 17.1362 6.5625 16.0714 6.5625H13.5V4.59375C13.5 2.05488 11.4871 0 9 0C6.51295 0 4.5 2.05488 4.5 4.59375V6.5625ZM5.46429 10.5C4.92991 10.5 4.5 10.0611 4.5 9.51562C4.5 8.97012 4.92991 8.53125 5.46429 8.53125C5.99866 8.53125 6.42857 8.97012 6.42857 9.51562C6.42857 10.0611 5.99866 10.5 5.46429 10.5ZM13.5 9.51562C13.5 10.0611 13.0701 10.5 12.5357 10.5C12.0013 10.5 11.5714 10.0611 11.5714 9.51562C11.5714 8.97012 12.0013 8.53125 12.5357 8.53125C13.0701 8.53125 13.5 8.97012 13.5 9.51562Z" fill="current"/>
</svg>
