<svg width="21" height="21" viewBox="0 0 21 21" fill="current" xmlns="http://www.w3.org/2000/svg">
<path d="M6.29199 20.9154C5.71908 20.9154 5.2288 20.7115 4.82116 20.3039C4.41283 19.8956 4.20866 19.4049 4.20866 18.832C4.20866 18.2591 4.41283 17.7685 4.82116 17.3602C5.2288 16.9525 5.71908 16.7487 6.29199 16.7487C6.86491 16.7487 7.35519 16.9525 7.76283 17.3602C8.17116 17.7685 8.37533 18.2591 8.37533 18.832C8.37533 19.4049 8.17116 19.8956 7.76283 20.3039C7.35519 20.7115 6.86491 20.9154 6.29199 20.9154ZM16.7087 20.9154C16.1357 20.9154 15.6455 20.7115 15.2378 20.3039C14.8295 19.8956 14.6253 19.4049 14.6253 18.832C14.6253 18.2591 14.8295 17.7685 15.2378 17.3602C15.6455 16.9525 16.1357 16.7487 16.7087 16.7487C17.2816 16.7487 17.7722 16.9525 18.1805 17.3602C18.5882 17.7685 18.792 18.2591 18.792 18.832C18.792 19.4049 18.5882 19.8956 18.1805 20.3039C17.7722 20.7115 17.2816 20.9154 16.7087 20.9154ZM6.29199 15.707C5.51074 15.707 4.92046 15.364 4.52116 14.6779C4.12185 13.9924 4.10449 13.3112 4.46908 12.6341L5.87533 10.082L2.12533 2.16536H1.05762C0.762478 2.16536 0.519423 2.06536 0.32845 1.86536C0.137478 1.66606 0.0419922 1.41884 0.0419922 1.1237C0.0419922 0.828559 0.141992 0.58099 0.341992 0.38099C0.541298 0.181684 0.78852 0.0820312 1.08366 0.0820312H2.77637C2.96734 0.0820312 3.14963 0.134115 3.32324 0.238281C3.49685 0.342448 3.62706 0.490017 3.71387 0.68099L4.41699 2.16536H19.7816C20.2503 2.16536 20.5715 2.33898 20.7451 2.6862C20.9187 3.03342 20.91 3.398 20.7191 3.77995L17.0212 10.4466C16.8302 10.7938 16.5785 11.0629 16.266 11.2539C15.9535 11.4449 15.5975 11.5404 15.1982 11.5404H7.43783L6.29199 13.6237H17.7764C18.0715 13.6237 18.3146 13.7233 18.5055 13.9227C18.6965 14.1227 18.792 14.3702 18.792 14.6654C18.792 14.9605 18.692 15.2077 18.492 15.407C18.2927 15.607 18.0455 15.707 17.7503 15.707H6.29199Z" fill="current"/>
</svg>
