<svg width="20" height="20" viewBox="0 0 20 20" fill="current" xmlns="http://www.w3.org/2000/svg">
<path d="M10 19.875L8.55 18.5208C6.86667 16.941 5.475 15.5781 4.375 14.4323C3.275 13.2864 2.4 12.2576 1.75 11.3458C1.1 10.4347 0.646 9.59721 0.388 8.83332C0.129333 8.06943 0 7.28818 0 6.48957C0 4.85763 0.525 3.49478 1.575 2.40103C2.625 1.30728 3.93333 0.760406 5.5 0.760406C6.36667 0.760406 7.19167 0.951379 7.975 1.33332C8.75833 1.71527 9.43333 2.25346 10 2.94791C10.5667 2.25346 11.2417 1.71527 12.025 1.33332C12.8083 0.951379 13.6333 0.760406 14.5 0.760406C16.0667 0.760406 17.375 1.30728 18.425 2.40103C19.475 3.49478 20 4.85763 20 6.48957C20 7.28818 19.871 8.06943 19.613 8.83332C19.3543 9.59721 18.9 10.4347 18.25 11.3458C17.6 12.2576 16.725 13.2864 15.625 14.4323C14.525 15.5781 13.1333 16.941 11.45 18.5208L10 19.875ZM10 17.0625C11.6 15.5694 12.9167 14.2889 13.95 13.2208C14.9833 12.1535 15.8 11.225 16.4 10.4354C17 9.64513 17.4167 8.94166 17.65 8.32499C17.8833 7.70902 18 7.09721 18 6.48957C18 5.44791 17.6667 4.57985 17 3.88541C16.3333 3.19096 15.5 2.84374 14.5 2.84374C13.7167 2.84374 12.9917 3.0736 12.325 3.53332C11.6583 3.99374 11.2 4.57985 10.95 5.29166H9.05C8.8 4.57985 8.34167 3.99374 7.675 3.53332C7.00833 3.0736 6.28333 2.84374 5.5 2.84374C4.5 2.84374 3.66667 3.19096 3 3.88541C2.33333 4.57985 2 5.44791 2 6.48957C2 7.09721 2.11667 7.70902 2.35 8.32499C2.58333 8.94166 3 9.64513 3.6 10.4354C4.2 11.225 5.01667 12.1535 6.05 13.2208C7.08333 14.2889 8.4 15.5694 10 17.0625Z" fill="current"/>
</svg>
